<?xml version="1.0" encoding="utf-8"?>
<!-- Generator: Adobe Illustrator 26.5.0, SVG Export Plug-In . SVG Version: 6.00 Build 0)  -->
<svg version="1.1" xmlns="http://www.w3.org/2000/svg" xmlns:xlink="http://www.w3.org/1999/xlink" x="0px" y="0px"
	 viewBox="0 0 750 500" style="enable-background:new 0 0 750 500;" xml:space="preserve">
<style type="text/css">
	.st0{fill:#EBEBEB;}
	.st1{fill:#F5F5F5;}
	.st2{fill:#E0E0E0;}
	.st3{display:none;}
	.st4{display:inline;fill:#EBEBEB;}
	.st5{fill:#FFBE9D;}
	.st6{fill:#EB996E;}
	.st7{fill:#263238;}
	.st8{fill:#455A64;}
	.st9{fill:#FFFFFF;}
	.st10{fill:#FF725E;}
	.st11{fill:#9B6E65;}
	.st12{fill:#704C45;}
	.st13{opacity:0.2;}
	.st14{fill:#C78976;}
	.st15{fill:#925B4C;}
	.st16{opacity:0.3;}
</style>
<g id="Background_Complete">
	<g>
		<g>
			<g>
				<g>
					<path class="st0" d="M367.5,51.5c1.9-0.8,3.2-2.7,3.2-4.9c0-3-2.2-5.4-5-5.4c-2.8,0-5,2.4-5,5.3c0,2.3,1.3,4.2,3.2,5
						c-7.7,1.2-7.4,9.5-7.4,9.5l18.2,0.1C374.8,61.1,375.2,52.6,367.5,51.5z"/>
				</g>
			</g>
		</g>
	</g>
	<g>
		<g>
			<g>
				<g>
					<g>
						<g>
							<g>
								<path class="st0" d="M653,155.5c4.1-1.7,7-5.9,7-10.9c0-6.5-4.9-11.8-11-11.9c-6.1,0-11.1,5.2-11.1,11.8c0,5,2.9,9.3,7.1,11
									c-17,2.6-16.3,21.1-16.3,21.1l40.3,0.2C669,176.7,669.9,158,653,155.5z"/>
							</g>
						</g>
					</g>
				</g>
				<g>
					<g>
						<path class="st0" d="M648.9,200.5c-24.4,0-44.3-19.9-44.3-44.3s19.9-44.3,44.3-44.3c24.4,0,44.3,19.9,44.3,44.3
							S673.3,200.5,648.9,200.5z M648.9,113.1c-23.7,0-43.1,19.3-43.1,43.1c0,23.7,19.3,43.1,43.1,43.1s43.1-19.3,43.1-43.1
							C691.9,132.4,672.6,113.1,648.9,113.1z"/>
					</g>
				</g>
				<g>
					<g>
						<g>
							<g>
								<path class="st0" d="M169.9,98.5c3.7-1.6,6.4-5.4,6.4-10c0-5.9-4.5-10.8-10.1-10.8c-5.6,0-10.1,4.8-10.1,10.7
									c0,4.6,2.7,8.5,6.4,10.1c-15.5,2.3-14.8,19.2-14.8,19.2l36.8,0.2C184.5,117.9,185.3,100.9,169.9,98.5z"/>
							</g>
						</g>
					</g>
				</g>
				<g>
					<g>
						<path class="st0" d="M166.1,139.6c-22.3,0-40.5-18.2-40.5-40.5c0-22.3,18.2-40.5,40.5-40.5c22.3,0,40.5,18.2,40.5,40.5
							C206.6,121.5,188.4,139.6,166.1,139.6z M166.1,59.9c-21.6,0-39.2,17.6-39.2,39.2c0,21.6,17.6,39.2,39.2,39.2
							c21.6,0,39.2-17.6,39.2-39.2C205.3,77.5,187.7,59.9,166.1,59.9z"/>
					</g>
				</g>
				<g>
					<g>
						<g>
							<g>
								<g>
									<path class="st0" d="M526.6,88.8c2.9-1.2,5-4.2,5-7.8c0-4.7-3.5-8.4-7.9-8.5c-4.4,0-7.9,3.7-7.9,8.4c0,3.6,2.1,6.6,5,7.9
										c-12.2,1.8-11.6,15.1-11.6,15.1L538,104C538,104,538.6,90.6,526.6,88.8z"/>
								</g>
							</g>
						</g>
					</g>
					<g>
						<g>
							<path class="st0" d="M523.6,121c-17.6,0-31.8-14.3-31.8-31.8c0-17.6,14.3-31.8,31.8-31.8c17.6,0,31.8,14.3,31.8,31.8
								C555.4,106.8,541.1,121,523.6,121z M523.6,58.6c-16.9,0-30.6,13.7-30.6,30.6c0,16.9,13.7,30.6,30.6,30.6
								c16.9,0,30.6-13.7,30.6-30.6C554.1,72.3,540.4,58.6,523.6,58.6z"/>
						</g>
					</g>
				</g>
				<g>
					<g>
						<g>
							<g>
								<path class="st0" d="M411,156.6c2.1-0.9,3.5-3,3.5-5.5c0-3.3-2.5-6-5.6-6c-3.1,0-5.6,2.6-5.6,5.9c0,2.5,1.5,4.7,3.6,5.6
									c-8.6,1.3-8.2,10.6-8.2,10.6l20.3,0.1C419.1,167.3,419.6,157.9,411,156.6z"/>
							</g>
						</g>
					</g>
				</g>
				<g>
					<g>
						<path class="st0" d="M408.9,179.5c-12.4,0-22.5-10.1-22.5-22.5c0-12.4,10.1-22.5,22.5-22.5c12.4,0,22.5,10.1,22.5,22.5
							C431.5,169.4,421.4,179.5,408.9,179.5z M408.9,135.4c-11.9,0-21.5,9.7-21.5,21.5s9.7,21.5,21.5,21.5
							c11.9,0,21.5-9.7,21.5-21.5S420.8,135.4,408.9,135.4z"/>
					</g>
				</g>
				<g>
					<g>
						<g>
							<g>
								<g>
									<path class="st0" d="M64.9,254.6c1.9-0.8,3.2-2.7,3.2-5c0-3-2.3-5.4-5.1-5.4c-2.8,0-5.1,2.4-5.1,5.4c0,2.3,1.3,4.3,3.2,5.1
										c-7.8,1.2-7.5,9.7-7.5,9.7l18.5,0.1C72.2,264.4,72.6,255.8,64.9,254.6z"/>
								</g>
							</g>
						</g>
					</g>
					<g>
						<g>
							<path class="st0" d="M63,275.6c-11.4,0-20.7-9.3-20.7-20.7c0-11.4,9.3-20.7,20.7-20.7c11.4,0,20.7,9.3,20.7,20.7
								C83.6,266.3,74.4,275.6,63,275.6z M63,235.5c-10.7,0-19.4,8.7-19.4,19.4c0,10.7,8.7,19.4,19.4,19.4
								c10.7,0,19.4-8.7,19.4-19.4C82.4,244.2,73.7,235.5,63,235.5z"/>
						</g>
					</g>
				</g>
				<g>
					<g>
						<g>
							<path class="st0" d="M76.8,239.2c-0.2-0.1,15.8-24.4,35.6-54.2c19.8-29.9,36-54,36.1-53.9c0.2,0.1-15.8,24.4-35.6,54.2
								C93.2,215.2,77,239.3,76.8,239.2z"/>
						</g>
					</g>
				</g>
				<g>
					<path class="st0" d="M429.8,151.8c-0.1-0.1,15.4-10,34.5-22.1c19.2-12.1,34.7-21.8,34.8-21.6c0.1,0.1-15.4,10-34.5,22.1
						C445.5,142.2,429.9,151.9,429.8,151.8z"/>
				</g>
				<g>
					<path class="st0" d="M387.4,157c0,0.1-42-7-93.7-15.9c-51.7-8.9-93.6-16.3-93.6-16.5c0-0.1,42,7,93.7,15.9
						C345.5,149.4,387.4,156.8,387.4,157z"/>
				</g>
			</g>
			<g>
				<path class="st0" d="M610.1,136.8c-0.1,0.1-13-7.6-28.9-17.2c-15.9-9.6-28.7-17.6-28.6-17.7c0.1-0.1,13,7.6,28.9,17.2
					C597.4,128.8,610.2,136.7,610.1,136.8z"/>
			</g>
			<g>
				<path class="st0" d="M125.5,105.6c0,0.1-12.1,0.4-26.9,0.6c-14.9,0.2-26.9,0.2-26.9,0.1c0-0.1,12.1-0.4,26.9-0.6
					C113.4,105.5,125.5,105.4,125.5,105.6z"/>
			</g>
			<g>
				<g>
					<g>
						<g>
							<path class="st0" d="M58,105.5c1.2-0.5,2-1.7,2-3.1c0-1.9-1.4-3.4-3.2-3.4c-1.8,0-3.2,1.5-3.2,3.4c0,1.4,0.8,2.7,2,3.2
								c-4.9,0.7-4.7,6.1-4.7,6.1l11.6,0.1C62.6,111.6,62.8,106.2,58,105.5z"/>
						</g>
					</g>
				</g>
			</g>
			<g>
				<g>
					<path class="st0" d="M56.8,118.9c-7.3,0-13.2-5.9-13.2-13.2c0-7.3,5.9-13.2,13.2-13.2c7.3,0,13.2,5.9,13.2,13.2
						C70,113,64.1,118.9,56.8,118.9z M56.8,93.7c-6.6,0-12,5.4-12,12c0,6.6,5.4,12,12,12s12-5.4,12-12
						C68.7,99.1,63.4,93.7,56.8,93.7z"/>
				</g>
			</g>
		</g>
		<g>
			<g>
				<path class="st0" d="M365.6,72.5c-11.5,0-20.8-9.3-20.8-20.8c0-11.5,9.3-20.8,20.8-20.8c11.5,0,20.8,9.3,20.8,20.8
					C386.4,63.2,377.1,72.5,365.6,72.5z M365.6,33c-10.4,0-18.8,8.4-18.8,18.8c0,10.4,8.4,18.8,18.8,18.8c10.4,0,18.8-8.4,18.8-18.8
					C384.4,41.4,376,33,365.6,33z"/>
			</g>
		</g>
		<g>
			<path class="st0" d="M397.3,138.7c0,0-0.1-0.2-0.3-0.7c-0.2-0.5-0.4-1.1-0.7-2c-0.6-1.8-1.4-4.2-2.5-7.2
				c-2.1-6.1-5.1-14.4-8.7-23.6c-3.6-9.1-7.1-17.3-9.7-23.2c-1.3-2.9-2.4-5.3-3.1-6.9c-0.3-0.8-0.6-1.4-0.8-1.9
				c-0.2-0.4-0.3-0.7-0.3-0.7c0,0,0.1,0.2,0.4,0.6c0.2,0.5,0.5,1.1,0.9,1.9c0.8,1.6,1.9,4,3.3,6.9c2.7,5.8,6.3,14,9.9,23.1
				c3.6,9.1,6.5,17.5,8.5,23.6c1,3.1,1.8,5.5,2.3,7.3c0.2,0.8,0.4,1.5,0.6,2C397.3,138.4,397.4,138.7,397.3,138.7z"/>
		</g>
	</g>
	<g>
		<g>
			<g>
				<g>
					<g>
						<path class="st1" d="M26.1,398.2c0,0.6,0,35.1,0,35.1h-5.9v3.8h5.9v23.5h109.4v-21.3h-8.1v-4.6h8.1v-7h3.6v-3.2h-4.3v-26.2
							H26.1z"/>
					</g>
				</g>
			</g>
			<g>
				<g>
					<g>
						<polygon class="st2" points="106.5,398.3 106.5,460.1 135.5,460.1 135.5,438.8 127.4,438.8 127.4,434.5 135.5,434.7 
							135.5,427.7 139.2,427.7 139.1,424.1 134.8,424 134.8,398.2 						"/>
					</g>
				</g>
			</g>
			<g>
				<g>
					<g>
						<g>
							<path class="st2" d="M108.5,436.6c0,0.2-19.8,0.4-44.2,0.4c-24.4,0-44.2-0.2-44.2-0.4c0-0.2,19.8-0.4,44.2-0.4
								C88.7,436.2,108.5,436.3,108.5,436.6z"/>
						</g>
					</g>
				</g>
			</g>
			<g>
				<g>
					<g>
						<g>
							<path class="st2" d="M108.5,433c0,0.2-19.8,0.4-44.2,0.4c-24.4,0-44.2-0.2-44.2-0.4c0-0.2,19.8-0.4,44.2-0.4
								C88.7,432.6,108.5,432.8,108.5,433z"/>
						</g>
					</g>
				</g>
			</g>
			<g>
				<g>
					<g>
						<g>
							<path class="st2" d="M114.2,423.4c0,0.2-19.8,0.4-44.2,0.4c-24.4,0-44.2-0.2-44.2-0.4c0-0.2,19.8-0.4,44.2-0.4
								C94.4,423,114.2,423.2,114.2,423.4z"/>
						</g>
					</g>
				</g>
			</g>
			<g>
				<g>
					<g>
						<g>
							<path class="st2" d="M114.7,449.5c0,0.2-19.8,0.4-44.2,0.4c-24.4,0-44.2-0.2-44.2-0.4c0-0.2,19.8-0.4,44.2-0.4
								C95,449.1,114.7,449.3,114.7,449.5z"/>
						</g>
					</g>
				</g>
			</g>
		</g>
	</g>
	<g>
		<g>
			<g>
				<g>
					<g>
						<path class="st1" d="M38.3,336.5c0,0.6,0,35.1,0,35.1h-5.9v3.8h5.9v23.5h109.4v-21.3h-8.1v-4.6h8.1v-7h3.6v-3.2H147v-26.2
							H38.3z"/>
					</g>
				</g>
			</g>
			<g>
				<g>
					<g>
						<polygon class="st2" points="118.6,336.6 118.6,398.4 147.7,398.4 147.7,377.1 139.6,377.1 139.6,372.8 147.7,373 147.7,366 
							151.4,366 151.3,362.4 147,362.3 147,336.5 						"/>
					</g>
				</g>
			</g>
			<g>
				<g>
					<g>
						<g>
							<path class="st2" d="M120.7,374.9c0,0.2-19.8,0.4-44.2,0.4c-24.4,0-44.2-0.2-44.2-0.4c0-0.2,19.8-0.4,44.2-0.4
								C100.9,374.5,120.7,374.6,120.7,374.9z"/>
						</g>
					</g>
				</g>
			</g>
			<g>
				<g>
					<g>
						<g>
							<path class="st2" d="M120.7,371.3c0,0.2-19.8,0.4-44.2,0.4c-24.4,0-44.2-0.2-44.2-0.4c0-0.2,19.8-0.4,44.2-0.4
								C100.9,370.9,120.7,371.1,120.7,371.3z"/>
						</g>
					</g>
				</g>
			</g>
			<g>
				<g>
					<g>
						<g>
							<path class="st2" d="M126.4,361.7c0,0.2-19.8,0.4-44.2,0.4c-24.4,0-44.2-0.2-44.2-0.4c0-0.2,19.8-0.4,44.2-0.4
								C106.6,361.3,126.4,361.5,126.4,361.7z"/>
						</g>
					</g>
				</g>
			</g>
			<g>
				<g>
					<g>
						<g>
							<path class="st2" d="M126.9,387.8c0,0.2-19.8,0.4-44.2,0.4c-24.4,0-44.2-0.2-44.2-0.4c0-0.2,19.8-0.4,44.2-0.4
								C107.1,387.4,126.9,387.6,126.9,387.8z"/>
						</g>
					</g>
				</g>
			</g>
		</g>
	</g>
	<g>
		<g>
			<g>
				<g>
					<path class="st0" d="M684.1,337.2c6.4-3.3,14-3.7,21.1-2.6c3.8,0.6,7.8,1.8,10.4,4.7c2.6,2.9,3.1,7.9,0.1,10.4
						c-1.8,1.5-4.3,1.7-6.6,1.7c-5.6-0.1-11.8-1-16.2,2.3c-2.5,1.9-4.2,5.1-7.3,6c-3,0.9-6.3-0.8-7.9-3.5c-1.6-2.7-1.6-6-0.9-9.1
						C676.9,347.1,677.6,340.5,684.1,337.2z"/>
				</g>
			</g>
			<g>
				<g>
					<path class="st0" d="M669.4,308.8c3.9,5.6,11.6,3.8,15.1,0.3c3.5-3.4,5-8.4,6.4-13.1c3.1-10.8,6.2-22.1,3.9-33.2
						c-0.7-3.3-1.9-6.6-4.2-9c-2.3-2.4-5.9-3.9-9.1-3c-3.8,1-6.2,4.8-8,8.4c-5.1,10.5-7.8,22.2-7.8,33.9
						C665.7,298.5,666.3,304.3,669.4,308.8"/>
				</g>
			</g>
			<g>
				<g>
					<path class="st0" d="M658.6,316.8c4.3-5.1,5.1-12.4,3.2-18.8c-1.9-6.3-6.2-11.7-11.1-16.1c-5.8-5.2-12.6-9.2-19.9-11.8
						c-2.9-1-5.9-1.8-9-1.5c-3,0.3-6.1,1.8-7.5,4.5c-2.1,4-0.1,8.8,2.1,12.8c3.8,7,8.2,13.6,13.1,19.9c3.9,5.1,8.4,10,14.4,12.3
						c6,2.3,12.2,2,15.3-2.1"/>
				</g>
			</g>
			<g>
				<g>
					<g>
						<path class="st2" d="M669.1,393.4c0.1,0,0.2-0.9,0.4-2.5c0.2-1.9,0.4-4.2,0.7-7c0.3-2.9,0.8-6.4,1.6-10.2
							c0.8-3.8,2.1-7.9,3.7-12c1.7-4.1,3.7-7.9,6.1-10.9c2.4-3,5.2-5.2,7.8-6.5c2.6-1.3,4.9-1.8,6.5-2c1.6-0.2,2.5-0.3,2.5-0.4
							c0-0.1-0.9-0.1-2.6,0c-1.7,0.1-4.1,0.5-6.8,1.8c-2.7,1.2-5.7,3.4-8.2,6.5c-2.5,3.1-4.7,6.9-6.4,11.1
							c-1.7,4.2-2.9,8.4-3.7,12.2c-0.8,3.9-1.1,7.4-1.4,10.3c-0.2,3-0.3,5.3-0.3,7C669.1,392.4,669.1,393.4,669.1,393.4z"/>
					</g>
				</g>
			</g>
			<g>
				<g>
					<g>
						<path class="st2" d="M669.6,388c0,0,0.1-0.4,0.1-1.2c0-0.9,0-2,0-3.4c0-2.9,0-7.2,0.2-12.4c0.3-10.5,1.2-21.8,2.9-37.7
							c1.7-15,3.9-32.4,6.2-43.7c0.5-2.6,1-4.9,1.5-6.9c0.5-2,0.8-3.8,1.2-5.2c0.3-1.3,0.6-2.4,0.8-3.3c0.2-0.8,0.2-1.2,0.2-1.2
							c0,0-0.2,0.4-0.4,1.1c-0.3,0.9-0.6,1.9-1,3.2c-0.4,1.4-0.9,3.1-1.4,5.2c-0.5,2-1.1,4.3-1.6,6.9c-2.3,10.3-4.8,24.6-6.5,40.5
							c-1.7,15.9-2.5,30.5-2.6,41c-0.1,5.3,0,9.5,0.2,12.4c0.1,1.4,0.2,2.5,0.2,3.4C669.5,387.6,669.6,388,669.6,388z"/>
					</g>
				</g>
			</g>
			<g>
				<g>
					<g>
						<path class="st2" d="M669.7,360c0.1,0,0.1-1.3,0-3.5c-0.1-2.3-0.4-5.6-1.1-9.6c-0.7-4-1.6-8.8-3.1-13.9
							c-0.6-2.4-2.2-8-5.8-16.5c-4.8-11.5-11.4-20.8-17.1-26.7c-1.3-1.5-2.8-2.7-4-3.7c-0.6-0.5-1.2-1-1.7-1.5
							c-0.6-0.4-1.1-0.7-1.6-1.1c-1.9-1.3-2.9-2-3-1.9c-0.2,0.2,4.2,2.8,9.7,8.7c5.5,5.9,11.9,15.2,16.7,26.6
							c2.7,6.2,4.5,11.7,5.9,16.3c1.5,5.1,2.5,9.8,3.3,13.8c0.7,4,1.2,7.2,1.4,9.5C669.5,358.8,669.6,360,669.7,360z"/>
					</g>
				</g>
			</g>
		</g>
		<g>
			<g>
				<polygon class="st2" points="642.6,409.4 645.4,447.8 694.8,447.8 697.6,409.4 				"/>
			</g>
		</g>
		<g>
			<g>
				<rect x="637.9" y="394.2" class="st2" width="65.7" height="15.2"/>
			</g>
		</g>
		<g>
			<g>
				<polygon class="st0" points="637.9,446.4 637.9,450.6 640.9,450.6 702.4,450.6 702.4,446.4 				"/>
			</g>
		</g>
		<g>
			<g>
				<polygon class="st2" points="644,458 640.9,450.6 700.1,450.6 696.5,458 				"/>
			</g>
		</g>
		<g>
			<g>
				<g>
					<path class="st1" d="M696.7,422c0,0-0.1,0.1-0.2,0.4c-0.2,0.3-0.4,0.6-0.7,1c-0.7,0.9-1.7,2.1-2.9,3.7l-0.1,0.2l-0.1-0.2
						c-1.8-2.5-4.2-5.8-7.1-9.8h0.4c-2.1,3-4.4,6.3-7,9.9l-0.2,0.3l-0.2-0.3c-2.6-3.1-5.4-6.4-8.3-9.8l0.5,0
						c-0.1,0.2-0.3,0.4-0.5,0.6c-2.6,3.2-5,6.3-7.4,9.3l-0.2,0.3l-0.2-0.3c-2.5-3.5-4.8-6.9-7-9.9l0.4,0c-3.4,3.9-6.3,7.2-8.6,9.8
						l-0.2,0.2L647,427c-1.1-1.9-2-3.4-2.7-4.5c-0.3-0.5-0.5-0.9-0.7-1.2c-0.2-0.3-0.2-0.4-0.2-0.4c0,0,0.1,0.1,0.3,0.4
						c0.2,0.3,0.5,0.7,0.8,1.2c0.7,1.1,1.6,2.6,2.8,4.4l-0.3,0c2.2-2.6,5.1-5.9,8.4-9.9l0.2-0.2l0.2,0.3c2.1,3,4.5,6.3,7,9.8l-0.5,0
						c2.3-2.9,4.8-6.1,7.4-9.3c0.2-0.2,0.3-0.4,0.5-0.6l0.2-0.3l0.2,0.3c2.9,3.5,5.7,6.8,8.2,9.8l-0.5,0c2.5-3.5,4.9-6.8,7-9.8
						l0.2-0.3l0.2,0.3c2.8,4,5.1,7.4,6.9,9.9l-0.3,0c1.3-1.5,2.3-2.7,3-3.6c0.3-0.4,0.6-0.7,0.8-0.9
						C696.6,422.1,696.7,422,696.7,422z"/>
				</g>
			</g>
		</g>
		<g>
			<g>
				<g>
					<path class="st1" d="M698.3,409.1c0,0.2-12.4,0.3-27.6,0.3c-15.3,0-27.6-0.1-27.6-0.3c0-0.2,12.4-0.3,27.6-0.3
						C685.9,408.8,698.3,409,698.3,409.1z"/>
				</g>
			</g>
		</g>
		<g>
			<g>
				<g>
					<path class="st1" d="M700.8,451c0,0.2-13.4,0.3-30,0.3c-16.6,0-30-0.1-30-0.3c0-0.2,13.4-0.3,30-0.3
						C687.4,450.7,700.8,450.8,700.8,451z"/>
				</g>
			</g>
		</g>
	</g>
</g>
<g id="Background_Simple" class="st3">
	<path class="st4" d="M583,132.9l-2.7-4.5C557.4,90.7,516,67.9,472.3,70.7c-5.6,0.4-11.2,1.1-16.7,2.3
		c-39.7,8.5-74.2,38.5-88.5,76.9c-8.4,22.6-10.8,48.6-26.7,66.6c-20.8,23.3-56.1,24.1-87.1,23.1s-66.3-0.1-87,23.3
		c-13,14.7-17.1,35.5-16,55.2c2.8,52,39,98.6,85.1,121.7c46.1,23.1,100.4,25.2,150.9,15c70.7-14.3,137.9-53.4,178.4-113.8
		C605.1,280.5,615.3,198.1,583,132.9z"/>
	<circle class="st4" cx="130.7" cy="137" r="45.4"/>
	
		<ellipse transform="matrix(6.521069e-02 -0.9979 0.9979 6.521069e-02 420.8014 809.4547)" class="st4" cx="642.4" cy="180.1" rx="22.7" ry="22.7"/>
</g>
<g id="Character_2">
	<g>
		<g>
			<g>
				<g>
					<g>
						<g>
							<g>
								<path class="st5" d="M426,361.8c0,0,10.6-6.6,14.5-6.1l22.9,5.3c0,0,2,2.1-2,4.1c-3.9,1.9-9-0.9-9-0.9l-5.6,0.8l3.8,3.2
									l15.2,4.7c0,0,11,3.1,9.7,4.7c-1.3,1.6-4.6,1.8-9.4,0.5c-4.7-1.3-10.8-3-10.8-3s-1.9-0.4,1.1,1.7c3,2.1,16.3,5.4,18.1,6.2
									c1.8,0.9,6.5,1.6,6,4.3c-0.5,2.7-6.5,0.5-6.5,0.5l-19.7-4.6c0,0,7.8,3.4,9.1,4c1.3,0.6,5.6,1.8,7.9,3
									c2.3,1.1,3.4,2.7,3.1,3.9c-0.5,2.2-2.5,1.9-2.5,1.9l-16.7-5.7c0,0-7.6-3-8.1-2.9c-0.5,0.1,3,3.3,3,3.3l5.3,2.7
									c0,0,7.7,2.6,7.7,4.7c0,2.1-1.6,2.1-1.6,2.1l-14-4.8l-15.6-7.9l-11.7-7.2c0,0,2.1-8.3,1.7-8.6
									C421.8,371.3,426,361.8,426,361.8z"/>
							</g>
						</g>
					</g>
				</g>
			</g>
		</g>
		<g>
			<g>
				<g>
					<path class="st6" d="M431.5,377.3c0-0.2,1.5-0.5,3.8-1.4c2.2-0.8,5.5-2.3,7.2-5.6c0.8-1.4,1-3,0.8-4.4l-0.1-0.5l0.5-0.1
						c2.4-0.3,4.7-0.8,6.2-1c1.6-0.3,2.5-0.3,2.5-0.1c0,0.1-0.9,0.3-2.4,0.7c-1.6,0.4-3.6,1-6.3,1.4l0.5-0.6c0.4,1.6,0.1,3.4-0.8,5
						c-0.9,1.8-2.4,3.1-3.8,4c-1.4,0.9-2.9,1.4-4.1,1.8C433.1,377.2,431.6,377.4,431.5,377.3z"/>
				</g>
			</g>
		</g>
	</g>
	<g>
		<polyline class="st7" points="216.6,462.6 214.7,393.6 335.8,395.9 352.3,460 216.6,462.6 		"/>
		<path class="st8" d="M276.8,200.7l-9.1,8.6c0,0-34,8.5-40,14.4c-5.9,5.9-9.1,97.6-8.7,104c0.4,6.3,0,61.4,0,61.4s-2,21,0,22.2
			c2,1.2,40.2,1.7,59.2,2.1c19,0.4,59.4,1.5,61.8-0.5s-5.9-43.1-5.9-43.1l-3.3-19l1-33.1l7-45.6L344,225c0,0-13.9-8.3-20.6-9.9
			C316.6,213.5,276.8,200.7,276.8,200.7z"/>
		<path class="st8" d="M377.2,333.1l-18.5-77.6c-1.5-6.2-3.6-12.2-6.4-17.9c-2.9-5.9-6.4-12.3-8.4-12.5
			c-11.5-1.3-17.4,33.7-17.4,33.7v44.4l10.8,48.1c1.7,7.4,7.1,13.3,14.3,15.6l73.4,23.4l8.5-36.4L377.2,333.1z"/>
		<path class="st8" d="M246.1,216.8c0,0-27.9,3.9-36.9,25.2c0,0-27.9,108.5-23.2,122.8c4.7,14.3,40.7,69.4,40.7,69.4l31.6-16.7
			c0,0-30.9-64.1-30.9-71.1C227.4,339.3,246.1,216.8,246.1,216.8z"/>
		<g>
			<path class="st7" d="M258.3,417.5c0,0-0.1-0.1-0.2-0.3c-0.1-0.3-0.3-0.6-0.5-1c-0.4-0.9-1-2.3-1.8-4c-1.5-3.5-3.7-8.6-6.4-14.8
				c-5.3-12.5-12.7-29.8-20.9-48.8c-0.4-0.9-0.7-1.8-1.1-2.6l0-0.1l0,0c0.1-1.3,0.3-2.5,0.6-3.8c0.3-1.2,0.5-2.4,0.8-3.6
				c0.6-2.4,1.2-4.7,1.7-7c1.2-4.6,2.3-9,3.4-13.2c2.2-8.4,4.2-15.9,5.8-22.2c1.6-6.3,2.8-11.4,3.7-15c0.4-1.7,0.7-3.1,0.9-4.1
				c0.1-0.4,0.2-0.8,0.3-1.1c0.1-0.2,0.1-0.4,0.1-0.4c0,0,0,0.1-0.1,0.4c-0.1,0.3-0.1,0.6-0.2,1.1c-0.2,1-0.5,2.3-0.9,4.1
				c-0.8,3.5-1.9,8.7-3.5,15c-1.6,6.3-3.5,13.9-5.7,22.2c-1.1,4.2-2.2,8.6-3.4,13.2c-0.6,2.3-1.2,4.6-1.7,7
				c-0.5,2.4-1.2,4.8-1.4,7.2l0-0.1c0.3,0.8,0.7,1.7,1.1,2.6c8.1,19.1,15.4,36.3,20.7,48.9c2.6,6.2,4.7,11.3,6.2,14.8
				c0.7,1.7,1.3,3.1,1.7,4c0.2,0.4,0.3,0.8,0.4,1.1C258.2,417.4,258.3,417.5,258.3,417.5z"/>
		</g>
		<g>
			<path class="st7" d="M338.7,264c0,0,0,0.2,0,0.6c0,0.5-0.1,1.1-0.1,1.8c-0.1,1.6-0.3,3.9-0.4,6.6c-0.4,5.6-0.9,13.3-1.8,21.8
				c-0.9,8.5-2.2,16.2-3.1,21.7c-0.5,2.8-0.9,5-1.2,6.5c-0.1,0.7-0.3,1.3-0.4,1.8c-0.1,0.4-0.1,0.6-0.2,0.6c0,0,0-0.2,0.1-0.6
				c0.1-0.5,0.2-1.1,0.3-1.8c0.3-1.6,0.6-3.8,1-6.6c0.9-5.5,2.1-13.2,3-21.7c0.9-8.5,1.4-16.2,1.9-21.8c0.2-2.7,0.4-5,0.6-6.6
				c0.1-0.7,0.1-1.3,0.2-1.8C338.6,264.2,338.6,264,338.7,264z"/>
		</g>
		<path class="st5" d="M230.8,432l3.1,5.8c0,0,15.5-5.9,22.9-15.9l-2-2L230.8,432z"/>
		<g>
			<path class="st8" d="M261.4,416.2c0,0-0.3,0.5-0.9,1.5c-0.3,0.5-0.7,1-1.1,1.7c-0.5,0.6-1,1.4-1.6,2.1c-0.6,0.8-1.3,1.6-2.1,2.4
				c-0.8,0.9-1.7,1.7-2.6,2.6c-1.9,1.8-4.2,3.6-6.7,5.3c-2.5,1.7-5.1,3-7.4,4.2c-2.4,1.1-4.6,2-6.4,2.6c-0.9,0.3-1.8,0.6-2.5,0.8
				c-0.8,0.2-1.4,0.4-1.9,0.5c-1.1,0.3-1.7,0.4-1.7,0.4c0,0,0.6-0.2,1.6-0.6c0.5-0.2,1.2-0.4,1.9-0.6c0.7-0.3,1.6-0.5,2.5-0.9
				c1.9-0.7,4-1.6,6.4-2.7c2.3-1.1,4.8-2.5,7.3-4.2c2.5-1.7,4.7-3.5,6.7-5.2c1-0.9,1.9-1.7,2.6-2.6c0.8-0.8,1.5-1.6,2.2-2.4
				c0.7-0.7,1.2-1.4,1.7-2.1c0.5-0.6,0.9-1.2,1.2-1.6C261,416.7,261.4,416.2,261.4,416.2z"/>
		</g>
		<g>
			<path class="st7" d="M245.7,255.5c-0.1,0,0.3-1.8,0.2-4.8c0-0.7-0.1-1.5-0.2-2.4c-0.1-0.9-0.3-1.8-0.5-2.7
				c-0.5-1.9-1.2-3.9-2.3-5.9c-1.1-2-2.3-3.7-3.6-5.2c-0.7-0.7-1.3-1.4-2-2c-0.6-0.6-1.3-1.1-1.9-1.5c-2.4-1.7-4.1-2.4-4.1-2.5
				c0,0,0.4,0.1,1.2,0.5c0.4,0.2,0.9,0.4,1.4,0.7c0.5,0.3,1.1,0.6,1.7,1.1c0.6,0.4,1.3,0.9,1.9,1.5c0.7,0.6,1.3,1.2,2,2
				c1.3,1.5,2.6,3.3,3.7,5.3c1.1,2,1.8,4.1,2.3,6c0.2,1,0.4,1.9,0.5,2.8c0.1,0.9,0.1,1.7,0.1,2.4c0,0.8,0,1.4-0.1,2
				c0,0.6-0.1,1.1-0.2,1.5C245.8,255.1,245.7,255.5,245.7,255.5z"/>
		</g>
		<g>
			<path class="st9" d="M241.5,285.4c0,0.1-9.2-2-20.6-4.7c-11.3-2.7-20.5-5-20.4-5.2c0-0.1,9.2,2,20.6,4.7
				C232.4,282.9,241.5,285.2,241.5,285.4z"/>
		</g>
		<g>
			<path class="st9" d="M336.7,279.6c0,0.1-20.7,0.6-46.3,1.1c-25.6,0.4-46.3,0.7-46.3,0.5c0-0.1,20.7-0.6,46.3-1.1
				C316,279.7,336.7,279.5,336.7,279.6z"/>
		</g>
		<g>
			<path class="st9" d="M366.3,284.8c0,0-0.4,0.1-1.1,0.2c-0.7,0.1-1.8,0.3-3.1,0.5c-2.6,0.4-6.2,0.8-10.2,1.2
				c-4,0.4-7.6,0.7-10.3,0.8c-1.3,0.1-2.4,0.1-3.1,0.2c-0.7,0-1.1,0-1.1,0c0,0,0.4-0.1,1.1-0.2c0.8-0.1,1.9-0.2,3.1-0.3
				c2.7-0.3,6.3-0.6,10.3-1c3.9-0.4,7.5-0.8,10.3-1c1.2-0.1,2.3-0.2,3.1-0.3C365.9,284.8,366.3,284.8,366.3,284.8z"/>
		</g>
		<g>
			<path class="st9" d="M228.3,341.8c0,0.1-8.9-1-19.8-2.6c-10.9-1.6-19.8-3-19.8-3.1c0-0.1,8.9,1,19.8,2.6
				C219.4,340.3,228.3,341.7,228.3,341.8z"/>
		</g>
		<g>
			<path class="st9" d="M329.2,349.9c0,0.1-21.5,1.7-48,3.6c-26.5,1.8-48,3.2-48,3c0-0.1,21.5-1.7,48-3.6
				C307.7,351.1,329.2,349.8,329.2,349.9z"/>
		</g>
		<g>
			<path class="st9" d="M375.2,334.3c0,0-0.4,0.4-1.2,1.1c-0.9,0.7-2,1.7-3.4,2.8c-2.9,2.4-6.9,5.7-11.3,9.4
				c-4.4,3.7-8.2,7.2-11,9.7c-1.4,1.2-2.5,2.2-3.3,3c-0.8,0.7-1.2,1.1-1.3,1c0,0,0.4-0.4,1.1-1.2c0.7-0.7,1.8-1.8,3.2-3.1
				c2.7-2.6,6.6-6.1,11-9.8c4.4-3.7,8.4-7,11.4-9.3c1.5-1.2,2.7-2.1,3.5-2.7C374.7,334.6,375.2,334.3,375.2,334.3z"/>
		</g>
		<g>
			<path class="st9" d="M249.8,404.6c0,0-0.4,0.2-1.3,0.6c-0.9,0.4-2.1,0.9-3.5,1.5c-3.1,1.3-7.1,2.9-11.6,4.8
				c-4.5,1.9-8.5,3.6-11.6,4.9c-1.4,0.6-2.6,1.1-3.5,1.5c-0.8,0.3-1.3,0.5-1.3,0.5c0,0,0.4-0.3,1.2-0.7c0.8-0.4,2-0.9,3.5-1.6
				c2.9-1.3,7-3.1,11.6-5c4.5-1.9,8.7-3.5,11.7-4.6c1.5-0.6,2.7-1,3.6-1.3C249.3,404.8,249.8,404.6,249.8,404.6z"/>
		</g>
		<g>
			<path class="st9" d="M417.2,349.4c0,0,0,0.5-0.2,1.4c-0.2,0.9-0.4,2.2-0.8,3.9c-0.7,3.3-1.9,7.7-3.4,12.6
				c-1.6,4.8-3.2,9.2-4.5,12.2c-0.7,1.5-1.2,2.8-1.6,3.6c-0.4,0.8-0.6,1.3-0.7,1.3c0,0,0.1-0.5,0.5-1.4c0.4-1,0.9-2.2,1.5-3.7
				c1.2-3.1,2.8-7.4,4.4-12.2c1.5-4.8,2.7-9.3,3.6-12.5c0.4-1.5,0.7-2.8,0.9-3.8C417,349.8,417.1,349.3,417.2,349.4z"/>
		</g>
		<g>
			<path class="st9" d="M276.4,219.5c0,0-0.6,0.1-1.6,0.3c-1.1,0.2-2.6,0.4-4.4,0.8c-3.7,0.6-8.8,1.6-14.4,3
				c-5.6,1.3-10.6,2.8-14.1,3.9c-1.7,0.5-3.2,1-4.2,1.3c-1,0.3-1.6,0.5-1.6,0.4c0,0,0.5-0.3,1.5-0.6c1-0.4,2.4-0.9,4.2-1.5
				c3.6-1.2,8.5-2.7,14.1-4.1c5.6-1.3,10.7-2.3,14.4-2.8c1.9-0.3,3.4-0.5,4.4-0.6C275.8,219.6,276.4,219.5,276.4,219.5z"/>
		</g>
	</g>
	<g>
		<g>
			<g>
				<g>
					<g>
						<path class="st7" d="M352.1,124.7c7.4,6.4,3.3,16.4,1.8,26.1c-1.5,9.7,0.2,20.3,0.6,30.1c0.2,5.2,1.5,10.5-0.2,15.4
							c-1.8,5.1-6.3,8.6-9.9,12.7c-3.6,4.1-6.2,10.1-3.4,14.8c-1.5,0.6-3.4,0.3-4.7-0.6c-1.2,2.2-4.2,2.8-6.5,2.1
							c-2.4-0.7-4.3-2.4-6.1-4c-0.3,1.8-2.4,2.7-4.2,2.4c-1.8-0.4-3.2-1.6-4.4-2.9c-1.3-1.3-2.5-2.6-4.2-3.2
							c-3.8-1.3-8.1,1.5-11.8-0.1c-5-2.2-4.5-10.9-9.7-12.6c-2.4-0.8-5,0.3-7.6,0.6c-2.6,0.3-5.3-2-4.9-4.5
							c-4.4,1.8-10,2.7-14.5,1.1c1.5-1.1,2.2-3.1,1.8-4.9c-3.2,0.6-6.6,0.2-9.6-1.2c2.7-0.7,5.1-2.6,6.4-5.1
							c-2.7,0.5-5.7-0.6-7.5-2.7c5.6,0.1,9.4-5.7,10.6-11.1c1.2-5.4,0.8-11.3,3-16.4c2.4-5.6,7.6-9.4,10.7-14.6
							c4.4-7.2,4.5-16.4,9-23.6c3-4.7,5.8-8.6,10.3-11.9c5.7-4.1,8.9-6.2,15.9-6.1c5.9,0.1,15.9,1.7,20.9,4.8
							c8.9,5.4,18.3,11.5,22.3,21.2"/>
					</g>
				</g>
			</g>
		</g>
		<g>
			<g>
				<g>
					<g>
						<g>
							<g>
								<g>
									<g>
										<g>
											<g>
												<g>
													<path class="st7" d="M286.4,167.6c-0.4-7.7-0.8-15.5,0.1-23.2c0.9-7.7,3.2-15.3,7.7-21.7c0.7-1,5.9-7.2,7-6.8
														c0.8,0.3-3.1,6.4-2.8,7.2c2.1,7.7,1,16-1.6,23.6C294.1,154.3,290.6,160.8,286.4,167.6"/>
												</g>
											</g>
										</g>
									</g>
								</g>
							</g>
						</g>
					</g>
					<g>
						<g>
							<g>
								<g>
									<g>
										<g>
											<g>
												<g>
													<g>
														<path class="st5" d="M304.9,246.1c-11.5-3.3-33.2-25.9-30.1-37.5l18.5-69.8c4.4-18.9,19-32.1,37.8-27.2l1.7,0.6
															c17.2,5.6,27.2,23.4,23.1,41c-3.9,16.4-8.4,34.4-11.3,42.9c-6,17.6-24.6,14.6-24.6,14.6c0,0-1.2,4.1-2.7,9.4
															C314,232,307.1,243.6,304.9,246.1L304.9,246.1z"/>
													</g>
												</g>
											</g>
										</g>
									</g>
								</g>
							</g>
						</g>
					</g>
					<g>
						<g>
							<g>
								<g>
									<g>
										<g>
											<g>
												<g>
													<g>
														<g>
															<path class="st6" d="M320,210.7c0,0-11.4-3-20.9-14.3c0,0,1.2,15.1,19.4,19.3L320,210.7z"/>
														</g>
													</g>
												</g>
											</g>
										</g>
									</g>
								</g>
							</g>
						</g>
					</g>
					<g>
						<g>
							<g>
								<g>
									<g>
										<g>
											<g>
												<g>
													<g>
														<g>
															<g>
																<g>
																	<g>
																		<g>
																			<g>
																				<g>
																					<path class="st7" d="M344.9,167.7c-0.4,1.4-1.8,2.1-3.3,1.8c-1.4-0.4-2.3-1.8-1.9-3.1c0.4-1.4,1.8-2.1,3.3-1.8
																						C344.4,164.9,345.3,166.3,344.9,167.7z"/>
																				</g>
																			</g>
																		</g>
																	</g>
																</g>
															</g>
														</g>
													</g>
												</g>
											</g>
										</g>
									</g>
								</g>
							</g>
						</g>
					</g>
					<g>
						<g>
							<g>
								<g>
									<g>
										<g>
											<g>
												<g>
													<g>
														<g>
															<g>
																<g>
																	<g>
																		<g>
																			<g>
																				<g>
																					<g>
																						<path class="st7" d="M349.5,159.8c-0.4,0.2-1.9-1.8-4.6-2.7c-2.7-0.9-5.2-0.2-5.3-0.6c-0.1-0.2,0.4-0.7,1.5-1
																							c1.1-0.4,2.7-0.5,4.4,0.1c1.7,0.6,2.9,1.6,3.5,2.6C349.6,159,349.7,159.7,349.5,159.8z"/>
																					</g>
																				</g>
																			</g>
																		</g>
																	</g>
																</g>
															</g>
														</g>
													</g>
												</g>
											</g>
										</g>
									</g>
								</g>
							</g>
						</g>
					</g>
					<g>
						<g>
							<g>
								<g>
									<g>
										<g>
											<g>
												<g>
													<g>
														<g>
															<g>
																<g>
																	<g>
																		<g>
																			<g>
																				<g>
																					<path class="st7" d="M320,160.5c-0.4,1.4-1.8,2.1-3.3,1.8c-1.4-0.4-2.3-1.8-1.9-3.1c0.4-1.4,1.8-2.1,3.3-1.8
																						C319.6,157.7,320.4,159.1,320,160.5z"/>
																				</g>
																			</g>
																		</g>
																	</g>
																</g>
															</g>
														</g>
													</g>
												</g>
											</g>
										</g>
									</g>
								</g>
							</g>
						</g>
					</g>
					<g>
						<g>
							<g>
								<g>
									<g>
										<g>
											<g>
												<g>
													<g>
														<g>
															<g>
																<g>
																	<g>
																		<g>
																			<g>
																				<g>
																					<g>
																						<path class="st7" d="M322.6,151.8c-0.4,0.2-1.9-1.8-4.6-2.7c-2.7-0.9-5.2-0.2-5.3-0.6c-0.1-0.2,0.4-0.7,1.5-1
																							c1.1-0.4,2.7-0.5,4.4,0.1c1.7,0.6,2.9,1.6,3.5,2.6C322.8,151,322.8,151.7,322.6,151.8z"/>
																					</g>
																				</g>
																			</g>
																		</g>
																	</g>
																</g>
															</g>
														</g>
													</g>
												</g>
											</g>
										</g>
									</g>
								</g>
							</g>
						</g>
					</g>
					<g>
						<g>
							<g>
								<g>
									<g>
										<g>
											<g>
												<g>
													<g>
														<g>
															<g>
																<g>
																	<g>
																		<g>
																			<g>
																				<g>
																					<path class="st7" d="M325.6,175.8c0-0.2,1.8,0.1,4.7,0.6c0.7,0.2,1.4,0.2,1.7-0.2c0.3-0.4,0.3-1.3,0.2-2.2
																						c-0.1-1.9-0.2-3.9-0.3-6c-0.4-8.5-0.5-15.3-0.1-15.3c0.3,0,1,6.8,1.4,15.3c0.1,2.1,0.2,4.1,0.2,6
																						c0,0.9,0.2,1.9-0.5,2.8c-0.4,0.5-1,0.7-1.5,0.6c-0.5,0-0.9-0.1-1.2-0.2C327.3,176.5,325.6,176,325.6,175.8z"/>
																				</g>
																			</g>
																		</g>
																	</g>
																</g>
															</g>
														</g>
													</g>
												</g>
											</g>
										</g>
									</g>
								</g>
							</g>
						</g>
					</g>
					<g>
						<g>
							<g>
								<g>
									<g>
										<g>
											<g>
												<g>
													<g>
														<g>
															<g>
																<g>
																	<path class="st7" d="M325.7,141.5c-0.6,0.6-3-1-6.2-2.1c-3.2-1.2-6-1.5-6.1-2.3c0-0.4,0.7-0.8,2-1
																		c1.3-0.2,3.2-0.1,5.1,0.6c1.9,0.7,3.4,1.8,4.3,2.8C325.7,140.4,326,141.2,325.7,141.5z"/>
																</g>
															</g>
														</g>
													</g>
												</g>
											</g>
										</g>
									</g>
								</g>
							</g>
						</g>
					</g>
					<g>
						<g>
							<g>
								<g>
									<g>
										<g>
											<g>
												<g>
													<g>
														<g>
															<g>
																<g>
																	<path class="st7" d="M350.9,153.2c-0.8,0.4-2.8-0.9-5.5-1.7c-2.6-0.9-5.1-1.1-5.4-1.9c-0.1-0.4,0.4-0.9,1.6-1.2
																		c1.2-0.3,2.9-0.3,4.8,0.4c1.8,0.6,3.2,1.7,4,2.6C351.2,152.2,351.3,153,350.9,153.2z"/>
																</g>
															</g>
														</g>
													</g>
												</g>
											</g>
										</g>
									</g>
								</g>
							</g>
						</g>
					</g>
					<g>
						<g>
							<g>
								<g>
									<g>
										<g>
											<g>
												<g>
													<path class="st5" d="M290.4,152.4c-0.3-0.2-11-7.5-14.5,4.7c-3.5,12.2,9.5,13.3,9.6,12.9
														C285.6,169.7,290.4,152.4,290.4,152.4z"/>
												</g>
											</g>
										</g>
									</g>
								</g>
							</g>
						</g>
					</g>
					<g>
						<g>
							<g>
								<g>
									<g>
										<g>
											<g>
												<g>
													<g>
														<path class="st6" d="M283.1,164.3c0-0.1-0.3,0.1-0.7,0.1c-0.4,0.1-1,0-1.6-0.4c-1.2-0.8-1.6-3.2-1.1-5.4
															c0.3-1.1,0.8-2.1,1.5-2.9c0.6-0.8,1.4-1.2,2.1-1.2c0.7,0,1,0.6,1.1,0.9c0.1,0.4-0.1,0.6,0,0.7c0,0,0.3-0.1,0.4-0.7
															c0-0.3,0-0.6-0.3-0.9c-0.2-0.3-0.6-0.6-1.1-0.7c-1-0.2-2.1,0.4-2.8,1.3c-0.8,0.8-1.4,1.9-1.7,3.2
															c-0.6,2.5,0,5.2,1.6,6.2c0.8,0.5,1.6,0.4,2,0.2C283,164.6,283.1,164.3,283.1,164.3z"/>
													</g>
												</g>
											</g>
										</g>
									</g>
								</g>
							</g>
						</g>
					</g>
					<g>
						<g>
							<g>
								<g>
									<g>
										<g>
											<g>
												<g>
													<path class="st7" d="M353.6,130.6c2.3-0.5-1.9-8.6-6.1-12.2c-6.4-5.4-17.1-10.6-24.5-10.6c-8.8,0-16.8,2.2-23,8.5
														c-6.2,6.3-10.2,14.5-12.3,23.1c-0.7,2.6-1.1,5.4-0.4,8c1,3.2,3.8,5.8,2.6,9.5c-0.4,1.4-0.4,2.8,0.2,4.1
														c1.6,3,4.9,1.5,6.8-0.4c4-4,5.9-9.7,7.7-15.1c1.3-3.9,2.5-7.8,2.5-11.9c0-2.2-0.5-4.4-0.4-6.6c0.1-2.2,0.8-4.5,2.6-5.9
														c0.3-0.2,0.7-0.5,1.3-0.7c4.3-2.1,9.4-1.6,13.4,1.1c6.2,4.4,17,11.3,20.7,9.8c5.4-2.1,7.1-4,7.1-4L353.6,130.6z"/>
												</g>
											</g>
										</g>
									</g>
								</g>
							</g>
						</g>
					</g>
				</g>
			</g>
			<g>
				<g>
					<g>
						<g>
							<g>
								<g>
									<g>
										<g>
											<path class="st7" d="M317.6,175.2c-0.2,0-0.5,0.6-0.5,1.7c-0.1,1.1,0.2,2.8,1.2,4.2c0.9,1.5,2.1,2.4,3,3.1
												c0.9,0.6,1.5,0.9,1.6,0.8c0.1-0.1-0.3-0.7-1-1.5c-0.7-0.8-1.7-1.8-2.5-3.1C317.7,177.9,318.1,175.2,317.6,175.2z"/>
										</g>
									</g>
								</g>
							</g>
						</g>
					</g>
				</g>
			</g>
		</g>
		<g>
			<g>
				<g>
					<g>
						<g>
							<path class="st10" d="M290.2,154.1c0,0.2,0,0.5,0,0.8C290.2,154.9,290.2,154.6,290.2,154.1z"/>
						</g>
					</g>
				</g>
			</g>
			<g>
				<g>
					<g>
						<g>
							<path class="st8" d="M286.9,150.6c0,0,3-1.8,3.3,3.5c-0.1-6.7,1.2-55.4,47.8-42.4c0,0-15.1-9-28-5
								C310,106.6,285.4,110.2,286.9,150.6z"/>
						</g>
					</g>
				</g>
			</g>
		</g>
		<g>
			<g>
				<g>
					<g>
						<g>
							<path class="st7" d="M317.5,201.9c0.1,0.2,1.4-0.4,2.6-1.6c1.2-1.2,1.8-2.5,1.6-2.6c-0.2-0.1-1,0.9-2.1,2.1
								C318.4,200.9,317.4,201.7,317.5,201.9z"/>
						</g>
					</g>
				</g>
			</g>
		</g>
		<g>
			<g>
				<g>
					<g>
						<g>
							<path class="st7" d="M314.9,200.7c0.2,0.1,1.2-0.8,2.4-2.1c1.2-1.3,2-2.5,1.8-2.6c-0.2-0.1-1.2,0.8-2.4,2.1
								C315.6,199.4,314.8,200.5,314.9,200.7z"/>
						</g>
					</g>
				</g>
			</g>
		</g>
		<g>
			<g>
				<g>
					<g>
						<g>
							<path class="st7" d="M313.4,199.1c0.2,0.1,0.8-1.1,1.3-2.6c0.5-1.5,0.8-2.8,0.6-2.8c-0.2-0.1-0.8,1.1-1.3,2.6
								C313.4,197.7,313.2,199,313.4,199.1z"/>
						</g>
					</g>
				</g>
			</g>
		</g>
		<g>
			<g>
				<g>
					<g>
						<g>
							<path class="st7" d="M311.1,198.6c0.2-0.1,0-1.5,0.3-3.3c0.3-1.8,1-3.1,0.8-3.2c-0.2-0.1-1.2,1.1-1.5,3.1
								C310.3,197.2,310.9,198.7,311.1,198.6z"/>
						</g>
					</g>
				</g>
			</g>
		</g>
		<g>
			<g>
				<g>
					<g>
						<g>
							<path class="st7" d="M307.8,196.7c0.2,0,0.1-1.5,0.3-3.2c0.2-1.7,0.6-3.1,0.4-3.2c-0.2-0.1-1,1.2-1.2,3.1
								C307.1,195.2,307.6,196.7,307.8,196.7z"/>
						</g>
					</g>
				</g>
			</g>
		</g>
	</g>
	<g>
		<path class="st7" d="M323.4,355.6c0,0-0.1,0.1-0.4,0.3c-0.3,0.2-0.7,0.5-1.1,0.8c-1,0.7-2.5,1.7-4.3,2.9
			c-3.6,2.4-8.7,5.6-14.5,8.9c-5.7,3.3-11,6.2-14.9,8.2c-1.9,1-3.5,1.8-4.6,2.3c-0.5,0.2-0.9,0.4-1.3,0.6c-0.3,0.1-0.5,0.2-0.5,0.2
			c0,0,0.1-0.1,0.4-0.3c0.3-0.2,0.7-0.4,1.2-0.7c1.1-0.6,2.7-1.4,4.5-2.4c3.8-2.1,9.1-4.9,14.8-8.3c5.7-3.3,10.9-6.5,14.5-8.8
			c1.8-1.1,3.3-2,4.4-2.7c0.5-0.3,0.9-0.5,1.2-0.7C323.3,355.7,323.4,355.6,323.4,355.6z"/>
	</g>
	<g>
		<path class="st7" d="M377.2,332.9c0.1,0.1-3.5,1.8-6.9,5.1c-3.5,3.3-5.4,6.7-5.5,6.6c-0.1,0,0.4-0.9,1.2-2.2
			c0.9-1.3,2.2-3.1,4-4.7c1.8-1.7,3.6-2.9,5-3.7C376.2,333.2,377.1,332.9,377.2,332.9z"/>
	</g>
</g>
<g id="Character_3">
	<g>
		<path class="st7" d="M376.1,319.9c0,0-35.5,4.2-48.7,14.7c-2.1,1.7-4,3.6-5.8,5.6c-8.3,9.5-13.1,21.6-14.3,34.2l-4.8,52.3l0.4,8.6
			c0.6,13.5,11.7,24.1,25.2,24.1l146.8,1c0,0,19.3-21.5,14.2-54.9c-1.2-7.9-3.1-34.8-10.5-51.3c-3.9-8.8-10-19.6-25.8-23.8
			l-37.1-10.5H376.1z"/>
		<g>
			<path class="st8" d="M342.8,362.4c0,0-0.1-0.4-0.3-1.2c-0.2-0.8-0.4-1.8-0.7-3.2c-0.7-2.7-1.8-6.3-3.4-10.2
				c-1.7-3.9-3.6-7.2-5.1-9.5c-0.7-1.2-1.4-2.1-1.8-2.7c-0.4-0.6-0.7-1-0.6-1c0,0,0.3,0.3,0.8,0.9c0.5,0.6,1.2,1.5,2,2.6
				c1.6,2.3,3.5,5.6,5.2,9.5c1.7,3.9,2.7,7.6,3.3,10.3c0.3,1.4,0.5,2.5,0.6,3.2C342.8,362,342.9,362.4,342.8,362.4z"/>
		</g>
		<g>
			<path class="st8" d="M349,422c-0.1,0-1.7-11.4-3.5-25.5c-1.8-14.1-3.1-25.6-3-25.6c0.1,0,1.7,11.4,3.5,25.5
				C347.8,410.6,349.1,422,349,422z"/>
		</g>
		<g>
			<path class="st8" d="M342.5,366.9c0,0.1-1-0.3-2.5-1.1c-1.5-0.7-3.5-1.9-5.6-3.4c-2.1-1.5-3.9-3-5.1-4.2c-1.2-1.2-1.9-2-1.8-2
				c0.1-0.1,0.8,0.6,2.1,1.7c1.3,1.1,3.1,2.5,5.1,4c2.1,1.5,4,2.7,5.5,3.5C341.6,366.4,342.5,366.9,342.5,366.9z"/>
		</g>
		<g>
			<path class="st8" d="M437.6,376.6c0,0,0-0.6,0-1.8c0-0.6,0-1.3,0.1-2.1c0.1-0.8,0.2-1.7,0.4-2.8c0.2-1,0.4-2.1,0.7-3.3
				c0.3-1.2,0.7-2.4,1.1-3.7c0.9-2.6,2.1-5.3,3.6-8.1c1.6-2.7,3.3-5.2,5.1-7.3c0.9-1,1.7-2,2.6-2.8c0.8-0.9,1.7-1.6,2.5-2.3
				c0.8-0.7,1.5-1.2,2.2-1.7c0.6-0.5,1.2-0.9,1.7-1.2c1-0.6,1.5-1,1.5-0.9c0,0-0.5,0.4-1.4,1.1c-0.5,0.3-1,0.7-1.7,1.3
				c-0.6,0.5-1.4,1.1-2.1,1.8c-0.8,0.7-1.6,1.4-2.4,2.3c-0.9,0.8-1.7,1.8-2.6,2.8c-1.7,2.1-3.4,4.5-5,7.2c-1.5,2.7-2.7,5.5-3.6,8
				c-0.4,1.3-0.8,2.5-1.1,3.7c-0.3,1.2-0.5,2.3-0.7,3.3c-0.2,1-0.3,1.9-0.4,2.7c-0.1,0.8-0.2,1.5-0.2,2.1
				C437.7,376,437.7,376.6,437.6,376.6z"/>
		</g>
		<g>
			<path class="st8" d="M423,436.6c0,0-0.2-0.6-0.1-1.8c0.1-1.2,0.7-3.1,2.6-4.3l0,0c3.1-3.3,8.2-7.6,15-10.5l-0.2,0.2
				c0.2-1.9,0.4-3.8,0.6-5.8c0.7-8.6,0.6-16.4,0.3-22c-0.1-2.8-0.3-5.1-0.4-6.7c-0.1-0.7-0.1-1.3-0.1-1.8c0-0.4,0-0.6,0-0.6
				c0,0,0.1,0.2,0.1,0.6c0.1,0.5,0.1,1.1,0.2,1.8c0.2,1.6,0.4,3.8,0.6,6.7c0.4,5.6,0.5,13.5-0.2,22.1c-0.1,2-0.4,4-0.6,5.9l0,0.1
				l-0.1,0.1c-6.8,2.9-11.9,7-15,10.2l0,0l0,0c-0.9,0.5-1.5,1.3-1.9,2c-0.4,0.7-0.6,1.4-0.7,2C422.9,436,423.1,436.6,423,436.6z"/>
		</g>
		<g>
			<path class="st8" d="M464.9,432.4c-0.1,0-0.8-1.4-2.5-3.4c-1.7-2-4.3-4.5-7.8-6.3c-1.8-0.9-3.5-1.6-5.2-2
				c-1.7-0.4-3.2-0.6-4.5-0.6c-2.6,0-4.2,0.3-4.2,0.2c0,0,0.4-0.1,1.1-0.3c0.7-0.1,1.8-0.3,3.1-0.3c1.3,0,2.9,0.1,4.6,0.5
				c1.7,0.4,3.5,1.1,5.3,2c3.6,1.9,6.3,4.5,7.9,6.5c0.8,1,1.4,1.9,1.7,2.6C464.8,432,464.9,432.4,464.9,432.4z"/>
		</g>
		<g>
			<path class="st8" d="M464.2,418.7c0,0.1-1.2-0.5-3.2-1c-1-0.3-2.2-0.5-3.6-0.6c-1.4-0.1-2.9-0.2-4.5-0.1c-3.2,0.1-6,0.7-8.1,1.2
				c-2,0.5-3.3,1-3.3,0.9c0,0,0.3-0.2,0.8-0.4c0.5-0.2,1.3-0.5,2.4-0.8c2-0.6,4.9-1.3,8.1-1.4c1.6-0.1,3.2,0,4.6,0.2
				c1.4,0.2,2.6,0.4,3.7,0.7c0.5,0.1,1,0.3,1.4,0.5c0.4,0.1,0.7,0.3,1,0.4C463.9,418.5,464.2,418.7,464.2,418.7z"/>
		</g>
		<g>
			<g>
				<path class="st10" d="M436.4,260.7c-2.9-12.4-8.2-25.2-18.5-32.7c-9.2-6.7-22.6-9.3-33.9-8.5c-5.6,0.4-11.8,3.2-16.6,6.1
					c-6.6,4-9.1,11.8-12.1,18.9c-6,14.2-4.6,33.1,0,38.2l59.4,28.9c10.2-5.7,21.2-13.4,23.5-24.8
					C439.7,279.1,438.2,268.4,436.4,260.7z"/>
				<g>
					<path class="st5" d="M413.9,238.6l-37.1-9.6c-11.9-1.3-19.9,13.3-20.7,25.2c-0.9,13.3-1.5,29.5,0,39.4
						c3,19.9,18.3,24.7,18.3,24.7c0-0.1,0,17.3,0.1,23.2l17.3,52.7l24.6-52.7l3.8-95.7C420.2,242.1,417.5,239,413.9,238.6z"/>
					<g>
						<path class="st7" d="M362.6,270.3c-0.1,1.3,1,2.5,2.4,2.6c1.4,0.1,2.6-0.9,2.6-2.3c0.1-1.3-1-2.5-2.4-2.6
							C363.9,267.9,362.7,268.9,362.6,270.3z"/>
					</g>
					<g>
						<path class="st7" d="M359.5,262.7c0.3,0.3,2.3-1.1,5-1.1c2.7,0,4.8,1.4,5.1,1.1c0.1-0.1-0.2-0.8-1-1.4c-0.9-0.6-2.3-1.3-4-1.3
							c-1.7,0-3.2,0.6-4,1.3C359.6,261.9,359.3,262.5,359.5,262.7z"/>
					</g>
					<g>
						<path class="st7" d="M387.6,270.3c-0.1,1.3,1,2.5,2.4,2.6c1.4,0.1,2.6-0.9,2.6-2.3c0.1-1.3-1-2.5-2.4-2.6
							C388.8,267.9,387.6,268.9,387.6,270.3z"/>
					</g>
					<g>
						<path class="st7" d="M386.5,263.4c0.3,0.3,2.3-1.1,5-1.1c2.7,0,4.8,1.4,5.1,1.1c0.1-0.1-0.2-0.8-1-1.4c-0.9-0.6-2.3-1.3-4-1.3
							c-1.7,0-3.2,0.6-4,1.3C386.6,262.6,386.3,263.2,386.5,263.4z"/>
					</g>
					<g>
						<path class="st7" d="M376.4,283.7c0-0.2-1.7-0.5-4.5-0.8c-0.7-0.1-1.4-0.2-1.5-0.7c-0.2-0.5,0.1-1.3,0.5-2.1
							c0.7-1.7,1.4-3.5,2.1-5.3c2.9-7.6,5.1-13.8,4.8-13.9c-0.3-0.1-2.9,5.9-5.9,13.5c-0.7,1.9-1.4,3.7-2,5.4
							c-0.3,0.8-0.7,1.7-0.4,2.8c0.2,0.5,0.7,0.9,1.1,1c0.4,0.1,0.8,0.2,1.2,0.2C374.6,283.8,376.4,283.8,376.4,283.7z"/>
					</g>
					<path class="st6" d="M374.2,318.4l0.1,5c19.9,2,26.6-11.9,26.6-11.9C387.6,319.4,374.2,318.4,374.2,318.4z"/>
					<path class="st6" d="M385.4,288.9c-0.8-1.3-2.2-2-3.7-2c-2.1-0.1-3.9,0.6-5.2,2.6c-0.5,0.6-0.4,2.1-0.2,2.6
						c0.2,0.4,0,0.2,0.4,0.5c1.2,1.1,2.5,2.2,4.1,2.6c1.6,0.4,3.5-0.1,4.6-1.6C386.2,292.1,386.2,290.1,385.4,288.9z"/>
					<g>
						<path class="st7" d="M384.4,285.6c-0.4,0-0.5,3-3,5.1c-2.6,2.1-5.7,1.8-5.8,2.2c0,0.2,0.7,0.6,2,0.6c1.3,0.1,3.2-0.4,4.8-1.6
							c1.6-1.3,2.2-3,2.4-4.2C385,286.3,384.7,285.6,384.4,285.6z"/>
					</g>
					<g>
						<path class="st10" d="M385.3,254.5c0.3,0.7,3,0.4,6.2,0.8c3.2,0.3,5.8,1.3,6.3,0.6c0.2-0.3-0.3-1-1.3-1.8
							c-1-0.7-2.7-1.4-4.6-1.7c-1.9-0.2-3.7,0.1-4.9,0.5C385.7,253.6,385.1,254.2,385.3,254.5z"/>
					</g>
					<g>
						<path class="st10" d="M360.5,253.2c0.5,0.6,2.4,0,4.7,0c2.3-0.1,4.2,0.4,4.6-0.2c0.2-0.3-0.1-0.9-0.9-1.5
							c-0.8-0.6-2.2-1.1-3.8-1c-1.6,0-2.9,0.6-3.7,1.2C360.6,252.2,360.3,252.9,360.5,253.2z"/>
					</g>
					<g>
						<path class="st5" d="M414.7,270c0.3-0.1,11.1-3.6,11,7.6c-0.1,11.1-11.2,8.7-11.3,8.4C414.4,285.7,414.7,270,414.7,270z"/>
					</g>
					<g>
						<path class="st6" d="M417.9,281.8c0,0,0.2,0.1,0.5,0.3c0.3,0.1,0.9,0.3,1.4,0c1.2-0.4,2.2-2.3,2.3-4.3c0-1-0.2-2-0.5-2.8
							c-0.3-0.8-0.9-1.4-1.4-1.5c-0.6-0.1-1,0.2-1.1,0.5c-0.2,0.3-0.1,0.5-0.1,0.6c0,0-0.2-0.2-0.1-0.6c0-0.2,0.2-0.5,0.4-0.7
							c0.3-0.2,0.7-0.3,1.1-0.3c0.9,0.1,1.6,0.9,2,1.7c0.4,0.9,0.7,2,0.6,3.1c-0.1,2.2-1.3,4.3-2.9,4.8c-0.8,0.2-1.4,0-1.8-0.3
							C417.9,282.1,417.8,281.8,417.9,281.8z"/>
					</g>
				</g>
				<g>
					<path class="st7" d="M421.6,285.5c0.1-0.1,0.5,0.5,0.4,1.5c0,0.5-0.2,1.1-0.8,1.6c-0.6,0.4-1.4,0.4-2.1,0.2
						c-0.7-0.3-1.3-0.8-1.5-1.5c-0.1-0.7,0-1.3,0.3-1.7c0.6-0.9,1.3-0.9,1.2-0.9c0,0.1-0.5,0.3-0.9,1.1c-0.2,0.4-0.3,0.9-0.2,1.4
						c0.1,0.5,0.6,0.9,1.2,1.1c0.6,0.2,1.2,0.2,1.6-0.1c0.4-0.3,0.6-0.8,0.7-1.2C421.7,286.1,421.5,285.5,421.6,285.5z"/>
				</g>
				<path class="st10" d="M355.1,257.3c1.5-3.2,4.4-5.6,7.5-7.3c3.1-1.8,6.4-3,9.5-4.8c7.1-4.1,12.5-10.9,14.9-18.7
					c-5.5-2.8-12.3-2.5-17.8,0.2c-5.5,2.7-9.8,7.7-12.3,13.3c-2.5,5.6-3.5,11.8-3.4,18"/>
				<g>
					<path class="st10" d="M417.3,235.7c-8.2-7.8-23.7-12.1-34.5-8.5c1.6,9.4,8.7,19.9,14.9,27c6.3,7.2,10,19.9,23.6,15.6
						c0.9-0.3,2,0.6,2.9,0.1c0.7-0.4,1.1-1.3,1.3-2.1C429,256.7,425.7,243.7,417.3,235.7z"/>
				</g>
				<g>
					<path class="st10" d="M355.7,270.8c0,0-0.7,0.2-2-0.1c-1.2-0.3-3-1.2-4.3-3.1c-1.4-1.9-1.9-4.7-1.7-7.7c0.1-1.5,0.4-3,0.8-4.6
						c0.4-1.6,0.9-3.2,1.4-4.8c2.3-6.5,5.8-11.8,8.7-15.2c1.4-1.7,2.8-3,3.7-3.9c0.4-0.4,0.8-0.7,1.1-1c0.3-0.2,0.4-0.3,0.4-0.3
						c0,0-0.5,0.5-1.3,1.4c-0.9,0.9-2.1,2.2-3.5,4c-2.8,3.5-6.2,8.7-8.4,15.1c-0.5,1.6-1,3.2-1.4,4.8c-0.4,1.6-0.7,3.1-0.8,4.5
						c-0.3,2.9,0.3,5.6,1.5,7.4c1.2,1.8,2.8,2.8,4,3.2C355,270.9,355.7,270.8,355.7,270.8z"/>
				</g>
			</g>
			<path class="st10" d="M450,236.9c0-5.2-1.5-10.6-5-14.4c-4.9-5.3-13.6-6.5-20-3.1c-6.4,3.4-10.3,10.8-9.8,18
				c0.4,7.2,4.9,14,11.2,17.6l4.6-0.5c4.6,2.4,10.6,0.7,14.2-3.1C448.6,247.5,450,242.1,450,236.9z"/>
			<g>
				<path class="st9" d="M421.9,233.8c0,0-0.1,0.1-0.2,0.4c-0.2,0.2-0.4,0.6-0.8,1c-0.7,0.8-1.8,2-3.4,3.2c-1.6,1.2-3.6,2.4-6.1,3.2
					c-2.5,0.9-5.3,1.4-8.3,1.2c-3-0.2-5.8-1-8.2-2.1c-2.4-1.1-4.3-2.5-5.7-3.9c-1.4-1.4-2.4-2.6-3-3.5c-0.3-0.4-0.5-0.8-0.7-1.1
					c-0.1-0.3-0.2-0.4-0.2-0.4c0.1-0.1,1.2,2.1,4.1,4.7c1.4,1.3,3.3,2.6,5.6,3.7c2.3,1.1,5,1.9,8,2c2.9,0.1,5.7-0.3,8.2-1.2
					c2.4-0.8,4.4-2,6-3.1C420.5,235.8,421.8,233.8,421.9,233.8z"/>
			</g>
			<g>
				<path class="st9" d="M427.3,249c0,0-0.1,0.1-0.4,0.4c-0.3,0.2-0.6,0.6-1.2,1c-1,0.8-2.7,1.8-5,2.6c-2.2,0.8-5.1,1.2-8.2,1.1
					c-3.1-0.1-6.6-0.9-9.8-2.5c-3.2-1.6-6-3.8-8.2-6c-2.2-2.2-4-4.4-5.3-6.4c-1.3-2-2.3-3.6-2.9-4.8c-0.3-0.6-0.5-1-0.7-1.4
					c-0.1-0.3-0.2-0.5-0.2-0.5c0,0,0.1,0.1,0.3,0.4c0.2,0.3,0.5,0.8,0.8,1.3c0.7,1.1,1.7,2.8,3,4.7c1.4,1.9,3.1,4.1,5.3,6.3
					c2.2,2.2,4.9,4.2,8.1,5.8c3.2,1.6,6.6,2.3,9.6,2.5c3.1,0.2,5.9-0.2,8.1-1c2.2-0.7,3.9-1.7,5-2.4
					C426.7,249.4,427.2,248.9,427.3,249z"/>
			</g>
			<g>
				<path class="st9" d="M445.5,232c0,0-0.1,0.3-0.5,0.7c-0.3,0.4-0.9,1-1.6,1.6c-0.7,0.6-1.6,1.3-2.7,2c-1.1,0.6-2.3,1.3-3.7,1.8
					c-1.4,0.5-2.8,0.8-4,0.9c-1.3,0.1-2.4,0.2-3.4,0.1c-1-0.1-1.7-0.2-2.2-0.3c-0.5-0.1-0.8-0.2-0.8-0.2c0-0.1,1.2,0.1,3,0.2
					c1.9,0,4.5-0.2,7.2-1.2c2.7-0.9,4.9-2.4,6.4-3.6C444.7,232.8,445.4,231.9,445.5,232z"/>
			</g>
			<g>
				<path class="st9" d="M449.7,239c0,0,0.2,0.3,0.1,0.9c0,0.6-0.2,1.5-0.9,2.3c-0.6,0.9-1.7,1.7-2.9,2.2c-1.3,0.6-2.7,1.1-4.2,1.4
					c-3.1,0.7-6,0.6-8.1,0.3c-1-0.1-1.8-0.3-2.4-0.5c-0.6-0.2-0.9-0.3-0.8-0.3c0-0.1,1.3,0.2,3.3,0.4c2,0.2,4.9,0.2,7.9-0.5
					c3-0.7,5.8-1.7,7-3.4c0.6-0.8,0.9-1.6,0.9-2.1C449.7,239.3,449.6,239,449.7,239z"/>
			</g>
		</g>
		<g>
			<path class="st8" d="M424.5,442.2c0,0-0.2,0-0.6,0.1c-0.4,0-0.9,0-1.6,0c-1.4,0-3.4-0.1-5.8-0.6c-4.8-0.8-11.5-3.1-17.4-7.8
				c-6-4.7-9.7-10.6-11.7-15.1c-1-2.3-1.6-4.2-1.9-5.5c-0.2-0.7-0.3-1.2-0.4-1.5c-0.1-0.4-0.1-0.5-0.1-0.5c0,0,0.2,0.7,0.6,2
				c0.4,1.3,1,3.2,2.1,5.4c2,4.4,5.8,10.2,11.7,14.8c5.9,4.6,12.4,6.9,17.2,7.8c2.4,0.5,4.4,0.6,5.7,0.7
				C423.8,442.1,424.5,442.1,424.5,442.2z"/>
		</g>
		<g>
			<path class="st8" d="M377.7,438.9c0,0-0.2-0.1-0.4-0.2c-0.3-0.2-0.7-0.5-1.2-0.8c-1.1-0.7-2.6-1.7-4.4-2.9
				c-3.7-2.4-8.9-5.8-15-8.8c-6.1-2.9-12.1-4.6-16.4-5.3c-2.2-0.3-4-0.4-5.2-0.5c-1.2,0-1.9,0-1.9-0.1c0,0,0.2,0,0.5-0.1
				c0.3,0,0.8-0.1,1.4-0.1c1.2,0,3.1,0,5.3,0.3c4.4,0.5,10.5,2.2,16.6,5.1c6.1,3,11.3,6.4,15,8.9c1.8,1.3,3.3,2.3,4.3,3.1
				c0.5,0.3,0.8,0.6,1.1,0.9C377.6,438.8,377.7,438.9,377.7,438.9z"/>
		</g>
		<polygon class="st5" points="428,436.4 359.7,439.8 365,459.9 456,460.3 		"/>
		<g>
			<g>
				<g>
					<g>
						<path class="st5" d="M362.9,439.7c0,0-22.1-11-24.8-11.1c-2.1-0.1-14.2,2-19.8,2.9c-2.1,0.4-3.8,2.3-3.4,4.5
							c0,0.1,0.1,0.3,0.1,0.4c0.8,2.2,3.1,2.4,3.1,2.4s-2.8,1.3-2.3,4.4c0.4,3.2,4.4,3.2,4.4,3.2s-0.2,0.2-0.5,0.6
							c-1.8,2.4-0.2,5.8,2.8,6l1.8,0.1c0,0-2.2,1.3-1.8,3.5c0.7,4.1,10.2,3.5,10.2,3.5l32.5-0.2L362.9,439.7z"/>
					</g>
				</g>
				<g>
					<g>
						<path class="st5" d="M319.7,426.2c0.3,1.4,1.1,4.2,3.6,5.2l12.8-2.5c0,0-10.1-1.8-11.7-3.3c-0.6-0.5-1.3-1.1-2.1-1.5
							C320.9,423.5,319.4,424.8,319.7,426.2z"/>
					</g>
				</g>
			</g>
			<g>
				<g>
					<g>
						<path class="st6" d="M330,429.8c0,0.2-2.6,0.9-5.8,1.3c-3.2,0.4-5.9,0.7-5.9,0.5c0-0.2,2.6-0.9,5.8-1.3
							C327.3,429.8,330,429.5,330,429.8z"/>
					</g>
				</g>
			</g>
			<g>
				<g>
					<g>
						<path class="st6" d="M328.2,437.4c0.1,0.2-2.2,1-5,1.3c-2.8,0.3-5.2,0.1-5.2-0.1c0-0.2,2.3-0.4,5.1-0.7
							C325.9,437.5,328.2,437.2,328.2,437.4z"/>
					</g>
				</g>
			</g>
			<g>
				<g>
					<g>
						<path class="st6" d="M334.6,435.5c0.2,0.1,0.1,0.8-0.6,1.4c-0.7,0.6-1.4,0.6-1.5,0.4c-0.1-0.2,0.4-0.6,0.9-1
							C334,435.8,334.4,435.4,334.6,435.5z"/>
					</g>
				</g>
			</g>
			<g>
				<g>
					<g>
						<path class="st6" d="M330.9,445.3c0,0.2-2.4,0.7-5.5,1.1c-3.1,0.4-5.6,0.5-5.6,0.2c0-0.2,2.4-0.7,5.5-1.1
							C328.4,445.2,330.9,445.1,330.9,445.3z"/>
					</g>
				</g>
			</g>
			<g>
				<g>
					<g>
						<path class="st6" d="M337.7,440.8c0.1,0,0.3,0.2,0.5,0.7c0.1,0.5,0.1,1.3-0.3,2c-0.4,0.7-1.1,1.1-1.5,1.2
							c-0.5,0.1-0.8,0-0.8-0.1c0-0.2,1.1-0.5,1.6-1.6C337.8,441.9,337.5,440.8,337.7,440.8z"/>
					</g>
				</g>
			</g>
			<g>
				<g>
					<g>
						<path class="st6" d="M334,453c0,0.2-2.2,0.5-5,0.6c-2.8,0.1-5,0-5.1-0.3c0-0.2,2.2-0.5,5-0.6C331.8,452.7,334,452.8,334,453z"
							/>
					</g>
				</g>
			</g>
			<g>
				<g>
					<g>
						<path class="st6" d="M340.6,447.9c0.1,0,0.3,0.2,0.4,0.7c0.1,0.5-0.1,1.2-0.4,1.9c-0.8,1.3-1.8,1.9-1.9,1.7
							c-0.2-0.2,0.5-1.1,1.2-2.1C340.5,448.9,340.4,447.9,340.6,447.9z"/>
					</g>
				</g>
			</g>
		</g>
	</g>
</g>
<g id="Character_1">
	<g>
		<g>
			<path class="st11" d="M275.7,449c-4.5-2.1-19.4-8-19.4-8l-7.3-50l-29.8,4.5c0,0,17.3,63.7,22,64.2c4.6,0.4,31.2,0,31.2,0l8.7-0.1
				C281.1,459.6,278.9,450.5,275.7,449z"/>
			<g>
				<path class="st12" d="M255,458.1c0,0.1-0.5,0.4-1.5,0.6c-1,0.2-2.4,0.2-3.8-0.1c-1.5-0.4-2.7-1.1-3.4-1.8
					c-0.7-0.7-1.1-1.2-1-1.2c0.1-0.1,0.5,0.4,1.2,0.9c0.8,0.6,1.9,1.2,3.3,1.6c1.4,0.4,2.7,0.4,3.7,0.3
					C254.4,458.2,255,458,255,458.1z"/>
			</g>
			<g>
				<path class="st12" d="M272.2,459.5c-0.1,0-0.7-1-1.8-2.5c-0.6-0.8-1.3-1.6-2.3-2.4c-1-0.8-2.3-1.3-3.6-1.8
					c-2.8-0.9-5.2-2.2-6.8-3.2c-1.7-1-2.6-1.7-2.6-1.7c0-0.1,1.1,0.5,2.8,1.4c1.7,0.9,4,2.1,6.8,3.1c1.4,0.5,2.7,1,3.8,1.9
					c1,0.8,1.7,1.7,2.3,2.5c0.5,0.8,0.9,1.5,1.2,2C272.1,459.2,272.3,459.5,272.2,459.5z"/>
			</g>
		</g>
		<g>
			<path class="st10" d="M185.1,225.9l-11,7.6c0,0-13.7-0.8-23.6,2.6c-5.5,1.9-12.2,4.2-19.4,11.5c-6.6,6.7-11.4,15-13.8,24.1
				l-13.3,110.9l-20.2,78.2h134.5v-99l12.9-45.4c0,0-3.3-5.2-3.2-7.3c0.1-2.1,7.6-50.5,7.6-50.5l-15.3-18.3L185.1,225.9z"/>
			<path class="st10" d="M233.6,256.2c0,0,7.6,3.5,9.5,16.8c1.9,13.3,15.3,115.9,15.3,115.9s-14.9,3.4-28.5,5l-17.1,2.9l-0.4-68.6
				L233.6,256.2z"/>
			<g class="st13">
				<path d="M131.4,457.6c22.9-27.4,26.4-67.1,49.6-94.3c-4.7,2.7-9.4,5.3-14.2,8c2.5-23.6,4.9-48.2-3-70.6
					c-4.2,53.4-15.4,106.3-33.1,156.8"/>
			</g>
			<g>
				<path class="st10" d="M168,258.3c-0.5,42.3-2.5,84.6-5.8,126.7c-0.2,2.1-1,6.1-2.2,9.7c-1,3.3-4.3,5.3-7.7,4.8l-27.6-4.2
					c-4.8-0.8-6.6-1.4-8.1-4.5c-1-2.1-1.4-4.5-1.3-6.8c1.1-37.8-2.2-57.8,0-93.4"/>
				<g>
					<path class="st7" d="M115.4,290.5c0,0,0,0.2,0,0.7c0,0.5-0.1,1.2-0.1,2.2c-0.1,1.9-0.2,4.7-0.3,8.3c-0.1,3.6-0.2,8-0.2,13.1
						c0,5.1,0.1,10.9,0.3,17.4c0.4,12.9,1,28.2,0.7,45.3c0,2.1-0.1,4.3-0.1,6.5c-0.1,2.1,0.3,4.3,1.1,6.4c0.4,1,1,2,1.8,2.7
						c0.8,0.7,1.9,1.1,2.9,1.4c2.2,0.6,4.5,0.8,6.8,1.2c4.6,0.7,9.2,1.4,14,2.1c2.4,0.4,4.8,0.7,7.2,1.1c1.2,0.2,2.4,0.4,3.6,0.5
						c1.2,0.1,2.4-0.2,3.4-0.7c1.1-0.5,2-1.3,2.6-2.3c0.7-1,1-2.1,1.3-3.3c0.7-2.3,1.2-4.7,1.6-7c0.4-4.7,0.8-9.5,1.1-14.1
						c0.7-9.2,1.3-18.2,1.8-26.7c1-17,1.7-32.3,2.2-45.2c0.5-12.9,0.7-23.3,0.9-30.5c0.1-3.6,0.1-6.4,0.2-8.3c0-0.9,0-1.7,0.1-2.2
						c0-0.5,0-0.7,0-0.7s0,0.2,0,0.7c0,0.5,0,1.2,0,2.2c0,1.9,0,4.7-0.1,8.3c-0.1,7.2-0.3,17.6-0.7,30.5c-0.4,12.9-1.1,28.2-2,45.2
						c-0.5,8.5-1.1,17.4-1.7,26.7c-0.3,4.6-0.7,9.3-1.1,14.1c-0.4,2.4-0.9,4.7-1.6,7.1c-0.3,1.2-0.6,2.4-1.4,3.5
						c-0.7,1.1-1.7,1.9-2.8,2.5c-1.1,0.6-2.4,0.8-3.7,0.7c-1.3-0.1-2.4-0.4-3.6-0.5c-2.4-0.4-4.8-0.7-7.2-1.1
						c-4.7-0.7-9.4-1.4-14-2.1c-2.3-0.4-4.6-0.6-6.8-1.2c-1.1-0.3-2.2-0.7-3.1-1.5c-0.9-0.8-1.5-1.8-1.9-2.9
						c-0.9-2.1-1.2-4.4-1.2-6.6c0-2.2,0.1-4.3,0.1-6.5c0.3-17-0.3-32.4-0.6-45.3c-0.2-6.4-0.2-12.3-0.2-17.4
						c0.1-5.1,0.2-9.5,0.3-13.1c0.1-3.6,0.3-6.4,0.4-8.3c0.1-0.9,0.1-1.7,0.1-2.2C115.4,290.8,115.4,290.5,115.4,290.5z"/>
				</g>
			</g>
			<g>
				<path class="st7" d="M218.2,399.2c0,0,0-0.1,0-0.3c0-0.2,0-0.5,0-0.9c0-0.9,0.1-2.1,0.1-3.6c0.1-3.1,0.4-7.6,1.1-13.2
					c0.4-2.8,0.8-5.8,1.4-9c0.3-1.6,0.6-3.3,0.9-5c0.4-1.7,0.7-3.5,1.1-5.3c1.6-7.2,3.7-15.1,5.6-23.4c4-16.6,5.4-32,5.1-43.2
					c-0.1-2.8-0.2-5.3-0.3-7.5c-0.1-2.2-0.3-4.1-0.5-5.7c-0.1-1.5-0.2-2.7-0.3-3.6c0-0.4,0-0.7-0.1-0.9c0-0.2,0-0.3,0-0.3
					c0,0,0,0.1,0.1,0.3c0,0.2,0.1,0.5,0.1,0.9c0.1,0.9,0.2,2.1,0.4,3.6c0.1,1.6,0.4,3.5,0.5,5.7c0.1,2.2,0.2,4.8,0.4,7.5
					c0.4,11.2-1,26.7-5,43.3c-1.9,8.3-4,16.2-5.7,23.4c-0.4,1.8-0.8,3.6-1.2,5.3c-0.4,1.7-0.6,3.4-1,5c-0.7,3.2-1,6.3-1.5,9
					c-0.7,5.5-1.1,10-1.3,13.2c-0.1,1.5-0.2,2.7-0.2,3.6c0,0.4-0.1,0.7-0.1,0.9C218.2,399.1,218.2,399.2,218.2,399.2z"/>
			</g>
			<g>
				<path class="st7" d="M217.2,331.9c0,0-0.1,0.2-0.4,0.5c-0.3,0.3-0.7,0.7-1.2,1.2c-1,1.1-2.6,2.6-4.5,4.4
					c-3.9,3.7-9.4,8.6-15.8,13.6c-6.4,5-12.5,9.2-17,12.1c-2.2,1.4-4.1,2.6-5.4,3.3c-0.6,0.3-1.1,0.6-1.5,0.9
					c-0.3,0.2-0.5,0.3-0.5,0.3c0,0,0.2-0.1,0.5-0.4c0.4-0.2,0.9-0.6,1.4-0.9c1.3-0.8,3.1-2,5.3-3.5c4.4-3,10.5-7.2,16.8-12.2
					c6.4-5,11.9-9.9,15.8-13.5c2-1.8,3.5-3.3,4.6-4.3c0.5-0.5,0.9-0.9,1.3-1.2C217.1,332,217.2,331.9,217.2,331.9z"/>
			</g>
			<g class="st13">
				<path d="M233.3,310.4c-3.3,30.4-14.1,63.7-15.1,82.9c4.3-13.7,9.7-26.8,13.7-40.6S237.7,324.1,233.3,310.4z"/>
			</g>
		</g>
		<g>
			<g>
				<path class="st7" d="M253.1,133.4c2.2-0.8,4.1-2.7,4.8-4.9c0.7-2.3,0.4-4.9-0.9-6.8c-1-1.5-2.6-2.7-3.6-4.3
					c-0.8-1.3-1.1-2.9-1.6-4.3c-1.7-4.7-5.9-8.2-10.7-9.5c-4.8-1.3-10-0.5-14.4,1.7c-1.8,0.9-3.5,2-5.4,2.2
					c-1.9,0.2-3.7-0.6-5.6-0.9c-4.4-0.8-9.3,0.9-12.2,4.3c-2.9,3.4-3.9,8.5-2.4,12.7c-5.1,0.9-9.3,5.7-9.3,10.9
					c0,5.2,4.1,10.1,9.2,11c3.2,0.6,6.4-0.2,9.5-1c12.7-2.9,25.7-4.4,38.7-4.3"/>
			</g>
			<g>
				<path class="st10" d="M187.4,201.9c-4.8-7.9-6.7-17.6-5.2-26.7c1.5-9.1,5.2-20.2,12.3-26.2c-3.1-5-0.5-9.4,3.3-13.9
					c3.8-4.5,9.5-7,15.2-8.5c8.5-2.3,17.4-2.7,26.1-1.4c7.1,1.1,16.2,4.2,16.1,9.4c-0.1,5.5-4,7.1-4,7.1s6.6,3.4,11.5,10.4
					c7.1,10.1,8.8,19.3,5.7,28.5c-3.1,9.2-6.6,16.2-13.4,21.1"/>
			</g>
			<g>
				<g>
					<g>
						<path class="st8" d="M247.2,211.7c1.1-0.7,2.6-1.3,4-1.4l-0.3-0.1c0.3,0,0.5,0,0.8,0c1,0,1.9,0.3,2.6,1l0,0
							c1.3,0.9,2.4,2.3,2.8,3.8c0.7,2.7-0.5,5.8-2.7,7.5c-1.9,1.6-4.7,2.2-6.9,1.1c-2-1-3.1-3.3-3.2-5.6
							C244.1,215.7,245.2,213.1,247.2,211.7z"/>
					</g>
				</g>
				<g>
					<g>
						<g>
							<g>
								<g>
									<g>
										<g>
											<path class="st11" d="M184.6,233.2l11.1-73.4c0.7-3.7,4.1-6.2,7.8-5.9l39.4-1.7c12.3,1.2,17.2,17.6,15.4,29.8
												c-1.9,13.5-4.8,30-8.4,39.7c-7.3,19.4-23.2,18.8-23.2,18.8c0-0.1-3,13.9-4.6,21.2l-8.1,28.8L184.6,233.2z"/>
										</g>
									</g>
								</g>
							</g>
							<g>
								<g>
									<g>
										<g>
											<g>
												<g>
													<g>
														<g>
															<g>
																<g>
																	<g>
																		<g>
																			<g>
																				<g>
																					<g>
																						<g>
																							<g>
																								<g>
																									<g>
																										<g>
																											<path class="st7" d="M250.7,198c-0.2,1.4-1.6,2.3-3,2.1c-1.4-0.2-2.4-1.5-2.2-2.9c0.2-1.4,1.6-2.3,3-2.1
																												C249.9,195.3,250.9,196.6,250.7,198z"/>
																										</g>
																									</g>
																								</g>
																							</g>
																						</g>
																					</g>
																				</g>
																			</g>
																		</g>
																	</g>
																</g>
																<g>
																	<g>
																		<g>
																			<g>
																				<g>
																					<g>
																						<g>
																							<g>
																								<g>
																									<g>
																										<g>
																											<g>
																												<path class="st7" d="M253.1,189.9c-0.4,0.3-2-1.6-4.8-2.1c-2.8-0.6-5.1,0.4-5.3,0
																													c-0.1-0.2,0.3-0.7,1.4-1.2c1-0.5,2.6-0.8,4.3-0.4c1.7,0.4,3,1.3,3.7,2.1
																													C253.1,189.1,253.3,189.8,253.1,189.9z"/>
																											</g>
																										</g>
																									</g>
																								</g>
																							</g>
																						</g>
																					</g>
																				</g>
																			</g>
																		</g>
																	</g>
																</g>
															</g>
															<g>
																<g>
																	<g>
																		<g>
																			<g>
																				<g>
																					<g>
																						<g>
																							<g>
																								<g>
																									<g>
																										<g>
																											<path class="st7" d="M224.6,193.2c-0.2,1.4-1.6,2.3-3,2.1c-1.4-0.2-2.4-1.5-2.2-2.9
																												c0.2-1.4,1.6-2.3,3-2.1C223.9,190.6,224.8,191.9,224.6,193.2z"/>
																										</g>
																									</g>
																								</g>
																							</g>
																						</g>
																					</g>
																				</g>
																			</g>
																		</g>
																	</g>
																</g>
																<g>
																	<g>
																		<g>
																			<g>
																				<g>
																					<g>
																						<g>
																							<g>
																								<g>
																									<g>
																										<g>
																											<g>
																												<path class="st7" d="M225.8,184.8c-0.4,0.3-2-1.6-4.8-2.1c-2.8-0.6-5.1,0.4-5.3,0
																													c-0.1-0.2,0.3-0.7,1.4-1.2c1-0.5,2.6-0.8,4.3-0.4c1.7,0.4,3,1.3,3.7,2.1
																													C225.8,184,226,184.7,225.8,184.8z"/>
																											</g>
																										</g>
																									</g>
																								</g>
																							</g>
																						</g>
																					</g>
																				</g>
																			</g>
																		</g>
																	</g>
																</g>
															</g>
															<g>
																<g>
																	<g>
																		<g>
																			<g>
																				<g>
																					<g>
																						<g>
																							<g>
																								<g>
																									<g>
																										<g>
																											<path class="st7" d="M231.6,207.4c0-0.2,1.8-0.1,4.7,0.1c0.7,0.1,1.4,0.1,1.6-0.4c0.3-0.5,0.1-1.3,0-2.2
																												c-0.3-1.8-0.6-3.8-1-5.8c-1.3-8.3-2.1-15-1.8-15.1c0.3-0.1,1.7,6.6,3,14.9c0.3,2,0.6,4,0.9,5.8
																												c0.1,0.9,0.4,1.9-0.2,2.9c-0.3,0.5-0.9,0.8-1.4,0.8c-0.5,0-0.9,0-1.2-0.1
																												C233.3,207.9,231.5,207.6,231.6,207.4z"/>
																										</g>
																									</g>
																								</g>
																							</g>
																						</g>
																					</g>
																				</g>
																			</g>
																		</g>
																	</g>
																</g>
															</g>
															<g>
																<g>
																	<g>
																		<g>
																			<g>
																				<g>
																					<g>
																						<g>
																							<g>
																								<g>
																									<g>
																										<path class="st12" d="M226.7,240.6c0,0-13.7-1.9-25.4-12.7c0,0,3.7,15.1,24.1,17.4L226.7,240.6z"/>
																									</g>
																								</g>
																							</g>
																						</g>
																					</g>
																				</g>
																			</g>
																		</g>
																	</g>
																</g>
															</g>
															<g>
																<g>
																	<g>
																		<g>
																			<g>
																				<g>
																					<g>
																						<g>
																							<g>
																								<g>
																									<g>
																										<path class="st12" d="M229.8,213.9c-0.9-2.2-2.9-3.8-5-4.1c-1.5-0.2-3,0.1-4.1,1.2c-1,1.1-1.5,3-0.9,4.5
																											c0.7,1.7,2.5,2.6,4.2,2.5c1.6-0.1,3.2-0.9,4.6-1.7c0.4-0.2,0.8-0.5,1.1-0.9c0.3-0.4,0.4-1,0.2-1.4"/>
																									</g>
																								</g>
																							</g>
																						</g>
																					</g>
																				</g>
																			</g>
																		</g>
																	</g>
																</g>
															</g>
															<g>
																<g>
																	<g>
																		<g>
																			<g>
																				<g>
																					<g>
																						<g>
																							<g>
																								<g>
																									<g>
																										<g>
																											<path class="st7" d="M223,207.6c0.5,0.1-0.2,3.1,2,5.7c2.1,2.7,5.4,3,5.3,3.4c0,0.2-0.8,0.4-2.2,0.2
																												c-1.3-0.2-3.2-1.1-4.5-2.7c-1.3-1.6-1.6-3.5-1.5-4.8C222.3,208.3,222.8,207.6,223,207.6z"/>
																										</g>
																									</g>
																								</g>
																							</g>
																						</g>
																					</g>
																				</g>
																			</g>
																		</g>
																	</g>
																</g>
															</g>
														</g>
													</g>
												</g>
												<g>
													<g>
														<g>
															<g>
																<g>
																	<g>
																		<g>
																			<g>
																				<g>
																					<g>
																						<g>
																							<path class="st7" d="M228.4,177.5c-0.4,0.7-3.1-0.2-6.4-0.5c-3.3-0.3-6.1,0.1-6.4-0.7
																								c-0.1-0.4,0.5-1,1.7-1.5c1.2-0.5,3-0.9,5-0.7c2,0.2,3.7,0.9,4.8,1.6C228.1,176.5,228.6,177.2,228.4,177.5z"
																								/>
																						</g>
																					</g>
																				</g>
																			</g>
																		</g>
																	</g>
																</g>
															</g>
														</g>
													</g>
												</g>
												<g>
													<g>
														<g>
															<g>
																<g>
																	<g>
																		<g>
																			<g>
																				<g>
																					<g>
																						<g>
																							<path class="st7" d="M253.7,181.7c-0.6,0.5-2.4-0.5-4.7-1c-2.3-0.6-4.3-0.5-4.6-1.2
																								c-0.1-0.4,0.3-0.9,1.3-1.3c1-0.4,2.5-0.6,4-0.2c1.6,0.4,2.8,1.2,3.5,2C253.9,180.7,254,181.4,253.7,181.7z"
																								/>
																						</g>
																					</g>
																				</g>
																			</g>
																		</g>
																	</g>
																</g>
															</g>
														</g>
													</g>
												</g>
											</g>
										</g>
									</g>
								</g>
							</g>
						</g>
					</g>
				</g>
				<g>
					<g>
						<path class="st10" d="M244.5,158.6c0,0-18.7-4.3-37.5,13.9c-12.4,12-18.1,29.1-18.1,29.1l-0.1-35l8.7-14.1L212,148l24.9,3.9
							l8.3,6.6"/>
					</g>
				</g>
				<g>
					<g>
						<path class="st10" d="M207.2,152.5c31.5-0.8,53.3,14.2,52.7,38.6l9.4-14.1l-11.6-22.1l-16.1-8.1l-35.5-2.1L207.2,152.5z"/>
					</g>
				</g>
				<g>
					<g>
						<path class="st8" d="M184.7,198.5c1.2-0.8,2.8-1.4,4.3-1.6l-0.3-0.1c0.3,0,0.6,0,0.8,0.1c1.1,0,2.1,0.3,2.8,1l0,0
							c1.4,1,2.6,2.4,3,4.1c0.7,2.9-0.6,6.2-2.9,8.1c-2,1.7-5,2.4-7.4,1.2c-2.2-1.1-3.4-3.6-3.5-6
							C181.4,202.7,182.5,199.9,184.7,198.5z"/>
					</g>
				</g>
			</g>
			<g>
				<g>
					<path class="st9" d="M194.1,189.3c0,0-0.5-0.2-1.2-0.8c-0.7-0.6-1.6-1.7-2.2-3.3c-0.5-1.6-0.7-3.8,0.3-5.9c0.5-1,1.1-2,1.5-3
						c0.4-1,0.5-2.2-0.2-3.1c-0.6-1-1.6-1.7-2.5-2.4c-0.9-0.8-1.8-1.7-2.3-2.7c-1.1-2-1.2-4.1-1-5.8c0.2-1.7,0.9-2.9,1.4-3.7
						c0.5-0.8,1-1.1,1-1.1c0.2,0.1-1.5,1.6-1.8,4.8c-0.1,1.6,0.1,3.5,1.1,5.4c0.5,0.9,1.2,1.7,2.1,2.4c0.9,0.7,2,1.5,2.7,2.6
						c0.8,1.2,0.7,2.8,0.2,3.9c-0.5,1.2-1.1,2.1-1.6,3.1c-1,1.9-0.9,3.9-0.5,5.4c0.4,1.5,1.2,2.6,1.8,3.3
						C193.7,188.9,194.1,189.2,194.1,189.3z"/>
				</g>
			</g>
			<g>
				<g>
					<path class="st9" d="M197.6,147.4c0.2,0.1-1.4,1.5-1.9,4.5c-0.3,1.5-0.2,3.3,0.5,5.1c0.7,1.9,2.3,3.4,3.9,5.2
						c0.8,0.9,1.5,1.9,1.8,3.1c0.4,1.2,0.2,2.4-0.1,3.4c-0.6,2-1.6,3.6-1.8,5.1c-0.2,1.5,0.1,2.7,0.5,3.4c0.5,0.7,1,0.9,0.9,0.9
						c0,0-0.1,0-0.3-0.1c-0.2-0.1-0.5-0.3-0.8-0.6c-0.6-0.7-1-2-0.9-3.6c0.1-1.6,1.1-3.3,1.6-5.2c0.3-0.9,0.3-2,0-2.9
						c-0.3-1-0.9-1.9-1.7-2.8c-1.5-1.7-3.3-3.4-4-5.5c-0.7-2-0.7-4-0.4-5.5c0.3-1.6,1-2.7,1.5-3.4
						C197.2,147.6,197.6,147.4,197.6,147.4z"/>
				</g>
			</g>
			<g>
				<g>
					<path class="st9" d="M215.6,166.1c0,0-0.3,0.3-0.9,0c-0.3-0.1-0.5-0.4-0.7-0.7c-0.2-0.4-0.3-0.9-0.2-1.4c0.2-1,1-2,1.2-3
						c0.3-1-0.4-2.2-1.5-3c-1.1-0.8-2.2-1.9-2.7-3.1c-0.6-1.2-0.7-2.3-0.7-3.3c0.1-2,0.9-3,0.9-2.9c0.1,0.1-0.4,1.1-0.3,2.9
						c0,0.9,0.3,1.9,0.8,3c0.5,1.1,1.4,1.9,2.6,2.8c0.6,0.5,1.1,1,1.4,1.7c0.4,0.6,0.5,1.5,0.3,2.1c-0.4,1.3-1.2,2.1-1.4,2.9
						c-0.2,0.8,0.1,1.4,0.5,1.7C215.3,166.1,215.6,166.1,215.6,166.1z"/>
				</g>
			</g>
			<g>
				<g>
					<path class="st9" d="M224.8,151.1c0,0,0.2,0,0.4,0.2c0.2,0.3,0.3,0.7,0.1,1.2c-0.2,0.5-0.6,1-0.8,1.5c-0.3,0.5-0.4,1.1-0.4,1.7
						c0,1.3,0.6,2.4,1.1,3.2c0.4,0.8,0.7,1.3,0.6,1.4c-0.1,0.1-0.5-0.3-1.1-1.1c-0.6-0.7-1.4-1.9-1.4-3.5c0-0.8,0.2-1.5,0.6-2.1
						c0.4-0.6,0.8-0.9,0.9-1.3C225.1,151.6,224.7,151.1,224.8,151.1z"/>
				</g>
			</g>
			<g>
				<g>
					<path class="st9" d="M257.1,146.5c0,0-0.1,0.3-0.5,0.7c-0.4,0.4-1,1-1.6,1.7c-0.6,0.7-1,1.8-0.9,3.1c0,1.3,0.4,2.8,0.1,4.4
						c-0.3,1.6-1.1,3-2.1,3.9c-1,1-2.2,1.5-3.2,1.8c-2,0.5-3.3,0.1-3.3,0c0-0.1,1.3,0.1,3.1-0.6c0.9-0.3,1.9-0.9,2.8-1.8
						c0.9-0.9,1.6-2.2,1.9-3.6c0.3-1.4,0-2.8,0-4.2c-0.1-1.4,0.5-2.7,1.2-3.5c0.7-0.8,1.4-1.2,1.8-1.6
						C256.8,146.7,257.1,146.5,257.1,146.5z"/>
				</g>
			</g>
			<g>
				<g>
					<path class="st9" d="M268.4,163.6c0.1,0.2-1,0.4-1.7,1.8c-0.3,0.7-0.9,1.6-1.4,2.5c-0.5,0.9-1,2-1.8,3.1
						c-1.7,2.1-4.4,2.6-6,2.3c-1.7-0.3-2.5-1-2.4-1.1c0.1-0.1,0.9,0.4,2.5,0.5c1.5,0.1,3.8-0.4,5.3-2.2c0.7-0.9,1.2-2,1.8-2.9
						c0.6-1,1.1-1.7,1.6-2.4c0.4-0.7,1.1-1.2,1.5-1.3C268.1,163.6,268.3,163.5,268.4,163.6z"/>
				</g>
			</g>
			<g>
				<g>
					<path class="st9" d="M266.8,184.2c0.1,0.1-0.1,0.5-0.6,1.1c-0.5,0.5-1.5,1.1-2.8,1.1c-1.2,0.1-2.3-0.4-2.9-0.9
						c-0.6-0.5-0.8-0.9-0.7-1c0.1-0.2,1.5,1.1,3.6,1C265.4,185.5,266.6,184.1,266.8,184.2z"/>
				</g>
			</g>
			<g>
				<g>
					<path class="st9" d="M239.9,139.7c0.1,0.1-1,0.4-2.1,1.6c-1.1,1.1-2.2,3.2-1.7,5.6c0.3,1.1,0.7,2.4,0.4,3.7
						c-0.3,1.2-1.1,2-1.7,2.5c-1.3,1.1-2.4,1.3-2.4,1.3c-0.1-0.1,0.9-0.6,2-1.7c0.6-0.6,1.2-1.3,1.3-2.3c0.2-1-0.2-2-0.5-3.3
						c-0.3-1.3-0.1-2.7,0.4-3.7c0.5-1.1,1.1-1.9,1.8-2.5C238.8,139.7,239.9,139.7,239.9,139.7z"/>
				</g>
			</g>
			<g>
				<g>
					<path class="st9" d="M218,150.1c-0.2-0.1,0.8-1.8,1.3-4.1c0.5-2.3,0.3-4.2,0.6-4.2c0.2-0.1,0.8,1.9,0.2,4.4
						C219.5,148.7,218.1,150.3,218,150.1z"/>
				</g>
			</g>
			<g>
				<g>
					<path class="st9" d="M204.5,145.2c0-0.1,0.2-0.2,0.5-0.5c0.3-0.4,0.5-1,0.5-1.8c0-1.6-1.1-3.7-2-6.2c-0.4-1.3-0.6-2.6-0.5-3.8
						c0.1-1.2,0.5-2.2,1.1-2.9c0.6-0.7,1.2-1.1,1.7-1.2c0.5-0.1,0.8,0,0.8,0c0,0.1-0.3,0.1-0.7,0.3c-0.4,0.2-0.9,0.6-1.4,1.3
						c-1,1.3-1.1,3.7-0.3,6.1c0.8,2.4,2,4.6,1.8,6.5c-0.1,0.9-0.5,1.6-0.9,1.9C204.8,145.3,204.5,145.3,204.5,145.2z"/>
				</g>
			</g>
			<g>
				<g>
					<path class="st9" d="M225.5,140.3c0,0,0.2-0.2,0.6-0.5c0.3-0.3,1-0.7,1.2-1.4c0.1-0.7-0.3-1.7-0.8-2.6c-0.6-0.9-1.4-1.9-2.2-3
						c-0.8-1.1-1.5-2.3-1.4-3.6c0.1-1.3,0.8-2.2,1.4-2.9c1.2-1.3,2.1-1.9,2.1-1.9c0.1,0.1-0.7,0.9-1.7,2.2c-0.5,0.7-1,1.6-1.1,2.6
						c-0.1,1,0.6,2.1,1.4,3.1c1.5,2,3.3,4.1,2.9,6.2c-0.4,1-1.2,1.2-1.6,1.5C225.8,140.3,225.5,140.3,225.5,140.3z"/>
				</g>
			</g>
			<g>
				<g>
					<path class="st9" d="M244.7,141c-0.1-0.1,0.9-0.3,1.5-1.6c0.3-0.6,0.4-1.4,0.2-2.3c-0.2-0.9-0.5-1.8-0.9-2.9
						c-0.4-1-0.7-2.1-0.6-3.2c0.1-1.1,0.6-1.9,1.1-2.5c1-1.2,2.2-1.2,2.1-1.1c0,0.1-0.9,0.3-1.7,1.4c-0.4,0.6-0.8,1.3-0.8,2.1
						c0,0.9,0.3,1.8,0.6,2.9c0.4,1,0.8,2,0.9,3c0.2,1,0,2-0.4,2.7c-0.4,0.7-0.9,1.1-1.3,1.2C245,141.1,244.7,141,244.7,141z"/>
				</g>
			</g>
			<g>
				<g>
					<path class="st7" d="M251.3,141.7c0,0.1-0.8-0.1-2.3-0.4c-1.5-0.3-3.6-0.7-6.3-1.1c-5.3-0.7-12.8-1.1-20.8,0.3
						c-8.1,1.4-15.1,3.9-20.1,5.8c-2.4,1-4.4,1.7-5.9,2.4c-1.4,0.6-2.2,0.9-2.2,0.8c0-0.1,0.7-0.4,2.1-1.1c1.4-0.7,3.3-1.6,5.8-2.6
						c5-2.1,12-4.7,20.2-6.1c8.2-1.4,15.7-0.9,21.1-0.1c2.7,0.5,4.8,0.9,6.2,1.4C250.5,141.4,251.3,141.7,251.3,141.7z"/>
				</g>
			</g>
			<g>
				<g>
					<g>
						<path class="st7" d="M200.1,150.1c0,0,0.1,0,0.2,0c0.2,0,0.4-0.1,0.6-0.1c0.3-0.1,0.6-0.1,1-0.2c0.4-0.1,0.9-0.1,1.4-0.2
							c2-0.3,5-0.6,8.7-0.2c3.7,0.3,8,1.2,12.6,2.8c2.3,0.8,4.7,1.8,7.1,2.8c2.4,1.1,4.9,2.3,7.4,3.6c10,5.4,16.7,13.8,19.1,20.8
							c1.2,3.5,1.5,6.5,1.6,8.6c0.1,1,0,1.8,0,2.4c0,0.2,0,0.5,0,0.6c0,0.1,0,0.2,0,0.2c0,0,0-0.1,0-0.2c0-0.2,0-0.4,0-0.6
							c0-0.5,0.1-1.4,0.1-2.4c-0.1-2.1-0.3-5.1-1.5-8.7c-2.3-7.1-9.1-15.7-19.2-21.1c-2.5-1.4-5-2.6-7.4-3.7c-2.4-1.1-4.8-2-7.2-2.8
							c-4.7-1.6-9-2.4-12.8-2.7c-3.7-0.3-6.7,0-8.8,0.4c-0.5,0.1-1,0.2-1.4,0.3c-0.4,0.1-0.7,0.2-1,0.2c-0.2,0.1-0.4,0.1-0.6,0.2
							C200.1,150.1,200.1,150.1,200.1,150.1z"/>
					</g>
				</g>
			</g>
			<g>
				<g>
					<g>
						<path class="st7" d="M239.3,158.5c0,0-0.2-0.1-0.7-0.1c-0.4-0.1-1.1-0.1-1.9-0.2c-1.7,0-4.1,0.1-7,0.8
							c-5.8,1.4-13.4,5-20.2,11.1c-3.4,3-6.2,6.3-8.6,9.4c-2.4,3.1-4.5,6-6.1,8.5c-1.6,2.5-2.7,4.7-3.3,6.2
							c-0.3,0.8-0.6,1.4-0.7,1.8c-0.1,0.4-0.2,0.6-0.2,0.6c0,0,0.1-0.2,0.3-0.6c0.2-0.4,0.4-1,0.8-1.7c0.7-1.5,1.8-3.6,3.4-6.1
							c1.6-2.5,3.7-5.3,6.1-8.4c2.5-3,5.2-6.3,8.6-9.3c6.7-6,14.2-9.7,19.9-11.1c2.9-0.7,5.3-0.9,6.9-0.9c0.8,0,1.5,0,1.9,0.1
							C239,158.5,239.3,158.6,239.3,158.5z"/>
					</g>
				</g>
			</g>
		</g>
		<g>
			<path class="st11" d="M69.2,457.2c0,0,6.1-2,10.1-3.1c2.2-0.6,11.1-4.6,16.6-5.6c4.6-0.9,17.2-7.3,19.1-8.6
				c2-1.3,9.7-44.5,9.7-44.5l29.2,4.4c0,0-15.6,41.6-16.5,45.6c-1,4-4.7,14.2-4.7,14.2H69.2V457.2z"/>
			<g>
				<path class="st12" d="M120.4,458.6c0-0.1,1-0.2,2.4-0.8c1.4-0.6,3.2-1.8,4.5-3.8c1.2-2,1.5-4.2,1.4-5.7
					c-0.1-1.5-0.4-2.4-0.4-2.5c0,0,0.2,0.2,0.3,0.6c0.2,0.4,0.3,1,0.4,1.8c0.2,1.6,0,3.9-1.3,6c-1.3,2.1-3.3,3.3-4.8,3.8
					c-0.7,0.3-1.4,0.4-1.8,0.4C120.6,458.6,120.4,458.6,120.4,458.6z"/>
			</g>
			<g>
				<path class="st12" d="M116.5,456.5c0,0-0.2,0.1-0.6,0.3c-0.4,0.2-1,0.3-1.8,0.5c-1.6,0.3-4,0.2-6.8,0.1c-1.4,0-3,0.1-4.6,0.6
					c-1.6,0.5-3.2,1.4-5,2c-3.7,1.2-8.3,1-12.3-0.9l-0.6-0.3l0.7-0.2c0.2-0.1,0.4-0.1,0.6-0.2c2.1-0.6,4.1-1.5,5.9-2.7
					c1.8-1.1,3.2-2.5,4.7-3.8c2.9-2.6,6.3-4.1,9.1-5c2.8-0.9,5.2-1.3,6.8-1.6c0.8-0.1,1.4-0.2,1.9-0.3c0.4-0.1,0.7-0.1,0.7-0.1
					c0,0-0.2,0.1-0.6,0.2c-0.5,0.1-1.1,0.2-1.9,0.4c-1.6,0.4-3.9,0.8-6.7,1.8c-2.8,0.9-6,2.4-8.9,5c-1.4,1.3-2.9,2.7-4.8,3.9
					c-1.8,1.2-3.8,2.1-6,2.7c-0.2,0.1-0.4,0.1-0.6,0.2l0-0.5c3.9,1.9,8.4,2.1,11.9,0.9c1.8-0.6,3.4-1.5,5.1-1.9
					c1.7-0.5,3.3-0.5,4.7-0.5c2.9,0.1,5.2,0.2,6.8,0C115.7,456.8,116.5,456.4,116.5,456.5z"/>
			</g>
		</g>
	</g>
</g>
<g id="Character_4">
	<polygon class="st7" points="547.6,383.2 530.7,422.5 514.9,473.1 667.4,473.8 664.8,378 589.9,370.4 	"/>
	<g>
		<g>
			<g>
				<path class="st14" d="M466.1,389.3c0,0-12.3,4.7-21.9,7.5c-9.6,2.8-26.8,13.4-26.8,13.4S400,425.9,400.6,428
					c0.6,2.1,2.7,3.1,5.4,1c2.7-2.1,15.7-9.9,15.7-9.9s0.8,4.4,3.7,4.9c2.8,0.5,4.3-0.2,4.3-0.2s1.2,4.1,3.2,5.4
					c2,1.3,3.9,1.7,3.9,1.7s-0.1,2.3,2.7,3.1c2.8,0.8,5.4,0.6,5.4,0.6s9.1-5.5,10.6-8.2c1.5-2.7,3.2-6.2,3.2-6.2l3.8-1.9l11.5-2
					L466.1,389.3z"/>
			</g>
		</g>
		<g>
			<path class="st15" d="M453.4,410c0,0-0.3,0.6-1.1,1.4c-0.8,0.8-2.2,1.9-4.1,2.9c-1.9,1-4.4,1.8-7.3,2c-1.4,0.1-3,0.1-4.6-0.2
				c-1.6-0.3-3.2-0.9-4.6-1.9l0.3-0.4c1.1,0.8,2.2,1.7,3.2,2.7c0.5,0.5,1,1.1,1.5,1.7c0.4,0.6,0.7,1.4,0.9,2.1
				c0.4,1.9-0.2,3.8-1.3,5.2l-0.1,0.2l-0.2-0.1c-1.8-0.7-3.4-1.7-4.9-2.7c-1.5-1-2.8-2.1-4.1-3.1c-1.3-1-2.5-2-3.6-2.9
				c-1.1-1-1.5-2.5-1.3-3.8c0.1-0.6,0.3-1.2,0.5-1.7c0.2-0.5,0.4-1,0.6-1.4c0.4-0.9,0.9-1.6,1.2-2.1c0.4-0.6,0.7-1,0.9-1.3
				c0.2-0.3,0.3-0.4,0.4-0.4c0,0-0.1,0.2-0.3,0.5c-0.2,0.3-0.5,0.7-0.8,1.3c-0.3,0.6-0.7,1.3-1.1,2.1c-0.2,0.4-0.4,0.9-0.6,1.4
				c-0.2,0.5-0.4,1-0.5,1.6c-0.1,1.1,0.3,2.5,1.3,3.4c1.1,0.9,2.3,1.8,3.6,2.8c1.3,1,2.6,2,4.1,3c1.5,1,3.1,2,4.8,2.7l-0.3,0.1
				c1-1.3,1.5-3.1,1.1-4.8c-0.1-0.7-0.4-1.4-0.8-2c-0.4-0.6-0.9-1.1-1.4-1.6c-1-1-2.1-1.9-3.2-2.7l0.3-0.4c1.4,1,2.9,1.5,4.4,1.9
				c1.5,0.3,3,0.3,4.5,0.2c2.8-0.2,5.3-1,7.2-1.9c1.9-0.9,3.3-1.9,4.1-2.7C453,410.5,453.4,410,453.4,410z"/>
		</g>
		<g>
			<path class="st15" d="M437,422.9c0-0.1,0.6-0.2,1.5-0.6c0.9-0.4,2.2-0.9,3.3-1.9c0.5-0.5,0.9-1.1,1-1.7c0.1-0.6,0-1.2-0.2-1.6
				c-0.4-0.8-1.2-0.9-1.1-1c0,0,0.2-0.1,0.5,0c0.3,0.1,0.7,0.3,1,0.8c0.3,0.4,0.5,1.1,0.4,1.8c-0.1,0.7-0.6,1.4-1.1,2
				c-1.2,1.1-2.5,1.6-3.5,1.9C437.7,423,437,423,437,422.9z"/>
		</g>
		<g>
			<path class="st15" d="M439.6,429.9c0-0.1,0.8-0.6,2.2-1.4c0.7-0.4,1.5-1,2.3-1.6c0.8-0.7,1.8-1.4,2.6-2.3c0.4-0.5,0.7-1,0.8-1.5
				c0.1-0.5,0-1-0.2-1.5c-0.4-0.9-1.3-1.5-2-1.7c-0.7-0.2-1.4-0.2-1.9-0.2c-0.5,0-0.7,0-0.7,0c0,0,0.2-0.1,0.7-0.2
				c0.5-0.1,1.1-0.1,2,0.1c0.8,0.2,1.8,0.8,2.3,1.8c0.3,0.5,0.4,1.2,0.2,1.8c-0.1,0.6-0.5,1.2-0.9,1.7c-0.9,1-1.8,1.7-2.7,2.3
				c-0.9,0.6-1.7,1.1-2.4,1.6C440.5,429.6,439.6,430,439.6,429.9z"/>
		</g>
		<g>
			<path class="st15" d="M451.7,429.1c-0.1-0.1,0.3-0.5,0.4-1.3c0.1-0.8-0.1-2.1-1.1-2.9c-1-0.8-2.4-0.6-3.1-0.3
				c-0.8,0.3-1.1,0.8-1.2,0.8c0,0,0.2-0.6,1-1.1c0.8-0.5,2.3-0.7,3.6,0.2c1.2,1,1.4,2.5,1.1,3.4
				C452.2,428.8,451.7,429.1,451.7,429.1z"/>
		</g>
	</g>
	<path class="st14" d="M527.3,442.3l-3.2,4.7l-23.9,0l-30.5,12.3l78.7,0c0.7-0.8,2.7-4,2.7-4C545.6,452.3,527.3,442.3,527.3,442.3z"
		/>
	<g>
		<path class="st8" d="M636.4,296.6c-17.2-27.8-54.1-61.8-57.3-63.4c-3.1-1.6-53.6-4.7-53.6-4.7l-39.9,28.3l-13.2,19.8
			c-1.8,5.6-5,14.3-3.5,20l1.2,9.8l41.6,26.9l20.7,12.1l11.5,16.3l-0.9,27.3l16.3-3.1c0,0,25.1,2.5,49.2,3.1c24.1,0.6,57.1-7,57.1-7
			S655.6,327.6,636.4,296.6z"/>
		<path class="st8" d="M540.5,276.4l14.1,78.3l-29.3,86.4l29.3,16c0,0,20.9-36.8,30.3-59.1c9.4-22.3,12.9-34.7,12.9-34.7
			s0-84.7-3-94.4s-12.9-29.1-23.4-28.1C560.9,241.9,536.2,252.6,540.5,276.4z"/>
		<path class="st8" d="M470.1,306.4l25.2,61.8c0,0-2.1,3.3-3,7.3L460.9,391l9.2,29.7c0,0,39.3-13,44.8-16c5.6-3,21.6-14.4,24.4-23.7
			c2.8-9.3-12.6-42.1-12.6-42.1L470.1,306.4z"/>
		<g>
			<path class="st7" d="M532.4,345.3c0,0-0.2-0.1-0.5-0.3c-0.4-0.2-0.9-0.5-1.5-0.8c-1.3-0.7-3.1-1.8-5.4-3.2c-2.3-1.4-5-3.1-7.9-5
				c-1.4-1-2.9-2.1-4.4-3.3c-1.5-1.2-3-2.5-4.6-3.8c-6.2-5.2-11.8-9.9-15.9-13.3c-2-1.7-3.6-3.1-4.8-4.1c-0.5-0.5-0.9-0.8-1.3-1.1
				c-0.3-0.3-0.4-0.4-0.4-0.4c0,0,0.2,0.1,0.5,0.3c0.4,0.3,0.8,0.6,1.3,1.1c1.2,1,2.9,2.3,4.9,4c4.1,3.4,9.8,8.1,16,13.2
				c1.6,1.3,3.1,2.6,4.5,3.8c1.5,1.2,3,2.3,4.4,3.3c2.9,2,5.5,3.7,7.8,5.1c2.2,1.4,4,2.5,5.3,3.3c0.6,0.4,1.1,0.7,1.4,0.9
				C532.2,345.2,532.4,345.3,532.4,345.3z"/>
		</g>
		<g>
			<path class="st7" d="M535.3,232.1c0,0,0.9,0.9,1.9,2.9c1,2,2.2,5.2,2.2,9.2c0,2-0.2,4.2-0.8,6.5c-0.6,2.3-1.6,4.7-3,7
				c-2.7,4.6-7,8.8-12.2,12.2c-5.2,3.3-10.9,5.3-16.3,5.4c-5.4,0.2-10.1-1.7-13.4-4c-3.3-2.4-5.1-5.3-6-7.3c-0.2-0.5-0.4-1-0.5-1.4
				c-0.1-0.4-0.2-0.8-0.3-1.1c-0.1-0.3-0.1-0.5-0.1-0.7c0-0.1,0-0.2,0-0.2c0.1,0,0.2,1.2,1.2,3.3c0.9,2,2.8,4.8,6,7.1
				c3.2,2.3,7.9,4.1,13.1,3.9c5.3-0.1,10.9-2.1,16-5.4c5.1-3.3,9.3-7.5,12-12c1.4-2.2,2.3-4.6,3-6.8c0.6-2.3,0.8-4.4,0.8-6.4
				c0-4-1.1-7.1-2.1-9.1c-0.2-0.5-0.5-0.9-0.7-1.3c-0.2-0.4-0.4-0.7-0.6-0.9c-0.1-0.2-0.3-0.4-0.4-0.6
				C535.4,232.2,535.3,232.1,535.3,232.1z"/>
		</g>
		<g>
			<path class="st7" d="M524.5,268.2c-0.1,0.1-0.9-1.6-2.1-3.3c-1.2-1.8-2.5-3-2.4-3.2c0.1-0.1,1.5,1,2.8,2.9
				C524.1,266.4,524.6,268.2,524.5,268.2z"/>
		</g>
		<g>
			<path class="st7" d="M534,259.3c-0.1,0.1-1.3-1.4-3.4-2.4c-2-1.1-3.9-1.2-3.9-1.4c0-0.1,2-0.2,4.2,0.9
				C533,257.5,534.1,259.3,534,259.3z"/>
		</g>
		<g>
			<path class="st7" d="M539.2,248.7c-0.1,0.1-1.5-0.3-3.4-0.6c-1.9-0.3-3.4-0.2-3.4-0.4c0-0.1,1.5-0.4,3.5-0.1
				C537.8,247.9,539.2,248.6,539.2,248.7z"/>
		</g>
		<g>
			<path class="st7" d="M538.3,236.4c0,0.2-1.4,0.4-3,0.8c-1.7,0.5-2.9,1-3,0.9c-0.1-0.1,1.2-0.9,2.9-1.4
				C536.8,236.2,538.3,236.2,538.3,236.4z"/>
		</g>
		<g>
			<path class="st7" d="M508.3,274.2c-0.1,0.1-0.8-1.3-0.8-3.2c0-1.9,0.7-3.3,0.8-3.2c0.1,0.1-0.3,1.4-0.3,3.2
				C508.1,272.8,508.5,274.2,508.3,274.2z"/>
		</g>
		<g>
			<path class="st7" d="M492.2,271.1c-0.1-0.1,0.5-1,1.4-2.1c0.9-1.1,1.7-1.8,1.8-1.7c0.1,0.1-0.5,1-1.4,2.1
				C493.1,270.4,492.3,271.2,492.2,271.1z"/>
		</g>
		<g>
			<path class="st7" d="M594.7,268.9c0,0,0,0.1,0.1,0.4c0.1,0.3,0.2,0.7,0.3,1.3c0.2,1.1,0.4,2.8,0.6,5c0.4,4.4,0.8,10.9,1.1,19.1
				c0.6,16.5,1,40.1,1.1,68.6l0,0l0,0c-2.1,7.2-4.8,14.5-7.7,22.1c-3,7.6-6.1,15.4-9.9,23.2c-7.5,15.7-16.2,31.9-25.6,48.6l-0.1,0.2
				l-0.2-0.1c-0.9-0.5-1.8-1-2.7-1.5c-9-4.9-17.9-9.8-26.6-14.5l-0.2-0.1l0.1-0.2c11-32.3,21-61.9,29.3-86.4l0,0.1
				c-4.3-23.9-7.8-43.5-10.2-57.1c-1.2-6.8-2.1-12.1-2.8-15.7c-0.3-1.8-0.5-3.2-0.7-4.1c-0.2-0.9-0.2-1.4-0.2-1.4s0.1,0.5,0.3,1.4
				c0.2,0.9,0.4,2.3,0.8,4.1c0.7,3.6,1.6,8.9,2.9,15.7c2.5,13.6,6,33.2,10.4,57.1l0,0.1l0,0.1c-8.3,24.5-18.3,54.1-29.2,86.4
				l-0.1-0.3c8.6,4.7,17.5,9.6,26.6,14.5c0.9,0.5,1.9,1,2.7,1.5l-0.4,0.1c9.3-16.6,18.1-32.8,25.6-48.5c3.8-7.8,7-15.6,9.9-23.2
				c2.9-7.6,5.6-14.9,7.7-22l0,0.1c0-28.5-0.4-52.1-0.9-68.6c-0.3-8.3-0.6-14.7-1-19.1c-0.2-2.2-0.4-3.9-0.6-5
				c-0.1-0.6-0.2-1-0.2-1.3C594.8,269.1,594.7,268.9,594.7,268.9z"/>
		</g>
		<g>
			<path class="st7" d="M575.7,247.6c-0.1,0.1-1.7-1-4.7-2c-3-1-7.5-1.7-12.2-0.7c-4.8,1-8.6,3.4-11,5.5c-2.4,2.1-3.5,3.8-3.6,3.7
				c0,0,0.2-0.4,0.8-1.2c0.5-0.7,1.4-1.7,2.6-2.8c2.3-2.2,6.2-4.7,11.1-5.7c4.9-1,9.4-0.2,12.4,0.9c1.5,0.5,2.7,1.1,3.5,1.6
				C575.3,247.3,575.7,247.6,575.7,247.6z"/>
		</g>
		<g class="st16">
			<path d="M587.6,391.9c0.2-0.4,0.3-0.8,0.5-1.3c-0.1,0.1-0.2,0.1-0.3,0.2L587.6,391.9z"/>
			<path d="M603.4,336.8c-1.3-12.8-2.9-25.7-6.3-38.1c-2.8,21.6,2.7,43.8-1,65.3c-1.6,9.2-4.8,17.9-8.1,26.7
				c8.2-5.3,13.1-14.7,15.1-24.3C605.1,356.6,604.3,346.6,603.4,336.8z"/>
		</g>
		<g class="st16">
			<path d="M529,343.3l-34.7-26.2c0.4,9.8,7.8,17.8,15.5,23.8c7.7,6,18.2,12.9,25.6,19.4C533,354.9,531.4,348.7,529,343.3z"/>
		</g>
		<g>
			<path class="st9" d="M544.3,295.4c0,0-0.2,0.2-0.6,0.7c-0.4,0.4-1,1-1.7,1.8c-1.5,1.5-3.7,3.8-7,5.9c-1.6,1-3.6,2-5.8,2.6
				c-2.2,0.6-4.8,0.6-7.3,0c-2.5-0.6-4.9-1.9-7.3-3.4c-2.4-1.5-4.7-3.1-7.3-4.5c-2.6-1.4-5.3-2.3-8.1-2.4c-2.7-0.1-5.3,0.9-7.3,2.4
				c-2.1,1.4-3.8,3.2-5.5,4.7c-1.7,1.5-3.4,2.9-5.1,3.7c-1.7,0.9-3.6,1.2-5.1,1.1c-1.6-0.1-2.8-0.6-3.7-1.2
				c-0.9-0.6-1.4-1.3-1.7-1.8c-0.3-0.5-0.4-0.8-0.4-0.8c0,0,0.1,0.3,0.4,0.7c0.3,0.5,0.8,1.1,1.7,1.7c0.9,0.6,2.1,1,3.7,1.1
				c1.5,0.1,3.2-0.2,4.9-1.1c1.7-0.9,3.4-2.2,5-3.7c1.7-1.5,3.4-3.3,5.5-4.8c1.1-0.7,2.2-1.4,3.5-1.9c1.3-0.5,2.7-0.7,4.1-0.6
				c2.8,0.1,5.7,1.1,8.3,2.5c2.6,1.4,5,3.1,7.3,4.5c2.3,1.5,4.7,2.7,7.2,3.3c1.2,0.3,2.4,0.5,3.6,0.5c1.2,0,2.3-0.2,3.4-0.4
				c2.2-0.5,4.1-1.5,5.7-2.5c3.2-2.1,5.5-4.3,7-5.7c0.7-0.7,1.3-1.3,1.8-1.7C544.1,295.6,544.3,295.4,544.3,295.4z"/>
		</g>
		<g>
			<path class="st9" d="M595.1,289.3c0,0-0.1,0.1-0.4,0.4c-0.3,0.2-0.8,0.6-1.4,0.8c-1.3,0.6-3.5,0.9-6,0.2c-5.2-1.2-9.8-7.6-17.6-9
				c-1.9-0.5-3.8-0.6-5.6-0.7c-1.8,0-3.6,0.1-5.2,0.4c-3.3,0.6-6.2,1.6-8.4,2.8c-4.5,2.4-6.5,5-6.6,4.9c0,0,0.1-0.2,0.4-0.4
				c0.3-0.3,0.7-0.7,1.1-1.2c0.5-0.5,1.2-1.1,2-1.7c0.4-0.3,0.9-0.6,1.3-0.9c0.5-0.3,1-0.6,1.6-0.9c2.2-1.2,5.1-2.4,8.5-3
				c1.7-0.3,3.5-0.4,5.3-0.4c1.9,0.1,3.8,0.2,5.7,0.7c1.9,0.4,3.7,1.1,5.4,1.9c0.8,0.5,1.6,0.9,2.4,1.3c0.8,0.5,1.5,1,2.1,1.5
				c2.7,2,5.2,3.8,7.7,4.4c2.4,0.7,4.6,0.5,5.9,0C594.5,289.9,595,289.2,595.1,289.3z"/>
		</g>
		<g>
			<path class="st9" d="M621,275.3c0,0-0.5,0.3-1.2,0.8c-0.7,0.6-1.7,1.6-2.5,3c-0.8,1.5-1.4,3.4-1.9,5.5c-0.5,2.2-0.9,4.6-1.9,7.1
				c-1.1,2.4-2.9,4.3-4.8,5.5c-1.9,1.2-4,1.7-5.7,1.9c-1.7,0.1-3.1-0.1-4-0.3c-0.5-0.1-0.8-0.3-1-0.3c-0.2-0.1-0.4-0.1-0.3-0.2
				c0,0,0.5,0.1,1.4,0.3c0.9,0.2,2.3,0.3,3.9,0.1c1.6-0.2,3.6-0.8,5.5-2c1.9-1.1,3.6-3,4.6-5.3c1-2.3,1.4-4.8,1.9-7
				c0.5-2.2,1.2-4.1,2-5.6c0.9-1.5,1.9-2.5,2.7-3c0.4-0.3,0.7-0.4,1-0.5C620.9,275.3,621,275.3,621,275.3z"/>
		</g>
		<g>
			<path class="st9" d="M504,324.8c0,0,0,0.4-0.2,1.1c-0.1,0.3-0.2,0.8-0.4,1.2c-0.2,0.5-0.3,1-0.6,1.6c-0.3,0.6-0.5,1.2-0.9,1.8
				c-0.3,0.7-0.8,1.3-1.3,2c-1,1.3-2.2,2.7-3.7,3.9c-1.5,1.2-3,2.2-4.5,2.9c-1.5,0.7-2.9,1.2-4.1,1.4c-0.6,0.2-1.2,0.2-1.7,0.3
				c-0.5,0.1-0.9,0.1-1.3,0.1c-0.7,0-1.1,0-1.1,0c0-0.1,1.5-0.1,3.9-0.7c1.2-0.3,2.6-0.8,4-1.5c1.4-0.7,3-1.7,4.4-2.9
				c1.4-1.2,2.6-2.5,3.6-3.8c0.5-0.7,0.9-1.3,1.3-1.9c0.4-0.6,0.7-1.2,1-1.8C503.5,326.3,503.9,324.8,504,324.8z"/>
		</g>
	</g>
	<g>
		<path class="st8" d="M661,407.5c0,0-0.6,0.1-1.6,0.3c-0.5,0.1-1.2,0.2-1.9,0.2c-0.8,0-1.6,0.1-2.6,0.1c-1,0-2,0-3.1-0.2
			c-1.1-0.1-2.3-0.3-3.6-0.5c-2.5-0.5-5.2-1.2-7.9-2.4c-2.7-1.1-5.2-2.5-7.3-3.9c-1-0.7-2-1.4-2.9-2.2c-0.9-0.7-1.6-1.4-2.3-2.1
			c-0.7-0.6-1.3-1.3-1.8-1.9c-0.5-0.6-0.9-1.1-1.2-1.5c-0.6-0.9-1-1.3-1-1.4c0,0,0.4,0.4,1.1,1.2c0.3,0.4,0.8,0.9,1.3,1.4
			c0.5,0.5,1.1,1.2,1.8,1.8c0.7,0.7,1.5,1.4,2.3,2c0.8,0.7,1.8,1.4,2.9,2.1c2.1,1.4,4.5,2.7,7.2,3.9c2.7,1.1,5.4,1.9,7.8,2.4
			c1.2,0.2,2.4,0.4,3.5,0.5c1.1,0.1,2.2,0.2,3.1,0.2c1,0.1,1.8,0,2.6,0c0.8,0,1.4-0.1,1.9-0.1C660.4,407.5,661,407.5,661,407.5z"/>
	</g>
	<g>
		<path class="st8" d="M580.9,458c-0.1,0,2-9.9,4.8-22.1c2.8-12.2,5.2-22.1,5.3-22c0.1,0-2,9.9-4.8,22.1
			C583.4,448.2,581,458.1,580.9,458z"/>
	</g>
	<g>
		<g>
			<g>
				<g>
					<path class="st14" d="M533.1,243.7L533.1,243.7c0.1-1.9-0.2-3.9-1-5.6l-30.3-66.4c-7.1-19.1-24.1-30.9-42.9-23.3l-1.7,0.8
						c-17.1,8.1-25.2,28-18.5,45.7c6.2,16.5,13.3,34.6,17.4,43.1c8.6,17.6,27.5,12,27.5,12l3.5,6.8c0,0,3.7,12.7,19.5,11
						c12.2-1.4,21.2-13.2,24.7-18.6C532.4,247.6,533,245.7,533.1,243.7z"/>
				</g>
				<g>
					<g>
						<g>
							<path class="st15" d="M483.4,250.1c0,0,11.6-4.6,19.9-17.7c0,0,0.6,15.3-17.8,22L483.4,250.1z"/>
						</g>
					</g>
				</g>
				<g>
					<g>
						<g>
							<g>
								<g>
									<g>
										<path class="st7" d="M450,208.3c0.6,1.4,2.2,2,3.6,1.4c1.4-0.6,2.1-2.1,1.5-3.5c-0.6-1.4-2.2-2-3.6-1.4
											C450.1,205.4,449.4,206.9,450,208.3z"/>
									</g>
								</g>
							</g>
						</g>
					</g>
				</g>
				<g>
					<g>
						<g>
							<g>
								<g>
									<g>
										<g>
											<path class="st7" d="M446.5,201.8c0.5,0.2,1.7-2.1,4.4-3.4c2.7-1.3,5.3-0.9,5.5-1.3c0.1-0.2-0.5-0.7-1.7-0.9
												c-1.2-0.2-2.9-0.1-4.6,0.7c-1.7,0.8-2.8,2.1-3.3,3.1C446.3,201,446.3,201.7,446.5,201.8z"/>
										</g>
									</g>
								</g>
							</g>
						</g>
					</g>
				</g>
				<g>
					<g>
						<g>
							<g>
								<g>
									<g>
										<path class="st7" d="M474.9,196.7c0.6,1.4,2.2,2,3.6,1.4c1.4-0.6,2.1-2.1,1.5-3.5c-0.6-1.4-2.2-2-3.6-1.4
											C475,193.8,474.3,195.4,474.9,196.7z"/>
									</g>
								</g>
							</g>
						</g>
					</g>
				</g>
				<g>
					<g>
						<g>
							<g>
								<g>
									<g>
										<g>
											<path class="st7" d="M473.4,189.7c0.5,0.2,1.7-2.1,4.4-3.4c2.7-1.3,5.3-0.9,5.5-1.3c0.1-0.2-0.5-0.7-1.7-0.9
												c-1.2-0.2-2.9-0.1-4.6,0.7c-1.7,0.8-2.8,2.1-3.3,3.1C473.2,188.9,473.2,189.7,473.4,189.7z"/>
										</g>
									</g>
								</g>
							</g>
						</g>
					</g>
				</g>
				<g>
					<g>
						<g>
							<g>
								<g>
									<g>
										<path class="st7" d="M473.1,214.5c-0.1-0.2-1.9,0.3-4.8,1.3c-0.7,0.3-1.4,0.4-1.8,0c-0.4-0.4-0.5-1.3-0.5-2.3
											c-0.1-2-0.3-4.1-0.4-6.2c-0.7-8.9-1.6-16-1.9-16c-0.4,0-0.1,7.2,0.6,16.1c0.2,2.2,0.4,4.3,0.5,6.2c0.1,0.9,0.1,2,0.9,2.9
											c0.4,0.4,1.1,0.6,1.6,0.5c0.5-0.1,0.9-0.3,1.3-0.4C471.4,215.4,473.1,214.7,473.1,214.5z"/>
									</g>
								</g>
							</g>
						</g>
					</g>
				</g>
				<g>
					<g>
						<g>
							<g>
								<g>
									<g>
										<path class="st7" d="M481.9,212.6c-0.5,0.2,0.9,3.1-0.6,6.4c-1.5,3.3-4.8,4.4-4.6,4.9c0,0.2,1,0.2,2.3-0.3
											c1.3-0.6,3-1.9,4-3.9c0.9-2,0.8-4,0.3-5.3C482.8,213.1,482.1,212.5,481.9,212.6z"/>
									</g>
								</g>
							</g>
						</g>
					</g>
				</g>
				<g>
					<g>
						<path class="st7" d="M467.7,179.4c0.6,0.6,3.2-1,6.5-2.1c3.3-1.2,6.3-1.5,6.5-2.3c0-0.4-0.7-0.9-2.1-1.1
							c-1.4-0.2-3.3-0.1-5.3,0.6c-2,0.7-3.6,1.8-4.6,2.8C467.7,178.3,467.4,179.1,467.7,179.4z"/>
					</g>
				</g>
				<g>
					<g>
						<path class="st7" d="M443.8,193.5c0.8,0.4,2.3-1.1,4.6-2.2c2.2-1.2,4.3-1.5,4.5-2.4c0-0.4-0.5-0.9-1.7-1.1
							c-1.1-0.2-2.7,0-4.2,0.8c-1.5,0.8-2.6,2-3.1,3C443.4,192.5,443.4,193.3,443.8,193.5z"/>
					</g>
				</g>
				<g>
					<path class="st7" d="M436.5,186.1c0,0-0.6-13.3,3.5-18.4c5-6.2,11.1-0.4,16.4-5c5.3-4.6,10.1-10.5,18.6-8.7
						c9.3,2,7.8,7.1,12,14.8c16.7,30.9,26.8,37.2,21.3,21.4c-0.6-1.7,3.3-5.2,0.7-12.4c-3.4-9.4-8.2-20.5-13.2-25.9
						c-4.2-4.6-9-6.8-16.5-8.3c-11.7-2.4-23.7,3.1-31.4,7.7C440.4,155.9,429.2,172.6,436.5,186.1z"/>
				</g>
				<g>
					<path class="st14" d="M507.1,190.2c-1.2-2.8,0.2-6,3-7.1c3.4-1.2,8-1.1,11,5.8c5.3,12.3-8.1,15.1-8.3,14.7
						C512.7,203.4,509.2,195.4,507.1,190.2z"/>
				</g>
				<g>
					<path class="st15" d="M513.4,197.9c0-0.1,0.3,0.1,0.7,0.1c0.4,0,1.1-0.1,1.6-0.7c1.1-1,1.3-3.6,0.4-5.8
						c-0.5-1.1-1.1-2.1-1.9-2.8c-0.8-0.7-1.6-1.1-2.3-0.9c-0.7,0.1-1,0.7-1,1.1c0,0.4,0.2,0.6,0.1,0.7c0,0-0.4-0.1-0.5-0.6
						c-0.1-0.3,0-0.6,0.1-1c0.2-0.4,0.6-0.7,1-0.8c1-0.3,2.2,0.2,3.1,0.9c0.9,0.8,1.7,1.8,2.2,3.1c1,2.5,0.7,5.4-0.8,6.6
						c-0.8,0.6-1.6,0.7-2.1,0.5C513.6,198.2,513.4,198,513.4,197.9z"/>
				</g>
			</g>
			<path class="st7" d="M495.8,166.9c-1.1,1.8-2.2,3.7-4,4.8c-1.8,1.1-4.5,1-5.7-0.7c-0.5-0.8-0.8-1.8-1.7-2.2
				c-1-0.5-2.1,0.4-3.1,0.9c-3.3,2-8.1,1.2-10.6-1.7c-0.3,1.8-2.4,2.7-4.1,2.5c-1.8-0.2-3.3-1.3-4.9-2c-1.6-0.7-3.6-1.1-5.1-0.1
				c-0.8,0.5-1.4,1.5-2.4,1.8c-1.7,0.6-3.3-0.9-4.3-2.3c-1-1.5-2-3.2-3.8-3.4c-1.6-0.2-3,1-4.4,1.9c-1.4,0.9-3.4,1.5-4.5,0.2
				c-0.5-0.7-0.6-1.6-0.5-2.4c0.5-3.8,4-7.1,7.8-7.3c-0.7-4.5,1.6-9.4,5.5-11.8c3.9-2.4,9.3-2.2,13,0.6c1.5-3.5,4.7-6.2,8.4-7.1
				c3.7-0.8,7.8,0.3,10.6,2.9c2.6-2.2,6.5-2.6,9.4-1.1c3,1.5,4.9,4.9,4.7,8.3c2.8,0.2,5.6,1.5,6.9,4c1.2,2.5,0,6.1-2.8,6.6
				c1.9,1.5,2.3,4.5,1,6.5c-1.4,2-4.4,2.6-6.4,1.4"/>
			<g>
				<path class="st8" d="M445.4,160.7c0,0,0,0.1,0.1,0.2c0.1,0.1,0.2,0.4,0.4,0.6c0.4,0.5,1,1.2,2,1.9c1,0.7,2.3,1.3,4,1.6
					c1.7,0.3,3.7,0.1,5.6-0.9l-0.3-0.2c0.1,1.2,0.8,2.4,1.8,3.2c1,0.8,2.2,1.4,3.5,2c0.6,0.3,1.2,0.6,2,0.7c0.7,0.1,1.5,0,2.2-0.2
					c1.4-0.5,2.8-1.6,3.2-3.2l-0.5,0.1c1.4,2.3,3.9,4,6.8,4.5c1.5,0.3,3.2,0.1,4.6-0.6c1.4-0.7,2.5-1.7,3.5-2.7l-0.4,0
					c1.4,1.2,3,2,4.6,2.4c1.6,0.4,3.5,0.2,4.7-0.8c2.6-1.9,3.3-5.2,2.7-7.6l-0.2,0.3c1.8,0.1,3.3-0.5,4.4-1.3
					c1.1-0.8,1.8-1.8,2.3-2.7c0.4-0.9,0.6-1.6,0.7-2.1c0-0.5,0-0.8,0-0.8c-0.1,0,0,1.1-0.9,2.8c-0.5,0.8-1.2,1.7-2.3,2.5
					c-1.1,0.8-2.6,1.3-4.2,1.2l-0.3,0l0.1,0.3c0.6,2.3-0.2,5.3-2.6,7.1c-1.2,0.9-2.8,1.1-4.3,0.7c-1.6-0.4-3.1-1.1-4.4-2.3l-0.2-0.2
					l-0.2,0.2c-1,1-2.1,2-3.4,2.6c-1.3,0.6-2.8,0.8-4.2,0.5c-2.7-0.4-5-2.1-6.4-4.2l-0.3-0.5l-0.2,0.6c-0.4,1.4-1.6,2.4-2.9,2.8
					c-0.6,0.2-1.3,0.3-2,0.2c-0.6-0.1-1.3-0.4-1.9-0.7c-1.2-0.5-2.4-1.1-3.4-1.9c-1-0.8-1.6-1.8-1.7-2.9l0-0.3l-0.3,0.2
					c-1.8,1-3.7,1.2-5.3,1c-1.6-0.2-3-0.8-3.9-1.4C446.1,162,445.5,160.7,445.4,160.7z"/>
			</g>
		</g>
		<g>
			<path class="st7" d="M462.4,205.5c-0.1,0-0.1-1.2-0.7-3.1c-0.6-1.9-2.2-4.7-5.3-6.8c-1.5-1-3.5-1.8-5.6-2c-2.1-0.2-4.5,0-6.7,1.1
				c-1.1,0.5-2.2,1.2-3.1,2c-1,0.8-1.8,1.8-2.5,2.9c-1.4,2.2-2.1,5-2,7.8c0.2,2.8,1.3,5.4,3.1,7.4c0.8,1,1.8,1.9,2.9,2.5
				c1.1,0.7,2.2,1.2,3.4,1.5c2.3,0.7,4.7,0.6,6.8,0.1c2.1-0.5,3.9-1.6,5.3-2.8c2.8-2.5,3.9-5.5,4.3-7.5
				C462.5,206.6,462.4,205.5,462.4,205.5c0,0,0,0.3,0.1,0.8c0,0.3,0,0.6,0,1c0,0.4,0,0.9-0.1,1.4c-0.3,2.1-1.4,5.1-4.2,7.7
				c-1.4,1.3-3.2,2.4-5.4,2.9c-2.2,0.5-4.6,0.7-7.1-0.1c-1.2-0.3-2.4-0.9-3.5-1.6c-1.1-0.7-2.2-1.6-3-2.6c-1.8-2.1-2.9-4.8-3.2-7.7
				c-0.2-2.9,0.6-5.8,2-8.1c0.7-1.2,1.6-2.2,2.6-3c1-0.9,2.1-1.6,3.3-2.1c2.3-1.1,4.8-1.3,7-1.1c2.2,0.2,4.2,1.1,5.8,2.1
				c3.2,2.1,4.7,5,5.3,7c0.2,0.5,0.3,1,0.3,1.4c0.1,0.4,0.1,0.7,0.2,1C462.4,205.2,462.5,205.5,462.4,205.5z"/>
		</g>
		<g>
			<path class="st7" d="M493.5,190.7c-0.1,0-0.1-1.2-0.7-3.1c-0.6-1.9-2.2-4.7-5.3-6.8c-1.5-1-3.5-1.8-5.6-2c-2.1-0.2-4.5,0-6.7,1.1
				c-1.1,0.5-2.2,1.2-3.1,2c-1,0.8-1.8,1.8-2.5,2.9c-1.4,2.2-2.1,5-2,7.8c0.2,2.8,1.3,5.4,3.1,7.4c0.8,1,1.8,1.9,2.9,2.5
				c1.1,0.7,2.2,1.2,3.4,1.5c2.3,0.7,4.7,0.6,6.8,0.1c2.1-0.5,3.9-1.6,5.3-2.8c2.8-2.5,3.9-5.5,4.3-7.5
				C493.6,191.8,493.4,190.7,493.5,190.7c0,0,0,0.3,0.1,0.8c0,0.3,0,0.6,0,1c0,0.4,0,0.9-0.1,1.4c-0.3,2.1-1.4,5.1-4.2,7.7
				c-1.4,1.3-3.2,2.4-5.4,2.9c-2.2,0.5-4.6,0.7-7.1-0.1c-1.2-0.3-2.4-0.9-3.5-1.6c-1.1-0.7-2.2-1.6-3-2.6c-1.8-2.1-2.9-4.8-3.2-7.7
				c-0.2-2.9,0.6-5.8,2-8.1c0.7-1.2,1.6-2.2,2.6-3c1-0.9,2.1-1.6,3.3-2.1c2.3-1.1,4.8-1.3,7-1.1c2.2,0.2,4.2,1.1,5.8,2.1
				c3.2,2.1,4.7,5,5.3,7c0.2,0.5,0.3,1,0.3,1.4c0.1,0.4,0.1,0.7,0.2,1C493.5,190.4,493.5,190.7,493.5,190.7z"/>
		</g>
		<g>
			<path class="st7" d="M467.5,195.4c0,0.2-2-0.1-4.1,0.9c-2.1,1-3.1,2.8-3.2,2.7c-0.1,0,0.1-0.5,0.6-1.2c0.5-0.6,1.3-1.4,2.4-2
				c1.1-0.5,2.2-0.7,3.1-0.7C467,195.2,467.5,195.4,467.5,195.4z"/>
		</g>
		<g>
			<path class="st7" d="M506.4,186.5c0,0.1-3.1,0.3-6.8,0.4c-3.8,0.1-6.8,0.1-6.8-0.1c0-0.1,3.1-0.3,6.8-0.4
				C503.4,186.4,506.4,186.4,506.4,186.5z"/>
		</g>
	</g>
</g>
<g id="Device">
	<g>
		<path class="st2" d="M401.5,453.2h60.4c1.7,0,3,1.3,3,3l0,0c0,1.7-1.3,3-3,3h-60.4c-1.7,0-3-1.3-3-3l0,0
			C398.5,454.6,399.8,453.2,401.5,453.2z"/>
		<path class="st2" d="M411.1,459.2H296.8L285.5,382c-0.6-4,2.5-7.6,6.5-7.6l100.4,0.8c3.3,0,6.4,1.6,6.9,4.8L411.1,459.2z"/>
		<path class="st9" d="M352.8,415.9c0,3.5-2.8,6.3-6.3,6.3c-3.5,0-6.3-2.8-6.3-6.3c0-3.5,2.8-6.3,6.3-6.3
			C349.9,409.6,352.8,412.5,352.8,415.9z"/>
		<g>
			<path class="st7" d="M406.2,458.6c-0.1,0-3.3-18.6-7.1-41.6c-3.8-23-6.8-41.7-6.6-41.7c0.1,0,3.3,18.6,7.1,41.6
				C403.3,439.9,406.3,458.5,406.2,458.6z"/>
		</g>
	</g>
</g>
<g id="Table">
	<g>
		<g>
			<g>
				<g>
					<g>
						<g>
							<g>
								<g>
									<rect x="28.2" y="459.2" class="st8" width="673.5" height="16.6"/>
								</g>
							</g>
						</g>
					</g>
				</g>
				<g>
					<g>
						<g>
							<g>
								<g>
									<g>
										<path class="st7" d="M170.9,459.5c0,0-0.1,0.1-0.2,0.2c-0.2,0.1-0.4,0.3-0.7,0.5c-0.7,0.4-1.7,1-3.4,1.5
											c-1.6,0.5-3.8,1-6.5,1.2c-2.7,0.3-5.7,0.3-9.1,0.2c-3.4-0.1-7-0.4-10.9-0.7c-3.9-0.3-8-0.8-12.4-0.8
											c-8.8-0.2-18.4,1.1-28,3.1c-9.6,1.9-18.6,4.1-27.2,5.5c-4.3,0.7-8.4,1.2-12.4,1.4c-3.9,0.2-7.7,0.2-11,0
											c-6.7-0.4-11.9-1.6-15.1-2.7c-3.2-1.1-4.7-2-4.7-2c0,0,0.1,0,0.3,0.1c0.2,0.1,0.5,0.2,0.9,0.4c0.8,0.3,2,0.8,3.6,1.3
											c3.2,1,8.4,2.2,15,2.5c3.3,0.2,7,0.2,10.9,0c3.9-0.2,8-0.7,12.3-1.4c8.5-1.3,17.5-3.6,27.1-5.5c9.6-1.9,19.3-3.2,28.3-3
											c4.5,0.1,8.6,0.5,12.5,0.9c3.9,0.4,7.5,0.7,10.8,0.8c3.3,0.1,6.4,0.1,9-0.2c2.6-0.2,4.8-0.6,6.4-1.1
											C169.7,460.5,170.8,459.4,170.9,459.5z"/>
									</g>
								</g>
							</g>
						</g>
					</g>
				</g>
				<g>
					<g>
						<g>
							<g>
								<g>
									<g>
										<path class="st7" d="M97.2,459.7c0,0-0.7,0.4-2,1c-1.4,0.6-3.4,1.4-6.1,2.2c-2.7,0.8-6.1,1.7-10.1,2.3
											c-3.9,0.6-8.4,1.1-13.1,1.2c-9.5,0.2-17.9-1.2-23.5-2.7c-2.8-0.8-4.7-1.8-5.7-2.6c-0.5-0.4-0.8-0.8-0.9-1
											c-0.1-0.2-0.2-0.4-0.2-0.4c0.1,0,0.3,0.5,1.4,1.3c1,0.8,2.9,1.7,5.7,2.4c5.5,1.4,13.9,2.7,23.2,2.6
											c4.7-0.1,9.1-0.5,12.9-1.1c3.9-0.6,7.2-1.4,10-2.2c2.7-0.8,4.8-1.5,6.2-2.1C96.4,460,97.2,459.7,97.2,459.7z"/>
									</g>
								</g>
							</g>
						</g>
					</g>
				</g>
				<g>
					<g>
						<g>
							<g>
								<g>
									<g>
										<path class="st7" d="M255.3,470.2c0,0,0.4,0.1,1,0.2c0.7,0.1,1.7,0.3,3.1,0.5c2.7,0.3,7.1,0.4,11.8-1l0,0.2
											c-3.5-1.5-8.6-2.9-14.6-3.2c-6-0.3-13,0.4-19,2.8c-0.7,0.3-1.4,0.6-1.5,1.1c-0.1,0.4,0.5,0.8,1.3,1.1
											c0.8,0.3,1.7,0.4,2.6,0.5c0.9,0.1,1.9,0.2,2.9,0.4c3.9,0.5,7.8,1,12,1.3c4.1,0.3,8.4,0.6,12.7,0.5c2.2,0,4.4-0.2,6.5-0.4
											c1.1-0.1,2.2-0.2,3.2-0.4c1.1-0.1,2.1-0.3,3.1-0.6c1.6-0.4,3.1-0.9,4.1-1.7c1-0.7,1.4-1.7,0.8-2.5c-0.5-0.9-1.8-1.5-3.2-2
											c-1.4-0.5-2.9-0.9-4.5-1.2c-6.2-1.4-12.6-2-18.7-2.2c-12.3-0.4-23.3,0.9-31.9,2.8c-8.7,1.9-15.1,4.2-19.2,5.9
											c-2.1,0.9-3.6,1.6-4.6,2.1c-0.5,0.2-0.9,0.4-1.2,0.6c-0.3,0.1-0.4,0.2-0.4,0.2c0,0,0.1-0.1,0.4-0.2
											c0.3-0.2,0.7-0.4,1.1-0.6c1-0.5,2.5-1.3,4.6-2.2c4.1-1.8,10.5-4.2,19.2-6.1c8.7-1.9,19.8-3.3,32.2-2.9
											c6.2,0.2,12.7,0.8,19,2.2c1.6,0.4,3.1,0.7,4.6,1.3c1.4,0.5,2.9,1.2,3.5,2.2c0.7,1,0.3,2.2-0.9,3c-1.2,0.8-2.7,1.4-4.4,1.8
											c-1.1,0.3-2.2,0.5-3.3,0.6c-1.1,0.2-2.2,0.3-3.3,0.4c-2.2,0.2-4.4,0.3-6.6,0.4c-4.4,0.1-8.7-0.2-12.9-0.5
											c-4.2-0.3-8.1-0.8-12-1.3c-1-0.1-1.9-0.2-2.9-0.4c-1-0.1-1.9-0.3-2.8-0.6c-0.4-0.1-0.9-0.3-1.2-0.6
											c-0.3-0.2-0.5-0.6-0.4-0.9c0.1-0.7,1-1.1,1.8-1.4c6.2-2.4,13.4-3.1,19.5-2.8c6.2,0.3,11.3,1.7,14.8,3.3l0.3,0.1l-0.3,0.1
											c-4.8,1.4-9.3,1.3-12,0.9C256.6,470.7,255.3,470.2,255.3,470.2z"/>
									</g>
								</g>
							</g>
						</g>
					</g>
				</g>
				<g>
					<g>
						<g>
							<g>
								<g>
									<g>
										<path class="st7" d="M342,459.9c0,0,0.3,0.3,0.7,0.8c0.3,0.6,0.6,1.4,0.4,2.5c-0.2,2.1-2.5,4.9-6.6,7.2
											c-1.9,1.2-4,2.2-6.1,2.9c-2.1,0.8-4.1,1.3-5.9,1.6c-1.8,0.3-3.3,0.5-4.3,0.6c-1,0.1-1.6,0.1-1.6,0.1c0-0.1,2.3-0.3,5.7-1
											c1.7-0.4,3.7-0.9,5.7-1.7c2-0.8,4-1.7,5.9-2.9c3.9-2.2,6.2-4.9,6.6-6.9C342.9,461.2,341.7,459.9,342,459.9z"/>
									</g>
								</g>
							</g>
						</g>
					</g>
				</g>
				<g>
					<g>
						<g>
							<g>
								<g>
									<g>
										<path class="st7" d="M462.9,474.9c-0.1,0-0.9-0.7-3.1-1.7c-2.1-1-5.6-2.2-10.5-2.7c-2.4-0.2-5.1-0.2-8,0.1
											c-2.9,0.3-6,0.7-9.4,0.5c-3.5-0.2-6.6-1.4-9.4-2.6c-2.8-1.3-5.8-2.4-9.4-3.1c-7.1-1.4-14.6-1.2-20.9-0.2
											c-6.3,1-11.4,2.8-15.5,4.4c-4,1.7-7,3.2-9,4.3c-0.9,0.5-1.7,0.9-2.3,1.3c-0.5,0.3-0.8,0.4-0.8,0.4c0,0,0.2-0.2,0.7-0.5
											c0.5-0.3,1.2-0.8,2.2-1.3c1.9-1.1,4.8-2.7,8.8-4.4c4-1.7,9.2-3.5,15.6-4.5c6.4-1,14-1.3,21.4,0.2c3.7,0.7,6.8,2,9.6,3.2
											c2.8,1.2,5.7,2.3,9,2.5c3.2,0.2,6.3-0.2,9.2-0.4c2.9-0.3,5.7-0.3,8.2-0.1c5,0.5,8.6,1.8,10.6,2.9
											C462.1,474.2,462.9,474.9,462.9,474.9z"/>
									</g>
								</g>
							</g>
						</g>
					</g>
				</g>
				<g>
					<g>
						<g>
							<g>
								<g>
									<g>
										<path class="st7" d="M570.9,459.4c0,0-0.2,0.2-0.7,0.6c-0.5,0.4-1.2,0.9-2.3,1.5c-2,1.3-5.3,3.1-9.8,4.9
											c-4.5,1.9-10.2,3.8-17.1,5.3c-3.4,0.8-7.1,1.5-11,2c-3.9,0.5-8,0.9-12.3,0.9c-8.6,0-16.6-1.2-23.4-2.7
											c-6.8-1.6-12.5-3.5-17-5.4c-4.4-1.9-7.7-3.6-9.8-5c-1.1-0.6-1.8-1.2-2.3-1.5c-0.5-0.4-0.8-0.6-0.7-0.6
											c0,0,0.3,0.2,0.9,0.5c0.6,0.3,1.3,0.9,2.4,1.5c2.1,1.3,5.4,3,9.9,4.8c4.4,1.8,10.2,3.7,16.9,5.3
											c6.7,1.5,14.6,2.7,23.1,2.7c4.2,0,8.3-0.4,12.1-0.9c3.9-0.5,7.5-1.2,10.9-1.9c6.8-1.5,12.5-3.4,17-5.2
											c4.5-1.8,7.8-3.5,9.9-4.8c1.1-0.6,1.8-1.1,2.4-1.5C570.6,459.6,570.9,459.4,570.9,459.4z"/>
									</g>
								</g>
							</g>
						</g>
					</g>
				</g>
				<g>
					<g>
						<g>
							<g>
								<g>
									<g>
										<path class="st7" d="M555.5,459.2c0,0-0.2,0.1-0.6,0.3c-0.4,0.2-1,0.4-1.7,0.7c-1.5,0.6-3.8,1.3-6.7,2.1
											c-2.9,0.8-6.5,1.7-10.7,2.4c-4.1,0.7-8.9,1.3-13.9,1.3c-10.1,0-18.9-1.9-24.7-3.5c-2.9-0.8-5.2-1.6-6.7-2.2
											c-0.8-0.3-1.3-0.5-1.7-0.7c-0.4-0.2-0.6-0.3-0.6-0.3c0,0,0.9,0.3,2.4,0.8c1.5,0.5,3.8,1.3,6.8,2.1
											c5.8,1.5,14.5,3.3,24.4,3.3c4.9,0,9.6-0.6,13.7-1.3c4.1-0.7,7.7-1.5,10.6-2.3c2.9-0.8,5.3-1.5,6.8-2
											C554.5,459.5,555.4,459.2,555.5,459.2z"/>
									</g>
								</g>
							</g>
						</g>
					</g>
				</g>
				<g>
					<g>
						<g>
							<g>
								<g>
									<g>
										<path class="st7" d="M673.2,460.9c0,0-0.5,0-1.3,0c-1,0-2.3,0-3.8-0.1c-0.8,0-1.8,0-2.7-0.1c-1,0-2.1,0-3.3,0
											c-2.3,0-5,0-8,0c-1.5,0-3,0.1-4.6,0.1c-1.6,0.1-3.3,0.1-5,0.2c-3.5,0.1-7.1,0.4-10.9,0.6c-7.6,0.5-15.9,1.3-24.3,2.4
											c-8.4,1.1-16,2.4-22.7,3.6c-3.3,0.7-6.5,1.3-9.2,2c-1.4,0.3-2.8,0.6-4.1,1c-1.2,0.3-2.4,0.6-3.6,1c-2.3,0.6-4.3,1.2-6,1.7
											c-0.9,0.3-1.7,0.5-2.4,0.7c-0.7,0.2-1.3,0.4-1.9,0.6c-1.1,0.4-2,0.6-2.7,0.9c-0.6,0.2-1,0.3-1,0.3c0,0,0.2-0.1,0.8-0.3
											c0.7-0.3,1.5-0.6,2.5-0.9c0.6-0.2,1.2-0.4,1.8-0.7c0.7-0.2,1.5-0.5,2.4-0.7c1.7-0.5,3.6-1.2,5.9-1.8
											c1.1-0.3,2.3-0.6,3.6-1c1.3-0.3,2.7-0.6,4.1-1c2.8-0.7,6-1.3,9.2-2c6.7-1.3,14.4-2.6,22.9-3.7c8.5-1.1,16.8-1.8,24.5-2.3
											c3.9-0.2,7.5-0.5,11-0.5c1.7-0.1,3.4-0.1,5-0.2c1.6,0,3.2,0,4.7-0.1c3-0.1,5.7,0,8,0c1.2,0,2.3,0,3.3,0
											c1,0,1.9,0.1,2.7,0.1c1.5,0.1,2.8,0.1,3.8,0.2C672.8,460.9,673.3,460.9,673.2,460.9z"/>
									</g>
								</g>
							</g>
						</g>
					</g>
				</g>
				<g>
					<g>
						<g>
							<g>
								<g>
									<g>
										<path class="st7" d="M475,474.6c-0.1,0-1-1-3.7-2.5c-2.6-1.5-7.2-3.2-13.6-4.3c-3.2-0.6-6.7-1-10.6-1.3
											c-3.9-0.3-8-0.6-12.4-1c-4.4-0.4-8.9-1.1-13.4-1.9c-4.6-0.8-9.3-1.6-14.3-1.9c-10.1-0.7-19.8,0.5-27.9,2.2
											c-4.1,0.8-7.9,1.9-11.4,2.9c-3.5,1-6.7,2-9.6,2.9c-5.8,1.8-10.4,3.4-13.6,4.5c-1.5,0.5-2.8,1-3.7,1.3
											c-0.4,0.1-0.7,0.2-1,0.3c-0.2,0.1-0.3,0.1-0.3,0.1c0,0,0.1-0.1,0.3-0.1c0.2-0.1,0.5-0.2,0.9-0.4c0.8-0.3,2-0.8,3.6-1.3
											c3.1-1.1,7.7-2.8,13.5-4.6c2.9-0.9,6.1-1.9,9.6-3c3.5-1,7.3-2.1,11.4-2.9c8.2-1.7,18.1-3,28.3-2.2c5.1,0.4,9.9,1.2,14.5,2
											c4.6,0.8,9,1.5,13.3,1.9c4.3,0.4,8.5,0.7,12.4,1.1c3.9,0.4,7.5,0.8,10.7,1.4c6.4,1.2,11,2.9,13.6,4.4
											C474.2,473.5,475,474.6,475,474.6z"/>
									</g>
								</g>
							</g>
						</g>
					</g>
				</g>
				<g>
					<g>
						<g>
							<g>
								<g>
									<g>
										<path class="st7" d="M323.3,459.5c0,0,0.1,0.4-0.1,1.1c-0.1,0.7-0.5,1.6-1.3,2.8c-1.5,2.3-4.7,5.3-10.4,7.4
											c-5.6,2-11.3,3.2-15.3,4c-2.1,0.4-3.7,0.7-4.9,0.8c-1.2,0.2-1.8,0.2-1.8,0.2c0,0,0.6-0.2,1.7-0.4c1.3-0.3,2.9-0.6,4.8-1
											c4-0.9,9.6-2.1,15.1-4.1c5.4-2,8.6-5,10.3-7.2C323,461,323.1,459.5,323.3,459.5z"/>
									</g>
								</g>
							</g>
						</g>
					</g>
				</g>
				<g>
					<g>
						<g>
							<g>
								<g>
									<g>
										<path class="st7" d="M166.9,475.8c0,0,0.5-0.3,1.6-0.9c1.1-0.6,2.7-1.3,4.8-2.2c4.1-1.8,10.2-4.1,17.2-6.2
											c7-2.2,13.5-3.9,18.3-5.1c2.4-0.6,4.3-1.1,5.6-1.4c1.3-0.3,2.1-0.5,2.1-0.5c0,0-0.7,0.3-2,0.6c-1.4,0.4-3.3,0.9-5.5,1.6
											c-4.7,1.3-11.2,3.1-18.1,5.2c-7,2.2-13,4.4-17.2,6.1c-2.1,0.9-3.8,1.6-4.9,2.1C167.6,475.6,167,475.8,166.9,475.8z"/>
									</g>
								</g>
							</g>
						</g>
					</g>
				</g>
				<g>
					<g>
						<g>
							<g>
								<g>
									<g>
										<path class="st7" d="M198.7,460.2c0,0.1-1.6-0.1-4.3,0c-2.8,0.1-6.8,0.6-11.2,1.9c-4.5,1.2-9.3,3.3-14.6,5.5
											c-2.7,1.1-5.6,2.2-8.8,3.2c-3.2,1-6.8,1.7-10.5,2.3c-7.5,1.1-14.9,1.3-21.5,1.5c-6.7,0.1-12.6,0-17.7,0.2
											c-5,0.1-9,0.4-11.8,0.6c-1.4,0.1-2.4,0.3-3.2,0.4c-0.7,0.1-1.1,0.1-1.1,0.1c0,0,0.4-0.1,1.1-0.2c0.7-0.1,1.8-0.3,3.1-0.4
											c2.8-0.3,6.8-0.7,11.8-0.8c5-0.2,11-0.1,17.7-0.3c6.6-0.1,13.9-0.4,21.3-1.5c3.7-0.6,7.2-1.3,10.3-2.2
											c3.2-0.9,6-2.1,8.7-3.1c5.3-2.2,10.2-4.2,14.8-5.5c4.5-1.3,8.7-1.7,11.5-1.8c1.4,0,2.5,0,3.3,0.1
											C198.3,460.1,198.7,460.1,198.7,460.2z"/>
									</g>
								</g>
							</g>
						</g>
					</g>
				</g>
			</g>
		</g>
	</g>
</g>
</svg>
