<?xml version="1.0" encoding="utf-8"?>
<!-- Generator: Adobe Illustrator 26.5.0, SVG Export Plug-In . SVG Version: 6.00 Build 0)  -->
<svg version="1.1" xmlns="http://www.w3.org/2000/svg" xmlns:xlink="http://www.w3.org/1999/xlink" x="0px" y="0px"
	 viewBox="0 0 500 500" style="enable-background:new 0 0 500 500;" xml:space="preserve">
<style type="text/css">
	.st0{fill:#F5F5F5;}
	.st1{fill:#E0E0E0;}
	.st2{fill:#EBEBEB;}
	.st3{fill:#FFFFFF;}
	.st4{display:none;}
	.st5{display:inline;fill:#F5F5F5;}
	.st6{fill:#263238;}
	.st7{fill:#FF725E;}
	.st8{opacity:0.3;}
	.st9{fill:#FFBE9D;}
	.st10{fill:#455A64;}
	.st11{fill:#BA7F72;}
	.st12{fill:#8B5D54;}
	.st13{fill:#FAFAFA;}
</style>
<g id="Background_Complete">
	<g>
		<path class="st0" d="M454,216.2c0.7-4.8-6.1-8.7-11.2-9.2c-2.4-0.2-4.9,0.2-7.2-0.6c-5-1.7-7-8.2-11.8-10.2
			c-3.6-1.5-7.8-0.2-11.3,1.6s-7,4-10.9,4.3c-3.4,0.2-7.1-1.1-10.1,0.6c-2.2,1.2-3.4,3.8-5.5,5.3c-2,1.5-4.6,1.8-7.1,1.9
			c-2.5,0.1-5.1,0.2-7.4,1.2c-2.3,1-4.2,3.4-3.7,5.9L454,216.2z"/>
	</g>
	<g>
		<g>
			<g>
				<g>
					<g>
						<g>
							<path class="st1" d="M291.6,166l0.9,1.5c1,1.7,2.5,3,4.3,3.9l1.6,0.8l-1.5,0.9c-1.7,1-3,2.5-3.9,4.3l-0.8,1.6l-0.9-1.5
								c-1-1.7-2.5-3-4.3-3.9l-1.6-0.8l1.5-0.9c1.7-1,3-2.5,3.9-4.3L291.6,166z"/>
						</g>
					</g>
				</g>
			</g>
		</g>
	</g>
	<g>
		<g>
			<g>
				<g>
					<g>
						<g>
							<path class="st1" d="M38.3,261l0.9,1.5c1,1.7,2.5,3,4.3,3.9l1.6,0.8l-1.5,0.9c-1.7,1-3,2.5-3.9,4.3l-0.8,1.6l-0.9-1.5
								c-1-1.7-2.5-3-4.3-3.9l-1.6-0.8l1.5-0.9c1.7-1,3-2.5,3.9-4.3L38.3,261z"/>
						</g>
					</g>
				</g>
			</g>
		</g>
	</g>
	<g>
		<g>
			<g>
				<g>
					<g>
						<g>
							<path class="st1" d="M168.3,92.3l0.8,7.7c0.2,1.8,0.9,3.6,2.3,4.9c0,0,0.1,0.1,0.1,0.1c1.3,1.2,3,1.8,4.8,1.9l6,0.3l-6.2,1.1
								c-1.6,0.3-3.1,1-4.3,2.2c-0.1,0.1-0.2,0.3-0.4,0.4c-1.1,1.2-1.7,2.8-1.8,4.5l-0.7,7.6l-0.8-7.2c-0.2-1.8-0.9-3.6-2.3-4.8
								c-0.1-0.1-0.2-0.1-0.2-0.2c-1.2-1.1-2.8-1.7-4.4-1.8l-6.4-0.7l6-0.7c1.8-0.2,3.5-1,4.7-2.3c0.1-0.1,0.1-0.2,0.2-0.2
								c1.1-1.2,1.7-2.8,1.8-4.5L168.3,92.3z"/>
						</g>
					</g>
				</g>
			</g>
		</g>
	</g>
	<g>
		<g>
			<g>
				<g>
					<g>
						<g>
							<path class="st1" d="M42.7,90l0.6,5.6c0.1,1.4,0.7,2.7,1.7,3.6c0,0,0,0,0.1,0.1c1,0.9,2.2,1.3,3.5,1.4l4.5,0.2l-4.6,0.8
								c-1.2,0.2-2.3,0.8-3.1,1.6c-0.1,0.1-0.2,0.2-0.3,0.3c-0.8,0.9-1.2,2.1-1.4,3.3l-0.5,5.6l-0.6-5.3c-0.1-1.3-0.7-2.6-1.7-3.6
								c-0.1-0.1-0.1-0.1-0.2-0.2c-0.9-0.8-2-1.2-3.2-1.3l-4.7-0.5l4.4-0.5c1.3-0.2,2.6-0.7,3.5-1.7c0.1-0.1,0.1-0.1,0.2-0.2
								c0.8-0.9,1.3-2.1,1.4-3.3L42.7,90z"/>
						</g>
					</g>
				</g>
			</g>
		</g>
	</g>
	<g>
		<g>
			<g>
				<g>
					<g>
						<g>
							<path class="st1" d="M421,258.9l0.6,5.6c0.1,1.4,0.7,2.7,1.7,3.6c0,0,0,0,0.1,0.1c1,0.9,2.2,1.3,3.5,1.4l4.5,0.2l-4.6,0.8
								c-1.2,0.2-2.3,0.8-3.1,1.6c-0.1,0.1-0.2,0.2-0.3,0.3c-0.8,0.9-1.2,2.1-1.4,3.3l-0.5,5.6l-0.6-5.3c-0.1-1.3-0.7-2.6-1.7-3.6
								c-0.1-0.1-0.1-0.1-0.2-0.2c-0.9-0.8-2-1.2-3.2-1.3l-4.7-0.5l4.4-0.5c1.3-0.2,2.6-0.7,3.5-1.7c0.1-0.1,0.1-0.1,0.2-0.2
								c0.8-0.9,1.3-2.1,1.4-3.3L421,258.9z"/>
						</g>
					</g>
				</g>
			</g>
		</g>
	</g>
	<g>
		<g>
			<g>
				<g>
					<g>
						<g>
							<path class="st1" d="M472.1,148.9l0.6,5.6c0.1,1.4,0.7,2.7,1.7,3.6c0,0,0,0,0.1,0.1c1,0.9,2.2,1.3,3.5,1.4l4.5,0.2l-4.6,0.8
								c-1.2,0.2-2.3,0.8-3.1,1.6c-0.1,0.1-0.2,0.2-0.3,0.3c-0.8,0.9-1.2,2.1-1.4,3.3l-0.5,5.6l-0.6-5.3c-0.1-1.3-0.7-2.6-1.7-3.6
								c-0.1-0.1-0.1-0.1-0.2-0.2c-0.9-0.8-2-1.2-3.2-1.3l-4.7-0.5l4.4-0.5c1.3-0.2,2.6-0.7,3.5-1.7c0.1-0.1,0.1-0.1,0.2-0.2
								c0.8-0.9,1.3-2.1,1.4-3.3L472.1,148.9z"/>
						</g>
					</g>
				</g>
			</g>
		</g>
	</g>
	<g>
		<g>
			<g>
				<g>
					<g>
						<g>
							<path class="st1" d="M333.2,49.3l0.5,0.8c0.5,0.8,1.2,1.5,2.1,2l0.8,0.4l-0.8,0.5c-0.8,0.5-1.5,1.2-2,2.1l-0.4,0.8l-0.5-0.8
								c-0.5-0.8-1.2-1.5-2.1-2l-0.8-0.4l0.8-0.5c0.8-0.5,1.5-1.2,2-2.1L333.2,49.3z"/>
						</g>
					</g>
				</g>
			</g>
		</g>
	</g>
	<g>
		<g>
			<g>
				<g>
					<g>
						<g>
							<path class="st1" d="M274.6,126.4l0.5,0.8c0.5,0.8,1.2,1.5,2.1,2l0.8,0.4l-0.8,0.5c-0.8,0.5-1.5,1.2-2,2.1l-0.4,0.8l-0.5-0.8
								c-0.5-0.8-1.2-1.5-2.1-2l-0.8-0.4l0.8-0.5c0.8-0.5,1.5-1.2,2-2.1L274.6,126.4z"/>
						</g>
					</g>
				</g>
			</g>
		</g>
	</g>
	<g>
		<g>
			<g>
				<g>
					<g>
						<g>
							<path class="st1" d="M455.9,59.9l0.5,0.8c0.5,0.8,1.2,1.5,2.1,2l0.8,0.4l-0.8,0.5c-0.8,0.5-1.5,1.2-2,2.1l-0.4,0.8l-0.5-0.8
								c-0.5-0.8-1.2-1.5-2.1-2l-0.8-0.4l0.8-0.5c0.8-0.5,1.5-1.2,2-2.1L455.9,59.9z"/>
						</g>
					</g>
				</g>
			</g>
		</g>
	</g>
	<g>
		<g>
			<g>
				<g>
					<g>
						<g>
							<path class="st1" d="M196.3,182.6l0.5,0.8c0.5,0.8,1.2,1.5,2.1,2l0.8,0.4l-0.8,0.5c-0.8,0.5-1.5,1.2-2,2.1l-0.4,0.8l-0.5-0.8
								c-0.5-0.8-1.2-1.5-2.1-2l-0.8-0.4l0.8-0.5c0.8-0.5,1.5-1.2,2-2.1L196.3,182.6z"/>
						</g>
					</g>
				</g>
			</g>
		</g>
	</g>
	<g>
		<circle class="st2" cx="257.7" cy="70.5" r="44"/>
		<path class="st1" d="M263.7,110.3c-24.3,0-44-19.7-44-44c0-13.8,6.3-26,16.2-34.1c-13.3,7.6-22.3,21.8-22.3,38.2
			c0,24.3,19.7,44,44,44c10.5,0,20.2-3.7,27.7-9.9C279,108.2,271.6,110.3,263.7,110.3z"/>
		<ellipse transform="matrix(0.1607 -0.987 0.987 0.1607 176.686 325.6798)" class="st0" cx="279.8" cy="59" rx="9.6" ry="9.6"/>
		<path class="st0" d="M293,83.4c0,3.6-2.9,6.6-6.6,6.6c-3.6,0-6.6-2.9-6.6-6.6c0-3.6,2.9-6.6,6.6-6.6C290,76.9,293,79.8,293,83.4z"
			/>
		<g>
			<path class="st3" d="M297.3,58.9c0,0-0.1-0.2-0.3-0.5c-0.2-0.4-0.3-0.9-0.7-1.6c-0.6-1.4-1.5-3.3-2.9-5.6
				c-2.7-4.6-7.5-10.4-14.5-14.7c-7-4.3-14.4-5.9-19.7-6.1c-2.7-0.2-4.8-0.1-6.3,0c-0.7,0-1.3,0.1-1.7,0.2c-0.4,0-0.6,0-0.6,0
				c0,0,0.2-0.1,0.6-0.1c0.4-0.1,1-0.2,1.7-0.3c1.5-0.2,3.7-0.3,6.4-0.2c5.4,0.2,12.9,1.8,20,6.1c7.1,4.3,11.9,10.3,14.6,15
				c1.3,2.3,2.2,4.3,2.7,5.8c0.3,0.7,0.4,1.3,0.6,1.6C297.3,58.7,297.3,58.9,297.3,58.9z"/>
		</g>
		<g>
			<path class="st3" d="M298,77.6c-0.2-0.1,1.1-2.8,1.2-6.4c0.2-3.6-0.9-6.4-0.7-6.5c0.1,0,0.4,0.6,0.7,1.8c0.3,1.2,0.6,2.8,0.5,4.7
				c-0.1,1.8-0.4,3.5-0.8,4.6C298.4,77,298.1,77.6,298,77.6z"/>
		</g>
	</g>
	<g>
		<path class="st2" d="M118.2,152.9c0.7-4.8-6.1-8.7-11.2-9.2c-2.4-0.2-4.9,0.2-7.2-0.6c-5-1.7-7-8.2-11.8-10.2
			c-3.6-1.5-7.8-0.2-11.3,1.6c-3.5,1.8-7,4-10.9,4.3c-3.4,0.2-7.1-1.1-10.1,0.6c-2.2,1.2-3.4,3.8-5.5,5.3c-2,1.5-4.6,1.8-7.1,1.9
			c-2.5,0.1-5.1,0.2-7.4,1.2c-2.3,1-4.2,3.4-3.7,5.9L118.2,152.9z"/>
	</g>
	<g>
		<path class="st0" d="M160,44.8c0.5-3.4-4.4-6.3-8-6.6c-1.7-0.1-3.6,0.1-5.2-0.4c-3.6-1.2-5-5.9-8.5-7.3c-2.6-1.1-5.6-0.1-8.1,1.2
			c-2.5,1.3-5,2.9-7.8,3.1c-2.5,0.2-5.1-0.8-7.3,0.4c-1.6,0.9-2.4,2.7-3.9,3.8c-1.4,1.1-3.3,1.3-5.1,1.4c-1.8,0.1-3.6,0.1-5.3,0.9
			c-1.6,0.7-3,2.5-2.6,4.2L160,44.8z"/>
	</g>
	<g>
		<path class="st2" d="M435.4,121.5c0.5-3.4-4.4-6.3-8-6.6c-1.7-0.1-3.6,0.1-5.2-0.4c-3.6-1.2-5-5.9-8.5-7.3
			c-2.6-1.1-5.6-0.1-8.1,1.2c-2.5,1.3-5,2.9-7.8,3.1c-2.5,0.2-5.1-0.8-7.3,0.4c-1.6,0.9-2.4,2.7-3.9,3.8c-1.4,1.1-3.3,1.3-5.1,1.4
			c-1.8,0.1-3.6,0.1-5.3,0.9c-1.6,0.7-3,2.5-2.6,4.2L435.4,121.5z"/>
	</g>
</g>
<g id="Background_Simple" class="st4">
	<path class="st5" d="M389,77l-1.9-3.1c-15.9-26.3-44.8-42.1-75.2-40.2c-3.9,0.2-7.8,0.8-11.6,1.6c-27.6,5.9-51.7,26.8-61.6,53.6
		c-5.9,15.7-7.5,33.9-18.6,46.4c-14.5,16.3-39.1,16.8-60.7,16.1s-46.2-0.1-60.6,16.2c-9,10.2-11.9,24.8-11.2,38.5
		c1.9,36.2,27.2,68.7,59.3,84.8c32.1,16.1,69.9,17.6,105.1,10.5c49.2-9.9,96.1-37.2,124.2-79.3C404.4,179.8,411.5,122.4,389,77z"/>
</g>
<g id="Floor_1_">
	<g>
		<path class="st6" d="M486.2,416c0,0.1-105.8,0.3-236.2,0.3c-130.5,0-236.2-0.1-236.2-0.3c0-0.1,105.7-0.3,236.2-0.3
			C380.5,415.8,486.2,415.9,486.2,416z"/>
	</g>
</g>
<g id="Plant">
	<g>
		<g>
			<path class="st6" d="M421.4,416.7c-0.1,0-0.5-1-1.1-2.5c-0.7-1.6-1.7-3.7-3-5.9c-1.3-2.2-2.6-4.2-3.6-5.6c-1-1.4-1.6-2.2-1.6-2.3
				c0,0,0.8,0.7,1.9,2.1c1.1,1.3,2.4,3.3,3.7,5.5c1.3,2.3,2.2,4.4,2.8,6C421.2,415.7,421.4,416.7,421.4,416.7z"/>
		</g>
		<g>
			<path class="st6" d="M420.7,385.6c0,0,0.2,0.4,0.4,1.2c0.2,0.8,0.5,1.9,0.8,3.3c0.6,2.8,1.4,6.7,2.2,11c0.8,4.3,1.4,8.2,1.8,11
				c0.2,1.4,0.4,2.6,0.4,3.4c0.1,0.8,0.1,1.2,0.1,1.2c0,0-0.1-0.4-0.3-1.2c-0.2-0.9-0.4-2-0.6-3.3c-0.5-2.9-1.2-6.8-2-11
				c-0.8-4.2-1.5-8.1-2.1-11c-0.2-1.3-0.5-2.4-0.6-3.3C420.7,386,420.6,385.6,420.7,385.6z"/>
		</g>
		<g>
			<path class="st6" d="M433.9,400.2c0.2,0.1-1.6,3.5-2.3,8.1c-0.7,4.6,0,8.4-0.1,8.4c-0.1,0-0.3-0.9-0.5-2.5
				c-0.2-1.5-0.2-3.7,0.1-6c0.4-2.3,1-4.4,1.6-5.8C433.3,401,433.8,400.1,433.9,400.2z"/>
		</g>
	</g>
	<g>
		<g>
			<g>
				<path class="st7" d="M459.4,379.1c1.7,0.8,3,2.4,3.7,4.2c0.6,1.8,0.7,3.8,0.5,5.6c-0.4,3.7-2.5,7.4-4.7,10.3
					c-3.1-2.7-3.8-7.4-4-9.8C454.5,385.6,456.2,378.5,459.4,379.1"/>
			</g>
		</g>
		<g>
			<g>
				<path class="st7" d="M462.4,405.3c-0.5-2.1,0.4-4.3,2-5.8c1.6-1.4,3.8-2,5.9-1.9c1,0.1,2,0.4,2.6,1.2c0.5,0.8,0.5,1.8,0,2.6
					c-0.4,0.8-1.2,1.4-1.9,1.9C468.3,405.1,465.5,406.2,462.4,405.3"/>
			</g>
		</g>
		<g>
			<g>
				<g>
					<path class="st6" d="M458.5,416.5c0,0,0-0.3,0.1-0.8c0.1-0.5,0.2-1.2,0.4-2c0.3-1.7,0.8-4.1,2.1-6.5c1.3-2.4,3.1-4.1,4.7-5
						c0.8-0.4,1.4-0.7,1.9-0.8c0.2-0.1,0.4-0.1,0.5-0.1c0.1,0,0.2,0,0.2,0c0,0.1-1.1,0.3-2.5,1.2c-1.5,0.9-3.2,2.6-4.5,4.9
						c-1.3,2.3-1.8,4.7-2.1,6.4c-0.2,0.9-0.3,1.5-0.5,2C458.6,416.3,458.5,416.5,458.5,416.5z"/>
				</g>
			</g>
		</g>
		<g>
			<g>
				<g>
					<path class="st6" d="M458.6,384.6c0,0,0,0.1,0,0.3c0,0.2,0,0.6,0.1,0.9c0,0.8,0.1,2,0.1,3.5c0.1,2.9,0.2,7,0.2,11.5
						c0,4.5-0.1,8.5-0.3,11.5c-0.1,1.5-0.1,2.7-0.2,3.5c0,0.4,0,0.7-0.1,0.9c0,0.2,0,0.3,0,0.3c0,0,0-0.1,0-0.3c0-0.2,0-0.6,0-0.9
						c0-0.9,0-2,0.1-3.5c0.1-2.9,0.2-7,0.2-11.5c0-4.5,0-8.5-0.1-11.5c0-1.4,0-2.6-0.1-3.5c0-0.4,0-0.7,0-0.9
						C458.6,384.7,458.6,384.6,458.6,384.6z"/>
				</g>
			</g>
		</g>
		<g>
			<g>
				<path class="st7" d="M457.1,407.5c-0.7-4.4-3.7-8.4-7.7-10.4c-1-0.5-2.4-0.8-3.2,0c-0.8,0.8-0.7,2.1-0.2,3.2
					c1.7,4.4,6.4,7.6,11.1,7.5"/>
			</g>
		</g>
		<g>
			<g>
				<g>
					<path class="st6" d="M449.8,400.6c0,0,0.2,0.1,0.7,0.3c0.2,0.1,0.5,0.2,0.7,0.4c0.3,0.2,0.6,0.3,0.9,0.6
						c0.3,0.2,0.7,0.5,1.1,0.8c0.4,0.3,0.8,0.7,1.1,1c0.8,0.8,1.5,1.7,2.2,2.8c0.6,1.1,1.1,2.2,1.4,3.2c0.1,0.5,0.3,1,0.4,1.5
						c0.1,0.5,0.1,0.9,0.2,1.3c0.1,0.4,0,0.8,0.1,1.1c0,0.3,0,0.6,0,0.8c0,0.5-0.1,0.7-0.1,0.7c-0.1,0,0-1-0.1-2.6
						c-0.1-0.4-0.1-0.8-0.2-1.3c-0.1-0.5-0.2-1-0.4-1.5c-0.3-1-0.8-2.1-1.4-3.2c-0.6-1.1-1.4-2-2.1-2.8c-0.4-0.4-0.7-0.7-1.1-1
						c-0.4-0.3-0.7-0.6-1-0.8C450.7,401.1,449.8,400.7,449.8,400.6z"/>
				</g>
			</g>
		</g>
	</g>
	<g>
		<path class="st6" d="M249.5,462.4c-0.1,0-0.4-1.1-1.1-2.9c-0.6-1.8-1.6-4.2-2.8-6.8c-1.2-2.6-2.6-4.9-3.6-6.5
			c-1-1.6-1.7-2.6-1.6-2.6c0.1,0,0.8,0.9,1.9,2.4c1.1,1.6,2.5,3.8,3.7,6.5c1.3,2.6,2.2,5.1,2.7,6.9
			C249.3,461.3,249.5,462.4,249.5,462.4z"/>
	</g>
	<g>
		<path class="st6" d="M252.2,460.9c-0.1,0-1.1-5.3-2.1-12c-1-6.6-1.7-12-1.6-12c0.1,0,1.1,5.3,2.1,12
			C251.7,455.5,252.4,460.9,252.2,460.9z"/>
	</g>
	<g>
		<path class="st6" d="M257.7,440.3c0.1,0-0.3,1.2-0.8,3.2c-0.5,2-1.1,4.8-1.3,7.9c-0.3,3.1-0.2,6-0.1,8c0.1,2,0.3,3.3,0.2,3.3
			c0,0-0.1-0.3-0.2-0.9c-0.1-0.6-0.2-1.4-0.4-2.4c-0.2-2.1-0.3-4.9-0.1-8.1c0.3-3.1,0.9-6,1.5-7.9c0.3-1,0.6-1.8,0.8-2.3
			C257.5,440.6,257.6,440.3,257.7,440.3z"/>
	</g>
	<g>
		<path class="st6" d="M40,392.7c0,0,0.2,0.3,0.6,0.8c0.4,0.5,0.9,1.3,1.4,2.2c1.1,1.9,2.5,4.8,3.4,8.1c1,3.3,1.3,6.4,1.4,8.7
			c0,1.1,0,2,0,2.7c0,0.6-0.1,1-0.1,1c-0.1,0-0.1-1.4-0.2-3.6c-0.2-2.2-0.6-5.3-1.5-8.5c-0.9-3.3-2.2-6.1-3.2-8
			C40.7,393.9,40,392.8,40,392.7z"/>
	</g>
	<g>
		<path class="st6" d="M51.2,385.9c0,0,0.1,0.4,0.2,1.2c0.1,0.7,0.3,1.8,0.5,3.2c0.3,2.7,0.8,6.4,1.1,10.5c0.4,4.1,0.6,7.9,0.7,10.6
			c0.1,1.4,0.1,2.5,0.1,3.2c0,0.8,0,1.2,0,1.2c0,0-0.1-0.4-0.2-1.2c-0.1-0.9-0.2-1.9-0.3-3.2c-0.2-2.8-0.5-6.5-0.8-10.6
			c-0.4-4.1-0.7-7.7-1-10.6c-0.1-1.3-0.2-2.3-0.3-3.2C51.2,386.3,51.2,385.9,51.2,385.9z"/>
	</g>
	<g>
		<path class="st6" d="M63.6,399.5c0.2,0.1-2.2,3.2-3.3,7.8c-1.2,4.6-0.5,8.4-0.7,8.4c-0.1,0-0.3-0.9-0.4-2.5
			c-0.1-1.6,0-3.7,0.6-6.1c0.6-2.3,1.5-4.3,2.3-5.6C63,400.2,63.6,399.5,63.6,399.5z"/>
	</g>
	<g>
		<g>
			<g>
				<path class="st7" d="M74.4,440.6c1.7,0.8,3,2.4,3.7,4.2s0.7,3.8,0.5,5.6c-0.4,3.7-2.5,7.4-4.7,10.3c-3.1-2.7-3.8-7.4-4-9.8
					C69.5,447.1,71.2,440,74.4,440.6"/>
			</g>
		</g>
		<g>
			<g>
				<path class="st7" d="M77.5,466.8c-0.5-2.1,0.4-4.3,2-5.8c1.6-1.4,3.8-2,5.9-1.9c1,0.1,2,0.4,2.6,1.2c0.5,0.8,0.5,1.8,0,2.6
					c-0.4,0.8-1.2,1.4-1.9,1.9C83.4,466.5,80.5,467.7,77.5,466.8"/>
			</g>
		</g>
		<g>
			<g>
				<g>
					<path class="st6" d="M73.5,478c0,0,0-0.3,0.1-0.8c0.1-0.5,0.2-1.2,0.4-2c0.3-1.7,0.8-4.1,2.1-6.5c1.3-2.4,3.1-4.1,4.7-5
						c0.8-0.4,1.4-0.7,1.9-0.8c0.2-0.1,0.4-0.1,0.5-0.1c0.1,0,0.2,0,0.2,0c0,0.1-1.1,0.3-2.5,1.2c-1.5,0.9-3.2,2.6-4.5,4.9
						c-1.3,2.3-1.8,4.7-2.1,6.4c-0.2,0.9-0.3,1.5-0.5,2C73.6,477.7,73.5,478,73.5,478z"/>
				</g>
			</g>
		</g>
		<g>
			<g>
				<g>
					<path class="st6" d="M73.6,446.1c0,0,0,0.1,0,0.3c0,0.2,0,0.6,0.1,0.9c0,0.8,0.1,2,0.1,3.5c0.1,2.9,0.2,7,0.2,11.5
						c0,4.5-0.1,8.5-0.3,11.5c-0.1,1.5-0.1,2.7-0.2,3.5c0,0.4,0,0.7-0.1,0.9c0,0.2,0,0.3,0,0.3c0,0,0-0.1,0-0.3c0-0.2,0-0.6,0-0.9
						c0-0.9,0-2,0.1-3.5c0.1-2.9,0.2-7,0.2-11.5c0-4.5,0-8.5-0.1-11.5c0-1.4,0-2.6-0.1-3.5c0-0.4,0-0.7,0-0.9
						C73.6,446.2,73.6,446.1,73.6,446.1z"/>
				</g>
			</g>
		</g>
		<g>
			<g>
				<path class="st7" d="M72.1,469c-0.7-4.4-3.7-8.4-7.7-10.4c-1-0.5-2.4-0.8-3.2,0c-0.8,0.8-0.7,2.1-0.2,3.2
					c1.7,4.4,6.4,7.6,11.1,7.5"/>
			</g>
		</g>
		<g>
			<g>
				<g>
					<path class="st6" d="M64.9,462.1c0,0,0.2,0.1,0.7,0.3c0.2,0.1,0.5,0.2,0.7,0.4c0.3,0.2,0.6,0.3,0.9,0.6
						c0.3,0.2,0.7,0.5,1.1,0.8c0.4,0.3,0.8,0.7,1.1,1c0.8,0.8,1.5,1.7,2.2,2.8c0.6,1.1,1.1,2.2,1.4,3.2c0.1,0.5,0.3,1,0.4,1.5
						c0.1,0.5,0.1,0.9,0.2,1.3c0.1,0.4,0,0.8,0.1,1.1c0,0.3,0,0.6,0,0.8c0,0.5-0.1,0.7-0.1,0.7c-0.1,0,0-1-0.1-2.6
						c-0.1-0.4-0.1-0.8-0.2-1.3c-0.1-0.5-0.2-1-0.4-1.5c-0.3-1-0.8-2.1-1.4-3.2c-0.6-1.1-1.4-2-2.1-2.8c-0.4-0.4-0.7-0.7-1.1-1
						c-0.4-0.3-0.7-0.6-1-0.8C65.8,462.6,64.8,462.1,64.9,462.1z"/>
				</g>
			</g>
		</g>
	</g>
</g>
<g id="Character_2">
	<g>
		<g class="st8">
			<path d="M402,420.4c-6.1-6.5-15.3-8.9-24.1-10.5c-31.8-5.6-64.9-3.9-95.9,5.1l-7,1c12.3,16.8,22.7,30.7,40,42.3
				c17.3,11.5,38.7,18.1,59.1,14.2c11.8-2.3,23.4-8.4,29.8-18.6C410.3,443.7,410.3,429.1,402,420.4z"/>
		</g>
		<g>
			<g>
				<g>
					<g>
						<g>
							<g>
								<g>
									<g>
										<g>
											<g>
												<g>
													<path class="st9" d="M337,305.7l-30.2,14.8l-11.4-27.1c0,0-2.4,0.6-8.3-10.7c-5.9-11.3-16.1-30.4-16.1-30.4l0,0
														c10.8-12.5,27.5-18.5,43.7-15.7l2.4,0.4L337,305.7z"/>
												</g>
											</g>
										</g>
									</g>
								</g>
							</g>
						</g>
					</g>
				</g>
				<g>
					<g>
						<g>
							<g>
								<g>
									<g>
										<g>
											<path class="st9" d="M320.4,252.9c0.2-0.2,6.9-6.4,10.6,1.5c3.7,7.9-5.3,10.1-5.4,9.9
												C325.4,264.1,320.4,252.9,320.4,252.9z"/>
										</g>
									</g>
								</g>
							</g>
						</g>
					</g>
				</g>
				<g>
					<g>
						<g>
							<g>
								<g>
									<g>
										<g>
											<path class="st9" d="M281.8,270.3c-0.2,0-8.4,1.8-4.2,9.4c4.2,7.6,11.3,1.7,11.2,1.5C288.6,281,281.8,270.3,281.8,270.3z
												"/>
										</g>
									</g>
								</g>
							</g>
						</g>
					</g>
				</g>
				<g>
					<g>
						<g>
							<path class="st6" d="M322.6,250.7c2.1,7.1,4,10.4,5.1,15.3c1.7,7.8,0.8,14.8-3.9,21.5c-4.7,6.7-13.4,11-21.3,9.1
								c-5.5-1.3-10-3.6-13.1-8.2c-3-4.6-8-13-10.5-17.9c-4.5-8.8-9.4-17-9.4-17l24-17.8l19.3,1.1L322.6,250.7z"/>
						</g>
					</g>
				</g>
				<g>
					<g>
						<g>
							<g>
								<path class="st6" d="M312.5,298.2c0.1,0.2,2.4-0.3,4.8-1.9c2.4-1.6,3.9-3.4,3.7-3.6c-0.2-0.2-1.8,1.4-4.2,2.9
									C314.5,297.1,312.4,298,312.5,298.2z"/>
							</g>
						</g>
					</g>
				</g>
				<g>
					<g>
						<g>
							<path class="st6" d="M326.9,262.4c-2.6-7.1-5.9-15-8.4-22.5c-0.9-2.8-1.9-7.1-3.4-9.7c-1.6-2.5-3.2-5.2-5.7-7
								c-3-2.3-7.2-3-11-1.9c-3.7,1.1-7,3.9-8.5,7.4c-3.3-1.8-7.8-1.3-10.8,1.1c-3,2.4-4.2,6.7-3,10.2c-2.7-0.8-6,0.5-7.5,2.9
								c-1.6,2.4-1.3,5.8,0.6,7.8c-1.7,1.3-2.8,3.4-2.7,5.4c0.1,2.1,1.3,4,3.1,5.1c2.1,1.2,4.8,1.1,7,2.1c2.5,1.2,4.2,4,3.9,6.8"/>
						</g>
					</g>
					<g>
						<g>
							<g>
								<path class="st10" d="M278.3,256.7c0,0,0.2,0.3,0.7,0.6c0.5,0.3,1.3,0.7,2.4,0.9c1.1,0.2,2.5,0.1,3.9-0.7
									c1.4-0.7,2.7-2.1,3.3-4l-0.6,0.1c1.1,1.5,3.3,2.4,5.5,2.1c2.2-0.2,4.4-1.6,5.6-3.7c1.1-1.9,1.4-4,1.2-5.9l-0.6,0.4
									c2.5,1.4,5.4,1.2,7.5,0.2c2.2-1,3.5-2.9,4-4.5c0.6-1.6,0.5-3,0.3-3.9c-0.2-0.9-0.4-1.3-0.5-1.3c-0.1,0,0.1,0.5,0.2,1.4
									c0.1,0.9,0.1,2.2-0.5,3.7c-0.6,1.5-1.8,3.2-3.8,4c-2,0.9-4.6,1-6.8-0.2l-0.7-0.4l0.1,0.8c0.2,1.7-0.1,3.7-1.1,5.4
									c-1.1,1.9-2.9,3.2-4.9,3.3c-2,0.2-3.9-0.5-4.8-1.8l-0.4-0.6l-0.2,0.7c-0.4,1.7-1.6,3-2.8,3.7c-1.3,0.7-2.6,0.9-3.6,0.8
									C279.2,257.5,278.3,256.6,278.3,256.7z"/>
							</g>
						</g>
					</g>
					<g>
						<g>
							<g>
								<path class="st10" d="M276.7,253.6c0.1,0-0.7-1.3-0.3-3.4c0.2-1,0.7-2.3,1.9-3.2c1.1-0.9,2.7-1.5,4.4-1.3l0.9,0.1l-0.4-0.7
									c-0.4-0.7-0.7-1.5-0.9-2.4c-0.3-1.9,0.3-3.9,1.4-5.3c1.1-1.4,2.6-2.1,3.9-2.4c2.7-0.6,4.3,0.3,4.4,0.1c0,0-0.3-0.3-1.1-0.5
									c-0.8-0.2-1.9-0.4-3.4-0.2c-1.4,0.3-3.1,1-4.4,2.5c-1.3,1.5-1.9,3.7-1.6,5.8c0.1,1,0.5,1.9,1,2.7l0.4-0.6
									c-1.9-0.2-3.8,0.5-5,1.5c-1.2,1.1-1.8,2.5-1.9,3.6c-0.1,1.2,0.1,2.1,0.3,2.6C276.5,253.3,276.7,253.6,276.7,253.6z"/>
							</g>
						</g>
					</g>
					<g>
						<g>
							<g>
								<path class="st10" d="M293.6,245.4c0.1-0.1-0.2-0.4-0.5-1.1c-0.3-0.6-0.5-1.6-0.3-2.7c0.1-1.1,0.3-2.2,0.5-2.8
									c0.2-0.6,0.7-0.5,0.8-0.6c0,0,0-0.2-0.3-0.2c-0.3,0-0.7,0.2-0.9,0.6c-0.2,0.4-0.3,0.8-0.5,1.3c-0.1,0.5-0.3,1.1-0.3,1.7
									c-0.1,1.2,0.2,2.4,0.6,3C293.1,245.2,293.6,245.4,293.6,245.4z"/>
							</g>
						</g>
					</g>
					<g>
						<g>
							<g>
								<path class="st10" d="M304.3,227.7c0.1-0.1-0.3-0.6-1.2-1.2c-0.5-0.3-1.1-0.5-1.8-0.6c-0.7-0.1-1.6,0.1-2.4,0.6
									c-1.5,1-2,2.6-2.2,3.5c-0.2,1-0.2,1.6-0.1,1.7c0.1,0,0.3-0.6,0.7-1.5c0.4-0.9,0.9-2.2,2.1-3c1.2-0.8,2.6-0.5,3.4-0.2
									C303.7,227.5,304.2,227.8,304.3,227.7z"/>
							</g>
						</g>
					</g>
					<g>
						<g>
							<g>
								<path class="st10" d="M316.8,262.8c0.2,0,0.7-2.8,0.3-6.4c-0.4-3.5-1.6-6.1-1.8-6c-0.2,0.1,0.6,2.8,1,6.2
									C316.7,259.9,316.5,262.8,316.8,262.8z"/>
							</g>
						</g>
					</g>
					<g>
						<g>
							<g>
								<path class="st10" d="M314.2,266.4c0.2,0,0.4-2,0.2-4.5c-0.2-2.5-0.8-4.4-1-4.4c-0.2,0,0,2,0.2,4.5
									C313.8,264.4,314,266.4,314.2,266.4z"/>
							</g>
						</g>
					</g>
					<g>
						<g>
							<g>
								<path class="st10" d="M292.3,278.1c-0.2,0,1.1,3.5,4.3,6.4c3.3,3,6.8,3.9,6.9,3.7c0.1-0.2-3.2-1.5-6.3-4.3
									C294.1,281.1,292.6,278,292.3,278.1z"/>
							</g>
						</g>
					</g>
					<g>
						<g>
							<g>
								<path class="st10" d="M285.9,274.2c-0.2,0,0.2,3.3,2.6,6.4c2.4,3.2,5.5,4.4,5.5,4.2c0.1-0.2-2.6-1.7-4.9-4.7
									C286.9,277.2,286.2,274.1,285.9,274.2z"/>
							</g>
						</g>
					</g>
				</g>
			</g>
			<g>
				<path class="st3" d="M270.3,251.6c0,0.1-0.4,0.3-0.9,0.8c-0.5,0.5-1.1,1.3-1.2,2.4c-0.1,1.1,0.2,2,0.6,2.6
					c0.4,0.6,0.7,0.9,0.7,1c0,0.1-0.5-0.2-1-0.8c-0.5-0.6-1-1.7-0.8-2.9c0.2-1.2,0.9-2.2,1.5-2.6
					C269.8,251.6,270.3,251.5,270.3,251.6z"/>
			</g>
			<g>
				<path class="st3" d="M274.5,241.3c0,0.1-0.5,0.3-1.4,0.7c-0.8,0.4-2.1,1-3,2.1c-0.9,1.1-1.1,2.4-0.9,3.3
					c0.2,0.9,0.7,1.3,0.6,1.4c0,0-0.6-0.3-1-1.3c-0.3-1-0.2-2.5,0.9-3.7c1-1.2,2.3-1.7,3.2-2.1C273.9,241.4,274.5,241.2,274.5,241.3
					z"/>
			</g>
			<g>
				<path class="st3" d="M283.9,229.3c0,0.1-0.7,0.2-1.8,0.6c-1.1,0.4-2.5,1.3-3.5,2.7c-1,1.4-1.4,3-1.5,4.2c-0.1,1.2,0,1.9-0.1,1.9
					c-0.1,0-0.3-0.7-0.3-1.9c0-1.2,0.4-2.9,1.5-4.4c1.1-1.5,2.6-2.4,3.8-2.8C283.1,229.2,283.9,229.2,283.9,229.3z"/>
			</g>
			<g>
				<path class="st3" d="M297.7,223.8c0.1,0.1-1.5,1-3.1,2.3c-1.6,1.4-2.7,2.7-2.8,2.6c-0.1-0.1,0.8-1.6,2.5-3
					C295.9,224.3,297.6,223.6,297.7,223.8z"/>
			</g>
			<g>
				<path class="st3" d="M284.6,247.3c0,0-0.6-0.7-1.1-2.1c-0.4-1.4-0.6-3.5,0.3-5.6c0.9-2.1,2.6-3.5,3.9-4.1
					c1.3-0.6,2.3-0.7,2.3-0.6c0,0.1-0.9,0.3-2.1,1c-1.2,0.7-2.7,2-3.6,4c-0.8,2-0.8,4-0.4,5.3C284.2,246.5,284.7,247.3,284.6,247.3z
					"/>
			</g>
			<g>
				<path class="st3" d="M298.3,233.8c-0.1,0-0.4-1.4,0.6-2.9c0.9-1.5,2.3-1.9,2.4-1.8c0.1,0.1-1.1,0.7-1.9,2.1
					C298.5,232.5,298.5,233.8,298.3,233.8z"/>
			</g>
		</g>
		<g>
			<g>
				<path class="st6" d="M262.9,391.6c1.5,2.1,12.3,32.1,29,44.8c16.7,12.6,32.2,20.7,56.3,19.9c24-0.8,36.6-7.3,45.6-10.8
					c24.1-9.5,15.6-28.2,15.6-28.2l-42.1-10.6l-57-30.3c0,0-20.6-19.5-28.1-22.2c-7.6-2.7-17.4,9.2-19.5,19.7
					C260.5,384.6,262.9,391.6,262.9,391.6z"/>
				<g>
					<path class="st10" d="M299.6,426.1c0,0-0.1-0.4-0.1-1c-0.1-0.6-0.1-1.6-0.1-2.7c0-2.3,0.3-5.5,1.1-9c0.8-3.4,2-6.4,3-8.5
						c0.5-1,1-1.9,1.3-2.4c0.3-0.6,0.5-0.8,0.6-0.8c0.1,0-0.6,1.3-1.5,3.4c-0.9,2.1-2,5.1-2.8,8.5c-0.8,3.4-1.1,6.6-1.2,8.9
						C299.6,424.7,299.7,426.1,299.6,426.1z"/>
				</g>
				<g>
					<path class="st10" d="M293.9,413.1c-0.1,0,0.4-1.2,1.3-2.9c0.9-1.8,2.2-4.1,3.9-6.6c1.7-2.5,3.4-4.6,4.8-6.1
						c1.3-1.5,2.2-2.3,2.3-2.3c0.1,0.1-0.7,1-2,2.5c-1.2,1.5-2.9,3.7-4.6,6.1c-1.7,2.5-3.1,4.8-4,6.5
						C294.5,412.1,294,413.1,293.9,413.1z"/>
				</g>
			</g>
			<path class="st9" d="M348.8,172.4l-1.5-10.3c0,0-4.6-4.3-5.6-6c-1.1-1.8-6.5-1.3-6.5-1.3l-1.6-16.4c0,0-0.7-2.9-3.4-1.1
				c-2.6,1.8-1.3,21.1-1.3,21.1l-0.6,4.5c0,0-5.2-6.5-8.2-5.6c-3,0.9,1,4.3,1.7,6.3c0.6,1.9,12.3,12.8,12.3,12.8l10.1,20.3l2.2,0
				l7.1,5.1l7-10.4L348.8,172.4z"/>
			<g>
				<path class="st10" d="M289.4,312.1c0,0-10.5,6.8-13.9,17.6c-1.6,5.1-0.5,27.2,1.1,47.3c0.4,5.1,1.1,25,5.1,28.1
					c0.1,0.1,2.5,3.3,8.4,3.3c11.1,0,12.7-7.3,16-17.8l-0.8-12.6c0,0,4.5-42.3,2.9-49.7C306.5,321,289.4,312.1,289.4,312.1z"/>
				<path class="st10" d="M343.7,275.7l-11.5,8.8c0,0-1.6,12.9-16.7,21c-7.2,3.9-14.4,1.5-14.4,1.5l-11.7,5.1l-5.2,40.2l24.2,36.6
					l3,14l0.4,5c0,0-1.7,8.4,1.7,17.8c3.4,9.4,6.8,21.3,50.2,21.1c37.9-0.1,48-24.8,48.4-27.6c0.4-2.9-10.3-29.8-12.3-36.5
					c-2-6.8-23.6-79.9-23.6-79.9l-8.6-19.4L343.7,275.7z"/>
				<path class="st10" d="M348.6,222.6l-16.4,61.8l21.6,7.7l11,5.3l3.6-18.7c0,0,8.7-48,8.7-55.9c0.1-10-23-46.2-23-46.2
					s-13-2-17,11L348.6,222.6z"/>
				<g>
					<path class="st6" d="M345.7,431.3c0,0-0.6-0.1-1.7-0.3c-0.5-0.1-1.2-0.2-2-0.5c-0.8-0.2-1.6-0.4-2.6-0.8c-0.9-0.3-2-0.7-3-1.2
						c-1.1-0.4-2.2-1-3.4-1.6c-2.3-1.3-4.7-2.8-7.1-4.7c-4.7-3.8-8.4-7.9-10.8-11c-1.2-1.6-2.2-2.8-2.8-3.8c-0.6-0.9-1-1.4-0.9-1.4
						c0,0,0.4,0.5,1.1,1.3c0.7,0.9,1.7,2.1,2.9,3.7c2.5,3,6.2,7.1,10.9,10.8c2.4,1.9,4.7,3.4,7,4.7c1.2,0.6,2.2,1.2,3.3,1.6
						c1,0.5,2,0.9,3,1.2c0.9,0.4,1.8,0.6,2.5,0.8c0.7,0.3,1.4,0.4,1.9,0.5C345.1,431.1,345.7,431.3,345.7,431.3z"/>
				</g>
				<g>
					<path class="st6" d="M389.6,355.2c0,0,0,0.2,0,0.6c0,0.5-0.1,1-0.1,1.8c-0.1,1.5-0.3,3.8-0.6,6.5c-0.6,5.5-1.8,13-3.6,21.2
						c-1.9,8.2-4.1,15.5-5.8,20.7c-0.9,2.6-1.7,4.7-2.2,6.1c-0.3,0.7-0.5,1.2-0.7,1.6c-0.2,0.4-0.2,0.6-0.3,0.6c0,0,0-0.2,0.2-0.6
						c0.1-0.4,0.3-1,0.6-1.7c0.5-1.5,1.2-3.6,2.1-6.2c1.7-5.2,3.8-12.5,5.7-20.7c1.8-8.2,3.1-15.7,3.8-21.1c0.4-2.7,0.6-4.9,0.8-6.5
						c0.1-0.7,0.2-1.3,0.2-1.8C389.6,355.5,389.6,355.2,389.6,355.2z"/>
				</g>
				<g>
					<path class="st6" d="M381.4,336.8c0,0-0.1,0.6-0.4,1.7c-0.3,1.1-0.8,2.7-1.4,4.7c-1.3,3.9-3.3,9.3-7,14.4
						c-1.8,2.6-3.7,4.9-5.5,6.9c-1.8,2-3.4,3.9-4.7,5.4c-1.3,1.5-2.4,2.7-3.2,3.6c-0.8,0.9-1.2,1.3-1.2,1.3c0,0,0.4-0.5,1.1-1.4
						c0.7-0.9,1.8-2.2,3.1-3.8c1.3-1.6,2.9-3.4,4.7-5.5c1.7-2.1,3.6-4.4,5.4-6.9c3.6-5.1,5.7-10.4,7-14.2c0.7-1.9,1.2-3.5,1.5-4.6
						C381.1,337.4,381.3,336.8,381.4,336.8z"/>
				</g>
				<g>
					<path class="st3" d="M293.1,364.6c0,0.1-3.8,0.3-8.4,0.3c-4.6,0-8.4-0.1-8.4-0.3s3.8-0.3,8.4-0.3
						C289.4,364.3,293.1,364.5,293.1,364.6z"/>
				</g>
				<g>
					<path class="st3" d="M381.1,317.3c0,0-0.1,0-0.2,0.1c-0.2,0.1-0.4,0.2-0.7,0.3c-0.7,0.3-1.6,0.6-2.7,1.1c-2.4,1-5.8,2.4-10,4.1
						c-8.4,3.5-20,8.6-32.5,14.8c-12.5,6.2-23.7,12.1-31.8,16.3c-4,2.1-7.3,3.8-9.6,5.1c-1.1,0.6-2,1-2.6,1.4
						c-0.3,0.1-0.5,0.3-0.7,0.3c-0.2,0.1-0.2,0.1-0.2,0.1s0.1-0.1,0.2-0.1c0.2-0.1,0.4-0.2,0.7-0.4c0.6-0.3,1.5-0.8,2.6-1.4
						c2.3-1.2,5.5-3,9.5-5.2c8-4.4,19.2-10.3,31.7-16.5c12.5-6.2,24.1-11.2,32.6-14.7c4.2-1.7,7.7-3.1,10.1-4c1.2-0.4,2.1-0.8,2.8-1
						c0.3-0.1,0.5-0.2,0.7-0.3C381.1,317.3,381.1,317.3,381.1,317.3z"/>
				</g>
				<g>
					<path class="st3" d="M368.4,275.3c0,0-0.3-0.4-0.8-1.2c-0.5-0.8-1.2-1.9-2-3.3c-0.9-1.4-2-3-3.3-4.6c-1.3-1.7-2.9-3.4-4.9-4.9
						c-3.9-3-8.4-4.1-11.6-4.6c-1.6-0.2-2.9-0.3-3.8-0.4c-0.9-0.1-1.4-0.1-1.4-0.1c0,0,0.5-0.1,1.4-0.1c0.9,0,2.2,0.1,3.9,0.2
						c3.2,0.4,7.8,1.5,11.9,4.5c2,1.5,3.6,3.3,5,5c1.4,1.7,2.4,3.4,3.3,4.7c0.8,1.4,1.5,2.6,1.9,3.4
						C368.2,274.8,368.4,275.2,368.4,275.3z"/>
				</g>
				<g>
					<path class="st3" d="M357.6,370.4c0,0-0.1,0.1-0.4,0.3c-0.3,0.2-0.8,0.5-1.3,0.8c-1.1,0.7-2.8,1.6-4.9,2.6
						c-4.2,2.1-10.1,4.8-16.9,7c-6.8,2.2-13.2,3.7-17.8,4.5c-2.3,0.4-4.2,0.7-5.5,0.8c-0.6,0.1-1.1,0.1-1.5,0.2c-0.3,0-0.5,0-0.5,0
						c0,0,0.2-0.1,0.5-0.1c0.4-0.1,0.9-0.2,1.5-0.3c1.3-0.2,3.2-0.5,5.5-1c4.6-0.9,10.9-2.3,17.7-4.6c6.8-2.2,12.7-4.8,16.9-6.9
						c2.1-1,3.8-1.9,5-2.5c0.5-0.3,1-0.5,1.3-0.7C357.5,370.5,357.6,370.4,357.6,370.4z"/>
				</g>
				<g>
					<path class="st3" d="M389.6,349.3c0,0-0.2,0.3-0.6,0.7c-0.4,0.4-1,1-1.8,1.7c-1.5,1.4-3.7,3.2-6.4,4.8
						c-2.7,1.6-5.3,2.8-7.2,3.5c-1,0.4-1.7,0.7-2.3,0.8c-0.5,0.2-0.8,0.3-0.9,0.2c0-0.1,1.1-0.6,3-1.4c1.9-0.8,4.4-2,7-3.6
						c2.6-1.6,4.8-3.4,6.4-4.7C388.6,350.1,389.6,349.3,389.6,349.3z"/>
				</g>
				<g>
					<path class="st3" d="M380.1,392.3c0,0-0.2,0.2-0.5,0.4c-0.4,0.3-0.9,0.7-1.5,1.1c-0.6,0.5-1.4,1.1-2.4,1.7
						c-0.9,0.6-2,1.4-3.2,2.1c-2.4,1.6-5.3,3.3-8.6,5.1c-3.3,1.8-7.1,3.6-11.1,5.2c-4,1.6-8,3-11.6,4.1c-3.6,1.1-6.9,1.9-9.7,2.5
						c-1.4,0.3-2.7,0.5-3.8,0.7c-1.1,0.2-2.1,0.4-2.9,0.5c-0.7,0.1-1.3,0.2-1.8,0.2c-0.4,0-0.6,0.1-0.6,0c0,0,0.2-0.1,0.6-0.2
						c0.5-0.1,1.1-0.2,1.8-0.3c0.8-0.1,1.7-0.3,2.8-0.5c1.1-0.2,2.4-0.5,3.8-0.8c2.8-0.6,6-1.5,9.6-2.6c3.6-1.1,7.5-2.5,11.5-4.1
						c4-1.7,7.7-3.4,11.1-5.2c3.3-1.8,6.3-3.5,8.7-5c1.2-0.7,2.3-1.5,3.2-2.1c1-0.6,1.8-1.2,2.4-1.6c0.6-0.4,1.1-0.8,1.5-1
						C379.9,392.4,380.1,392.3,380.1,392.3z"/>
				</g>
				<g>
					<path class="st3" d="M399.8,381.5c0.1,0.1-2.9,2.3-6.6,4.8c-3.7,2.5-6.8,4.5-6.8,4.3c-0.1-0.1,2.9-2.3,6.6-4.8
						C396.7,383.3,399.7,381.4,399.8,381.5z"/>
				</g>
				<g>
					<path class="st3" d="M409.4,409.2c0,0-0.1,0.1-0.2,0.2c-0.1,0.1-0.3,0.3-0.6,0.5c-0.5,0.5-1.3,1.2-2.2,2
						c-0.5,0.4-1,0.9-1.6,1.4c-0.6,0.5-1.3,1-2,1.6c-1.5,1.1-3.1,2.5-5.1,3.7c-1,0.6-2,1.3-3,2c-1,0.7-2.2,1.3-3.4,2
						c-0.6,0.3-1.2,0.7-1.8,1c-0.6,0.4-1.2,0.7-1.9,1c-1.3,0.6-2.7,1.2-4.1,1.9c-5.6,2.4-12.1,4.4-19,5.8c-7,1.2-13.7,1.6-19.9,1.3
						c-1.5-0.1-3-0.2-4.5-0.3c-0.7,0-1.4-0.1-2.1-0.2c-0.7-0.1-1.4-0.2-2.1-0.3c-1.3-0.2-2.7-0.3-3.9-0.6c-1.2-0.3-2.4-0.5-3.6-0.8
						c-2.3-0.4-4.3-1.2-6-1.6c-0.9-0.3-1.7-0.5-2.4-0.8c-0.7-0.3-1.4-0.5-2-0.8c-1.2-0.5-2.1-0.8-2.8-1.1c-0.3-0.1-0.5-0.2-0.7-0.3
						c-0.2-0.1-0.2-0.1-0.2-0.1s0.1,0,0.3,0.1c0.2,0.1,0.4,0.1,0.7,0.2c0.7,0.2,1.6,0.6,2.8,1c0.6,0.2,1.3,0.5,2,0.7
						c0.7,0.3,1.6,0.5,2.5,0.7c1.8,0.5,3.7,1.2,6,1.6c1.1,0.2,2.3,0.5,3.5,0.7c1.2,0.3,2.5,0.4,3.9,0.6c0.7,0.1,1.4,0.2,2,0.3
						c0.7,0.1,1.4,0.2,2.1,0.2c1.4,0.1,2.9,0.2,4.4,0.3c6.1,0.2,12.8-0.1,19.7-1.4c6.9-1.3,13.3-3.4,18.9-5.7
						c1.4-0.6,2.7-1.2,4.1-1.8c0.7-0.3,1.3-0.6,1.9-1c0.6-0.3,1.2-0.7,1.8-1c1.2-0.7,2.4-1.2,3.4-1.9c1.1-0.7,2.1-1.3,3.1-1.9
						c2-1.2,3.6-2.5,5.1-3.6c0.7-0.6,1.4-1,2-1.5c0.6-0.5,1.1-1,1.6-1.4c1-0.8,1.7-1.5,2.3-1.9c0.2-0.2,0.4-0.4,0.6-0.5
						C409.3,409.3,409.4,409.2,409.4,409.2z"/>
				</g>
				<g>
					<path class="st3" d="M363.8,283.8c0,0,0,0.1-0.1,0.2c-0.1,0.2-0.2,0.4-0.3,0.7c-0.3,0.6-0.7,1.5-1.4,2.5
						c-1.3,2.2-3.4,5.1-6.5,8.4c-3,3.3-7.1,6.9-12,10.3c-4.9,3.4-10.6,6.6-16.8,9.6c-6.2,2.9-12.2,5.4-17.7,7.7
						c-5.5,2.3-10.4,4.4-14.4,6.3c-4.1,1.9-7.3,3.6-9.5,4.8c-1.1,0.6-1.9,1.1-2.5,1.4c-0.3,0.1-0.5,0.3-0.7,0.4
						c-0.1,0.1-0.2,0.1-0.2,0.1c0,0,0.1-0.1,0.2-0.2c0.2-0.1,0.4-0.2,0.6-0.4c0.6-0.3,1.4-0.9,2.5-1.5c2.2-1.3,5.4-3,9.4-4.9
						c4-2,8.9-4.1,14.4-6.4c5.5-2.3,11.5-4.8,17.7-7.7c6.2-3,11.8-6.2,16.7-9.5c4.9-3.4,8.9-6.9,12-10.1c3.1-3.3,5.2-6.2,6.6-8.3
						c0.7-1,1.2-1.9,1.5-2.5c0.2-0.3,0.3-0.5,0.4-0.6C363.7,283.9,363.8,283.8,363.8,283.8z"/>
				</g>
				<g>
					<path class="st3" d="M375.4,237.8c-0.1,0.1-1.3-1.1-3.5-2.7c-1.1-0.8-2.5-1.7-4.1-2.6c-1.6-0.9-3.4-1.7-5.4-2.5
						c-2-0.7-3.9-1.3-5.7-1.7c-1.8-0.4-3.4-0.6-4.8-0.7c-2.7-0.3-4.5-0.2-4.5-0.3c0,0,0.4-0.1,1.2-0.1c0.8-0.1,1.9,0,3.3,0
						c1.4,0.1,3,0.3,4.8,0.6c1.8,0.4,3.8,0.9,5.8,1.7c2,0.8,3.8,1.6,5.4,2.6c1.6,0.9,3,1.9,4.1,2.7c1.1,0.9,1.9,1.6,2.5,2.1
						C375.1,237.5,375.4,237.8,375.4,237.8z"/>
				</g>
				<g>
					<path class="st3" d="M368.4,202.2c0,0.1-1.4,0.1-3.5,0.3c-2.2,0.2-5.1,0.8-8.3,1.9c-3.1,1.2-5.8,2.7-7.5,3.9
						c-1.8,1.2-2.8,2.1-2.9,2.1c0,0,0.2-0.3,0.7-0.7c0.4-0.4,1.1-1,2-1.7c1.8-1.3,4.4-2.9,7.6-4.1c3.2-1.2,6.2-1.7,8.4-1.8
						c1.1-0.1,2-0.1,2.6,0C368.1,202.1,368.4,202.2,368.4,202.2z"/>
				</g>
				<g>
					<path class="st6" d="M366.3,281.4c0,0,0.1,0.2,0.4,0.6c0.3,0.5,0.6,1,1,1.8c0.4,0.8,0.9,1.8,1.4,2.9c0.5,1.1,1.1,2.5,1.7,3.9
						c2.4,5.8,5.4,14,8.4,23.2c3,9.1,5.6,17.5,7.3,23.5c0.9,3,1.6,5.5,2,7.2c0.2,0.8,0.4,1.5,0.5,2c0.1,0.5,0.2,0.7,0.1,0.7
						s-0.1-0.2-0.2-0.7c-0.2-0.5-0.4-1.1-0.6-1.9c-0.5-1.7-1.3-4.2-2.2-7.1c-1.9-6-4.5-14.3-7.5-23.5c-3-9.1-5.9-17.3-8.3-23.2
						c-0.6-1.5-1.1-2.8-1.6-3.9c-0.5-1.1-1-2.1-1.3-2.9c-0.4-0.8-0.7-1.4-0.9-1.8C366.4,281.6,366.3,281.4,366.3,281.4z"/>
				</g>
				<g>
					<path class="st6" d="M282.3,347.1c0,0,0.1,0.1,0.3,0.4c0.2,0.3,0.4,0.7,0.7,1.2c0.7,1.1,1.6,2.6,2.7,4.3
						c2.3,3.7,5.5,8.6,9.1,14.1c3.6,5.5,6.9,10.4,9.2,14c1.1,1.8,2.1,3.3,2.7,4.3c0.3,0.5,0.5,0.9,0.7,1.2c0.2,0.3,0.2,0.4,0.2,0.4
						c0,0-0.1-0.1-0.3-0.4c-0.2-0.3-0.5-0.7-0.8-1.1c-0.7-1.1-1.7-2.5-2.8-4.2c-2.4-3.6-5.7-8.5-9.3-14c-3.6-5.5-6.8-10.5-9-14.2
						c-1.1-1.8-2-3.4-2.5-4.4c-0.3-0.5-0.5-0.9-0.6-1.2C282.3,347.2,282.2,347.1,282.3,347.1z"/>
				</g>
				<g>
					<path class="st3" d="M305.1,387.9c0,0.1-6.1-0.2-13.6-0.7c-7.5-0.5-13.6-1.1-13.6-1.2c0-0.1,6.1,0.2,13.6,0.7
						C299,387.3,305.1,387.8,305.1,387.9z"/>
				</g>
			</g>
			<g class="st8">
				<path d="M360.6,371.5l0,0.2c-4.2,4.7-8.4,9.4-12.5,14.2c16.5-6,28.9-22.1,30.3-39.6C373.6,355.4,367.6,363.9,360.6,371.5z"/>
			</g>
			<g class="st8">
				<path d="M345.7,431.3c-11.1-2.1-22.9-11.3-30.5-19.6c6.1,10.9,16.6,20.6,28.6,24c12,3.4,25.3,1.8,36.2-4.3
					C368.7,432.6,356.7,433.4,345.7,431.3z"/>
			</g>
		</g>
		<g>
			<path class="st6" d="M368.1,217.2c0,0.1-0.9,0-2.3,0.1c-1.4,0.1-3.4,0.4-5.4,1.3c-2,0.9-3.6,2-4.7,3c-1.1,1-1.6,1.7-1.7,1.6
				c0,0,0.4-0.8,1.5-1.9c1-1.1,2.7-2.3,4.8-3.2c2.1-0.9,4.1-1.2,5.6-1.2C367.3,216.9,368.1,217.1,368.1,217.2z"/>
		</g>
	</g>
</g>
<g id="Character_1">
	<g>
		<path class="st3" d="M278.5,279.3c0,0-0.5-0.2-0.9-0.8c-0.4-0.6-0.9-1.6-0.8-2.8c0.1-1.2,0.6-2.2,1.1-2.7c0.5-0.6,1-0.7,1-0.7
			c0,0.1-0.3,0.4-0.7,0.9c-0.4,0.6-0.8,1.5-0.9,2.5c-0.1,1.1,0.3,2,0.6,2.6C278.3,278.9,278.6,279.2,278.5,279.3z"/>
	</g>
	<g>
		<path class="st3" d="M327.7,252.5c-0.1,0.1-0.8-0.8-2.1-0.9c-1.3-0.2-2.2,0.6-2.3,0.5c0,0,0.1-0.3,0.5-0.6
			c0.4-0.3,1.1-0.5,1.8-0.4c0.7,0.1,1.4,0.4,1.7,0.8C327.6,252.2,327.7,252.5,327.7,252.5z"/>
	</g>
	<g>
		<path class="st3" d="M330.9,172.5c0,0-0.8-0.5-1.8-1.5c-1.1-1-2.5-2.5-3.9-4.2c-1.5-1.7-2.7-3.3-3.5-4.5c-0.8-1.2-1.3-2-1.2-2
			c0.1,0,0.6,0.7,1.5,1.8c0.9,1.2,2.2,2.7,3.6,4.4c1.4,1.7,2.8,3.2,3.8,4.2C330.3,171.8,330.9,172.4,330.9,172.5z"/>
	</g>
	<g>
		<path class="st3" d="M331.9,136.9c0,0-0.3,0.1-0.6,0.4c-0.4,0.3-0.8,0.9-1,1.8c-0.5,1.7-1,4.2-1.2,7c-0.2,2.8-0.2,5.3,0,7.1
			c0.1,1.8,0.3,2.9,0.2,2.9c-0.1,0-0.4-1.1-0.6-2.9c-0.2-1.8-0.4-4.4-0.1-7.2c0.2-2.8,0.8-5.3,1.4-7c0.3-0.9,0.8-1.5,1.3-1.8
			C331.6,136.9,331.9,136.9,331.9,136.9z"/>
	</g>
	<g>
		<g class="st8">
			<path d="M227.3,469.6c-1.8-2.4-4.6-4-6.3-6.4c-4.8-6.5-0.8-15.5,2.6-22.9c3.4-7.3,5.4-17.7-1.4-22.1c-4.2-2.8-9.8-1.6-14.7-0.4
				c-33,7.6-67.5,8.8-101,3.5l-3.9-1.6c2.4,10.6,4.8,21.5,10.4,30.8c5.6,9.3,15,17.1,25.8,17.9c7.4,0.5,14.5-2.1,21.8-3.5
				c7.2-1.4,15.6-1.1,20.9,4.1c5.6,5.5,7.1,15.8,14.8,17.3c8.3,1.7,14.7-9.1,23.2-8.6c2.6,0.2,5.5,1.4,7.7,0
				C229.7,475.9,229.2,472,227.3,469.6z"/>
		</g>
		<path class="st11" d="M195.6,463l-1.5,6.7c0,0-7.6,11.7-7.3,13.5c0.4,1.8,1.8,0.9,1.8,0.9l5.1-6.6c0,0-4.5,7.6-3.8,9.2
			c0.6,1.5,2,0.6,2,0.6s1.2,1.5,3.2,1.5c2,0,3.4-1.5,3.4-1.5s2.5,0.4,4.1-0.3c1.5-0.6,4.7-4.2,7.3-7.9c2.5-3.7,4.2-6.9,4.2-6.9
			s2-1.1,3.7,0.6c1.7,1.8,6.6,5.6,8.7,5.2s1.8-1.3,1.8-1.3s-6.5-7.3-7.5-9.1s-5-2.9-6.8-4.6c-1.7-1.6-1.8-2.9-1.8-2.9L195.6,463z"/>
		<g>
			<path class="st12" d="M206.8,474.2c0.1,0-0.3,0.8-0.9,2c-0.6,1.2-1.6,2.8-2.7,4.5c-1.1,1.7-2.2,3.2-3,4.3
				c-0.8,1.1-1.3,1.7-1.4,1.6c-0.1-0.1,1.7-2.8,4-6.2C205,476.9,206.7,474.1,206.8,474.2z"/>
		</g>
		<g>
			<path class="st12" d="M201.1,471.6c0.1,0-0.3,1-1,2.5c-0.7,1.5-1.8,3.5-3.1,5.6c-1.3,2.2-2.6,4-3.5,5.4c-1,1.3-1.6,2.1-1.7,2.1
				c-0.1,0,0.5-0.9,1.4-2.3c0.9-1.4,2.1-3.3,3.4-5.4c1.3-2.1,2.4-4.1,3.2-5.5C200.5,472.5,201,471.6,201.1,471.6z"/>
		</g>
		<g>
			<path class="st12" d="M197.6,471.5c0.1,0.1-0.6,1.5-1.5,3.2c-1,1.7-1.9,3-2,2.9c-0.1-0.1,0.6-1.5,1.5-3.2
				C196.6,472.8,197.5,471.5,197.6,471.5z"/>
		</g>
		<path class="st6" d="M210.1,240.5c5.1,12.7,2.9,25.3,3.2,38.4c0.1,3.8,7.2,9,8.6,12.6c2.2,5.3-0.9,7.1,2.4,11.9
			c3.2,4.6,4.5,11.1,1.2,15.7c-4,5.5-12.2,5.2-18.9,4.3c-6-25.5-4.9-52.7,3.2-77.6"/>
		<g>
			<path class="st6" d="M134.1,367.9c0,0-12.1-14.6-16.9-15.9c-13-3.5-29.2,0.2-29.2,15.1c0,14.9,7.9,37,7.9,37s8.3,32.3,18.1,40.4
				s14.1,10.2,36.3,11.5c22.2,1.3,39.7-4.4,43.1-5.4c3.4-1,15.4-10.6,27.8-27.2c12.4-16.6,28.2-34.5,30.4-43.9
				c2.1-9.4-1.9-23.6-14.5-26.9c-12.6-3.3-32.9,14.5-32.9,14.5l-53.3,9.2L134.1,367.9z"/>
			<g>
				<path class="st10" d="M122.8,379.2c-0.1,0-0.5-1.2-1.2-3.2c-0.7-2-1.6-4.7-2.7-7.6c-1.1-2.9-2.3-5.6-3.2-7.4
					c-0.9-1.9-1.5-3-1.5-3c0,0,0.2,0.2,0.5,0.7c0.3,0.5,0.7,1.2,1.2,2.1c1,1.8,2.2,4.4,3.3,7.4c1.1,3,2,5.7,2.6,7.7
					C122.6,378,122.9,379.2,122.8,379.2z"/>
			</g>
			<g>
				<path class="st10" d="M234.2,358c0,0-0.4,0-1-0.1c-0.6,0-1.5,0.1-2.5,0.6c-2,0.9-4.5,2.7-7,5c-2.5,2.2-4.7,4.4-6.3,6
					c-1.6,1.6-2.5,2.6-2.6,2.5c0,0,0.2-0.3,0.6-0.8c0.4-0.5,1-1.2,1.8-2c1.5-1.6,3.6-3.9,6.2-6.2c2.5-2.3,5.1-4.1,7.2-4.9
					c1-0.4,2-0.5,2.6-0.5C233.9,357.8,234.2,358,234.2,358z"/>
			</g>
			<g>
				<path class="st3" d="M248.3,367.1c0,0-0.3-0.4-0.7-1.2c-0.4-0.8-1-1.9-1.9-3.2c-0.8-1.3-1.9-2.8-3.4-4.2
					c-1.5-1.4-3.4-2.6-5.7-3.1c-2.3-0.5-4.6-0.5-6.6-0.2c-2,0.3-3.8,0.8-5.3,1.3c-1.5,0.5-2.7,0.9-3.5,1.2c-0.8,0.3-1.3,0.5-1.3,0.4
					c0,0,0.4-0.2,1.2-0.6c0.8-0.4,2-0.9,3.4-1.4c1.5-0.5,3.3-1.1,5.3-1.5c2.1-0.3,4.4-0.4,6.8,0.2c2.4,0.5,4.4,1.8,5.9,3.3
					c1.5,1.5,2.5,3,3.3,4.4c0.8,1.4,1.3,2.5,1.7,3.3C248.1,366.6,248.3,367.1,248.3,367.1z"/>
			</g>
			<g>
				<path class="st3" d="M129,362.3c-0.1,0.1-1.3-2.1-4.3-4.7c-2.9-2.6-7.8-5.4-13.8-6.1c-6-0.6-11.4,1.1-14.7,3
					c-3.4,1.9-5.1,3.8-5.2,3.7c0,0,0.1-0.1,0.3-0.3c0.2-0.2,0.5-0.5,0.9-0.9c0.8-0.8,2.1-1.7,3.8-2.8c3.4-2,8.9-3.9,15-3.2
					c6.1,0.7,11.1,3.6,13.9,6.3c1.5,1.3,2.5,2.6,3.1,3.5c0.3,0.4,0.5,0.8,0.7,1.1C128.9,362.2,129,362.3,129,362.3z"/>
			</g>
		</g>
		<g>
			<path class="st7" d="M149.5,181.8l-17.9,63.4l3.5,66.6l-3.7,48.8l-19.9,43.6c0,0-7.9,23.2,21.1,32.4c29,9.3,54,6,60.5,0
				c6.5-6,17.6-90.8,17.6-90.8l18.5-40.3c0,0-4.6-7-18.1-11.6c-13.4-4.6-46.8-6.9-46.8-6.9l-4.8-40.6l11.2-60.4
				C170.7,185.9,158,180.6,149.5,181.8z"/>
			<path class="st7" d="M210,336.7c0,0-20.4,39.4-20.9,47.7c-0.5,8.3,4.5,79.5,4.5,79.5l20.5-1.6c0,0-3.7-51-2.3-62.6
				c1.4-11.6,1.9-30.6,7.4-43.6s15.1-39.9,9.9-50.7L210,336.7z"/>
			<g class="st8">
				<path d="M211.2,327.3c-2.6-2.8-6.7-3.2-10.5-3.4c-14.8-0.8-29.7-1.7-44.5-2.5l-8.4,7.9c-1.9,5.7-2.3,11.8-1.4,17.7
					c1.7-1.3,3.4-2.5,5.1-3.8c0.2,2.6,1,5.1,2.1,7.5c2.7-2.4,5.4-4.7,8.1-7.1c6.1,5.3,14.1,8.3,22.2,8.5c8.1,0.2,16.2-2.5,22.5-7.5
					c2.7-2.1,5.1-4.6,6.2-7.8C213.8,333.6,213.5,329.7,211.2,327.3z"/>
			</g>
			<g>
				<path class="st6" d="M210,336.7c0,0,0,0.1-0.1,0.2c-0.1,0.2-0.2,0.4-0.4,0.7c-0.4,0.6-0.9,1.5-1.6,2.7
					c-1.3,2.3-3.2,5.8-5.3,10.1c-4.1,8.7-8.9,21.2-12.3,35.5c-0.2,0.9-0.4,1.8-0.6,2.7c-0.1,0.4-0.2,0.9-0.3,1.3
					c0,0.4-0.1,0.9-0.1,1.3c-0.1,1.8-0.1,3.5-0.1,5.3c0.1,3.5,0.2,6.8,0.3,10c0.3,6.4,0.6,12.1,0.9,16.9c0.2,4.8,0.4,8.7,0.6,11.4
					c0.1,1.3,0.1,2.4,0.1,3.1c0,0.3,0,0.6,0,0.8c0,0.2,0,0.3,0,0.3c0,0,0-0.1,0-0.3c0-0.2,0-0.5-0.1-0.8c-0.1-0.7-0.1-1.8-0.2-3.1
					c-0.2-2.7-0.4-6.6-0.7-11.4c-0.3-4.8-0.7-10.5-1-16.9c-0.1-3.2-0.3-6.5-0.4-10c0-1.7-0.1-3.5,0.1-5.3c0-0.4,0.1-0.9,0.2-1.4
					c0.1-0.5,0.2-0.9,0.3-1.3c0.2-0.9,0.4-1.8,0.6-2.7c3.4-14.3,8.3-26.9,12.5-35.5c2.1-4.3,4-7.7,5.4-10.1c0.7-1.2,1.3-2,1.7-2.6
					c0.2-0.3,0.3-0.5,0.4-0.7C209.9,336.8,209.9,336.7,210,336.7z"/>
			</g>
			<g>
				<path class="st6" d="M185.7,390.5c0,0-0.1,0.1-0.4,0.3c-0.3,0.2-0.7,0.5-1.2,0.8c-1.1,0.7-2.6,1.6-4.6,2.8
					c-3.9,2.2-9.5,5-16,7.5c-6.4,2.5-12.5,4.2-16.9,5.2c-2.2,0.5-4,0.8-5.2,1c-0.6,0.1-1,0.2-1.4,0.2c-0.3,0-0.5,0.1-0.5,0
					c0,0,0.2-0.1,0.5-0.1c0.4-0.1,0.9-0.2,1.4-0.3c1.2-0.3,3-0.7,5.2-1.2c4.4-1.1,10.4-2.8,16.8-5.3c6.4-2.5,12-5.2,16-7.4
					c2-1.1,3.6-2,4.7-2.6c0.5-0.3,0.9-0.5,1.3-0.7C185.5,390.6,185.7,390.5,185.7,390.5z"/>
			</g>
			<g class="st8">
				<path d="M127.8,408.9c19.4,5.4,41.2-2.1,55.1-16.7C165.9,402.3,147.5,408.7,127.8,408.9z"/>
			</g>
			<g class="st8">
				<path d="M188.9,391.2c-1.1,12.1-2.2,32.3-2,44.5c0.1,6,0.6,11.4,5.1,15.4C190.9,433.7,189.3,408.8,188.9,391.2z"/>
			</g>
			<g>
				<path class="st3" d="M167.2,185.9c0,0.1-3.2-0.5-7.1-1.3c-3.9-0.9-7.1-1.7-7-1.8c0-0.1,3.2,0.5,7.1,1.3
					C164.1,184.9,167.2,185.7,167.2,185.9z"/>
			</g>
			<g>
				<path class="st3" d="M166.6,202.2c-0.1,0,0.5-3.3,1.3-7.4c0.9-4,1.7-7.3,1.9-7.3c0.1,0-0.5,3.3-1.3,7.4
					C167.6,198.9,166.8,202.2,166.6,202.2z"/>
			</g>
			<g>
				<path class="st3" d="M225.1,332.3c0,0,0.1-0.5,0.4-1.3c0.3-0.9,0.7-2.1,1.2-3.5c1-2.9,2.3-7.1,2.3-11.8c-0.1-4.7-2-8.8-4-11
					c-2.1-2.3-4-2.9-3.9-3c0,0,0.1,0,0.3,0.1c0.2,0.1,0.5,0.2,0.9,0.4c0.8,0.4,1.9,1.1,2.9,2.2c2.2,2.2,4.2,6.4,4.3,11.3
					c0,4.8-1.4,9-2.5,11.9c-0.5,1.5-1,2.6-1.4,3.4C225.3,331.9,225.1,332.3,225.1,332.3z"/>
			</g>
		</g>
		<g>
			<path class="st11" d="M153.1,181.8l4.1-12.7c0,0-5.3-13-4.1-14.2c1.2-1.2,11-8.9,11-8.9s2.5-17.6,3.6-18.2c0.9-0.5,2.9-0.5,3,3.1
				c0.1,3.7,0.1,16.6,0.1,16.6s5.8,5.8,5.8,9.4s-3.1,14.9-3.1,14.9l-4.4,13.4L153.1,181.8z"/>
			<g>
				<path class="st12" d="M163.9,151.6c0,0-0.3-0.2-0.5-0.7c-0.2-0.5-0.2-1.3-0.1-2.1c0.2-1.6,0.7-2.8,0.8-2.8
					c0.2,0-0.1,1.3-0.3,2.8c-0.1,0.8-0.1,1.5,0,1.9C163.9,151.3,164,151.6,163.9,151.6z"/>
			</g>
			<g>
				<path class="st12" d="M172.4,155.5c-0.1,0-0.6-1.8-1-4c-0.4-2.2-0.8-4-0.7-4c0.1,0,0.8,1.7,1.2,3.9
					C172.3,153.6,172.5,155.4,172.4,155.5z"/>
			</g>
			<g>
				<path class="st12" d="M160.3,156.4c-0.1,0-0.8-1.4-1.2-3.3c-0.2-1-0.2-1.9-0.1-2.5c0.1-0.6,0.3-1,0.4-1c0.1,0-0.3,1.5,0.2,3.4
					C160,154.9,160.5,156.4,160.3,156.4z"/>
			</g>
			<g>
				<path class="st12" d="M156.6,157.8c-0.1,0.1-0.8-1-1-2.5c-0.1-0.7-0.1-1.4,0-1.9c0.1-0.5,0.2-0.8,0.3-0.8c0.1,0,0,1.2,0.2,2.6
					C156.3,156.6,156.7,157.7,156.6,157.8z"/>
			</g>
			<g>
				<path class="st3" d="M170.2,131c-0.1,0,0-0.8-0.5-1.5c-0.4-0.8-1.1-1-1.1-1.2c0-0.1,0.2-0.1,0.6,0c0.3,0.1,0.7,0.4,1,0.9
					c0.3,0.5,0.3,1,0.3,1.3C170.4,130.8,170.2,131,170.2,131z"/>
			</g>
			<g>
				<path class="st3" d="M172.6,169.4c-0.1,0,0.2-1.1,0.7-3c0.5-1.8,1.1-4.3,1.3-7.2c0.1-2.8-0.5-5.4-1.4-7
					c-0.8-1.7-1.7-2.5-1.6-2.5c0,0,0.3,0.2,0.6,0.5c0.4,0.4,0.9,1,1.3,1.8c1,1.7,1.7,4.3,1.6,7.2c-0.1,2.9-0.9,5.5-1.4,7.3
					C173.1,168.3,172.7,169.4,172.6,169.4z"/>
			</g>
			<g>
				<path class="st3" d="M162.4,148c0.1,0.1-1.8,1.8-4.3,3.7c-2.5,1.9-4.7,3.2-4.8,3.1c-0.1-0.1,1.9-1.7,4.4-3.5
					C160.2,149.4,162.3,147.9,162.4,148z"/>
			</g>
		</g>
		<g>
			<path class="st6" d="M180,221.6c12.8-1.5,26.2,5.8,30.1,16.4c4.4,12-2.5,24.9-1.4,37.4c0.7,7.7,4.4,15,4.7,22.7
				c0.3,8-3.2,16.2-0.6,23.9c0.9,2.8,2.7,5.7,1.9,8.6c-0.9,3.3-4.9,5.2-8.4,6.7c-7.7,3.2-15.7,6.5-24.2,6.6
				c-8.5,0.1-17.7-3.7-20.4-10.7c-2.9,2-5.9,3.9-8.8,5.9c-0.5-2-1-4-1.5-6c-1.6,1.8-3.6,3.2-5.8,4.3c-0.6-9.2-1.3-18.4,0.3-27.5
				c1.2-6.7,6.4-14.2,7.5-20.9c1.9-12.1,0.1-23.4,2.8-35.5c2.7-12.1,7.5-26.6,20.7-31.1L180,221.6z"/>
			<g>
				<path class="st10" d="M177.4,239.1c-0.1,0,0-1,0.2-2.5c0.2-1.5,0.6-3.6,1.2-5.8c0.6-2.2,1.3-4.2,1.9-5.6c0.6-1.4,1-2.2,1.1-2.2
					c0.1,0-0.3,0.9-0.8,2.3c-0.5,1.4-1.2,3.4-1.8,5.6c-0.6,2.2-1,4.3-1.3,5.8C177.7,238.1,177.5,239.1,177.4,239.1z"/>
			</g>
			<g>
				<path class="st10" d="M202.4,251.3c-0.1,0,0.4-2,0.2-5.3c-0.2-3.3-1.3-7.8-4.4-11.9c-3-4-7.1-6.4-10.2-7.4
					c-3.1-1.1-5.2-1.2-5.2-1.3c0,0,0.1,0,0.4,0c0.2,0,0.6,0,1.1,0.1c0.9,0.1,2.3,0.3,3.9,0.9c3.2,1,7.4,3.3,10.5,7.5
					c3.1,4.1,4.2,8.8,4.3,12.2c0.1,1.7-0.1,3-0.2,3.9c-0.1,0.5-0.2,0.8-0.2,1.1C202.5,251.2,202.4,251.3,202.4,251.3z"/>
			</g>
			<g>
				<path class="st10" d="M193.5,264.7c0,0-0.2-0.5-0.4-1.4c-0.2-0.9-0.5-2.2-0.7-3.9c-0.5-3.3-0.7-7.9-1.4-12.9
					c-0.8-5-2.5-9.3-4.5-11.9c-1.9-2.7-3.8-3.7-3.7-3.8c0,0,0.1,0,0.3,0.2c0.2,0.1,0.5,0.3,0.9,0.6c0.8,0.6,1.8,1.5,2.8,2.8
					c2.1,2.6,3.9,7,4.7,12c0.8,5,0.8,9.6,1.3,12.9c0.2,1.6,0.4,3,0.5,3.9C193.4,264.2,193.5,264.7,193.5,264.7z"/>
			</g>
			<g>
				<path class="st6" d="M206.3,265.3c0.7,0,1.4,1,2,2.5c0.7,1.5,1.4,3.5,2.5,6c1.1,2.5,2.5,5.4,4.1,9c1.5,3.5,3.3,7.6,4.3,12.6
					c0.3,1.2,0.4,2.5,0.6,3.7c0.1,1.3,0.1,2.5,0.1,3.8c-0.1,2.5-0.5,4.6-0.8,6.5c-0.3,1.9-0.6,3.5-0.8,4.9c-0.1,0.7-0.1,1.3-0.2,2
					c0,0.6,0,1.2,0,1.8c0.2,2.3,0.8,4,1.3,5.2c0.6,1.3,1.2,2.1,0.9,2.8c-0.2,0.6-1.4,1.1-3.5,0.3c-2-0.7-4.4-3-5.9-6.3
					c-0.4-0.8-0.7-1.7-0.9-2.7c-0.3-1-0.4-2-0.5-3c-0.2-2-0.2-4-0.1-6c0.1-2,0.2-3.9,0.1-5.6c0-0.9-0.1-1.7-0.2-2.6
					c-0.1-0.9-0.2-1.8-0.5-2.8c-0.7-3.8-2-7.6-3.1-11.3c-1.1-3.7-1.9-7.3-2.2-10.5c-0.3-3.2,0-5.9,0.6-7.6
					C204.8,266.1,205.6,265.3,206.3,265.3z"/>
			</g>
			<g>
				<path class="st10" d="M177.4,239.1c0.1,0.1-1,1-2.4,3c-0.3,0.5-0.7,1.1-1,1.8c-0.4,0.7-0.7,1.4-1,2.2c-0.6,1.7-1.2,3.6-1.6,5.8
					c-0.8,4.4-1.2,9.7-1.3,15.5c-0.1,5.9,0.1,12.4,0.1,19.2c0,6.8-0.3,13.3-1.7,19.1c-0.8,2.9-1.8,5.5-2.8,7.9
					c-1,2.4-1.9,4.7-2.7,6.8c-0.7,2.1-1.3,4-1.6,5.8c-0.3,1.7-0.4,3.3-0.3,4.5c0.1,1.2,0.2,2.2,0.3,2.8c0.1,0.3,0.1,0.5,0.1,0.7
					c0,0.2,0,0.3,0,0.3c0,0,0-0.1-0.1-0.2c-0.1-0.2-0.1-0.4-0.2-0.7c-0.2-0.6-0.3-1.6-0.4-2.8c-0.1-1.3,0-2.8,0.3-4.6
					c0.3-1.8,0.8-3.7,1.5-5.8c0.7-2.1,1.6-4.4,2.6-6.8c1-2.4,2-5,2.7-7.9c1.4-5.7,1.6-12.2,1.7-19c0-6.8-0.2-13.3-0.1-19.2
					c0.1-5.9,0.5-11.2,1.4-15.6c0.4-2.2,1-4.1,1.7-5.8c0.3-0.8,0.7-1.6,1-2.3c0.3-0.7,0.7-1.3,1.1-1.8c0.3-0.5,0.7-0.9,1-1.3
					c0.3-0.4,0.6-0.7,0.8-0.9c0.2-0.2,0.4-0.4,0.5-0.5C177.3,239.1,177.4,239.1,177.4,239.1z"/>
			</g>
			<g>
				<path class="st10" d="M153.4,324.5c0,0,0-0.1,0.1-0.2c0.1-0.2,0.2-0.4,0.4-0.7c0.2-0.3,0.4-0.7,0.7-1.1c0.3-0.4,0.5-0.9,0.8-1.5
					c1.2-2.3,2.8-5.7,3.9-10.2c1.2-4.5,2-10,2.3-16.1c0.2-3.1,0.3-6.3,0.3-9.6c0-3.3-0.2-6.8-0.2-10.4c-0.1-7.1,0-13.9,0.7-20
					c0.7-6.1,2.1-11.6,4.2-15.8c1-2.1,2.3-3.9,3.5-5.3c0.3-0.3,0.6-0.7,0.9-1c0.3-0.3,0.6-0.6,0.9-0.8c0.6-0.6,1.2-0.9,1.7-1.3
					c1.1-0.7,2-1.1,2.7-1.4c0.3-0.1,0.5-0.2,0.7-0.3c0.2-0.1,0.3-0.1,0.3-0.1c0,0-0.1,0.1-0.2,0.1c-0.2,0.1-0.4,0.2-0.7,0.3
					c-0.6,0.3-1.5,0.7-2.6,1.4c-0.5,0.4-1.1,0.8-1.7,1.3c-0.3,0.3-0.6,0.5-0.9,0.8c-0.3,0.3-0.6,0.6-0.9,1c-1.2,1.4-2.4,3.1-3.4,5.2
					c-2,4.2-3.3,9.6-4,15.7c-0.7,6.1-0.8,12.9-0.7,20c0.1,3.5,0.2,7,0.2,10.4c0,3.4-0.2,6.6-0.4,9.7c-0.4,6.1-1.2,11.7-2.4,16.2
					c-1.2,4.5-2.8,8-4.1,10.2c-0.3,0.6-0.6,1.1-0.9,1.5c-0.3,0.4-0.5,0.8-0.7,1c-0.2,0.3-0.3,0.5-0.4,0.6
					C153.5,324.5,153.4,324.5,153.4,324.5z"/>
			</g>
			<g>
				<path class="st10" d="M216.3,294.6c0,0-0.4-0.2-1-0.7c-0.6-0.5-1.5-1.1-2.6-2c-2.2-1.7-5.2-4.2-8.1-7.5
					c-2.8-3.2-4.8-6.7-5.7-9.4c-0.5-1.3-0.8-2.4-0.9-3.2c-0.1-0.8-0.2-1.2-0.1-1.2c0.1,0,0.3,1.7,1.4,4.3c1,2.6,3,6,5.8,9.2
					c2.8,3.2,5.8,5.7,7.9,7.5c1,0.9,1.9,1.6,2.5,2.1C216,294.3,216.4,294.6,216.3,294.6z"/>
			</g>
			<g>
				<path class="st10" d="M182.3,239.3c0,0,1,1,2.2,3.3c1.2,2.2,2.4,5.8,2.9,10.3c0.5,4.5,0.1,9.9-0.1,15.9c0,3,0,6.1,0.6,9.3
					c0.5,3.2,1.4,6.4,2.6,9.7c2.3,6.5,5.1,12.5,6.8,18.2c1.8,5.7,2.6,11.2,2.2,15.7c-0.4,4.6-1.8,8.1-3,10.3
					c-1.3,2.2-2.3,3.2-2.3,3.2c0,0,0-0.1,0.1-0.2c0.1-0.2,0.3-0.4,0.4-0.6c0.4-0.5,0.9-1.4,1.5-2.5c1.2-2.2,2.5-5.7,2.8-10.2
					c0.4-4.5-0.4-9.9-2.3-15.6c-1.8-5.7-4.6-11.7-6.9-18.2c-1.1-3.3-2.1-6.5-2.6-9.8c-0.5-3.2-0.6-6.4-0.5-9.4
					c0.2-6,0.6-11.4,0.2-15.9c-0.4-4.5-1.5-8-2.7-10.3c-0.6-1.1-1.1-2-1.5-2.5c-0.2-0.3-0.3-0.5-0.4-0.6
					C182.4,239.4,182.3,239.3,182.3,239.3z"/>
			</g>
			<g>
				<path class="st3" d="M211.8,270.3c0,0,0-0.3,0-0.8c0-0.6,0-1.4,0.1-2.4c0-2.1,0.1-5.1,0-8.9c-0.1-3.7-0.4-8.2-1.7-13
					c-1.2-4.7-3.5-9.8-7.3-14c-3.8-4.2-8.9-6.7-13.8-7.5c-4.9-0.8-9.4,0.1-12.8,1.4c-3.5,1.4-6,3.1-7.5,4.5c-0.4,0.3-0.7,0.7-1,0.9
					c-0.3,0.3-0.5,0.5-0.7,0.7c-0.4,0.4-0.6,0.6-0.6,0.6c0,0,0.2-0.2,0.5-0.7c0.2-0.2,0.4-0.5,0.7-0.8c0.3-0.3,0.6-0.6,1-1
					c1.5-1.4,4-3.3,7.5-4.7c3.5-1.4,8.1-2.3,13-1.5c4.9,0.7,10.1,3.3,14.1,7.6c3.9,4.3,6.2,9.5,7.4,14.2c1.2,4.8,1.5,9.3,1.6,13.1
					c0.1,3.8-0.1,6.8-0.2,8.9c-0.1,1-0.1,1.8-0.2,2.4C211.8,270,211.8,270.3,211.8,270.3z"/>
			</g>
			<g>
				<path class="st3" d="M189.2,249.7c-0.2,0-0.8-3.7-2.7-7.9c-1.9-4.2-4.3-7.1-4.2-7.2c0,0,0.7,0.6,1.6,1.9c0.9,1.2,2,3,3,5.1
					c1,2.1,1.6,4.2,1.9,5.7C189.2,248.7,189.2,249.6,189.2,249.7z"/>
			</g>
			<g>
				<path class="st3" d="M196.8,243.1c-0.2,0.1-1-3.8-4.1-7.3c-3-3.6-6.7-5.1-6.6-5.2c0-0.1,0.9,0.2,2.3,1c1.4,0.8,3.1,2.1,4.6,3.9
					c1.5,1.8,2.5,3.8,3.1,5.2C196.7,242.1,196.8,243,196.8,243.1z"/>
			</g>
		</g>
	</g>
</g>
<g id="Speech_Bubble">
	<g>
		<g>
			<g>
				<g>
					<g>
						<g>
							<g>
								<g>
									<g>
										<g>
											<g>
												<g>
													<path class="st13" d="M121.7,239.3l-6.8-12c3-4.9,4.8-10.7,4.8-16.9c0-17.8-14.4-32.2-32.2-32.2
														c-17.8,0-32.2,14.4-32.2,32.2c0,17.8,14.4,32.2,32.2,32.2c7.4,0,14.3-2.5,19.7-6.7l0,0L121.7,239.3z"/>
												</g>
											</g>
										</g>
									</g>
								</g>
							</g>
						</g>
						<g>
							<g>
								<g>
									<g>
										<g>
											<g>
												<g>
													<g>
														<path class="st6" d="M121.7,239.3c-0.7-0.2-5.3-1.2-14.6-3.3l-0.1,0l0.1-0.1l0,0l0.1,0.1c-1.8,1.4-4,2.8-6.6,4
															c-2.6,1.1-5.6,2.1-8.8,2.5c-1.6,0.2-3.3,0.3-5.1,0.3c-0.9,0-1.8-0.1-2.7-0.1c-0.9-0.1-1.8-0.3-2.7-0.4
															c-3.7-0.7-7.4-2.1-10.9-4.3c-3.5-2.2-6.7-5.1-9.3-8.7c-2.6-3.6-4.5-7.8-5.4-12.5c-0.9-4.6-0.8-9.6,0.4-14.3
															c1.2-4.8,3.5-9.4,6.9-13.3l1.3-1.4c0.4-0.5,0.9-0.9,1.4-1.3c0.5-0.4,0.9-0.9,1.5-1.3l1.5-1.2c0.5-0.4,1.1-0.7,1.6-1.1
															c0.5-0.3,1.1-0.7,1.6-1c0.6-0.3,1.1-0.6,1.7-0.8c0.6-0.3,1.1-0.6,1.7-0.8c4.7-1.9,9.7-2.6,14.5-2.2
															c4.8,0.3,9.3,1.7,13.3,3.9c3.9,2.2,7.2,5.1,9.8,8.4c2.6,3.3,4.4,6.9,5.5,10.5c1.1,3.6,1.4,7.2,1.4,10.5
															c-0.1,3.3-0.7,6.4-1.6,9.1c-0.9,2.7-2,5-3.2,6.9l0-0.1C119.2,234.9,121.3,238.7,121.7,239.3c-0.3-0.6-2.5-4.3-6.9-12
															l0,0l0,0c1.2-1.9,2.3-4.2,3.2-6.9c0.9-2.7,1.4-5.7,1.5-9c0-3.3-0.3-6.8-1.4-10.4c-1.1-3.5-2.9-7.1-5.5-10.3
															c-2.5-3.2-5.8-6.1-9.7-8.3c-3.9-2.2-8.4-3.5-13.1-3.9c-4.7-0.3-9.7,0.4-14.3,2.2c-0.6,0.2-1.1,0.5-1.7,0.8
															c-0.6,0.3-1.1,0.5-1.7,0.8c-0.5,0.3-1.1,0.7-1.6,1c-0.5,0.3-1.1,0.6-1.6,1l-1.5,1.1c-0.5,0.4-1,0.8-1.4,1.3
															c-0.5,0.4-1,0.8-1.4,1.3l-1.3,1.4c-3.4,3.8-5.6,8.4-6.8,13.1c-1.2,4.7-1.3,9.6-0.4,14.2c0.9,4.6,2.8,8.8,5.4,12.3
															c2.5,3.6,5.7,6.5,9.2,8.6c3.4,2.1,7.1,3.5,10.7,4.2c0.9,0.1,1.8,0.3,2.7,0.4c0.9,0.1,1.8,0.1,2.6,0.2
															c1.7,0.1,3.4,0,5.1-0.2c3.3-0.4,6.2-1.3,8.8-2.5c2.6-1.1,4.8-2.5,6.6-3.9l0.6-0.5l-0.5,0.6l0,0l-0.1-0.2
															C116.4,238,121,239.1,121.7,239.3z"/>
													</g>
												</g>
											</g>
										</g>
									</g>
								</g>
							</g>
						</g>
					</g>
				</g>
			</g>
		</g>
		<g>
			<g>
				<g>
					<g>
						<g>
							<g>
								<g>
									<g>
										<g>
											<g>
												<path class="st6" d="M78.3,210.4c0,1.8-1.5,3.3-3.3,3.3c-1.8,0-3.3-1.5-3.3-3.3c0-1.8,1.5-3.3,3.3-3.3
													C76.8,207.1,78.3,208.6,78.3,210.4z"/>
											</g>
										</g>
									</g>
								</g>
							</g>
						</g>
					</g>
				</g>
			</g>
			<g>
				<g>
					<g>
						<g>
							<g>
								<g>
									<g>
										<g>
											<g>
												<path class="st6" d="M91.4,210.4c0,1.8-1.5,3.3-3.3,3.3c-1.8,0-3.3-1.5-3.3-3.3c0-1.8,1.5-3.3,3.3-3.3
													C89.9,207.1,91.4,208.6,91.4,210.4z"/>
											</g>
										</g>
									</g>
								</g>
							</g>
						</g>
					</g>
				</g>
			</g>
			<g>
				<g>
					<g>
						<g>
							<g>
								<g>
									<g>
										<g>
											<g>
												<path class="st6" d="M104.5,208.7c0.9,1.6,0.4,3.6-1.2,4.5c-1.6,0.9-3.6,0.4-4.5-1.2c-0.9-1.6-0.4-3.6,1.2-4.5
													C101.6,206.6,103.6,207.2,104.5,208.7z"/>
											</g>
										</g>
									</g>
								</g>
							</g>
						</g>
					</g>
				</g>
			</g>
		</g>
	</g>
</g>
<g id="Stars">
	<g>
		<g>
			<g>
				<g>
					<g>
						<g>
							<path class="st6" d="M121.6,105l0.4,0.6c0.4,0.7,1,1.2,1.7,1.5l0.6,0.3l-0.6,0.4c-0.7,0.4-1.2,1-1.5,1.7l-0.3,0.6l-0.4-0.6
								c-0.4-0.7-1-1.2-1.7-1.5l-0.6-0.3l0.6-0.4c0.7-0.4,1.2-1,1.5-1.7L121.6,105z"/>
						</g>
					</g>
				</g>
			</g>
		</g>
	</g>
	<g>
		<g>
			<g>
				<g>
					<g>
						<g>
							<path class="st6" d="M467.4,96.6l0.4,0.6c0.4,0.7,1,1.2,1.7,1.5l0.6,0.3l-0.6,0.4c-0.7,0.4-1.2,1-1.5,1.7l-0.3,0.6l-0.4-0.6
								c-0.4-0.7-1-1.2-1.7-1.5l-0.6-0.3l0.6-0.4c0.7-0.4,1.2-1,1.5-1.7L467.4,96.6z"/>
						</g>
					</g>
				</g>
			</g>
		</g>
	</g>
	<g>
		<g>
			<g>
				<g>
					<g>
						<g>
							<path class="st6" d="M238.8,142.5l0.5,0.8c0.5,0.8,1.2,1.5,2.1,2l0.8,0.4l-0.8,0.5c-0.8,0.5-1.5,1.2-2,2.1l-0.4,0.8l-0.5-0.8
								c-0.5-0.8-1.2-1.5-2.1-2l-0.8-0.4l0.8-0.5c0.8-0.5,1.5-1.2,2-2.1L238.8,142.5z"/>
						</g>
					</g>
				</g>
			</g>
		</g>
	</g>
	<g>
		<g>
			<g>
				<g>
					<g>
						<g>
							<path class="st6" d="M190.6,38.2l0.5,0.8c0.5,0.8,1.2,1.5,2.1,2l0.8,0.4l-0.8,0.5c-0.8,0.5-1.5,1.2-2,2.1l-0.4,0.8l-0.5-0.8
								c-0.5-0.8-1.2-1.5-2.1-2l-0.8-0.4l0.8-0.5c0.8-0.5,1.5-1.2,2-2.1L190.6,38.2z"/>
						</g>
					</g>
				</g>
			</g>
		</g>
	</g>
	<g>
		<g>
			<g>
				<g>
					<g>
						<g>
							<path class="st6" d="M381.2,29l0.5,0.8c0.5,0.8,1.2,1.5,2.1,2l0.8,0.4l-0.8,0.5c-0.8,0.5-1.5,1.2-2,2.1l-0.4,0.8l-0.5-0.8
								c-0.5-0.8-1.2-1.5-2.1-2l-0.8-0.4l0.8-0.5c0.8-0.5,1.5-1.2,2-2.1L381.2,29z"/>
						</g>
					</g>
				</g>
			</g>
		</g>
	</g>
	<g>
		<g>
			<g>
				<g>
					<g>
						<g>
							<path class="st6" d="M330.8,107.6l0.3,3.4c0.1,0.8,0.4,1.6,1,2.2c0,0,0,0,0,0c0.6,0.5,1.4,0.8,2.1,0.8l2.7,0.1l-2.8,0.5
								c-0.7,0.1-1.4,0.5-1.9,1c-0.1,0.1-0.1,0.1-0.2,0.2c-0.5,0.6-0.8,1.3-0.8,2l-0.3,3.4l-0.3-3.2c-0.1-0.8-0.4-1.6-1-2.2
								c0,0-0.1-0.1-0.1-0.1c-0.5-0.5-1.2-0.7-2-0.8l-2.9-0.3l2.7-0.3c0.8-0.1,1.6-0.4,2.1-1c0,0,0.1-0.1,0.1-0.1
								c0.5-0.6,0.8-1.3,0.8-2L330.8,107.6z"/>
						</g>
					</g>
				</g>
			</g>
		</g>
	</g>
	<g>
		<g>
			<g>
				<g>
					<g>
						<g>
							<path class="st6" d="M68.7,42.5l0.3,3.4c0.1,0.8,0.4,1.6,1,2.2c0,0,0,0,0,0c0.6,0.5,1.4,0.8,2.1,0.8l2.7,0.1l-2.8,0.5
								c-0.7,0.1-1.4,0.5-1.9,1c-0.1,0.1-0.1,0.1-0.2,0.2c-0.5,0.6-0.8,1.3-0.8,2L69,56.2L68.7,53c-0.1-0.8-0.4-1.6-1-2.2
								c0,0-0.1-0.1-0.1-0.1c-0.5-0.5-1.2-0.7-2-0.8l-2.9-0.3l2.7-0.3c0.8-0.1,1.6-0.4,2.1-1c0,0,0.1-0.1,0.1-0.1
								c0.5-0.6,0.8-1.3,0.8-2L68.7,42.5z"/>
						</g>
					</g>
				</g>
			</g>
		</g>
	</g>
	<g>
		<g>
			<g>
				<g>
					<g>
						<g>
							<path class="st6" d="M244.5,210.4l0.5,0.8c0.5,0.8,1.2,1.5,2.1,2l0.8,0.4l-0.8,0.5c-0.8,0.5-1.5,1.2-2,2.1l-0.4,0.8l-0.5-0.8
								c-0.5-0.8-1.2-1.5-2.1-2l-0.8-0.4l0.8-0.5c0.8-0.5,1.5-1.2,2-2.1L244.5,210.4z"/>
						</g>
					</g>
				</g>
			</g>
		</g>
	</g>
	<g>
		<g>
			<g>
				<g>
					<g>
						<g>
							<path class="st6" d="M402.1,160.2l0.5,0.8c0.5,0.8,1.2,1.5,2.1,2l0.8,0.4l-0.8,0.5c-0.8,0.5-1.5,1.2-2,2.1l-0.4,0.8l-0.5-0.8
								c-0.5-0.8-1.2-1.5-2.1-2l-0.8-0.4l0.8-0.5c0.8-0.5,1.5-1.2,2-2.1L402.1,160.2z"/>
						</g>
					</g>
				</g>
			</g>
		</g>
	</g>
</g>
</svg>
