<?xml version="1.0" encoding="utf-8"?>
<!-- Generator: Adobe Illustrator 26.5.0, SVG Export Plug-In . SVG Version: 6.00 Build 0)  -->
<svg version="1.1" xmlns="http://www.w3.org/2000/svg" xmlns:xlink="http://www.w3.org/1999/xlink" x="0px" y="0px"
	 viewBox="0 0 500 500" style="enable-background:new 0 0 500 500;" xml:space="preserve">
<style type="text/css">
	.st0{fill:#E0E0E0;}
	.st1{fill:#EBEBEB;}
	.st2{fill:#FFFFFF;}
	.st3{fill:#F5F5F5;}
	.st4{fill:#FAFAFA;}
	.st5{display:none;}
	.st6{display:inline;fill:#F5F5F5;}
	.st7{fill:#263238;}
	.st8{fill:#FF725E;}
	.st9{fill:#FFBF9D;}
	.st10{fill:#FF9A6C;}
</style>
<g id="Background_Complete">
	<g>
		<path class="st0" d="M62.2,266.4c0.1,0,0,0.7,0.7,1.8c0.4,0.5,0.9,1.1,1.7,1.4c0.8,0.4,1.9,0.4,3,0c1.1-0.4,2.2-1.3,2.7-2.6
			c0.6-1.3,0.5-2.9-0.3-4.4c-0.7-1.4-2.2-2.7-4-3c-1.8-0.3-3.9,0.2-5.5,1.4c-1.6,1.3-2.8,3.3-2.8,5.6c0,2.2,0.9,4.6,2.6,6.3
			c1.7,1.7,4.2,2.8,6.7,2.8c2.6-0.1,5.3-1.1,7.3-2.9c2-1.8,3.5-4.5,3.7-7.3c0.3-2.8-0.4-5.9-2-8.5c-1.6-2.6-4.1-4.5-7.1-5.5
			c-3-1-6.3-0.9-9.4-0.1c-1.6,0.4-3,1.1-4.3,2c-1.3,0.9-2.4,2-3.4,3.2c-0.9,1.3-1.6,2.7-2.2,4.1c-0.5,1.5-0.8,3-0.9,4.5
			c-0.3,3.1,0.1,6.1,1.3,8.8c1.2,2.7,3.1,4.9,5.3,6.6c4.6,3.3,10.3,4.1,15.3,3.2c1.3-0.1,2.4-0.6,3.6-1c0.6-0.2,1.1-0.5,1.6-0.8
			c0.3-0.1,0.5-0.3,0.8-0.4l0.7-0.5c2-1.2,3.5-2.9,4.9-4.6c2.5-3.5,3.6-7.4,3.8-10.8c0-0.4,0.1-0.9,0.1-1.3c0-0.4-0.1-0.8-0.1-1.2
			c-0.1-0.8-0.1-1.6-0.2-2.3c-0.1-0.7-0.3-1.4-0.4-2.1c-0.2-0.6-0.4-1.2-0.6-1.8c-0.3-1.2-0.9-2.1-1.3-3c-0.4-0.9-0.8-1.5-1.2-2.1
			c-0.7-1.1-1-1.7-1-1.7c0,0,0.5,0.5,1.3,1.5c0.4,0.5,0.9,1.2,1.3,2c0.4,0.9,1.1,1.8,1.5,3c0.2,0.6,0.5,1.2,0.7,1.9
			c0.2,0.7,0.3,1.4,0.5,2.1c0.2,0.7,0.2,1.5,0.3,2.4c0,0.4,0.1,0.8,0.1,1.3c0,0.4,0,0.9,0,1.3c-0.1,3.6-1.2,7.7-3.8,11.4
			c-1.4,1.8-3,3.6-5.1,5l-0.8,0.5c-0.3,0.2-0.6,0.3-0.8,0.4c-0.6,0.3-1.1,0.6-1.7,0.9c-1.2,0.4-2.5,0.9-3.8,1.1
			c-2.6,0.5-5.4,0.5-8.2,0c-2.8-0.5-5.6-1.6-8.1-3.4c-2.5-1.8-4.6-4.2-5.9-7.2c-1.3-2.9-1.7-6.3-1.4-9.5c0.1-1.6,0.5-3.3,1-4.9
			c0.6-1.6,1.4-3.1,2.4-4.5c1.1-1.4,2.3-2.6,3.8-3.6c1.5-1,3.1-1.7,4.8-2.2c3.4-0.9,7-1,10.3,0.1c3.3,1.1,6.1,3.3,7.9,6.2
			c1.7,2.9,2.5,6.2,2.2,9.4c-0.3,3.2-1.9,6.2-4.3,8.3c-2.3,2.1-5.3,3.2-8.2,3.2c-3,0.1-5.8-1.2-7.7-3.2c-1.9-2-2.9-4.7-2.8-7.3
			c0-2.6,1.4-5,3.3-6.4c1.9-1.4,4.2-2,6.4-1.5c2.1,0.4,3.8,1.9,4.6,3.6c0.8,1.7,0.9,3.6,0.2,5.1c-0.7,1.5-1.9,2.5-3.2,2.9
			c-1.2,0.4-2.5,0.3-3.4-0.1c-0.9-0.4-1.5-1.1-1.8-1.7c-0.3-0.6-0.4-1.1-0.5-1.4C62.1,266.6,62.1,266.4,62.2,266.4z"/>
	</g>
	<path class="st1" d="M313.7,226l1.6,2.9c0.7,1.2,1.7,2.3,2.9,2.9l2.9,1.6l-2.9,1.6c-1.2,0.7-2.3,1.7-2.9,2.9l-1.6,2.9l-1.6-2.9
		c-0.7-1.2-1.7-2.3-2.9-2.9l-2.9-1.6l2.9-1.6c1.2-0.7,2.3-1.7,2.9-2.9L313.7,226z"/>
	<path class="st1" d="M49.9,159.2l1.6,3c0.7,1.3,1.7,2.3,3,3l3,1.6l-3,1.6c-1.3,0.7-2.3,1.7-3,3l-1.6,3l-1.6-3c-0.7-1.3-1.7-2.3-3-3
		l-3-1.6l3-1.6c1.3-0.7,2.3-1.7,3-3L49.9,159.2z"/>
	<path class="st1" d="M370.4,80.5l1,1.8c0.4,0.8,1.1,1.4,1.8,1.8l1.8,1l-1.8,1c-0.8,0.4-1.4,1.1-1.8,1.8l-1,1.8l-1-1.8
		c-0.4-0.8-1.1-1.4-1.8-1.8l-1.8-1l1.8-1c0.8-0.4,1.4-1.1,1.8-1.8L370.4,80.5z"/>
	<path class="st1" d="M117.2,34.2l0.8,1.5c0.3,0.6,0.9,1.2,1.5,1.5l1.5,0.8l-1.5,0.8c-0.6,0.3-1.2,0.9-1.5,1.5l-0.8,1.5l-0.8-1.5
		c-0.3-0.6-0.9-1.2-1.5-1.5l-1.5-0.8l1.5-0.8c0.6-0.3,1.2-0.9,1.5-1.5L117.2,34.2z"/>
	<g>
		<g>
			
				<ellipse transform="matrix(0.2346 -0.9721 0.9721 0.2346 181.5434 517.7741)" class="st2" cx="419.6" cy="143.6" rx="48.1" ry="48.1"/>
			<g>
				<path class="st0" d="M467.7,143.6c0,0,0-0.3-0.1-0.8c0-0.5-0.1-1.3-0.1-2.3c0-0.5-0.1-1.1-0.1-1.7c-0.1-0.6-0.2-1.3-0.3-2
					c-0.1-0.7-0.2-1.5-0.4-2.3c-0.1-0.8-0.4-1.7-0.6-2.6c-0.8-3.7-2.6-8.1-5.3-12.8c-2.8-4.6-6.8-9.5-12.2-13.6
					c-0.7-0.5-1.4-1-2.1-1.5c-0.7-0.5-1.5-0.9-2.3-1.4c-0.8-0.4-1.5-1-2.3-1.4c-0.8-0.4-1.7-0.8-2.5-1.2c-0.4-0.2-0.8-0.4-1.3-0.6
					c-0.4-0.2-0.9-0.3-1.3-0.5c-0.9-0.3-1.8-0.7-2.7-1c-0.9-0.3-1.9-0.5-2.8-0.8c-1-0.2-1.9-0.6-2.9-0.7c-2-0.3-4-0.7-6.1-0.7
					c-1,0-2.1-0.1-3.1-0.1c-1,0.1-2.1,0.1-3.2,0.2c-0.5,0-1.1,0-1.6,0.1c-0.5,0.1-1.1,0.2-1.6,0.2c-1.1,0.2-2.2,0.3-3.2,0.5
					c-2.1,0.6-4.3,1-6.4,1.9l-1.6,0.6c-0.3,0.1-0.5,0.2-0.8,0.3l-0.8,0.4c-1,0.5-2.1,1-3.1,1.5c-1,0.5-2,1.2-3,1.8
					c-0.5,0.3-1,0.6-1.5,0.9l-1.4,1.1c-1.9,1.3-3.6,3-5.4,4.6c-0.8,0.9-1.6,1.8-2.4,2.7l-0.6,0.7l-0.5,0.7l-1.1,1.5l-1.1,1.5l-1,1.6
					l-1,1.6l-0.5,0.8c-0.1,0.3-0.3,0.6-0.4,0.8c-0.5,1.1-1.1,2.2-1.6,3.4c-0.4,1.2-0.9,2.4-1.3,3.5c-1.6,4.8-2.4,9.9-2.5,15.1
					c0.1,5.2,0.9,10.3,2.5,15.1c0.4,1.2,0.9,2.4,1.3,3.5c0.5,1.1,1.1,2.3,1.6,3.4l0.4,0.8l0.5,0.8l1,1.6l1,1.6l1.1,1.5l1.1,1.5
					l0.5,0.7l0.6,0.7c0.8,0.9,1.6,1.8,2.4,2.7c1.8,1.6,3.5,3.3,5.4,4.6l1.4,1.1c0.5,0.4,1,0.6,1.5,0.9c1,0.6,2,1.2,3,1.8
					c1,0.5,2.1,1,3.1,1.5l0.8,0.4c0.3,0.1,0.5,0.2,0.8,0.3l1.6,0.6c2.1,0.9,4.3,1.3,6.4,1.9c1.1,0.2,2.2,0.3,3.2,0.5
					c0.5,0.1,1.1,0.2,1.6,0.2c0.5,0.1,1.1,0.1,1.6,0.1c1.1,0.1,2.1,0.1,3.2,0.2c1,0,2.1-0.1,3.1-0.1c2.1,0,4.1-0.4,6.1-0.7
					c1-0.1,1.9-0.4,2.9-0.7c0.9-0.3,1.9-0.5,2.8-0.8c0.9-0.3,1.8-0.7,2.7-1c0.4-0.2,0.9-0.3,1.3-0.5c0.4-0.2,0.8-0.4,1.3-0.6
					c0.8-0.4,1.7-0.8,2.5-1.2c0.8-0.4,1.6-0.9,2.3-1.4c0.8-0.5,1.5-0.9,2.3-1.4c0.7-0.5,1.4-1,2.1-1.5c5.4-4.1,9.4-9,12.2-13.6
					c2.7-4.7,4.5-9.1,5.3-12.8c0.2-0.9,0.5-1.8,0.6-2.6c0.1-0.8,0.3-1.6,0.4-2.3c0.1-0.7,0.2-1.4,0.3-2c0-0.6,0.1-1.2,0.1-1.7
					c0.1-1,0.1-1.8,0.1-2.3C467.7,143.9,467.7,143.6,467.7,143.6s0,0.3,0,0.8c0,0.5-0.1,1.3-0.1,2.3c0,0.5,0,1.1-0.1,1.7
					c-0.1,0.6-0.2,1.3-0.3,2c-0.1,0.7-0.2,1.5-0.3,2.4c-0.1,0.8-0.4,1.7-0.6,2.6c-0.8,3.7-2.5,8.2-5.3,12.9
					c-2.8,4.7-6.8,9.6-12.2,13.8c-0.7,0.5-1.4,1-2.1,1.6c-0.7,0.5-1.5,0.9-2.3,1.4c-0.8,0.4-1.5,1-2.4,1.4c-0.8,0.4-1.7,0.8-2.5,1.2
					c-0.4,0.2-0.8,0.4-1.3,0.6c-0.4,0.2-0.9,0.3-1.3,0.5c-0.9,0.3-1.8,0.7-2.7,1c-0.9,0.3-1.9,0.5-2.8,0.8c-1,0.2-1.9,0.6-2.9,0.7
					c-2,0.3-4,0.7-6.1,0.7c-1,0-2.1,0.1-3.2,0.1c-1.1-0.1-2.1-0.1-3.2-0.2c-0.5,0-1.1,0-1.6-0.1c-0.5-0.1-1.1-0.2-1.6-0.2
					c-1.1-0.2-2.2-0.3-3.3-0.5c-2.1-0.6-4.3-1-6.5-1.9l-1.6-0.6c-0.3-0.1-0.5-0.2-0.8-0.3l-0.8-0.4c-1-0.5-2.1-1-3.1-1.5
					c-1-0.6-2-1.2-3-1.8c-0.5-0.3-1-0.6-1.5-0.9l-1.4-1.1c-2-1.3-3.7-3-5.5-4.7c-0.8-0.9-1.6-1.8-2.5-2.7l-0.6-0.7l-0.6-0.7
					l-1.1-1.5l-1.1-1.5l-1-1.6l-1-1.6l-0.5-0.8l-0.4-0.8c-0.5-1.1-1.1-2.3-1.6-3.4c-0.4-1.2-0.9-2.4-1.3-3.6
					c-1.6-4.9-2.4-10-2.5-15.3c0.1-5.2,0.9-10.4,2.5-15.3c0.4-1.2,0.9-2.4,1.3-3.6c0.6-1.1,1.1-2.3,1.6-3.4c0.1-0.3,0.3-0.6,0.4-0.8
					l0.5-0.8l1-1.6l1-1.6l1.1-1.5l1.1-1.5l0.6-0.7l0.6-0.7c0.8-0.9,1.6-1.8,2.5-2.7c1.8-1.6,3.5-3.3,5.5-4.7l1.4-1.1
					c0.5-0.4,1-0.6,1.5-0.9c1-0.6,2-1.2,3-1.8c1-0.5,2.1-1,3.1-1.5l0.8-0.4c0.3-0.1,0.5-0.2,0.8-0.3l1.6-0.6
					c2.1-0.9,4.3-1.3,6.5-1.9c1.1-0.2,2.2-0.3,3.3-0.5c0.5-0.1,1.1-0.2,1.6-0.2c0.5-0.1,1.1-0.1,1.6-0.1c1.1-0.1,2.1-0.1,3.2-0.2
					c1.1,0,2.1,0.1,3.2,0.1c2.1,0,4.1,0.4,6.1,0.7c1,0.1,2,0.4,2.9,0.7c1,0.3,1.9,0.5,2.8,0.8c0.9,0.3,1.8,0.7,2.7,1
					c0.4,0.2,0.9,0.3,1.3,0.5c0.4,0.2,0.9,0.4,1.3,0.6c0.8,0.4,1.7,0.8,2.5,1.2c0.8,0.4,1.6,0.9,2.4,1.4c0.8,0.5,1.5,0.9,2.3,1.4
					c0.7,0.5,1.4,1,2.1,1.6c5.5,4.2,9.5,9.1,12.2,13.8c2.7,4.7,4.5,9.1,5.3,12.9c0.2,0.9,0.5,1.8,0.6,2.6c0.1,0.8,0.2,1.6,0.3,2.4
					c0.1,0.7,0.2,1.4,0.3,2c0,0.6,0.1,1.2,0.1,1.7c0,1,0.1,1.8,0.1,2.3C467.7,143.3,467.7,143.6,467.7,143.6z"/>
			</g>
		</g>
		<g>
			<path class="st2" d="M381.6,189.8c0,3.7-3,6.7-6.7,6.7c-3.7,0-6.7-3-6.7-6.7s3-6.7,6.7-6.7C378.6,183.1,381.6,186.1,381.6,189.8z
				"/>
			<g>
				<path class="st0" d="M381.6,189.8c-0.1,0,0-0.6-0.3-1.6c-0.3-1-0.9-2.4-2.4-3.6c-1.4-1.1-3.8-1.7-6.1-0.9
					c-1.1,0.4-2.2,1.2-3,2.3c-0.8,1.1-1.2,2.4-1.2,3.8c0,1.4,0.5,2.7,1.2,3.8c0.8,1.1,1.8,1.8,3,2.3c2.3,0.9,4.7,0.2,6.1-0.9
					c1.5-1.1,2.2-2.6,2.4-3.6C381.6,190.4,381.6,189.8,381.6,189.8c0,0,0,0.1,0,0.4c0,0.3,0,0.7-0.1,1.2c-0.2,1-0.9,2.6-2.4,3.8
					c-0.8,0.6-1.7,1.1-2.9,1.3c-1.1,0.2-2.4,0.2-3.6-0.3c-1.2-0.4-2.4-1.3-3.2-2.4c-0.9-1.1-1.3-2.6-1.4-4.1c0-1.5,0.5-3,1.4-4.1
					c0.8-1.1,2-2,3.2-2.4c2.5-0.9,5-0.2,6.5,1c1.5,1.2,2.2,2.8,2.4,3.8c0.1,0.5,0.1,0.9,0.1,1.2
					C381.7,189.7,381.7,189.8,381.6,189.8z"/>
			</g>
		</g>
		<g>
			<path class="st0" d="M424.9,144.6c-0.1,0-0.1-0.7-0.8-1.8c-0.4-0.5-1-1.1-1.8-1.5c-0.9-0.4-2-0.4-3.1,0.1
				c-1.1,0.4-2.2,1.4-2.7,2.7c-0.6,1.3-0.4,3,0.4,4.5c0.8,1.5,2.3,2.7,4.2,3c1.9,0.3,4-0.2,5.7-1.6c1.6-1.3,2.8-3.5,2.8-5.8
				c0-2.3-1-4.8-2.8-6.5c-1.8-1.8-4.4-2.9-7-2.7c-2.7,0.1-5.4,1.2-7.5,3.2c-2.1,1.9-3.5,4.7-3.7,7.7c-0.2,3,0.5,6.1,2.2,8.8
				c1.7,2.6,4.3,4.6,7.4,5.6c3.1,0.9,6.5,0.8,9.7-0.1c1.6-0.5,3.1-1.2,4.4-2.1c1.3-0.9,2.5-2.1,3.4-3.4c0.9-1.3,1.6-2.8,2.2-4.3
				c0.5-1.5,0.8-3.1,0.9-4.7c0.2-3.2-0.3-6.3-1.5-9.1c-1.3-2.7-3.3-5.1-5.7-6.7c-2.4-1.7-5.1-2.7-7.8-3.2c-2.7-0.5-5.5-0.4-8,0.1
				c-5.1,1-9.3,4.2-11.8,7.8c-2.6,3.7-3.7,7.7-3.8,11.3c-0.1,3.6,0.6,6.6,1.5,9c0.9,2.4,1.9,4.1,2.6,5.2c0.7,1.1,1.1,1.7,1.1,1.7
				c0,0-0.5-0.5-1.4-1.6c-0.8-1.1-1.9-2.8-3-5.1c-1-2.4-1.8-5.5-1.8-9.2c0.1-3.7,1.1-8,3.8-11.9c1.3-1.9,3-3.8,5.1-5.2
				c1-0.8,2.2-1.4,3.4-1.9c1.2-0.5,2.5-0.9,3.9-1.2c2.7-0.5,5.6-0.6,8.5-0.1c2.9,0.5,5.8,1.6,8.4,3.3c2.6,1.8,4.8,4.3,6.2,7.3
				c1.4,3,1.9,6.4,1.7,9.8c-0.1,1.7-0.5,3.4-1,5.1c-0.6,1.6-1.3,3.2-2.4,4.7c-1.1,1.4-2.3,2.7-3.8,3.8c-1.5,1-3.1,1.8-4.9,2.4
				c-3.5,1-7.2,1.1-10.6,0.1c-3.4-1.1-6.4-3.3-8.3-6.2c-1.8-3-2.6-6.4-2.4-9.7c0.3-3.3,1.9-6.4,4.3-8.6c2.3-2.2,5.4-3.3,8.4-3.5
				c3.1-0.1,6,1.2,8,3.2c2,2,3.1,4.8,3.1,7.5c0,2.7-1.4,5.2-3.3,6.7c-1.9,1.5-4.4,2.1-6.5,1.7c-2.2-0.4-3.9-1.9-4.8-3.6
				c-0.9-1.7-1-3.7-0.3-5.2c0.7-1.5,1.9-2.6,3.2-3c1.3-0.5,2.6-0.4,3.5,0.1c1,0.4,1.6,1.1,1.9,1.7c0.3,0.6,0.5,1.1,0.5,1.5
				C424.9,144.4,424.9,144.6,424.9,144.6z"/>
		</g>
	</g>
	<g>
		<path class="st0" d="M308.8,44.6c-0.1,0,0.2-0.5,0-1.5c-0.1-0.5-0.3-1-0.8-1.5c-0.5-0.5-1.2-0.8-2.1-0.8c-0.9,0-1.9,0.3-2.6,1
			c-0.7,0.7-1.1,1.9-1,3.1c0.1,1.2,0.8,2.5,1.9,3.2c1.1,0.7,2.7,1,4.2,0.5c1.5-0.4,2.8-1.5,3.5-3.1c0.6-1.5,0.7-3.4,0-5.1
			c-0.7-1.7-2.1-3.1-3.9-3.8c-1.8-0.7-4-0.8-5.9,0c-1.9,0.7-3.7,2.1-4.7,4c-1,1.9-1.4,4.2-1,6.4c0.4,2.2,1.6,4.3,3.3,5.8
			c1.8,1.5,4.1,2.4,6.5,2.7c1.2,0.1,2.4,0.1,3.6-0.1c1.2-0.2,2.3-0.7,3.3-1.3c1-0.6,1.9-1.4,2.7-2.2c0.7-0.9,1.4-1.8,1.9-2.9
			c1.1-2.1,1.7-4.3,1.6-6.5c-0.1-2.2-0.7-4.3-1.8-6.1c-2.2-3.6-6-5.9-9.7-6.6c-0.9-0.3-1.9-0.3-2.8-0.3c-0.5,0-0.9,0.1-1.4,0.1
			l-0.7,0.1l-0.6,0.1c-1.8,0.3-3.3,1-4.7,1.8c-2.8,1.7-4.7,4.1-5.8,6.5c-0.1,0.3-0.3,0.6-0.4,0.9c-0.1,0.3-0.2,0.6-0.3,0.9
			c-0.2,0.6-0.4,1.1-0.5,1.7c-0.1,0.6-0.2,1.1-0.3,1.6c0,0.5-0.1,1-0.1,1.5c-0.1,0.9,0,1.7,0,2.5c0,0.7,0.1,1.3,0.2,1.8
			c0.2,1,0.2,1.5,0.2,1.5c-0.1,0-0.2-0.5-0.5-1.4c-0.1-0.5-0.3-1.1-0.4-1.8c-0.1-0.7-0.2-1.6-0.2-2.5c0-0.5,0-1,0-1.5
			c0.1-0.5,0.2-1.1,0.3-1.7c0.1-0.6,0.3-1.2,0.5-1.8c0.1-0.3,0.2-0.6,0.3-0.9c0.1-0.3,0.3-0.6,0.4-0.9c1.1-2.5,3.1-5.1,6-7
			c1.5-0.9,3.2-1.7,5.1-2.1l0.7-0.2c0.2,0,0.5,0,0.7-0.1c0.5,0,1-0.1,1.5-0.1c1,0.1,2,0.1,3,0.3c4,0.8,8.1,3.2,10.7,7.2
			c1.2,2,2,4.4,2.1,6.8c0.1,2.5-0.6,5-1.8,7.2c-0.6,1.1-1.3,2.2-2.2,3.2c-0.9,1-1.9,1.8-3,2.5c-1.2,0.7-2.4,1.2-3.7,1.5
			c-1.3,0.2-2.7,0.3-4.1,0.2c-2.7-0.3-5.3-1.4-7.3-3.1c-2-1.7-3.4-4.2-3.8-6.8c-0.4-2.6,0.1-5.2,1.2-7.4c1.2-2.2,3.2-3.9,5.5-4.7
			c2.3-0.8,4.8-0.7,6.9,0.1c2.2,0.8,3.8,2.6,4.6,4.6c0.8,2,0.7,4.2-0.1,6.1c-0.8,1.9-2.5,3.2-4.3,3.6c-1.8,0.5-3.6,0.2-5-0.8
			c-1.4-0.9-2.2-2.5-2.2-4c-0.1-1.5,0.4-2.9,1.4-3.7c0.9-0.9,2.1-1.2,3.1-1.1c1,0.1,1.9,0.5,2.4,1.1c0.5,0.6,0.7,1.2,0.8,1.8
			c0.1,0.5,0,0.9-0.1,1.2C308.9,44.5,308.8,44.6,308.8,44.6z"/>
	</g>
	<g>
		<path class="st0" d="M70.6,73.8c-0.1,0-0.2-0.5-0.8-1.2c-0.3-0.3-0.8-0.6-1.4-0.7c-0.6-0.1-1.4,0-2.1,0.5
			c-0.7,0.4-1.3,1.2-1.5,2.2c-0.2,1,0.1,2.1,0.8,3c0.7,0.9,1.9,1.5,3.2,1.5c1.3,0,2.7-0.7,3.6-1.8c0.9-1.1,1.4-2.7,1.1-4.3
			c-0.3-1.6-1.3-3.1-2.7-4.1c-1.4-1-3.3-1.4-5.1-1c-1.8,0.4-3.5,1.5-4.7,3.1c-1.2,1.6-1.8,3.6-1.6,5.7c0.2,2,1.1,4.1,2.6,5.7
			c1.5,1.6,3.5,2.6,5.7,2.9c2.2,0.2,4.6-0.2,6.6-1.3c1-0.5,1.9-1.2,2.8-2c0.8-0.8,1.4-1.8,1.9-2.8c0.5-1,0.8-2.1,1-3.2
			c0.1-1.1,0.2-2.2,0-3.3c-0.2-2.2-1-4.3-2.2-6c-1.2-1.7-2.9-3-4.7-3.9c-3.7-1.7-7.9-1.5-11.3-0.1c-0.9,0.3-1.6,0.8-2.4,1.2
			c-0.4,0.2-0.7,0.5-1,0.8l-0.5,0.4l-0.4,0.5c-1.3,1.1-2.1,2.6-2.8,4c-1.3,2.8-1.5,5.8-1.2,8.2c0,0.3,0.1,0.6,0.1,0.9
			c0.1,0.3,0.2,0.6,0.2,0.9c0.2,0.6,0.3,1.1,0.5,1.6c0.2,0.5,0.4,1,0.6,1.4c0.2,0.4,0.5,0.8,0.7,1.2c0.4,0.8,0.9,1.4,1.3,2
			c0.4,0.6,0.8,1,1.1,1.3c0.6,0.7,1,1.1,0.9,1.1s-0.4-0.3-1.2-0.9c-0.4-0.3-0.8-0.7-1.3-1.3c-0.4-0.5-1-1.1-1.5-1.9
			c-0.2-0.4-0.5-0.8-0.8-1.2c-0.2-0.5-0.4-1-0.7-1.5c-0.3-0.5-0.4-1.1-0.6-1.7c-0.1-0.3-0.2-0.6-0.3-0.9c-0.1-0.3-0.1-0.6-0.2-1
			c-0.4-2.6-0.3-5.7,1.1-8.8c0.7-1.5,1.6-3.1,3-4.3l0.5-0.5l0.5-0.4c0.4-0.3,0.7-0.6,1.1-0.9c0.8-0.5,1.6-1,2.6-1.4
			c3.6-1.5,8.2-1.8,12.4,0c2.1,0.9,3.9,2.4,5.3,4.3c1.4,2,2.2,4.3,2.5,6.7c0.2,1.2,0.1,2.5,0,3.7c-0.2,1.2-0.5,2.5-1.1,3.6
			c-0.6,1.2-1.3,2.2-2.2,3.2c-0.9,0.9-2,1.7-3.2,2.3c-2.3,1.2-5,1.7-7.5,1.4c-2.6-0.3-5-1.5-6.7-3.4c-1.7-1.9-2.7-4.2-3-6.6
			c-0.2-2.4,0.5-4.8,1.9-6.7c1.4-1.9,3.4-3.1,5.6-3.6c2.2-0.5,4.5,0,6.1,1.2c1.7,1.2,2.8,3,3.1,4.9c0.4,1.9-0.3,3.9-1.5,5.2
			c-1.2,1.3-2.8,2.1-4.5,2.1c-1.6,0-3.1-0.9-3.9-2c-0.9-1.1-1.2-2.5-0.9-3.7c0.3-1.2,1.1-2.1,1.9-2.6c0.8-0.5,1.8-0.6,2.5-0.4
			c0.7,0.2,1.2,0.6,1.6,1c0.3,0.4,0.5,0.7,0.5,1C70.6,73.7,70.6,73.8,70.6,73.8z"/>
	</g>
	<g>
		<g>
			<g>
				<g>
					<g>
						<g>
							<g>
								<rect x="162.5" y="435.6" class="st3" width="29.5" height="35"/>
							</g>
						</g>
					</g>
					<g>
						<g>
							<g>
								<rect x="30.4" y="433.3" class="st0" width="133.1" height="39.5"/>
							</g>
						</g>
					</g>
					<g>
						<g>
							<g>
								<path class="st0" d="M192.9,436.6H160v-3.3h32.9c0.9,0,1.7,0.7,1.7,1.7l0,0C194.6,435.9,193.8,436.6,192.9,436.6z"/>
							</g>
						</g>
					</g>
					<g>
						<g>
							<g>
								<path class="st0" d="M192.9,472.8H160v-3.3h32.9c0.9,0,1.7,0.7,1.7,1.7l0,0C194.6,472,193.8,472.8,192.9,472.8z"/>
							</g>
						</g>
					</g>
					<g>
						<g>
							<g>
								<rect x="137.4" y="433.3" class="st1" width="15.7" height="39.5"/>
							</g>
						</g>
					</g>
					<g>
						<g>
							<g>
								<rect x="43.1" y="433.7" class="st1" width="15.7" height="39.5"/>
							</g>
						</g>
					</g>
					<g>
						<g>
							<g>
								<g>
									<path class="st0" d="M192,441.4c0,0.1-6.4,0.2-14.2,0.2c-7.9,0-14.2-0.1-14.2-0.2c0-0.1,6.4-0.2,14.2-0.2
										C185.6,441.2,192,441.3,192,441.4z"/>
								</g>
							</g>
						</g>
					</g>
					<g>
						<g>
							<g>
								<g>
									<path class="st0" d="M192,446.6c0,0.1-6.4,0.2-14.2,0.2c-7.9,0-14.2-0.1-14.2-0.2c0-0.1,6.4-0.2,14.2-0.2
										C185.6,446.4,192,446.5,192,446.6z"/>
								</g>
							</g>
						</g>
					</g>
					<g>
						<g>
							<g>
								<g>
									<path class="st0" d="M192,453.1c0,0.1-6.4,0.2-14.2,0.2c-7.9,0-14.2-0.1-14.2-0.2c0-0.1,6.4-0.2,14.2-0.2
										C185.6,452.9,192,453,192,453.1z"/>
								</g>
							</g>
						</g>
					</g>
					<g>
						<g>
							<g>
								<g>
									<path class="st0" d="M192,459.5c0,0.1-6.4,0.2-14.2,0.2c-7.9,0-14.2-0.1-14.2-0.2c0-0.1,6.4-0.2,14.2-0.2
										C185.6,459.4,192,459.4,192,459.5z"/>
								</g>
							</g>
						</g>
					</g>
					<g>
						<g>
							<g>
								<g>
									<path class="st0" d="M192,466c0,0.1-6.4,0.2-14.2,0.2c-7.9,0-14.2-0.1-14.2-0.2c0-0.1,6.4-0.2,14.2-0.2
										C185.6,465.8,192,465.9,192,466z"/>
								</g>
							</g>
						</g>
					</g>
				</g>
				<g>
					<g>
						<g>
							<rect x="69" y="449.5" class="st1" width="59.9" height="7.1"/>
						</g>
					</g>
				</g>
			</g>
			<g>
				<g>
					<g>
						<g>
							<rect x="144.3" y="411.8" class="st4" width="29.9" height="21.3"/>
						</g>
					</g>
				</g>
				<g>
					<g>
						<g>
							<rect x="17.3" y="411" class="st3" width="127.3" height="22.9"/>
						</g>
					</g>
				</g>
				<g>
					<g>
						<g>
							<path class="st3" d="M143.7,412.6h32.2c0.4,0,0.8-0.3,0.8-0.8l0,0c0-0.4-0.3-0.8-0.8-0.8h-32.2V412.6z"/>
						</g>
					</g>
				</g>
				<g>
					<g>
						<g>
							<path class="st3" d="M143.7,433.9h32.5c0.2,0,0.4-0.2,0.4-0.4v-0.7c0-0.2-0.2-0.4-0.4-0.4h-32.5V433.9z"/>
						</g>
					</g>
				</g>
				<g>
					<g>
						<g>
							<g>
								<path class="st0" d="M174.2,415.8c0,0.1-6.6,0.2-14.8,0.2c-8.2,0-14.8-0.1-14.8-0.2c0-0.1,6.6-0.2,14.8-0.2
									C167.6,415.7,174.2,415.7,174.2,415.8z"/>
							</g>
						</g>
					</g>
				</g>
				<g>
					<g>
						<g>
							<g>
								<path class="st0" d="M174.2,419.9c0,0.1-6.6,0.2-14.8,0.2c-8.2,0-14.8-0.1-14.8-0.2c0-0.1,6.6-0.2,14.8-0.2
									C167.6,419.7,174.2,419.8,174.2,419.9z"/>
							</g>
						</g>
					</g>
				</g>
				<g>
					<g>
						<g>
							<g>
								<path class="st0" d="M174.2,423.9c0,0.1-6.6,0.2-14.8,0.2c-8.2,0-14.8-0.1-14.8-0.2c0-0.1,6.6-0.2,14.8-0.2
									C167.6,423.7,174.2,423.8,174.2,423.9z"/>
							</g>
						</g>
					</g>
				</g>
				<g>
					<g>
						<g>
							<g>
								<path class="st0" d="M174.2,428c0,0.1-6.6,0.2-14.8,0.2c-8.2,0-14.8-0.1-14.8-0.2c0-0.1,6.6-0.2,14.8-0.2
									C167.6,427.8,174.2,427.9,174.2,428z"/>
							</g>
						</g>
					</g>
				</g>
			</g>
			<g>
				<g>
					<g>
						<g>
							<rect x="169.2" y="354.4" class="st1" width="28.7" height="54.4"/>
						</g>
					</g>
				</g>
				<g>
					<g>
						<g>
							<rect x="34.5" y="352.5" class="st0" width="134.7" height="59"/>
						</g>
					</g>
				</g>
				<g>
					<g>
						<g>
							<path class="st0" d="M200.2,411.4h-34.6v-3.8h34.6c1.1,0,1.9,0.9,1.9,1.9l0,0C202.1,410.6,201.2,411.4,200.2,411.4z"/>
						</g>
					</g>
				</g>
				<g>
					<g>
						<g>
							<path class="st0" d="M201,356.3h-35.4v-3.8H201c0.6,0,1.1,0.5,1.1,1.1v1.6C202.1,355.8,201.6,356.3,201,356.3z"/>
						</g>
					</g>
				</g>
				<g>
					<g>
						<g>
							<g>
								<path class="st0" d="M197.9,361.7c0,0.1-6.4,0.2-14.3,0.2c-7.9,0-14.4-0.1-14.4-0.2c0-0.1,6.4-0.2,14.4-0.2
									C191.5,361.5,197.9,361.6,197.9,361.7z"/>
							</g>
						</g>
					</g>
				</g>
				<g>
					<g>
						<g>
							<g>
								<path class="st0" d="M197.9,368.6c0,0.1-6.4,0.2-14.3,0.2c-7.9,0-14.4-0.1-14.4-0.2c0-0.1,6.4-0.2,14.4-0.2
									C191.5,368.5,197.9,368.5,197.9,368.6z"/>
							</g>
						</g>
					</g>
				</g>
				<g>
					<g>
						<g>
							<g>
								<path class="st0" d="M197.9,375.6c0,0.1-6.4,0.2-14.3,0.2c-7.9,0-14.4-0.1-14.4-0.2c0-0.1,6.4-0.2,14.4-0.2
									C191.5,375.4,197.9,375.5,197.9,375.6z"/>
							</g>
						</g>
					</g>
				</g>
				<g>
					<g>
						<g>
							<g>
								<path class="st0" d="M197.9,382.6c0,0.1-6.4,0.2-14.3,0.2c-7.9,0-14.4-0.1-14.4-0.2c0-0.1,6.4-0.2,14.4-0.2
									C191.5,382.4,197.9,382.5,197.9,382.6z"/>
							</g>
						</g>
					</g>
				</g>
				<g>
					<g>
						<g>
							<g>
								<path class="st0" d="M197.9,389.6c0,0.1-6.4,0.2-14.3,0.2c-7.9,0-14.4-0.1-14.4-0.2c0-0.1,6.4-0.2,14.4-0.2
									C191.5,389.4,197.9,389.5,197.9,389.6z"/>
							</g>
						</g>
					</g>
				</g>
				<g>
					<g>
						<g>
							<g>
								<path class="st0" d="M197.9,396.5c0,0.1-6.4,0.2-14.3,0.2c-7.9,0-14.4-0.1-14.4-0.2c0-0.1,6.4-0.2,14.4-0.2
									C191.5,396.4,197.9,396.4,197.9,396.5z"/>
							</g>
						</g>
					</g>
				</g>
				<g>
					<g>
						<g>
							<g>
								<path class="st0" d="M197.9,403.5c0,0.1-6.4,0.2-14.3,0.2c-7.9,0-14.4-0.1-14.4-0.2c0-0.1,6.4-0.2,14.4-0.2
									C191.5,403.3,197.9,403.4,197.9,403.5z"/>
							</g>
						</g>
					</g>
				</g>
			</g>
		</g>
	</g>
	<g>
		<g>
			<g>
				<g>
					<path class="st1" d="M426.3,325.3c7.8-4,17-4.6,25.7-3.1c4.7,0.8,9.5,2.2,12.7,5.7c3.2,3.5,3.8,9.7,0.1,12.7
						c-2.2,1.8-5.2,2.1-8,2c-6.8-0.1-14.3-1.3-19.7,2.8c-3.1,2.3-5.2,6.2-8.9,7.4c-3.6,1.1-7.7-1-9.6-4.3c-1.9-3.3-2-7.4-1.1-11
						C417.5,337.4,418.4,329.4,426.3,325.3z"/>
				</g>
			</g>
			<g>
				<g>
					<path class="st1" d="M408.4,290.8c4.8,6.8,14.1,4.6,18.4,0.4c4.3-4.2,6.1-10.2,7.8-16c3.8-13.2,7.6-26.9,4.8-40.3
						c-0.8-4-2.3-8-5.2-11c-2.8-3-7.1-4.7-11.1-3.7c-4.7,1.2-7.6,5.8-9.7,10.2c-6.2,12.8-9.5,27-9.5,41.3
						C403.8,278.3,404.6,285.3,408.4,290.8"/>
				</g>
			</g>
			<g>
				<g>
					<path class="st1" d="M395.3,300.6c5.2-6.2,6.2-15.1,3.9-22.8c-2.3-7.7-7.5-14.3-13.5-19.6c-7-6.3-15.3-11.2-24.2-14.3
						c-3.5-1.2-7.2-2.2-10.9-1.9c-3.7,0.4-7.4,2.2-9.1,5.5c-2.5,4.9-0.1,10.8,2.5,15.6c4.7,8.5,10,16.6,15.9,24.2
						c4.8,6.1,10.2,12.2,17.5,15c7.3,2.8,14.8,2.5,18.7-2.6"/>
				</g>
			</g>
			<g>
				<g>
					<g>
						<path class="st0" d="M408,393.7c0.1,0,0.2-1.1,0.4-3.1c0.2-2.3,0.5-5.1,0.8-8.5c0.4-3.6,0.9-7.8,1.9-12.4
							c1-4.6,2.5-9.6,4.5-14.6c2.1-5,4.6-9.6,7.5-13.3c2.9-3.7,6.3-6.3,9.5-7.9c3.2-1.6,6-2.2,8-2.5c2-0.2,3.1-0.4,3.1-0.4
							c0-0.1-1.1-0.1-3.1,0c-2,0.1-5,0.6-8.3,2.2c-3.3,1.5-6.9,4.2-10,7.9c-3.1,3.7-5.7,8.4-7.8,13.5c-2,5.1-3.5,10.2-4.5,14.9
							c-0.9,4.7-1.4,9-1.6,12.6c-0.3,3.6-0.4,6.5-0.4,8.5C407.9,392.6,408,393.7,408,393.7z"/>
					</g>
				</g>
			</g>
			<g>
				<g>
					<g>
						<path class="st0" d="M408.6,387.2c0,0,0.1-0.5,0.1-1.4c0-1.1,0-2.4,0-4.1c0-3.6,0-8.7,0.2-15.1c0.3-12.8,1.4-26.5,3.5-45.9
							c2-18.2,4.7-39.4,7.6-53.2c0.6-3.1,1.2-6,1.8-8.4c0.6-2.5,1-4.6,1.5-6.3c0.4-1.6,0.7-2.9,1-4c0.2-0.9,0.3-1.4,0.3-1.4
							c0,0-0.2,0.5-0.5,1.3c-0.3,1-0.7,2.3-1.2,3.9c-0.5,1.7-1.1,3.8-1.7,6.3c-0.6,2.5-1.3,5.3-2,8.4c-2.8,12.5-5.8,29.9-7.9,49.3
							c-2.1,19.4-3.1,37.1-3.2,49.9c-0.1,6.4,0.1,11.6,0.2,15.1c0.1,1.7,0.2,3,0.3,4.1C408.5,386.7,408.6,387.2,408.6,387.2z"/>
					</g>
				</g>
			</g>
			<g>
				<g>
					<g>
						<path class="st0" d="M408.7,353.1c0.1,0,0.1-1.5,0-4.3c-0.2-2.8-0.5-6.8-1.3-11.6c-0.8-4.9-2-10.7-3.8-17
							c-0.8-2.9-2.6-9.8-7.1-20.1c-5.9-14-13.9-25.4-20.8-32.4c-1.6-1.9-3.4-3.2-4.9-4.6c-0.8-0.6-1.4-1.3-2.1-1.8
							c-0.7-0.5-1.3-0.9-1.9-1.3c-2.3-1.6-3.6-2.4-3.6-2.3c-0.2,0.3,5.1,3.4,11.9,10.6c6.7,7.1,14.5,18.5,20.3,32.3
							c3.3,7.5,5.5,14.2,7.1,19.9c1.9,6.2,3.1,12,4,16.8c0.9,4.8,1.4,8.8,1.7,11.5C408.4,351.6,408.6,353.1,408.7,353.1z"/>
					</g>
				</g>
			</g>
		</g>
		<g>
			<g>
				<polygon class="st0" points="375.8,413.2 379.2,460 439.3,460 442.7,413.2 				"/>
			</g>
		</g>
		<g>
			<g>
				<rect x="370" y="394.8" class="st0" width="79.9" height="18.4"/>
			</g>
		</g>
		<g>
			<g>
				<polygon class="st1" points="370,458.2 370,463.3 373.7,463.3 448.5,463.3 448.5,458.2 				"/>
			</g>
		</g>
		<g>
			<g>
				<polygon class="st0" points="377.4,472.3 373.7,463.3 445.7,463.3 441.4,472.3 				"/>
			</g>
		</g>
		<g>
			<g>
				<g>
					<path class="st3" d="M441.6,428.5c0,0-0.1,0.2-0.3,0.4c-0.2,0.3-0.5,0.7-0.9,1.2c-0.9,1.1-2,2.6-3.5,4.5l-0.2,0.2l-0.2-0.2
						c-2.2-3-5.1-7.1-8.6-11.9h0.5c-2.6,3.6-5.4,7.7-8.5,12l-0.3,0.4l-0.3-0.4c-3.1-3.7-6.5-7.8-10-11.9l0.6,0
						c-0.2,0.2-0.4,0.5-0.6,0.7c-3.1,3.9-6.1,7.7-9,11.3l-0.3,0.4l-0.3-0.4c-3-4.3-5.9-8.3-8.5-12l0.5,0c-4.2,4.8-7.7,8.8-10.4,11.9
						l-0.2,0.2l-0.1-0.2c-1.4-2.3-2.5-4.2-3.3-5.5c-0.3-0.6-0.6-1.1-0.8-1.5c-0.2-0.3-0.3-0.5-0.3-0.5c0,0,0.1,0.1,0.3,0.5
						c0.2,0.4,0.5,0.8,0.9,1.4c0.8,1.3,2,3.1,3.4,5.4l-0.3,0c2.7-3.1,6.2-7.2,10.3-12l0.3-0.3l0.2,0.3c2.6,3.6,5.5,7.6,8.5,11.9
						l-0.6,0c2.8-3.6,5.9-7.4,9-11.3c0.2-0.2,0.4-0.5,0.6-0.7l0.3-0.4l0.3,0.4c3.5,4.2,6.9,8.2,10,12l-0.6,0c3.1-4.3,6-8.3,8.6-11.9
						l0.3-0.3l0.2,0.3c3.4,4.8,6.3,8.9,8.4,12l-0.3,0c1.5-1.8,2.8-3.3,3.6-4.4c0.4-0.5,0.7-0.8,1-1.1
						C441.4,428.6,441.6,428.5,441.6,428.5z"/>
				</g>
			</g>
		</g>
		<g>
			<g>
				<g>
					<path class="st3" d="M443.5,412.9c0,0.2-15.1,0.4-33.6,0.4c-18.6,0-33.6-0.2-33.6-0.4c0-0.2,15.1-0.4,33.6-0.4
						C428.5,412.5,443.5,412.7,443.5,412.9z"/>
				</g>
			</g>
		</g>
		<g>
			<g>
				<g>
					<path class="st3" d="M446.6,463.8c0,0.2-16.4,0.4-36.5,0.4c-20.2,0-36.5-0.2-36.5-0.4c0-0.2,16.4-0.4,36.5-0.4
						C430.2,463.4,446.6,463.6,446.6,463.8z"/>
				</g>
			</g>
		</g>
	</g>
</g>
<g id="Background_Simple" class="st5">
	<path class="st6" d="M445.8,152l-1-1.2c-8.8-10-22.2-14.6-35-11.5c-1.6,0.4-3.3,0.9-4.8,1.6c-11.3,4.6-20,15.3-22.3,27.4
		c-1.3,7.1-0.7,15-4.5,21.2c-5,8-15.4,10.1-24.6,11.4c-9.3,1.3-19.7,3.4-24.6,11.5c-3.1,5-3.2,11.4-1.9,17.2
		c3.5,15.3,16.7,27.2,31.6,31.7c14.9,4.5,31.1,2.2,45.6-3.4c20.2-7.9,38.2-23,47-43.1C460.1,194.6,458.8,169.7,445.8,152z"/>
	<path class="st6" d="M104.2,32.6l0.9,0.6c7.3,5.2,11.4,13.9,10.2,22.7c-0.1,1.1-0.4,2.3-0.7,3.4c-2.3,7.9-8.8,14.5-16.8,16.9
		c-4.7,1.4-10,1.5-13.9,4.5c-5,3.9-5.7,11-5.9,17.4c-0.2,6.3-0.9,13.5-5.9,17.3c-3.2,2.4-7.4,3-11.4,2.5c-10.5-1.3-19.5-9.3-23.5-19
		c-4.1-9.7-3.7-20.7-1-30.8C40,54,48.9,40.9,61.7,33.5C74.6,26.1,91.4,25.2,104.2,32.6z"/>
	<circle class="st6" cx="413" cy="81.3" r="28.9"/>
</g>
<g id="Table">
	<g>
		<path class="st7" d="M457.5,472.3c0,0.1-92.9,0.3-207.5,0.3c-114.6,0-207.5-0.1-207.5-0.3S135.4,472,250,472
			C364.6,472,457.5,472.2,457.5,472.3z"/>
	</g>
</g>
<g id="Character">
	<g>
		<g>
			<path class="st8" d="M336.6,145c0,0,0.1-0.4,0.1-1.3c0-0.9-0.1-2.2-0.8-3.8c-1.3-3.2-4.8-7.1-10.1-11
				c-10.5-7.9-27.7-16.4-49.8-24.3C254,96.6,227,89,196.5,83.4c-15.3-2.7-31.4-4.9-48.3-5.7c-8.4-0.4-17-0.4-25.7,0.5
				c-4.3,0.5-8.7,1.2-12.8,2.5c-2.1,0.7-4.1,1.5-5.9,2.8c-1.8,1.2-3.4,2.9-3.9,5c-0.5,2.1,0.1,4.3,1.2,6.2c1.1,1.9,2.5,3.6,4.1,5.2
				c3.1,3.1,6.7,5.7,10.3,8.1c7.3,4.7,15,8.6,22.7,12.1c15.4,6.9,30.8,12.2,45.7,16.7c29.8,8.8,57.3,14.2,80.6,17.1
				c23.3,2.8,42.5,3,55.4,0.7c6.4-1.1,11.3-3,14-5.3c1.3-1.1,2.1-2.2,2.4-3C336.5,145.4,336.6,145,336.6,145c0,0,0,0.1-0.1,0.3
				c0,0.2-0.2,0.5-0.3,0.9c-0.3,0.8-1.1,2-2.4,3.1c-2.6,2.3-7.5,4.2-14,5.4c-13,2.4-32.2,2.2-55.5-0.5c-23.3-2.8-50.9-8.2-80.7-17
				c-14.9-4.5-30.3-9.8-45.8-16.7c-7.7-3.5-15.4-7.3-22.8-12.1c-3.7-2.4-7.2-5-10.4-8.1c-1.6-1.6-3-3.3-4.1-5.3
				c-1.1-2-1.8-4.3-1.2-6.6c0.6-2.3,2.3-4.1,4.1-5.3c1.9-1.3,4-2.1,6.1-2.8c4.2-1.4,8.6-2.1,13-2.6c8.7-0.9,17.3-0.9,25.8-0.5
				c16.9,0.8,33.1,3,48.4,5.8c30.6,5.5,57.6,13.2,79.6,21.2c22.1,8,39.3,16.6,49.8,24.5c5.2,4,8.7,7.9,10,11.1
				c0.7,1.6,0.8,3,0.8,3.8c0,0.4-0.1,0.8-0.1,1C336.6,144.9,336.6,145,336.6,145z"/>
		</g>
		<g>
			<path class="st8" d="M322.4,75.8c0,0-0.2-0.4-0.6-1.2c-0.2-0.4-0.6-0.8-0.9-1.4c-0.2-0.3-0.5-0.5-0.7-0.8
				c-0.3-0.3-0.5-0.6-0.9-0.8c-1.4-1.1-3.3-2.1-5.6-3c-2.4-0.9-5.3-1.4-8.5-1.9c-13.1-1.6-32.3,0.2-55.2,5.3
				c-11.5,2.6-23.9,6-37,10.3c-13.1,4.3-27,9.5-41.2,15.8c-14.2,6.3-28.8,13.6-43.1,22.7c-7.1,4.6-14.2,9.5-20.6,15.4
				c-3.2,3-6.2,6.1-8.7,9.8c-1.2,1.8-2.2,3.8-2.9,5.9c-0.7,2.1-0.8,4.4,0,6.4c0.7,2.1,2.3,3.7,4.2,4.9c1.9,1.2,3.9,2,6,2.6
				c4.2,1.2,8.6,1.7,13,1.9c8.7,0.4,17.3-0.4,25.7-1.5c16.8-2.3,32.7-6.1,47.6-10.5c14.9-4.4,28.9-9.3,41.7-14.5
				c12.8-5.2,24.5-10.6,34.9-16c20.8-10.9,36.7-21.9,45.6-31.6c2.2-2.4,4-4.7,5.3-6.9c1.3-2.2,2.1-4.2,2.4-5.9
				c0.1-0.4,0.1-0.8,0.2-1.2c0-0.4,0.1-0.7,0.1-1.1c-0.1-0.6,0-1.2-0.2-1.6C322.5,76.3,322.4,75.8,322.4,75.8s0.1,0.4,0.4,1.3
				c0.1,0.4,0.1,1,0.2,1.6c0.1,0.3,0,0.7,0,1.1c0,0.4,0,0.8-0.1,1.2c-0.3,1.7-1.1,3.7-2.4,5.9c-1.2,2.2-3.1,4.5-5.3,7
				c-8.9,9.8-24.7,20.8-45.6,31.7c-10.4,5.5-22.1,10.9-35,16.1c-12.8,5.2-26.8,10.2-41.7,14.6c-14.9,4.4-30.9,8.2-47.6,10.6
				c-8.4,1.1-17,1.9-25.8,1.5c-4.4-0.2-8.8-0.7-13.1-1.9c-2.1-0.6-4.2-1.5-6.2-2.7c-1.9-1.2-3.6-3-4.4-5.2c-0.8-2.2-0.7-4.6,0-6.8
				c0.7-2.2,1.7-4.2,3-6c2.5-3.7,5.6-6.9,8.8-9.9c6.5-5.9,13.5-10.9,20.7-15.5c14.3-9.1,29-16.4,43.2-22.7
				c14.2-6.3,28.1-11.5,41.3-15.8c13.1-4.3,25.6-7.7,37.1-10.3c23-5.1,42.2-6.9,55.3-5.1c3.3,0.4,6.1,1,8.5,1.9
				c2.4,0.9,4.3,1.9,5.6,3c0.3,0.3,0.6,0.6,0.9,0.8c0.3,0.3,0.5,0.5,0.7,0.8c0.4,0.5,0.8,1,0.9,1.4
				C322.2,75.4,322.4,75.8,322.4,75.8z"/>
		</g>
		<g>
			<path class="st7" d="M339,108.4c0,0,0-0.3-0.2-0.7c-0.2-0.4-0.7-1.1-1.6-1.4c-0.9-0.3-2.2,0-3,1.1c-0.9,1-0.9,2.8,0.2,4.2
				c0.5,0.6,1.3,1.2,2.2,1.3c0.9,0.2,1.9,0,2.8-0.4c1.8-0.8,3-3,2.6-5.2c-0.4-2.2-2.2-4.2-4.5-4.7c-2.4-0.5-5.1,0.4-6.8,2.4
				c-0.9,1-1.5,2.1-1.7,3.4c-0.3,1.2-0.2,2.5,0.1,3.7c0.5,2.4,2.1,4.4,4,5.5c2,1.1,4.2,1.4,6.2,1.1c2-0.2,3.8-1.1,5.1-2.1
				c1.3-1.1,2.2-2.4,2.7-3.7c0.5-1.3,0.8-2.4,0.9-3.4c0.2-1.9,0-3,0-3c0,0,0.3,1.1,0.2,3c-0.1,1-0.3,2.2-0.8,3.5
				c-0.5,1.3-1.4,2.7-2.8,3.9c-1.4,1.1-3.2,2-5.3,2.3c-2.1,0.3-4.4,0.1-6.5-1.1c-2.1-1.2-3.7-3.3-4.3-5.8c-0.3-1.2-0.4-2.6-0.1-3.9
				c0.3-1.3,0.9-2.6,1.8-3.6c1.8-2.1,4.7-3.1,7.3-2.5c2.6,0.6,4.5,2.8,4.9,5.2c0.5,2.4-0.9,4.8-2.9,5.7c-1,0.4-2,0.6-3,0.4
				c-1-0.2-1.8-0.8-2.4-1.5c-0.6-0.7-0.8-1.6-0.9-2.4c0-0.8,0.3-1.6,0.7-2.2c0.9-1.1,2.4-1.4,3.3-1.1c1,0.3,1.4,1.1,1.6,1.6
				C339.1,108.1,339,108.4,339,108.4z"/>
		</g>
		<g>
			<path class="st7" d="M211,54.2c0,0,0,0.3,0.1,0.8c0.1,0.5,0.5,1.2,1.4,1.6c0.8,0.4,2.2,0.3,3.2-0.7c1-0.9,1.2-2.7,0.4-4.1
				c-0.4-0.7-1.1-1.3-2-1.6c-0.8-0.3-1.9-0.3-2.8,0c-1.9,0.6-3.4,2.6-3.3,4.8c0.1,2.2,1.6,4.5,3.9,5.3c2.3,0.8,5.1,0.3,7-1.4
				c1-0.8,1.7-1.9,2.2-3.1c0.4-1.2,0.5-2.4,0.4-3.7c-0.2-2.4-1.5-4.7-3.3-6c-1.8-1.4-4-1.9-6-1.9c-2,0-3.9,0.5-5.3,1.4
				c-1.5,0.9-2.5,2.1-3.2,3.3c-0.7,1.2-1.1,2.3-1.3,3.3c-0.4,1.9-0.4,3-0.4,3c0,0-0.1-1.1,0.2-3c0.2-1,0.6-2.1,1.3-3.4
				c0.7-1.2,1.7-2.5,3.3-3.5c1.5-0.9,3.4-1.6,5.5-1.6c2.1,0,4.4,0.5,6.3,2c1.9,1.4,3.2,3.8,3.5,6.3c0.1,1.3,0,2.6-0.4,3.9
				c-0.5,1.3-1.3,2.4-2.3,3.3c-2.1,1.8-5.1,2.4-7.5,1.5c-2.5-0.9-4.1-3.4-4.2-5.8c-0.2-2.4,1.5-4.7,3.6-5.3c1-0.3,2.1-0.3,3.1,0
				c0.9,0.3,1.7,1,2.2,1.8c0.5,0.8,0.6,1.7,0.5,2.5c-0.1,0.8-0.5,1.6-1,2c-1.1,1-2.5,1.1-3.4,0.6c-0.9-0.5-1.3-1.3-1.4-1.8
				C210.9,54.5,211,54.2,211,54.2z"/>
		</g>
		<path class="st8" d="M80.4,121.1l1,1.9c0.4,0.8,1.1,1.4,1.9,1.9l1.9,1l-1.9,1c-0.8,0.4-1.4,1.1-1.9,1.9l-1,1.9l-1-1.9
			c-0.4-0.8-1.1-1.4-1.9-1.9l-1.9-1l1.9-1c0.8-0.4,1.4-1.1,1.9-1.9L80.4,121.1z"/>
		<path class="st8" d="M328.4,168.1l1.2,2.2c0.5,0.9,1.3,1.7,2.2,2.2l2.2,1.2l-2.2,1.2c-0.9,0.5-1.7,1.3-2.2,2.2l-1.2,2.2l-1.2-2.2
			c-0.5-0.9-1.3-1.7-2.2-2.2l-2.2-1.2l2.2-1.2c0.9-0.5,1.7-1.3,2.2-2.2L328.4,168.1z"/>
		<path class="st8" d="M117.2,189.9l1.2,2.2c0.5,0.9,1.3,1.7,2.2,2.2l2.2,1.2l-2.2,1.2c-0.9,0.5-1.7,1.3-2.2,2.2l-1.2,2.2l-1.2-2.2
			c-0.5-0.9-1.3-1.7-2.2-2.2l-2.2-1.2l2.2-1.2c0.9-0.5,1.7-1.3,2.2-2.2L117.2,189.9z"/>
		<path class="st8" d="M339.4,78.2l0.7,1.4c0.3,0.6,0.8,1.1,1.4,1.4l1.4,0.7l-1.4,0.7c-0.6,0.3-1.1,0.8-1.4,1.4l-0.7,1.4l-0.7-1.4
			c-0.3-0.6-0.8-1.1-1.4-1.4l-1.4-0.7l1.4-0.7c0.6-0.3,1.1-0.8,1.4-1.4L339.4,78.2z"/>
		<path class="st8" d="M243.2,35l0.7,1.4c0.3,0.6,0.8,1.1,1.4,1.4l1.4,0.7l-1.4,0.7c-0.6,0.3-1.1,0.8-1.4,1.4l-0.7,1.4l-0.7-1.4
			c-0.3-0.6-0.8-1.1-1.4-1.4l-1.4-0.7l1.4-0.7c0.6-0.3,1.1-0.8,1.4-1.4L243.2,35z"/>
		<path class="st8" d="M168.3,51.8l1.2,2.3c0.5,1,1.3,1.8,2.3,2.3l2.3,1.2l-2.3,1.2c-1,0.5-1.8,1.3-2.3,2.3l-1.2,2.3l-1.2-2.3
			c-0.5-1-1.3-1.8-2.3-2.3l-2.3-1.2l2.3-1.2c1-0.5,1.8-1.3,2.3-2.3L168.3,51.8z"/>
		<g>
			<path class="st7" d="M88.6,189c0,0,0-0.3-0.2-0.7c-0.2-0.4-0.7-1.1-1.6-1.4c-0.9-0.3-2.2,0-3,1.1c-0.9,1-0.9,2.8,0.2,4.2
				c0.5,0.6,1.3,1.2,2.2,1.3c0.9,0.2,1.9,0,2.8-0.4c1.8-0.8,3-3,2.6-5.2c-0.4-2.2-2.2-4.2-4.5-4.7c-2.4-0.5-5.1,0.4-6.8,2.4
				c-0.9,1-1.5,2.1-1.7,3.4c-0.3,1.2-0.2,2.5,0.1,3.7c0.5,2.4,2.1,4.4,4,5.5c2,1.1,4.2,1.4,6.2,1.1c2-0.2,3.8-1.1,5.1-2.1
				c1.3-1.1,2.2-2.4,2.7-3.7c0.5-1.3,0.8-2.4,0.9-3.4c0.2-1.9,0-3,0-3c0,0,0.3,1.1,0.2,3c-0.1,1-0.3,2.2-0.8,3.5
				c-0.5,1.3-1.4,2.7-2.8,3.9c-1.4,1.1-3.2,2-5.3,2.3c-2.1,0.3-4.4,0.1-6.5-1.1c-2.1-1.2-3.7-3.3-4.3-5.8c-0.3-1.2-0.4-2.6-0.1-3.9
				c0.3-1.3,0.9-2.6,1.8-3.6c1.8-2.1,4.7-3.1,7.3-2.5c2.6,0.6,4.5,2.8,4.9,5.2c0.5,2.4-0.9,4.8-2.9,5.7c-1,0.4-2,0.6-3,0.4
				c-1-0.2-1.8-0.8-2.4-1.5c-0.6-0.7-0.8-1.6-0.9-2.4c0-0.8,0.3-1.6,0.7-2.2c0.9-1.1,2.4-1.4,3.3-1.1c1,0.3,1.4,1.1,1.6,1.6
				C88.6,188.7,88.6,189,88.6,189z"/>
		</g>
	</g>
	<g>
		<g>
			<g>
				<g>
					<g>
						<g>
							<g>
								<g>
									<g>
										<g>
											<g>
												<path class="st7" d="M284.6,204.8c1.1-13.5,2.2-27.1,1-40.6c-1.2-13.5-4.8-27-12.3-38.3c-1.1-1.7-10-12.9-12-12.2
													c-1.4,0.5,5,11.3,4.6,12.8c-4.1,13.4-2.6,28,1.7,41.4C271.8,181.1,277.5,192.7,284.6,204.8"/>
											</g>
										</g>
									</g>
								</g>
							</g>
						</g>
					</g>
				</g>
			</g>
			<g>
				<g>
					<path class="st9" d="M209.3,104.5l-3,0.9c-30.4,8.9-48.9,39.6-42.5,70.6c6,28.9,12.9,60.7,17.5,75.7
						c9.5,31.2,40.5,27.1,40.5,27.1c0.1,0,0.3,11.6,0.3,11.6l29.5,33.5l51-35.3l-28.6-134.5C267.4,120.8,242.4,96.9,209.3,104.5z"/>
				</g>
			</g>
			<g>
				<g>
					<g>
						<g>
							<g>
								<g>
									<g>
										<g>
											<g>
												<g>
													<g>
														<path class="st10" d="M221.8,278.8c0,0,21.9-4.8,39-24.1c0,0-1.1,26.8-38.8,32.6L221.8,278.8z"/>
													</g>
												</g>
											</g>
										</g>
									</g>
								</g>
							</g>
						</g>
					</g>
				</g>
			</g>
			<g>
				<g>
					<g>
						<g>
							<g>
								<g>
									<g>
										<g>
											<g>
												<g>
													<g>
														<g>
															<g>
																<g>
																	<g>
																		<g>
																			<g>
																				<g>
																					<path class="st7" d="M174.5,187.9c0.7,0.4,3.4-3.1,8.2-4.5c4.8-1.5,9,0,9.4-0.8c0.2-0.3-0.7-1.2-2.6-1.9
																						c-1.8-0.7-4.7-1-7.7-0.1c-3,0.9-5.2,2.7-6.3,4.3C174.3,186.6,174.1,187.8,174.5,187.9z"/>
																				</g>
																			</g>
																		</g>
																	</g>
																</g>
															</g>
														</g>
													</g>
												</g>
											</g>
										</g>
									</g>
								</g>
							</g>
						</g>
					</g>
				</g>
			</g>
			<g>
				<g>
					<g>
						<g>
							<g>
								<g>
									<g>
										<g>
											<g>
												<g>
													<g>
														<g>
															<g>
																<g>
																	<g>
																		<g>
																			<g>
																				<g>
																					<path class="st7" d="M222,175.3c0.7,0.4,3.4-3.1,8.2-4.5c4.8-1.5,9,0,9.4-0.8c0.2-0.3-0.7-1.2-2.6-1.9
																						c-1.8-0.7-4.7-1-7.7-0.1c-3,0.9-5.2,2.7-6.3,4.3C221.8,173.9,221.6,175.1,222,175.3z"/>
																				</g>
																			</g>
																		</g>
																	</g>
																</g>
															</g>
														</g>
													</g>
												</g>
											</g>
										</g>
									</g>
								</g>
							</g>
						</g>
					</g>
				</g>
			</g>
			<g>
				<g>
					<g>
						<g>
							<g>
								<g>
									<g>
										<g>
											<g>
												<g>
													<g>
														<g>
															<g>
																<g>
																	<g>
																		<g>
																			<g>
																				<path class="st7" d="M215.5,217.3c-0.1-0.3-3.2,0.1-8.2,0.9c-1.3,0.2-2.5,0.3-3-0.4c-0.5-0.8-0.4-2.3-0.2-3.9
																					c0.3-3.3,0.6-6.8,0.9-10.4c1.2-14.8,1.6-26.8,1-26.9c-0.6,0-2,11.9-3.2,26.7c-0.3,3.6-0.5,7.1-0.7,10.4
																					c-0.1,1.5-0.4,3.3,0.8,5c0.6,0.8,1.7,1.2,2.5,1.2c0.9,0,1.6-0.2,2.2-0.3C212.5,218.4,215.6,217.6,215.5,217.3z"
																					/>
																			</g>
																		</g>
																	</g>
																</g>
															</g>
														</g>
													</g>
												</g>
											</g>
										</g>
									</g>
								</g>
							</g>
						</g>
					</g>
				</g>
			</g>
			<g>
				<g>
					<g>
						<g>
							<g>
								<g>
									<g>
										<g>
											<g>
												<g>
													<g>
														<g>
															<g>
																<path class="st7" d="M242,156.9c-0.4-1.4-5.4-1.1-11.2-2.2c-5.8-1-10.4-3.1-11.3-1.9c-0.4,0.6,0.3,1.9,2.2,3.4
																	c1.8,1.5,4.7,2.9,8.2,3.6c3.5,0.6,6.8,0.3,9-0.4C241,158.5,242.2,157.5,242,156.9z"/>
															</g>
														</g>
													</g>
												</g>
											</g>
										</g>
									</g>
								</g>
							</g>
						</g>
					</g>
				</g>
			</g>
			<g>
				<g>
					<g>
						<g>
							<g>
								<g>
									<g>
										<g>
											<g>
												<g>
													<g>
														<g>
															<g>
																<path class="st7" d="M170.1,173.9c1.3,0.8,4.9-1.4,9.6-2.8c4.7-1.5,8.9-1.7,9.5-3.1c0.2-0.7-0.7-1.6-2.7-2.1
																	c-2-0.6-5.1-0.6-8.4,0.4c-3.2,1-5.8,2.8-7.1,4.3C169.7,172.2,169.5,173.4,170.1,173.9z"/>
															</g>
														</g>
													</g>
												</g>
											</g>
										</g>
									</g>
								</g>
							</g>
						</g>
					</g>
				</g>
			</g>
			<g>
				<g>
					<g>
						<g>
							<g>
								<g>
									<g>
										<g>
											<g>
												<path class="st9" d="M278.3,178.1c0.5-0.4,19.7-12.7,25.2,9c5.6,21.6-19.1,24-19.3,23.4
													C284,209.8,278.3,178.1,278.3,178.1z"/>
											</g>
										</g>
									</g>
								</g>
							</g>
						</g>
					</g>
				</g>
			</g>
			<g>
				<g>
					<g>
						<g>
							<g>
								<g>
									<g>
										<g>
											<g>
												<g>
													<path class="st10" d="M290.5,199.3c0.1-0.1,0.4,0.2,1.2,0.3c0.7,0.1,1.8,0,2.8-0.7c2.1-1.4,3.1-5.5,2.2-9.5
														c-0.5-2-1.3-3.7-2.4-5.1c-1.1-1.4-2.4-2.3-3.6-2.2c-1.2,0-1.8,0.9-2,1.6c-0.1,0.7,0.1,1.1,0,1.1c0,0.1-0.6-0.2-0.6-1.2
														c0-0.5,0.1-1,0.5-1.6c0.4-0.6,1.1-1,1.9-1.1c1.7-0.3,3.6,0.8,4.8,2.3c1.3,1.5,2.4,3.5,2.9,5.7c1,4.4-0.2,9-3.1,10.7
														c-1.4,0.8-2.8,0.7-3.6,0.3C290.7,199.8,290.5,199.3,290.5,199.3z"/>
												</g>
											</g>
										</g>
									</g>
								</g>
							</g>
						</g>
					</g>
				</g>
			</g>
			<g>
				<g>
					<g>
						<g>
							<g>
								<g>
									<g>
										<g>
											<g>
												<path class="st7" d="M168.9,136.7c-4-1.1,3.7-15,11.4-21.1c11.5-9.1,30.5-17.7,43.4-17.3c15.5,0.5,29.3,4.7,39.8,16.1
													c10.5,11.3,17.1,26,20.4,41.1c1,4.6,1.7,9.5,0.2,14c-1.8,5.5-6.9,10-5,16.5c0.7,2.4,0.6,5-0.6,7.2
													c-2.9,5.2-8.7,2.4-12-1c-6.9-7.3-9.9-17.3-12.7-26.9c-2-6.8-4-13.8-3.8-20.9c0.2-3.9,1-7.7,1-11.6
													c-0.1-3.9-1.2-8-4.2-10.4c-0.5-0.4-1.3-0.9-2.2-1.3c-7.5-3.9-16.5-3.3-23.5,1.3c-11.1,7.3-30.3,19-36.8,16.2
													c-9.3-4-12.1-7.4-12.1-7.4L168.9,136.7z"/>
											</g>
										</g>
									</g>
								</g>
							</g>
						</g>
					</g>
				</g>
			</g>
			<g>
				<g>
					<g>
						<g>
							<g>
								<g>
									<g>
										<g>
											<g>
												<g>
													<g>
														<path class="st7" d="M225.8,233.5c0.7,0.2,1.9-4.8,7-7.3c5.1-2.5,10.3-0.7,10.5-1.4c0.1-0.3-1-1.2-3.2-1.8
															c-2.2-0.6-5.6-0.7-8.7,0.9c-3.1,1.6-4.9,4.2-5.6,6.2C225.2,232,225.5,233.4,225.8,233.5z"/>
													</g>
												</g>
											</g>
										</g>
									</g>
								</g>
							</g>
						</g>
					</g>
				</g>
			</g>
		</g>
		<g>
			<path class="st7" d="M192,196.6c-0.1,0-0.1-0.4-0.4-0.8c-0.3-0.5-1.2-1-2.2-0.6c-0.5,0.2-1,0.6-1.2,1.2c-0.2,0.6-0.2,1.3,0.2,2
				c0.4,0.6,1,1.2,1.9,1.3c0.8,0.1,1.8-0.1,2.5-0.7c0.7-0.6,1.2-1.5,1.2-2.5c0-1-0.4-2.1-1.2-2.9c-0.8-0.8-1.9-1.2-3.1-1.2
				c-1.2,0.1-2.4,0.5-3.3,1.4c-0.9,0.9-1.5,2.1-1.7,3.4c-0.1,1.3,0.3,2.8,1,3.9c0.8,1.2,1.9,2.1,3.3,2.5c1.4,0.4,2.9,0.4,4.4,0
				c0.7-0.2,1.4-0.6,2-1c0.6-0.4,1.1-0.9,1.5-1.5c0.4-0.6,0.7-1.2,1-1.9c0.2-0.7,0.4-1.4,0.4-2.1c0.1-1.5-0.1-2.9-0.7-4.1
				c-0.6-1.2-1.5-2.3-2.6-3.1c-2.2-1.5-4.9-1.9-7.3-1.4c-2.4,0.4-4.2,1.9-5.5,3.5c-1.2,1.7-1.7,3.6-1.8,5.2
				c-0.1,1.6,0.2,3.1,0.6,4.2c0.2,0.6,0.4,1,0.6,1.5c0.2,0.4,0.4,0.8,0.6,1c0.3,0.5,0.5,0.9,0.4,0.9c0,0-0.3-0.2-0.7-0.7
				c-0.2-0.2-0.5-0.6-0.7-1c-0.2-0.4-0.6-0.9-0.8-1.5c-0.6-1.1-0.9-2.7-0.9-4.5c0-1.8,0.5-3.9,1.8-5.8c0.7-0.9,1.5-1.9,2.5-2.6
				c0.2-0.2,0.5-0.4,0.8-0.5c0.3-0.2,0.6-0.3,0.9-0.5c0.6-0.2,1.2-0.5,1.9-0.6c2.6-0.6,5.7-0.2,8.4,1.5c1.3,0.9,2.4,2.1,3.1,3.6
				c0.7,1.5,1,3.2,0.8,4.9c0,0.8-0.2,1.7-0.5,2.5c-0.3,0.8-0.7,1.6-1.2,2.3c-0.5,0.7-1.2,1.4-1.9,1.9c-0.8,0.5-1.6,0.9-2.4,1.2
				c-1.7,0.5-3.6,0.6-5.3,0c-1.7-0.5-3.2-1.7-4.1-3.2c-0.9-1.5-1.3-3.2-1.2-4.9c0.2-1.7,1-3.3,2.2-4.3c1.2-1.1,2.7-1.7,4.3-1.7
				c1.6-0.1,3.1,0.6,4.1,1.6c1,1,1.5,2.4,1.5,3.8c0,1.4-0.7,2.6-1.7,3.4c-1,0.8-2.2,1.1-3.3,0.8c-1.1-0.2-2-1-2.4-1.9
				c-0.4-0.9-0.5-1.9-0.1-2.7c0.3-0.8,1-1.3,1.7-1.5c0.6-0.2,1.3-0.2,1.8,0.1c0.5,0.2,0.8,0.6,0.9,0.9
				C192.1,196.2,192,196.6,192,196.6z"/>
		</g>
		<g>
			<path class="st7" d="M235.7,185.6c-0.1,0-0.1-0.4-0.4-0.8c-0.3-0.5-1.2-1-2.2-0.6c-0.5,0.2-1,0.6-1.2,1.2c-0.2,0.6-0.2,1.3,0.2,2
				c0.4,0.6,1,1.2,1.9,1.3c0.8,0.1,1.8-0.1,2.5-0.7c0.7-0.6,1.2-1.5,1.2-2.5c0-1-0.4-2.1-1.2-2.9c-0.8-0.8-1.9-1.2-3.1-1.2
				c-1.2,0.1-2.4,0.5-3.3,1.4c-0.9,0.9-1.5,2.1-1.7,3.4c-0.1,1.3,0.3,2.8,1,3.9c0.8,1.2,1.9,2.1,3.3,2.5c1.4,0.4,2.9,0.4,4.4,0
				c0.7-0.2,1.4-0.6,2-1c0.6-0.4,1.1-0.9,1.5-1.5c0.4-0.6,0.7-1.2,1-1.9c0.2-0.7,0.4-1.4,0.4-2.1c0.1-1.5-0.1-2.9-0.7-4.1
				c-0.6-1.2-1.5-2.3-2.6-3.1c-2.2-1.5-4.9-1.9-7.3-1.4c-2.4,0.4-4.2,1.9-5.5,3.5c-1.2,1.7-1.7,3.6-1.8,5.2
				c-0.1,1.6,0.2,3.1,0.6,4.2c0.2,0.6,0.4,1,0.6,1.5c0.2,0.4,0.4,0.8,0.6,1c0.3,0.5,0.5,0.9,0.4,0.9c0,0-0.3-0.2-0.7-0.7
				c-0.2-0.2-0.5-0.6-0.7-1c-0.2-0.4-0.6-0.9-0.8-1.5c-0.6-1.1-0.9-2.7-0.9-4.5c0-1.8,0.5-3.9,1.8-5.8c0.7-0.9,1.5-1.9,2.5-2.6
				c0.2-0.2,0.5-0.4,0.8-0.5c0.3-0.2,0.6-0.3,0.9-0.5c0.6-0.2,1.2-0.5,1.9-0.6c2.6-0.6,5.7-0.2,8.4,1.5c1.3,0.9,2.4,2.1,3.1,3.6
				c0.7,1.5,1,3.2,0.8,4.9c0,0.8-0.2,1.7-0.5,2.5c-0.3,0.8-0.7,1.6-1.2,2.3c-0.5,0.7-1.2,1.4-1.9,1.9c-0.8,0.5-1.6,0.9-2.4,1.2
				c-1.7,0.5-3.6,0.6-5.3,0c-1.7-0.5-3.2-1.7-4.1-3.2c-0.9-1.5-1.3-3.2-1.2-4.9c0.2-1.7,1-3.3,2.2-4.3c1.2-1.1,2.7-1.7,4.3-1.7
				c1.6-0.1,3.1,0.6,4.1,1.6c1,1,1.5,2.4,1.5,3.8c0,1.4-0.7,2.6-1.7,3.4c-1,0.8-2.2,1.1-3.3,0.8c-1.1-0.2-2-1-2.4-1.9
				c-0.4-0.9-0.5-1.9-0.1-2.7c0.3-0.8,1-1.3,1.7-1.5c0.6-0.2,1.3-0.2,1.8,0.1c0.5,0.2,0.8,0.6,0.9,0.9
				C235.8,185.2,235.7,185.6,235.7,185.6z"/>
		</g>
		<g>
			<g>
				<path class="st7" d="M223.3,135.6c0-0.1,0.8,0.1,1.9-0.2c1.1-0.3,2.6-1.2,3.3-2.8c0.7-1.6,0.3-3.3-0.2-4.3
					c-0.5-1-1.2-1.5-1.1-1.6c0,0,0.8,0.3,1.4,1.4c0.7,1,1.2,2.9,0.4,4.7c-0.8,1.8-2.5,2.7-3.7,2.9
					C224.1,136,223.3,135.6,223.3,135.6z"/>
			</g>
			<g>
				<path class="st7" d="M242.3,129.2c0,0-0.4,0.8-1.7,1.5c-1.2,0.7-3.3,1.1-5.3,0.4c-2.1-0.7-3.4-2.3-4.1-3.4
					c-0.7-1.2-0.9-2.1-0.8-2.1c0.1,0,0.4,0.8,1.1,1.9c0.8,1.1,2.1,2.5,4,3.2c1.9,0.7,3.8,0.3,5-0.2
					C241.7,129.8,242.2,129.1,242.3,129.2z"/>
			</g>
			<g>
				<path class="st7" d="M235.7,143.3c-0.1,0-0.3-0.7-1.1-1.7c-0.7-1-2-2.1-3.7-2.7c-1.7-0.6-3.4-0.5-4.6-0.2
					c-1.2,0.3-1.8,0.7-1.9,0.6c0,0,0.6-0.6,1.8-1c1.2-0.4,3-0.6,4.9,0.1c1.9,0.7,3.2,2,3.8,3C235.7,142.5,235.8,143.3,235.7,143.3z"
					/>
			</g>
			<g>
				<path class="st7" d="M238.3,141.9c0,0-0.6-0.4-1-1.5c-0.4-1.1-0.6-2.8,0.3-4.4c0.9-1.6,2.4-2.4,3.5-2.6c1.1-0.2,1.8,0,1.8,0
					c0,0.1-0.7,0-1.7,0.3c-1,0.3-2.4,1.1-3.2,2.5c-0.8,1.4-0.7,3-0.4,4C237.9,141.3,238.3,141.8,238.3,141.9z"/>
			</g>
		</g>
	</g>
	<g>
		<g>
			<path class="st9" d="M118.5,233.8c0,0,25.4-51.5,27.1-53.6c1.7-2.1,11-23.6,11-23.6l12.9-15.5c0,0,6.1,0.9,2.2,8.8l-5.5,10.5
				l20.2-20.2c0,0,6,0.7,3.6,7c-1.7,4.7-7.9,12-7.9,12l18.1-15.7c0,0,7.5,1.2,3.9,9.1c-2.3,5.1-23.4,28.5-23.4,28.5
				s10.5-6.5,13.9-8.7c3.3-2.2,6.8-6.9,9.2-6.4c2.5,0.4,6.7,4.2,0.3,11.5c-6.4,7.3-24.4,18.8-27,20.3c-2.6,1.4-2.6,1.4-2.6,1.4
				s-3.1,8.1-7.5,12c0,0-7.2,22.9-10.9,29.2c-3.9,6.8-10.4,10.5-10.4,10.5l-11.1,30l-31.7-21.9L118.5,233.8z"/>
			<g>
				<path class="st10" d="M118.5,233.8c0,0-0.3,0.6-1,1.7c-0.7,1.1-1.7,2.7-3,4.9c-2.6,4.3-6.5,10.5-11.5,18.6l0-0.2
					c8.5,5.9,19.3,13.3,31.8,21.9l-0.3,0.1c3.3-9,7.1-19.1,11.1-30c0,0,0-0.1,0.1-0.1l0,0c2.9-1.8,5.7-4.2,8-7c1.1-1.4,2.2-3,3-4.6
					c0.8-1.7,1.6-3.4,2.3-5.2c2.8-7.2,5.4-14.8,7.9-22.7c0,0,0-0.1,0.1-0.1c1.6-1.5,3-3.4,4.2-5.4c1.2-2,2.3-4.2,3.2-6.5
					c0-0.1,0.1-0.1,0.1-0.1c1.3-0.7,2.7-1.4,4-2.3c1.3-0.8,2.6-1.6,3.9-2.5c2.6-1.7,5.2-3.5,7.8-5.3c2.6-1.9,5.1-3.8,7.7-5.8
					c2.5-2.1,5-4.2,7-6.7c1-1.3,1.9-2.7,2.3-4.2c0.4-1.5,0.2-3.3-0.9-4.5c-0.5-0.6-1.2-1.1-2-1.3c-0.7-0.3-1.5-0.1-2.2,0.4
					c-1.4,0.8-2.6,2-3.9,3.2c-1.2,1.1-2.6,2.3-4,3.2c-1.4,0.9-2.9,1.8-4.4,2.7c-2.9,1.8-5.9,3.7-8.8,5.5c-0.1,0.1-0.3,0-0.4-0.1
					c-0.1-0.1,0-0.2,0-0.3c1.5-1.7,3.2-3.6,4.9-5.5c4.7-5.3,9.3-10.6,13.6-15.9c1.1-1.3,2.1-2.7,3.1-4.1c1-1.4,1.9-2.8,2.4-4.4
					c0.5-1.6,0.6-3.3-0.3-4.7c-0.9-1.4-2.4-2.2-4-2.5l0.2-0.1c-6.2,5.3-12.2,10.6-18.1,15.7c-0.1,0.1-0.3,0.1-0.4,0
					c-0.1-0.1-0.1-0.2,0-0.3c2.6-3.1,5-6.4,6.9-9.8c0.4-0.9,0.9-1.8,1.1-2.7c0.3-0.9,0.4-1.9,0.3-2.8c-0.1-0.9-0.6-1.7-1.4-2.3
					c-0.7-0.6-1.6-0.9-2.5-1.1l0.2-0.1c-7,7-13.7,13.8-20.2,20.2c-0.1,0.1-0.2,0.1-0.3,0c-0.1-0.1-0.1-0.2,0-0.3
					c1.8-3.5,3.6-6.9,5.4-10.2c0.4-0.8,0.8-1.7,1-2.6c0.2-0.4,0.2-0.9,0.3-1.3c0-0.4,0.1-0.9,0-1.3c-0.1-0.9-0.4-1.7-1-2.3
					c-0.6-0.6-1.4-1-2.2-1.2l0.2-0.1c-4.5,5.4-8.8,10.6-12.9,15.5l0,0c-2.6,6.1-5.2,11.9-7.7,17.3c-0.6,1.4-1.3,2.7-1.9,4
					c-0.3,0.6-0.7,1.3-1.1,1.9c-0.4,0.6-0.8,1.2-1.1,1.8c-1.4,2.5-2.6,4.9-3.8,7.2c-4.8,9.4-8.9,17.5-12.2,24.2
					c-3.3,6.7-5.9,11.8-7.7,15.4c-0.9,1.8-1.6,3.1-2,4C118.7,233.4,118.5,233.8,118.5,233.8s0.2-0.5,0.6-1.4c0.4-0.9,1.1-2.3,2-4
					c1.7-3.5,4.3-8.7,7.6-15.4c3.3-6.7,7.4-14.8,12.2-24.2c1.2-2.3,2.4-4.8,3.8-7.3c0.3-0.6,0.8-1.3,1.1-1.8c0.4-0.6,0.7-1.2,1-1.9
					c0.7-1.3,1.3-2.6,1.9-4c2.5-5.4,5.1-11.2,7.7-17.3c0,0,0,0,0,0c4.1-4.9,8.4-10,12.9-15.5l0,0c0-0.1,0.1-0.1,0.2-0.1
					c0.9,0.2,1.8,0.6,2.5,1.3c0.7,0.7,1.1,1.6,1.2,2.6c0.1,0.5,0,1,0,1.4c-0.1,0.5-0.1,0.9-0.3,1.4c-0.3,0.9-0.7,1.8-1.1,2.6
					c-1.7,3.3-3.5,6.7-5.4,10.2l-0.4-0.3c6.5-6.5,13.2-13.2,20.2-20.3l0,0c0.1-0.1,0.1-0.1,0.2-0.1c1,0.2,2,0.5,2.8,1.2
					c0.8,0.6,1.4,1.6,1.5,2.6c0.2,1,0,2.1-0.3,3c-0.3,1-0.7,1.9-1.2,2.8c-1.9,3.5-4.3,6.7-6.9,9.9L182,159
					c5.9-5.1,11.9-10.4,18.1-15.7l0,0c0.1,0,0.1-0.1,0.2-0.1c0.9,0.2,1.7,0.5,2.4,0.9c0.7,0.4,1.5,1,1.9,1.8c1,1.5,0.9,3.5,0.4,5.1
					c-0.3,0.8-0.6,1.6-1.1,2.4c-0.4,0.8-0.9,1.5-1.4,2.2c-1,1.4-2.1,2.8-3.1,4.1c-4.3,5.4-8.9,10.7-13.6,16
					c-1.7,1.9-3.3,3.7-4.9,5.5l-0.3-0.4c2.9-1.8,5.9-3.7,8.8-5.5c2.9-1.9,5.9-3.4,8.3-5.9c1.3-1.1,2.5-2.3,4-3.2
					c0.4-0.2,0.8-0.4,1.2-0.5c0.4-0.1,1,0,1.4,0.1c0.8,0.3,1.6,0.8,2.2,1.4c1.2,1.3,1.5,3.3,1,4.9c-0.4,1.7-1.4,3.1-2.4,4.4
					c-2.1,2.6-4.6,4.7-7.1,6.8c-2.5,2.1-5.1,4-7.7,5.8c-2.6,1.9-5.2,3.6-7.8,5.3c-1.3,0.9-2.6,1.7-3.9,2.5c-1.3,0.8-2.7,1.5-4,2.3
					l0.1-0.1c-0.9,2.3-2,4.5-3.3,6.6c-1.2,2.1-2.6,4-4.3,5.5l0.1-0.1c-2.5,7.9-5.1,15.5-7.9,22.7c-0.7,1.8-1.5,3.6-2.3,5.3
					c-0.8,1.7-1.9,3.3-3.1,4.7c-2.4,2.9-5.1,5.3-8.1,7.1l0.1-0.1c-4,10.9-7.8,21-11.1,30c0,0.1-0.1,0.1-0.2,0.1c0,0,0,0,0,0
					c-12.5-8.6-23.2-16.1-31.7-22c-0.1,0-0.1-0.1,0-0.2c5-8,8.9-14.3,11.6-18.5c1.3-2.1,2.3-3.7,3-4.8
					C118.1,234.4,118.5,233.8,118.5,233.8z"/>
			</g>
		</g>
		<g>
			<path class="st10" d="M185.1,155.9c0,0-0.4,0.5-1.1,1.4c-0.7,0.9-1.8,2.1-3.2,3.7c-2.8,3.1-6.7,7.2-11.3,11.5
				c-3.6,3.4-7.2,6.4-10.2,8.6l0,0l0,0c-2.7,0.8-4.8,2-6.1,2.9c-1.3,0.9-2,1.6-2.1,1.5c0,0,0.1-0.2,0.5-0.5c0.3-0.3,0.8-0.7,1.5-1.2
				c1.3-1,3.4-2.3,6.2-3.1l-0.1,0c2.9-2.3,6.4-5.3,10.1-8.7c4.6-4.3,8.5-8.4,11.3-11.4c1.4-1.5,2.5-2.7,3.3-3.6
				C184.7,156.4,185.1,155.9,185.1,155.9z"/>
		</g>
		<g>
			<path class="st10" d="M167.3,159.2c0.1,0-0.7,1-1.9,2.4c-1.2,1.4-3,3.3-5,5.4c-1.9,2-3.7,3.8-5.1,5.3c-1.3,1.3-2.1,2.2-2.2,2.1
				c-0.1,0,0.7-1,1.9-2.4c1.2-1.4,3-3.3,5-5.4c1.9-2,3.7-3.8,5.1-5.3C166.4,160,167.2,159.1,167.3,159.2z"/>
		</g>
		<g>
			<path class="st9" d="M159.5,191.3c7.7-2.5,15-6.1,21.7-10.6"/>
			<g>
				<path class="st10" d="M181.3,180.7c0,0-0.2,0.2-0.7,0.6c-0.5,0.4-1.2,0.9-2.2,1.5c-1.8,1.2-4.5,2.7-7.5,4.2
					c-3,1.5-5.8,2.6-7.9,3.3c-1,0.4-1.9,0.6-2.5,0.8c-0.6,0.2-0.9,0.2-0.9,0.2c0-0.1,1.2-0.5,3.3-1.4c2-0.8,4.8-2,7.8-3.4
					c3-1.5,5.6-2.9,7.5-4C180.1,181.4,181.2,180.7,181.3,180.7z"/>
			</g>
		</g>
	</g>
	<g>
		<path class="st8" d="M115.2,237.7c-1.1,1.5-34,51-34,51s-31.1,48.4-35.6,62c-6.6,19.9-8.1,54.4,13.3,63.6
			c21.4,9.2,28.8,9.5,54.7-0.4s44.7-25.6,44.7-25.6l-5.1-90.1L132.4,309l18-48.2L115.2,237.7z"/>
		<path class="st8" d="M391.6,314.5c0,0,16.7,13.4,22.8,58.9c3.8,28.8,14.7,98.9,14.7,98.9l-63.2,0c0,0-12.7-90.2-11.4-91.6
			C355.7,379.3,391.6,314.5,391.6,314.5z"/>
		<path class="st8" d="M153.2,298.3l68.4-14.3c0,0,5.3,28.3,41.1,22.2c36.8-6.3,37.2-31.6,37.2-31.6s61.4,21.1,73.2,26.4
			c11.9,5.3,18.4,13.5,18.4,13.5s-21.8,84.6-22.5,85.7c-0.7,1.1-1.4,72.6-3.1,72.3c-1.7-0.4-203.5-1.1-203.5-1.1l-6.1-84.8l-21-72.9
			L153.2,298.3z"/>
		<g>
			<path class="st7" d="M141.7,285c0,0-0.1,0.3-0.3,0.8c-0.2,0.6-0.5,1.4-0.9,2.4c-0.8,2.1-1.9,5-3.3,8.7c-2.7,7.4-6.2,17.6-9.9,29
				c-1.8,5.7-3.8,11.1-4.9,16.1c-0.6,2.5-1.2,4.9-1.8,7.2c-0.6,2.2-1.3,4.3-2.1,6.1c-0.7,1.8-1.3,3.5-1.8,5
				c-0.5,1.5-1.1,2.7-1.5,3.7c-0.5,1-0.9,1.8-1.1,2.3c-0.3,0.5-0.4,0.8-0.4,0.8c0,0,0.1-0.3,0.3-0.8c0.3-0.6,0.6-1.3,1-2.3
				c0.4-1,1-2.2,1.4-3.7c0.5-1.5,1-3.2,1.7-5c1.5-3.6,2.6-8.2,3.7-13.2c1.1-5.1,3.1-10.5,4.9-16.2c3.7-11.4,7.3-21.6,10.1-29
				c1.4-3.7,2.6-6.6,3.4-8.6c0.4-1,0.8-1.8,1-2.3C141.5,285.3,141.7,285,141.7,285z"/>
		</g>
		<g>
			<path class="st7" d="M158.9,421.4c0,0,0-0.2-0.1-0.6c0-0.4-0.1-1-0.2-1.7c-0.1-1.5-0.3-3.7-0.5-6.4c-0.4-5.6-1-13.3-1.6-22.5l0,0
				c-1.3-5.7-2.7-11.9-4.5-18.3c-3.6-13.4-7.8-25.2-11.8-33.4c-1.9-4.1-3.9-7.2-5.3-9.3c-0.7-1-1.4-1.8-1.7-2.3
				c-0.2-0.2-0.3-0.5-0.4-0.6c-0.1-0.1-0.1-0.2-0.1-0.2c0,0,0.1,0.1,0.2,0.2c0.1,0.2,0.3,0.3,0.5,0.6c0.4,0.5,1.1,1.3,1.8,2.3
				c1.4,2.1,3.5,5.2,5.5,9.2c4.1,8.1,8.4,20,12,33.4c1.7,6.5,3.2,12.7,4.4,18.4l0,0l0,0c0.6,9.1,1.1,16.9,1.4,22.5
				c0.2,2.7,0.3,4.9,0.4,6.4c0,0.7,0.1,1.3,0.1,1.7C158.9,421.2,158.9,421.4,158.9,421.4z"/>
		</g>
		<g>
			<path class="st7" d="M365.8,472.3c0,0,0-0.1,0-0.3c0-0.2,0-0.6,0-1c0-0.9,0-2.1,0-3.7c0-3.3,0-7.9,0.1-13.7
				c0.1-11.6,0.2-27.6,0.4-45.2l0,0l0,0c0-0.1,0-0.2,0-0.3c2.4-17.6,4.5-33.5,6.1-45c0.8-5.7,1.4-10.4,1.9-13.6
				c0.2-1.6,0.4-2.8,0.5-3.7c0.1-0.4,0.1-0.7,0.2-1c0-0.2,0.1-0.3,0.1-0.3c0,0,0,0.1,0,0.3c0,0.2-0.1,0.6-0.1,1
				c-0.1,0.9-0.3,2.1-0.4,3.7c-0.4,3.3-1,7.9-1.7,13.7c-1.5,11.5-3.6,27.5-5.9,45c0,0.1,0,0.2,0,0.3l0,0
				c-0.2,17.7-0.4,33.6-0.5,45.2c-0.1,5.8-0.2,10.4-0.2,13.7c0,1.6-0.1,2.8-0.1,3.7c0,0.4,0,0.7,0,1
				C365.8,472.2,365.8,472.3,365.8,472.3z"/>
		</g>
		<g>
			<path class="st7" d="M220.1,305.6c-0.1,0,0.6-2.6,2.7-5.2c2.1-2.5,4.5-3.8,4.5-3.7c0.1,0.1-2.1,1.6-4.1,4
				C221.2,303.2,220.3,305.6,220.1,305.6z"/>
		</g>
		<g>
			<path class="st7" d="M230.4,312.1c-0.1,0-0.2-2.5,1-5.2c1.3-2.7,3.2-4.3,3.3-4.2c0.1,0.1-1.6,1.8-2.8,4.4
				C230.7,309.7,230.6,312.1,230.4,312.1z"/>
		</g>
		<g>
			<path class="st7" d="M243.9,317.8c-0.1,0-0.3-2.6-0.3-5.7c0-3.2,0.1-5.7,0.3-5.7s0.3,2.6,0.3,5.7
				C244.2,315.2,244.1,317.8,243.9,317.8z"/>
		</g>
		<g>
			<path class="st7" d="M260.4,317.2c-0.1,0.1-1.5-2-2.5-4.9c-0.9-2.9-1-5.4-0.9-5.4c0.2,0,0.4,2.4,1.4,5.2
				C259.3,315,260.5,317.1,260.4,317.2z"/>
		</g>
		<g>
			<path class="st7" d="M276.8,315.1c-0.1,0.1-1.4-2.4-2.8-5.6c-1.4-3.1-2.4-5.7-2.3-5.8c0.1-0.1,1.4,2.4,2.8,5.6
				C275.9,312.4,277,315,276.8,315.1z"/>
		</g>
		<g>
			<path class="st7" d="M292.9,307.9c-0.1,0.1-1.6-2.3-3.9-4.9c-2.2-2.7-4.3-4.6-4.2-4.7c0.1-0.1,2.3,1.7,4.6,4.3
				C291.7,305.4,293,307.9,292.9,307.9z"/>
		</g>
		<g>
			<path class="st7" d="M305,298.1c-0.1,0.1-2.2-2.2-5.3-4.3c-3.1-2.2-5.9-3.4-5.9-3.6c0-0.1,0.8,0.2,1.9,0.7
				c1.1,0.5,2.7,1.3,4.3,2.4c1.6,1.1,2.9,2.3,3.7,3.2C304.5,297.5,305,298.1,305,298.1z"/>
		</g>
		<g>
			<path class="st7" d="M311.7,285.9c-0.1,0.1-2.5-2.2-6.3-3.6c-3.8-1.4-7.1-1-7.1-1.2c0-0.1,0.8-0.2,2.2-0.2c1.3,0,3.2,0.2,5.2,0.9
				c1.9,0.7,3.5,1.7,4.6,2.5C311.2,285.3,311.7,285.9,311.7,285.9z"/>
		</g>
		<g>
			<path class="st7" d="M212.2,295.4c-0.1-0.1,2-1.9,5.1-3.4c3.1-1.5,5.9-1.9,5.9-1.8c0,0.2-2.6,0.8-5.7,2.2
				C214.5,293.9,212.3,295.5,212.2,295.4z"/>
		</g>
		<g>
			<path class="st7" d="M202.1,457.7c0,0,0.1-0.1,0.3-0.2c0.2-0.1,0.5-0.2,0.8-0.4c0.8-0.4,1.9-0.9,3.3-1.6c2.9-1.4,7-3.3,12.1-5.8
				c10.2-4.9,24.2-11.7,39.6-19.5c15.4-7.8,29.2-15.1,39.1-20.4c4.9-2.7,9-4.8,11.8-6.3c1.4-0.7,2.4-1.3,3.2-1.7
				c0.3-0.2,0.6-0.3,0.8-0.4c0.2-0.1,0.3-0.1,0.3-0.1c0,0-0.1,0.1-0.3,0.2c-0.2,0.1-0.5,0.3-0.8,0.5c-0.8,0.4-1.8,1-3.2,1.8
				c-2.7,1.6-6.7,3.8-11.7,6.5c-9.9,5.4-23.7,12.8-39.1,20.6c-15.4,7.8-29.4,14.6-39.7,19.4c-5.1,2.4-9.3,4.3-12.1,5.6
				c-1.4,0.6-2.5,1.1-3.3,1.5c-0.4,0.2-0.6,0.3-0.9,0.4C202.2,457.7,202.1,457.7,202.1,457.7z"/>
		</g>
	</g>
</g>
</svg>
