<?xml version="1.0" encoding="utf-8"?>
<!-- Generator: Adobe Illustrator 26.5.0, SVG Export Plug-In . SVG Version: 6.00 Build 0)  -->
<svg version="1.1" xmlns="http://www.w3.org/2000/svg" xmlns:xlink="http://www.w3.org/1999/xlink" x="0px" y="0px"
	 viewBox="0 0 500 500" style="enable-background:new 0 0 500 500;" xml:space="preserve">
<style type="text/css">
	.st0{fill:#E0E0E0;}
	.st1{fill:#F5F5F5;}
	.st2{fill:#EBEBEB;}
	.st3{fill:#FFFFFF;}
	.st4{display:none;}
	.st5{display:inline;fill:#F5F5F5;}
	.st6{fill:#263238;}
	.st7{fill:#FF725E;}
	.st8{fill:#455A64;}
	.st9{fill:#AE7461;}
	.st10{fill:#6F4439;}
	.st11{opacity:0.2;}
	.st12{opacity:0.4;}
	.st13{opacity:0.3;}
</style>
<g id="Background_Complete">
	<g>
		<g>
			<rect x="176.9" y="35.5" class="st0" width="9.5" height="204.9"/>
		</g>
		<g>
			<path class="st1" d="M38.7,37.2v203.3c0,0.1,0.1,0.1,0.1,0.1h136.5c0.1,0,0.1-0.1,0.1-0.1V37.2c0-0.1-0.1-0.1-0.1-0.1H38.8
				C38.7,37.1,38.7,37.2,38.7,37.2z"/>
		</g>
		<g>
			<g>
				<path class="st2" d="M176.9,242.3H37.2c-0.1,0-0.1-0.1-0.1-0.1V35.7c0-0.1,0.1-0.1,0.1-0.1h139.7c0.1,0,0.1,0.1,0.1,0.1v206.5
					C177,242.2,177,242.3,176.9,242.3z M40.4,239.1h133.3c0.1,0,0.1-0.1,0.1-0.1V38.8c0-0.1-0.1-0.1-0.1-0.1H40.4
					c-0.1,0-0.1,0.1-0.1,0.1V239C40.2,239.1,40.3,239.1,40.4,239.1z"/>
			</g>
		</g>
		<g>
			<path class="st3" d="M52.4,49.8v178.1c0,0.1,0.1,0.1,0.1,0.1h109.2c0.1,0,0.1-0.1,0.1-0.1V49.8c0-0.1-0.1-0.1-0.1-0.1H52.6
				C52.5,49.7,52.4,49.7,52.4,49.8z"/>
		</g>
		<g>
			<path class="st2" d="M137.7,172.3H76.4c0,0-0.1,0-0.1-0.1v-71.9c0,0,0-0.1,0.1-0.1h61.3c0,0,0.1,0,0.1,0.1L137.7,172.3
				C137.8,172.3,137.8,172.3,137.7,172.3z"/>
		</g>
		<g>
			<g>
				<path class="st0" d="M132.9,163.5c0.1,0.2-3,1.6-8.7,0.9c-2.8-0.4-6.4-1.4-9.8-3.9c-3.4-2.5-6.5-6.6-7.6-12
					c-1.1-5.4,0.7-12.1,5.8-16.4c1.3-1.1,2.8-2,4.4-2.6c1.8-0.7,3.6-0.9,5.5-0.6c1.9,0.2,3.9,0.9,5.5,2.4c1.7,1.5,2.6,4.1,2.2,6.4
					c-0.4,2.3-1.7,4.1-3,5.5c-1.4,1.4-3,2.5-4.6,3.4c-3.3,1.8-7.1,3-11,3.2c-3.9,0.2-8.1-0.6-11.8-2.7c-3.6-2-6.7-5.1-8.7-9
					c-2-3.8-2.6-8.4-1.6-12.6c1-4.1,3.3-7.8,6.6-10.4c1.7-1.3,3.5-2.2,5.6-2.8c2.1-0.5,4.2-0.6,6.3-0.2c2.1,0.4,4.2,1.4,5.7,3.2
					c1.5,1.7,2.2,4,2.2,6.1c0,2.1-0.5,4.1-1.5,5.8c-0.9,1.7-2.2,3.1-3.5,4.2c-2.7,2.3-5.6,3.7-8.7,4.6c-3.1,0.9-6.2,1.1-9.2,0.7
					c-2.9-0.4-5.7-1.5-8-3.1c-4.5-3.1-7.1-7.7-7.6-12.1c-0.5-4.4,1.1-8,2.8-10.3c1.8-2.4,3.8-3.6,5.2-4.2c1.4-0.5,2.3-0.5,2.3-0.4
					c0.1,0.2-0.7,0.5-1.8,1.3c-1.1,0.8-2.8,2.1-4.1,4.4c-1.3,2.2-2.3,5.4-1.7,8.8c0.6,3.5,3,7.2,6.8,9.5c3.7,2.4,8.9,3,14,1.3
					c2.5-0.8,5-2.1,7-4c2-1.8,3.4-4.1,3.3-6.5c-0.1-2.4-1.6-4.1-4.2-4.6c-1.3-0.2-2.7-0.2-4,0.2c-1.3,0.4-2.6,1.1-3.8,2
					c-2.3,1.8-4.1,4.6-4.8,7.6c-0.7,3-0.3,6.2,1.2,9.1c1.4,2.9,3.9,5.3,6.6,6.9c2.7,1.6,6,2.2,9.1,2.1c3.2-0.1,6.2-1,8.9-2.4
					c1.4-0.7,2.6-1.6,3.6-2.5c1-1,1.6-2,1.8-3c0.2-0.9-0.1-1.7-0.7-2.4c-0.7-0.7-1.8-1.1-3-1.3c-1.2-0.2-2.4-0.1-3.5,0.3
					c-1.2,0.4-2.3,1-3.2,1.8c-2,1.5-3.4,3.6-4.2,5.8c-0.8,2.2-1,4.5-0.7,6.7c0.7,4.4,3.1,8,5.9,10.4c2.8,2.4,5.9,3.6,8.4,4.2
					C129.8,163.6,132.9,163,132.9,163.5z"/>
			</g>
		</g>
	</g>
	<g>
		<path class="st0" d="M363,228.9c0.1,0.1-10,22.3-22.6,49.7c-12.6,27.4-23,49.6-23.1,49.5c-0.1-0.1,10-22.3,22.6-49.7
			C352.5,251,362.9,228.8,363,228.9z"/>
	</g>
	<g>
		<circle class="st1" cx="381.6" cy="146.3" r="100.6"/>
		<g>
			<path class="st0" d="M482.3,146.3c0,0,0-0.6-0.1-1.6c0-0.5,0-1.2-0.1-2c0-0.8,0-1.7-0.1-2.8c-0.3-4.2-0.9-10.4-2.9-18.2
				c-1-3.9-2.3-8.1-4.1-12.6c-1.8-4.5-4.1-9.3-7-14.2c-5.8-9.7-14.2-19.9-25.5-28.6c-5.7-4.3-12.1-8.2-19.2-11.5
				c-7.1-3.2-14.8-5.8-23.1-7.3c-8.2-1.5-17-2.1-25.9-1.4c-4.5,0.3-9,1-13.5,1.9c-4.5,1-9,2.3-13.4,3.8c-17.7,6.4-34.5,18.4-46.7,35
				c-3.1,4.1-5.8,8.6-8.2,13.2c-0.6,1.2-1.2,2.3-1.7,3.5c-0.5,1.2-1.1,2.4-1.6,3.6c-1,2.4-2,4.9-2.8,7.4c-1.6,5-3,10.2-3.8,15.5
				c-0.8,5.3-1.3,10.7-1.3,16.2c0,5.4,0.5,10.9,1.3,16.2c0.8,5.3,2.2,10.5,3.8,15.5c0.8,2.5,1.8,5,2.8,7.4c1.1,2.4,2.1,4.8,3.4,7.1
				c2.4,4.6,5.1,9.1,8.2,13.2c12.1,16.6,29,28.6,46.7,35c4.4,1.6,8.9,2.9,13.4,3.8c4.5,0.9,9,1.6,13.5,1.9
				c8.9,0.7,17.6,0.1,25.9-1.4c8.3-1.5,16-4.1,23.1-7.3c7.1-3.2,13.5-7.1,19.2-11.5c11.4-8.7,19.7-18.8,25.5-28.6
				c2.9-4.9,5.2-9.7,7-14.2c1.9-4.5,3.1-8.8,4.1-12.6c1.9-7.8,2.6-14,2.9-18.2c0.1-1,0.1-2,0.1-2.8c0-0.8,0-1.5,0.1-2
				C482.3,146.8,482.3,146.3,482.3,146.3s0,0.6,0,1.6c0,0.5,0,1.2,0,2c0,0.8,0,1.7-0.1,2.8c-0.2,4.2-0.9,10.4-2.8,18.2
				c-1,3.9-2.2,8.2-4.1,12.7c-1.8,4.5-4,9.3-7,14.2c-5.8,9.8-14.2,20-25.6,28.7c-5.7,4.4-12.1,8.3-19.2,11.5
				c-7.1,3.2-14.9,5.8-23.2,7.4c-8.3,1.5-17.1,2.2-26,1.5c-4.5-0.3-9-1-13.5-1.9c-4.5-1-9-2.3-13.5-3.8
				c-17.8-6.4-34.7-18.5-46.9-35.2c-3.1-4.1-5.8-8.6-8.2-13.2c-1.2-2.3-2.3-4.7-3.4-7.1c-1-2.5-2-4.9-2.8-7.5
				c-1.7-5.1-3-10.3-3.8-15.6c-0.8-5.3-1.3-10.8-1.3-16.2c0-5.5,0.5-10.9,1.3-16.2c0.8-5.3,2.2-10.6,3.8-15.6c0.8-2.5,1.8-5,2.8-7.5
				c0.5-1.2,1.1-2.4,1.6-3.6c0.5-1.2,1.2-2.4,1.8-3.5c2.4-4.6,5.1-9.1,8.2-13.2c12.2-16.7,29.1-28.7,46.9-35.2
				c4.5-1.6,9-2.9,13.5-3.8c4.5-0.9,9-1.6,13.5-1.9c9-0.7,17.7-0.1,26,1.5c8.3,1.5,16.1,4.1,23.2,7.4c7.1,3.2,13.6,7.2,19.3,11.5
				c11.4,8.7,19.8,18.9,25.6,28.7c2.9,4.9,5.2,9.7,7,14.2c1.8,4.5,3.1,8.8,4.1,12.7c1.9,7.8,2.6,14,2.8,18.2c0.1,1,0.1,2,0.1,2.8
				c0,0.8,0,1.5,0,2C482.3,145.7,482.3,146.3,482.3,146.3z"/>
		</g>
	</g>
	<path class="st0" d="M322.8,326.4c0.2,3-2.1,5.7-5.1,5.9c-3,0.2-5.7-2.1-5.9-5.1c-0.2-3,2.1-5.7,5.1-5.9
		C319.9,321.1,322.5,323.4,322.8,326.4z"/>
	<g>
		<g>
			<g>
				<g>
					<g>
						<g>
							<path class="st1" d="M327.6,356c0,0.7,0,36.5,0,36.5h-8.1v5h8.1v25h152.3v-22.8h-11.3v-5h11.3v-7.4h5v-3.4h-6V356H327.6z"/>
						</g>
					</g>
				</g>
			</g>
			<g>
				<g>
					<g>
						<g>
							<polygon class="st2" points="439.4,356.2 439.4,422.1 479.9,422.1 479.9,399.3 468.6,399.3 468.6,394.8 479.9,394.9 
								479.9,387.5 485,387.5 484.9,383.6 478.9,383.5 478.9,356 							"/>
						</g>
					</g>
				</g>
			</g>
			<g>
				<g>
					<g>
						<g>
							<g>
								<path class="st0" d="M442.8,397.7c0,0.3-27.6,0.6-61.5,0.6c-34,0-61.6-0.3-61.6-0.6c0-0.3,27.6-0.6,61.6-0.6
									C415.2,397.2,442.8,397.4,442.8,397.7z"/>
							</g>
						</g>
					</g>
				</g>
			</g>
			<g>
				<g>
					<g>
						<g>
							<g>
								<path class="st0" d="M442.8,392.5c0,0.3-27.6,0.6-61.5,0.6c-34,0-61.6-0.3-61.6-0.6c0-0.3,27.6-0.6,61.6-0.6
									C415.2,391.9,442.8,392.2,442.8,392.5z"/>
							</g>
						</g>
					</g>
				</g>
			</g>
			<g>
				<g>
					<g>
						<g>
							<g>
								<path class="st0" d="M450.2,368c0,0.3-27.6,0.6-61.5,0.6c-34,0-61.6-0.3-61.6-0.6c0-0.3,27.6-0.6,61.6-0.6
									C422.7,367.4,450.2,367.7,450.2,368z"/>
							</g>
						</g>
					</g>
				</g>
			</g>
			<g>
				<g>
					<g>
						<g>
							<g>
								<path class="st0" d="M451,406.3c0,0.3-27.6,0.6-61.5,0.6c-34,0-61.6-0.3-61.6-0.6c0-0.3,27.6-0.6,61.6-0.6
									C423.4,405.8,451,406,451,406.3z"/>
							</g>
						</g>
					</g>
				</g>
			</g>
		</g>
	</g>
</g>
<g id="Background_Simple" class="st4">
	<path class="st5" d="M94.7,96.3l2.1-3.5c17.8-29.3,50-47,84-44.9c4.4,0.3,8.7,0.9,13,1.8c30.9,6.6,57.7,29.9,68.9,59.8
		c6.5,17.6,8.4,37.8,20.8,51.8c16.2,18.2,43.6,18.7,67.8,18c24.1-0.8,51.6-0.1,67.7,18.1c10.1,11.4,13.3,27.7,12.5,43
		c-2.2,40.5-30.4,76.7-66.2,94.7s-78.1,19.6-117.4,11.7c-55-11.1-107.3-41.5-138.8-88.6C77.5,211.2,69.5,147.1,94.7,96.3z"/>
</g>
<g id="Desk">
	<g>
		<path class="st3" d="M11.6,422.5c158.3,0,316.5,0,474.8,0"/>
		<g>
			<path class="st6" d="M486.4,422.5c0,0.1-106.3,0.3-237.4,0.3c-131.1,0-237.4-0.1-237.4-0.3s106.3-0.3,237.4-0.3
				C380.1,422.2,486.4,422.3,486.4,422.5z"/>
		</g>
	</g>
</g>
<g id="Pens">
	<g>
		<path class="st7" d="M367.9,393c0,0,21.8-7.7,42,0l0,0L406,400l-36.1,1.4L367.9,393"/>
		<g>
			<g>
				<g>
					<g>
						<path class="st0" d="M371.5,353.9l0.4,0c1.3-0.1,2.4,0.9,2.5,2.2l5.2,71.7l-5.1,0.4l-5.2-71.7
							C369.2,355.1,370.2,354,371.5,353.9z"/>
						<g>
							<path class="st6" d="M371.5,353.9c0,0-0.6,0-1.4,0.6c-0.4,0.3-0.7,0.9-0.8,1.6c0,0.7,0.1,1.6,0.2,2.5
								c0.3,3.8,0.7,9.3,1.2,16.1c1,13.6,2.4,32.5,3.9,53.4l-0.3-0.2c0.9-0.1,1.8-0.1,2.8-0.2c0.8-0.1,1.6-0.1,2.4-0.2l-0.2,0.3
								c-1.5-21.1-2.8-40-3.8-53.7c-0.5-6.8-0.8-12.4-1.1-16.2c0-0.5-0.1-0.9-0.1-1.4c0-0.4,0-0.8-0.2-1.1c-0.3-0.7-0.8-1.1-1.2-1.3
								c-0.5-0.2-0.8-0.2-1.1-0.2C371.6,353.9,371.5,353.9,371.5,353.9c0,0,0.1,0,0.4-0.1c0.3,0,0.7,0,1.1,0.2
								c0.5,0.2,1,0.6,1.3,1.3c0.2,0.4,0.2,0.8,0.2,1.2c0,0.4,0.1,0.9,0.1,1.3c0.3,3.8,0.7,9.4,1.2,16.2c1,13.7,2.4,32.7,4,53.7
								l0,0.3l-0.3,0c-0.8,0.1-1.6,0.1-2.4,0.2c-0.9,0.1-1.9,0.1-2.8,0.2l-0.3,0l0-0.3c-1.5-21-2.8-39.8-3.8-53.5
								c-0.5-6.8-0.8-12.3-1.1-16.1c0-1-0.1-1.8-0.1-2.5c0.1-0.8,0.5-1.3,0.9-1.6c0.4-0.3,0.8-0.4,1-0.5
								C371.4,353.9,371.5,353.9,371.5,353.9z"/>
						</g>
					</g>
				</g>
				<g>
					<path class="st8" d="M371.8,405.6l7.3-0.5l1.7,23.9c0.1,2-1.4,3.8-3.4,3.9l0,0c-2,0.1-3.8-1.4-3.9-3.4L371.8,405.6z"/>
				</g>
				<g>
					
						<rect x="370.8" y="394.6" transform="matrix(-0.9974 7.201167e-02 -7.201167e-02 -0.9974 771.4938 792.4928)" class="st8" width="1.4" height="31.1"/>
				</g>
				<g>
					<g>
						<path class="st6" d="M379.2,405.1c0,0.2-3,0.6-7.4,1.1l0.3-0.4c0.1,1.7,0.3,3.5,0.4,5.4c0.3,3.5,0.4,6.7,0.5,9.1
							c0.1,2.3,0.1,3.8,0,3.8c-0.1,0-0.3-1.4-0.6-3.7c-0.2-2.3-0.5-5.5-0.8-9c-0.1-1.9-0.2-3.7-0.4-5.4l0-0.4l0.3,0
							C376.1,405.1,379.1,404.9,379.2,405.1z"/>
					</g>
				</g>
			</g>
			<g>
				<g>
					<g>
						<rect x="379.7" y="355.8" class="st0" width="5.1" height="58"/>
						<g>
							<path class="st6" d="M384.8,413.8c0,0,0-0.1,0-0.3c0-0.2,0-0.5,0-0.9c0-0.8,0-1.9,0-3.4c0-2.9,0-7.1-0.1-12.3
								c0-10.4-0.1-24.9-0.1-41.1l0.3,0.3c-1.6,0-3.4,0-5.1,0c0.5-0.5,0.1-0.1,0.3-0.2v0v0v0.1v0.2l0,0.3v0.6l0,1.2
								c0,0.8,0,1.6,0,2.4c0,1.6,0,3.2,0,4.7c0,3.1,0,6.2,0,9.1c0,5.9,0,11.4,0,16.5c0,10-0.1,18-0.1,22.9l-0.1-0.1
								c1.6,0,2.9,0,3.8,0.1c0.4,0,0.7,0,1,0C384.7,413.7,384.8,413.7,384.8,413.8c0,0-0.1,0-0.3,0c-0.2,0-0.6,0-1,0
								c-0.9,0-2.2,0-3.8,0.1l-0.1,0l0-0.1c0-4.9-0.1-12.9-0.1-22.9c0-5,0-10.6,0-16.5c0-3,0-6,0-9.1c0-1.6,0-3.1,0-4.7
								c0-0.8,0-1.6,0-2.4l0-1.2v-0.6v-0.3v-0.2v-0.1v0v0c0.1-0.1-0.3,0.2,0.3-0.3c1.8,0,3.5,0,5.1,0h0.3l0,0.3
								c0,16.3-0.1,30.8-0.1,41.3c0,5.2-0.1,9.4-0.1,12.3c0,1.4,0,2.5,0,3.3c0,0.4,0,0.6,0,0.8C384.9,413.7,384.8,413.8,384.8,413.8
								z"/>
						</g>
					</g>
				</g>
				<g>
					<path class="st8" d="M385.8,378.4h-7.3v-24c0-2,1.6-3.7,3.7-3.7l0,0c2,0,3.7,1.6,3.7,3.7V378.4z"/>
				</g>
				<g>
					<rect x="385.8" y="358.4" class="st8" width="1.4" height="31.1"/>
				</g>
				<g>
					<g>
						<path class="st6" d="M378.5,378.4c0-0.2,3-0.4,7.4-0.5l-0.4,0.4c0-1.7,0-3.5,0-5.4c0-3.5,0-6.8,0.1-9.1
							c0.1-2.3,0.2-3.8,0.3-3.8c0.1,0,0.2,1.4,0.3,3.8c0.1,2.3,0.1,5.5,0.1,9.1c0,1.9,0,3.7,0,5.4l0,0.4l-0.3,0
							C381.5,378.6,378.5,378.6,378.5,378.4z"/>
					</g>
				</g>
			</g>
			<g>
				<g>
					<g>
						<rect x="390.1" y="369.4" class="st0" width="5.1" height="58"/>
						<g>
							<path class="st6" d="M395.2,427.4c0,0,0-0.1,0-0.3c0-0.2,0-0.5,0-0.9c0-0.8,0-1.9,0-3.4c0-2.9,0-7.1-0.1-12.3
								c0-10.4-0.1-24.9-0.1-41.1l0.3,0.3c-1.6,0-3.4,0-5.1,0c0.5-0.5,0.1-0.1,0.3-0.2v0v0v0.1v0.2v0.3l0,0.6l0,1.2
								c0,0.8,0,1.6,0,2.4c0,1.6,0,3.2,0,4.7c0,3.1,0,6.2,0,9.1c0,5.9,0,11.4,0,16.5c0,10-0.1,18-0.1,22.9l-0.1-0.1
								c1.6,0,2.9,0,3.8,0.1c0.4,0,0.7,0,1,0C395.1,427.4,395.2,427.4,395.2,427.4c0,0-0.1,0-0.3,0c-0.2,0-0.6,0-1,0
								c-0.9,0-2.2,0-3.8,0.1l-0.1,0l0-0.1c0-4.9-0.1-12.9-0.1-22.9c0-5,0-10.6,0-16.5c0-3,0-6,0-9.1c0-1.6,0-3.1,0-4.7
								c0-0.8,0-1.6,0-2.4l0-1.2V370v-0.3v-0.2v-0.1v0v0c0.1-0.1-0.3,0.2,0.3-0.3c1.8,0,3.5,0,5.1,0h0.3l0,0.3
								c0,16.3-0.1,30.8-0.1,41.3c0,5.2-0.1,9.4-0.1,12.3c0,1.4,0,2.5,0,3.3c0,0.4,0,0.6,0,0.8C395.2,427.3,395.2,427.4,395.2,427.4
								z"/>
						</g>
					</g>
				</g>
				<g>
					<path class="st8" d="M396.2,392h-7.3v-24c0-2,1.6-3.7,3.7-3.7l0,0c2,0,3.7,1.6,3.7,3.7V392z"/>
				</g>
				<g>
					<rect x="396.2" y="372" class="st8" width="1.4" height="31.1"/>
				</g>
				<g>
					<g>
						<path class="st6" d="M388.9,392c0-0.2,3-0.4,7.4-0.5l-0.4,0.4c0-1.7,0-3.5,0-5.4c0-3.5,0-6.8,0.1-9.1c0.1-2.3,0.2-3.8,0.3-3.8
							s0.2,1.4,0.3,3.8c0.1,2.3,0.1,5.5,0.1,9.1c0,1.9,0,3.7,0,5.4l0,0.4l-0.3,0C391.9,392.3,388.9,392.2,388.9,392z"/>
					</g>
				</g>
			</g>
			<g>
				<g>
					<g>
						<rect x="399.8" y="353.6" class="st0" width="5.1" height="58"/>
						<g>
							<path class="st6" d="M405,411.6c0,0,0-0.1,0-0.3c0-0.2,0-0.5,0-0.9c0-0.8,0-1.9,0-3.4c0-2.9,0-7.1-0.1-12.3
								c0-10.4-0.1-24.9-0.1-41.1l0.3,0.3c-1.6,0-3.4,0-5.1,0c0.5-0.5,0.1-0.1,0.3-0.2v0v0v0.1v0.2v0.3v0.6l0,1.2c0,0.8,0,1.6,0,2.4
								c0,1.6,0,3.2,0,4.7c0,3.1,0,6.2,0,9.1c0,5.9,0,11.4,0,16.5c0,10-0.1,18-0.1,22.9l-0.1-0.1c1.6,0,2.9,0,3.8,0.1
								c0.4,0,0.7,0,1,0C404.8,411.6,405,411.6,405,411.6c0,0-0.1,0-0.3,0c-0.2,0-0.6,0-1,0c-0.9,0-2.2,0-3.8,0.1l-0.1,0l0-0.1
								c0-4.9-0.1-12.9-0.1-22.9c0-5,0-10.6,0-16.5c0-3,0-6,0-9.1c0-1.6,0-3.1,0-4.7c0-0.8,0-1.6,0-2.4l0-1.2v-0.6v-0.3v-0.2v-0.1v0
								v0c0.1-0.1-0.3,0.2,0.3-0.3c1.8,0,3.5,0,5.1,0l0.3,0l0,0.3c0,16.3-0.1,30.8-0.1,41.3c0,5.2-0.1,9.4-0.1,12.3
								c0,1.4,0,2.5,0,3.3c0,0.4,0,0.6,0,0.8C405,411.5,405,411.6,405,411.6z"/>
						</g>
					</g>
				</g>
				<g>
					<path class="st8" d="M406,376.3h-7.3v-24c0-2,1.6-3.7,3.7-3.7l0,0c2,0,3.7,1.6,3.7,3.7V376.3z"/>
				</g>
				<g>
					<rect x="406" y="356.2" class="st8" width="1.4" height="31.1"/>
				</g>
				<g>
					<g>
						<path class="st6" d="M398.6,376.3c0-0.2,3-0.4,7.4-0.5l-0.4,0.4c0-1.7,0-3.5,0-5.4c0-3.5,0-6.8,0.1-9.1
							c0.1-2.3,0.2-3.8,0.3-3.8c0.1,0,0.2,1.4,0.3,3.8c0.1,2.3,0.1,5.5,0.1,9.1c0,1.9,0,3.7,0,5.4l0,0.4l-0.3,0
							C401.7,376.5,398.6,376.5,398.6,376.3z"/>
					</g>
				</g>
			</g>
			<g>
				<path class="st7" d="M405.1,441.2c-10.9,5.1-21.9,5.1-32.9,0l-4.3-48.1c13.3,3.9,27.3,3.5,42,0L405.1,441.2z"/>
			</g>
		</g>
		<g>
			<path class="st6" d="M409.9,392.7c0,0-0.5,0.2-1.6,0.6c-1,0.3-2.5,0.8-4.4,1.2c-1.9,0.4-4.1,0.9-6.6,1.2
				c-2.5,0.3-5.3,0.5-8.2,0.6c-2.9,0-5.7-0.2-8.2-0.4c-2.5-0.3-4.8-0.7-6.7-1.1c-1.9-0.4-3.4-0.8-4.4-1.1c-1-0.3-1.6-0.5-1.6-0.5
				c0,0,0.6,0.1,1.6,0.3c1,0.3,2.5,0.6,4.4,1c1.9,0.4,4.1,0.7,6.6,1c2.5,0.2,5.3,0.4,8.2,0.4c2.9,0,5.7-0.2,8.2-0.5
				c2.5-0.3,4.7-0.7,6.6-1.1c1.9-0.4,3.4-0.8,4.4-1C409.3,392.8,409.9,392.7,409.9,392.7z"/>
		</g>
	</g>
</g>
<g id="Papers">
	<g>
		<polygon class="st0" points="230.4,439 146.7,441.2 230.4,475.2 320.3,469.9 		"/>
		<polygon class="st1" points="206.5,435.6 122.9,437.9 206.5,471.8 296.5,466.5 		"/>
		<polygon class="st0" points="128.3,426.8 212,460.8 212,467 128.3,431.8 		"/>
		<polygon class="st2" points="212,467 302,461.2 302,455.5 212,460.8 		"/>
		<g>
			<polygon class="st3" points="212,424.6 128.3,426.8 212,460.8 302,455.5 			"/>
			<g>
				<path class="st6" d="M212,424.6c0,0,0.1,0,0.4,0.1c0.3,0.1,0.7,0.2,1.2,0.4c1.1,0.4,2.7,0.9,4.8,1.6c4.3,1.4,10.5,3.6,18.4,6.2
					c15.8,5.4,38.3,13.1,65.2,22.3c0.1,0,0.2,0.2,0.1,0.3c0,0.1-0.1,0.1-0.2,0.2c-24.8,1.5-53.7,3.2-84.3,5
					c-1.9,0.1-3.8,0.2-5.6,0.3c0,0-0.1,0-0.1,0c-30.8-12.5-59.5-24.2-83.6-34c-0.1,0-0.2-0.2-0.1-0.3c0-0.1,0.1-0.1,0.2-0.1
					c25.2-0.6,46.1-1.2,60.7-1.5c7.3-0.2,13-0.3,16.9-0.4c1.9,0,3.4-0.1,4.5-0.1C211.5,424.5,212,424.6,212,424.6s-0.5,0-1.5,0.1
					c-1,0-2.5,0.1-4.5,0.2c-3.9,0.1-9.7,0.3-17,0.5c-14.6,0.4-35.5,1-60.7,1.7l0.1-0.4c24.2,9.8,52.8,21.5,83.7,34l-0.1,0
					c1.9-0.1,3.7-0.2,5.6-0.3c30.7-1.8,59.5-3.5,84.3-5l-0.1,0.4c-26.8-9.3-49.3-17-65.1-22.5c-7.9-2.7-14.1-4.9-18.3-6.4
					c-2.1-0.7-3.7-1.3-4.8-1.7c-0.5-0.2-0.9-0.3-1.2-0.4C212.1,424.6,212,424.6,212,424.6z"/>
			</g>
		</g>
		<g>
			<path class="st6" d="M211.9,467.2c-0.1,0-0.3-1.4-0.3-3.2c0-1.7,0.1-3.2,0.3-3.2c0.1,0,0.3,1.4,0.3,3.2
				C212.2,465.8,212.1,467.2,211.9,467.2z"/>
		</g>
		<g>
			<path class="st6" d="M269.4,449c0,0.1-13.6,1.1-30.5,2.1c-16.8,1-30.5,1.7-30.5,1.6c0-0.1,13.6-1.1,30.5-2.1
				C255.8,449.6,269.4,448.9,269.4,449z"/>
		</g>
		<g>
			<path class="st6" d="M260.6,445.6c0,0.1-13.6,1.1-30.5,2.1c-16.8,1-30.5,1.7-30.5,1.6c0-0.1,13.6-1.1,30.5-2.1
				C246.9,446.2,260.5,445.5,260.6,445.6z"/>
		</g>
		<g>
			<path class="st6" d="M251.7,442.2c0,0.1-13.6,1.1-30.5,2.1c-16.8,1-30.5,1.7-30.5,1.6c0-0.1,13.6-1.1,30.5-2.1
				C238,442.8,251.7,442.1,251.7,442.2z"/>
		</g>
		<g>
			<path class="st6" d="M241.4,438.8c0,0.1-13.6,1.1-30.5,2.1c-16.8,1-30.5,1.7-30.5,1.6c0-0.1,13.6-1.1,30.5-2.1
				C227.7,439.3,241.4,438.6,241.4,438.8z"/>
		</g>
		<g>
			<path class="st6" d="M232.5,435.4c0,0.1-13.6,1.1-30.5,2.1c-16.8,1-30.5,1.7-30.5,1.6c0-0.1,13.6-1.1,30.5-2.1
				C218.8,435.9,232.5,435.2,232.5,435.4z"/>
		</g>
		<g>
			<path class="st6" d="M221.7,431.9c0,0.1-13.6,1.1-30.5,2.1c-16.8,1-30.5,1.7-30.5,1.6c0-0.1,13.6-1.1,30.5-2.1
				C208,432.4,221.7,431.7,221.7,431.9z"/>
		</g>
	</g>
</g>
<g id="Hand">
	<g>
		<path class="st9" d="M287.2,187.4c0,0-7.8-0.6-8.3-13.8c-0.6-13.2-4.9-46.6-4-53.3c0.9-6.6,7.2-7.8,9.5-10.1
			c2.3-2.3,61.6-27.6,67.1-26.8c5.5,0.9,80,26.5,80,26.5l33.1,93.5c0,0-17.2,6.7-30.8,7c-13.5,0.3-55-13-55-13l-7,3.1
			c0,0,3.2,10.6-2.6,13.2c-5.8,2.6-12,0.4-12,0.4s-0.3,12.5-9.8,12.2c-9.5-0.3-20.4-8.4-20.4-8.4s-5.2,3.5-8.3,0.9
			c-3.2-2.6-21-21.3-21-21.3L287.2,187.4z"/>
		<g>
			<path class="st10" d="M350.4,130.6c0,0-0.3-0.4-0.8-1.1c-0.5-0.7-1.1-1.8-1.8-3.2c-0.7-1.4-1.4-3.1-2.1-5.1
				c-0.6-2-1.2-4.2-1.6-6.5c-0.4-2.4-0.6-4.6-0.7-6.7c0-2.1,0-3.9,0.2-5.5c0.2-1.6,0.4-2.8,0.5-3.7c0.2-0.9,0.3-1.3,0.3-1.3
				c0,0,0,0.5-0.1,1.3c-0.1,0.9-0.3,2.1-0.4,3.6c-0.1,1.5-0.2,3.4-0.1,5.4c0.1,2,0.3,4.3,0.7,6.6c0.4,2.3,1,4.5,1.6,6.5
				c0.6,1.9,1.3,3.7,1.9,5.1c0.6,1.4,1.2,2.5,1.6,3.3C350.2,130.2,350.4,130.6,350.4,130.6z"/>
		</g>
		<g>
			<path class="st10" d="M368.3,118.5c0.1,0-0.4,0.8-1.2,1.9c-0.8,1.1-2,2.6-3.4,4.1c-1.4,1.5-2.8,2.8-3.9,3.7
				c-1.1,0.9-1.7,1.4-1.8,1.3c-0.1-0.1,2.5-2.3,5.3-5.4C366.1,121.1,368.2,118.4,368.3,118.5z"/>
		</g>
		<g>
			<path class="st10" d="M316.4,181.3c0,0,0.5,0.4,1.2,1.1c0.8,0.8,1.8,1.9,3.1,3.3c1.3,1.4,2.8,3.1,4.3,5.2c1.5,2,3.1,4.4,4.3,7.1
				c1.2,2.7,1.7,5.5,1.7,8.1c0.1,2.6-0.4,4.9-1.1,6.7c-0.7,1.8-1.6,3.1-2.3,3.9c-0.3,0.4-0.7,0.7-0.9,0.9c-0.2,0.2-0.3,0.3-0.3,0.3
				c0,0,0.4-0.4,1-1.3c0.7-0.8,1.5-2.1,2.2-3.9c0.6-1.8,1.1-4,1-6.5c-0.1-2.5-0.6-5.2-1.7-7.9c-1.2-2.6-2.7-5-4.2-7
				c-1.5-2-3-3.8-4.2-5.2c-1.2-1.4-2.2-2.5-3-3.4C316.7,181.8,316.4,181.3,316.4,181.3z"/>
		</g>
		<g>
			<path class="st10" d="M348,170.8c0,0,0,0.1-0.1,0.3c-0.1,0.2-0.1,0.5-0.2,0.8c-0.2,0.7-0.6,1.8-1.3,3c-0.7,1.2-1.6,2.7-3.1,4.1
				c-0.7,0.7-1.5,1.4-2.5,2c-1,0.6-2.1,1-3.4,1.1l0.2-0.4c1.4,1.5,2.2,3.6,2.7,5.8c0.4,2.2,0.5,4.7-0.2,7c-0.3,0.8-0.7,1.6-1.3,2.3
				l-0.1-0.4c3.4,1.6,6.6,3.2,9.3,5.1c1.4,0.9,2.5,1.9,3.6,2.9c1,1,1.9,2,2.6,3c1.4,2,2.2,3.8,2.6,5.1c0.2,0.6,0.3,1.2,0.4,1.5
				c0.1,0.3,0.1,0.5,0.1,0.5c0,0-0.2-0.7-0.7-2c-0.5-1.3-1.3-3-2.7-5c-0.7-1-1.6-1.9-2.6-2.9c-1.1-0.9-2.2-1.9-3.6-2.8
				c-2.7-1.8-5.9-3.4-9.3-5l-0.3-0.1l0.2-0.3c0.5-0.6,0.9-1.3,1.2-2.1c0.7-2.2,0.7-4.6,0.2-6.7c-0.4-2.1-1.2-4.1-2.5-5.6l-0.3-0.4
				l0.5,0c1.2,0,2.2-0.4,3.2-1c0.9-0.5,1.8-1.2,2.4-1.9c1.4-1.4,2.4-2.8,3.1-4c0.7-1.2,1.2-2.2,1.4-3
				C347.8,171.2,347.9,170.8,348,170.8z"/>
		</g>
		<g>
			<path class="st10" d="M362.2,194.6c0,0-0.1-0.3-0.2-0.8c-0.1-0.5-0.3-1.3-0.5-2.2c-0.4-1.9-1.2-4.4-2.7-6.9
				c-1.5-2.5-3.4-4.4-4.9-5.5c-1.5-1.2-2.5-1.9-2.5-1.9c0,0,0.3,0.1,0.8,0.4c0.5,0.3,1.1,0.7,1.9,1.3c1.6,1.1,3.6,3,5.2,5.6
				c1.5,2.6,2.3,5.2,2.6,7.1c0.2,1,0.3,1.7,0.3,2.3C362.3,194.3,362.3,194.6,362.2,194.6z"/>
		</g>
		<g>
			<path class="st10" d="M372.5,203.4c0,0-0.1-0.4-0.4-1.1c-0.3-0.7-0.7-1.7-1.5-2.7c-1.5-2.2-5.1-3.4-8.8-4.9
				c-1.9-0.7-3.7-1.2-5.4-1.7c-1.7-0.5-3.2-1.1-4.4-1.5c-1.2-0.4-2.1-0.8-2.9-1.1c-0.7-0.3-1.1-0.4-1.1-0.5c0,0,0.4,0.1,1.1,0.3
				c0.7,0.2,1.7,0.5,3,1c1.3,0.4,2.7,0.9,4.4,1.4c1.7,0.4,3.6,1,5.5,1.7c1.9,0.7,3.7,1.5,5.3,2.2c1.6,0.8,2.9,1.8,3.7,2.9
				c0.8,1.1,1.2,2.1,1.4,2.9C372.5,203,372.5,203.4,372.5,203.4z"/>
		</g>
		<g>
			<path class="st10" d="M374,178.6c0.1,0,0.2,1.1,0.5,2.8c0.3,1.7,0.7,4.1,1.3,6.7c0.6,2.6,1.3,4.9,1.9,6.5
				c0.6,1.7,0.9,2.7,0.8,2.7c-0.1,0-0.5-0.9-1.2-2.6c-0.6-1.6-1.4-3.9-2.1-6.5c-0.6-2.6-1-5-1.2-6.7
				C374,179.7,373.9,178.6,374,178.6z"/>
		</g>
		<g>
			<path class="st10" d="M442.1,185c0,0-0.2,0.1-0.7,0.2c-0.5,0.1-1.2,0.3-2,0.6c-0.4,0.1-0.9,0.3-1.4,0.4c-0.5,0.1-1.1,0.2-1.7,0.4
				c-1.3,0.3-2.7,0.6-4.3,0.8c-0.8,0.1-1.6,0.3-2.5,0.4c-0.9,0.1-1.8,0.2-2.7,0.3c-1.9,0.3-3.9,0.3-6,0.5c-4.3,0.1-9,0-13.9-0.5
				c-4.9-0.6-9.5-1.6-13.6-2.9c-2-0.7-4-1.3-5.7-2.1c-0.9-0.4-1.7-0.7-2.5-1.1c-0.8-0.4-1.5-0.8-2.3-1.1c-1.5-0.7-2.7-1.5-3.8-2.2
				c-0.5-0.3-1.1-0.6-1.5-0.9c-0.4-0.3-0.8-0.6-1.2-0.9c-0.7-0.5-1.2-0.9-1.7-1.2c-0.4-0.3-0.6-0.4-0.6-0.5c0,0,0.2,0.1,0.6,0.4
				c0.4,0.3,1,0.7,1.7,1.2c0.4,0.3,0.8,0.5,1.2,0.8c0.5,0.3,1,0.6,1.5,0.9c1.1,0.6,2.3,1.4,3.8,2.1c0.7,0.4,1.5,0.7,2.3,1.1
				c0.8,0.4,1.7,0.7,2.5,1.1c1.7,0.8,3.7,1.4,5.7,2c4.1,1.2,8.6,2.2,13.5,2.8c4.9,0.6,9.5,0.7,13.8,0.6c2.1-0.1,4.1-0.2,6-0.4
				c0.9-0.1,1.8-0.2,2.7-0.3c0.9-0.1,1.7-0.3,2.5-0.4c1.6-0.2,3-0.5,4.3-0.8c0.6-0.1,1.2-0.2,1.7-0.3c0.5-0.1,1-0.2,1.5-0.4
				c0.8-0.2,1.5-0.4,2-0.5C441.9,185,442.1,185,442.1,185z"/>
		</g>
		<g>
			<path class="st10" d="M306.9,135.2c-0.1,0-0.9-1.3-2.6-3.3c-1.6-2-4.1-4.5-7-7.1c-2.9-2.6-5.8-4.7-8-6c-2.2-1.4-3.6-2.1-3.6-2.1
				c0,0,0.4,0.1,1,0.4c0.7,0.3,1.6,0.8,2.7,1.4c2.2,1.3,5.2,3.3,8.1,5.9c3,2.6,5.4,5.2,6.9,7.3c0.8,1,1.4,1.9,1.8,2.5
				C306.7,134.9,306.9,135.2,306.9,135.2z"/>
		</g>
		<g>
			<path class="st10" d="M297.1,145.1c-0.1,0.1-0.9-1.4-2.5-2.6c-1.6-1.2-3.2-1.6-3.2-1.8c0-0.1,1.8,0,3.5,1.3
				C296.6,143.4,297.2,145,297.1,145.1z"/>
		</g>
		<path class="st6" d="M279.7,222L279.7,222c0,0.1-0.9,4.1-0.8,4.9c0.2,0.9,1.1,0.3,1.1,0.3l2.5-4.2L279.7,222z"/>
		<polygon class="st0" points="279.4,222.2 286.3,192.1 298.1,197 282.6,223.4 		"/>
		<path class="st7" d="M338.6,48.3c0,0-51.9,141.9-52.3,143.7l11.8,5c0,0,34.3-83,34.9-84.5c0.6-1.5,21.1-58.7,21.1-58.7L338.6,48.3
			z"/>
		<polygon class="st0" points="338.6,48.3 342.8,38.3 346,37.3 355.9,40.5 357.5,43.6 354.1,53.9 		"/>
		<path class="st0" d="M346,37.3l5.6-14.6c3.6,0,6.7,1.3,9.6,3.2l-5.3,14.6L346,37.3z"/>
		<g>
			<path class="st6" d="M357.9,43.9c0,0.1-0.9-0.1-2.4-0.5c-1.4-0.4-3.4-1-5.6-1.7c-2.1-0.8-4-1.5-5.4-2.1c-1.4-0.6-2.2-1-2.1-1.1
				c0-0.1,0.9,0.2,2.3,0.8c1.4,0.5,3.3,1.2,5.4,2c2.1,0.8,4.1,1.4,5.5,1.9C357.1,43.5,357.9,43.8,357.9,43.9z"/>
		</g>
		<path class="st0" d="M354.1,53.9L354.1,53.9c2.9,1,4.4,4.2,3.4,7.1l-16.1,46.6c-0.6,1.7-2.5,2.6-4.2,1.8h0
			c-1.5-0.7-2.2-2.4-1.7-3.9L354.1,53.9z"/>
		<g class="st11">
			<path class="st3" d="M312,203.2c-0.8-0.9-2-1.4-3.2-1.3c-2,0.2-3.1,1.7-3.5,3.6c5,5.3,9.9,10.3,13.4,13.4
				c0.2,0.2,0.4,0.3,0.7,0.3l0.6,0.1C319,213.2,316.2,207.6,312,203.2z"/>
		</g>
		<g class="st11">
			<path class="st3" d="M346.6,226.3c0.2-2.3,0.2-4.6-0.5-6.8c-0.7-2.2-2.2-4.2-4.3-5.1c-1.9-0.8-4.2-0.6-5.9,0.6s-2.8,4.6-2.7,6.7
				c0,0,5.2,2.9,8.3,3.7C344.3,226.2,346.6,226.3,346.6,226.3z"/>
		</g>
		<g class="st11">
			<path class="st3" d="M365.7,214.7c2.2-0.8,2.6-5.8,1.4-7.8c-0.9-1.4-2.1-2.4-4-3.1c-1.8-0.7-4-1.2-6-0.8
				c-2.5,0.5-3.7,1.4-4.5,2.7c0,0,3.7,3.8,4.5,8.5C359.9,214.9,362.8,215.1,365.7,214.7z"/>
		</g>
		<path class="st9" d="M464.5,203.4l-33.1-93.5L469,97.6c0,0,19.4,35.8,11.1,69.7C472.1,199.5,464.5,203.4,464.5,203.4z"/>
		<g>
			<path class="st9" d="M384.8,120.6c-12.2,4.8-25.1,7.2-37.8,10.2c-12.7,3-27.8,6.7-36.7,13.4c-8.6,6.4-19.2,15.7-22.7,25.3
				c-1.5,4.1-1.3,8.7,1,12.4c1.3,2.1,3.3,3.9,6.4,4.4c7.5,1.2,15.3-1.7,21-4.7c5.6-2.9,25.5-12.7,25.5-12.7l16.6-0.3l12.7,3.6"/>
			<g>
				<path class="st10" d="M390.1,162.1c0,0-0.2,0.3-0.5,0.7c-0.4,0.4-0.9,1-1.6,1.7c-1.4,1.4-3.6,3.1-6.3,4.5
					c-2.7,1.4-5.3,2.4-7.2,2.8c-1,0.2-1.7,0.4-2.3,0.5c-0.5,0.1-0.9,0.1-0.9,0.1c0-0.1,1.2-0.3,3-0.9c1.9-0.6,4.4-1.5,7-2.9
					c2.6-1.4,4.8-3.1,6.3-4.3C389.2,162.9,390.1,162,390.1,162.1z"/>
			</g>
			<g>
				<path class="st10" d="M363.5,159.4c0.1,0-0.6,2.4-2.1,4.9c-1.5,2.6-3.3,4.3-3.4,4.2c-0.1-0.1,1.4-1.9,3-4.4
					C362.5,161.6,363.3,159.4,363.5,159.4z"/>
			</g>
			<g>
				<path class="st10" d="M335.9,162.4c0.1-0.1,1.4,1.3,3,3.1c1.5,1.8,2.7,3.3,2.6,3.4c-0.1,0.1-1.4-1.3-3-3.1
					C336.9,164,335.8,162.5,335.9,162.4z"/>
			</g>
			<g>
				<path class="st10" d="M325.2,166.3c0,0-0.3-0.2-0.8-0.5c-0.5-0.4-1.1-1-1.9-1.7c-1.5-1.5-3.3-4-4.6-7c-1.3-3-1.9-6-2.1-8.1
					c-0.1-1.1-0.1-1.9,0-2.5c0-0.6,0.1-0.9,0.1-0.9c0.1,0,0.1,1.3,0.3,3.4c0.2,2.1,0.9,5,2.2,7.9c1.3,2.9,3,5.3,4.4,6.9
					C324.3,165.4,325.3,166.2,325.2,166.3z"/>
			</g>
			<g>
				<path class="st10" d="M324.7,160.9c-0.2,0-0.6-3.5-2.2-7.6c-1.5-4.1-3.5-7.1-3.4-7.2c0.1,0,0.6,0.7,1.4,1.9
					c0.8,1.2,1.7,3,2.5,5.1c0.8,2.1,1.3,4,1.5,5.5C324.7,160,324.8,160.9,324.7,160.9z"/>
			</g>
			<g class="st11">
				<path class="st3" d="M294.9,182.5c2.5,0.4,4.6,0.9,7.1,0.7c2.5-0.3,5.1-1.6,6-4c1.1-2.7-0.3-5.7-1.6-8.3
					c-1.1-2.1-2.2-4.3-3.3-6.4c-0.9-1.7-2-3.6-4.4-3.1c-0.6,0.1-1.2,0.4-1.7,0.7c-3.7,2.4-6.6,6-8.2,10.2c-0.9,2.4-0.6,5.1,1,7.1
					C290.7,180.6,292.6,182.1,294.9,182.5z"/>
			</g>
		</g>
		<g>
			<path class="st10" d="M370.7,172.1c0,0-0.3-0.1-0.9-0.2c-0.6-0.2-1.4-0.4-2.5-0.7c-2.2-0.6-5.4-1.5-9.4-2.6l0,0
				c-4.5,0.1-10.1,0.2-16.6,0.3l0.1,0c-4.3,2.2-9.1,4.6-14.2,7.1c-2.6,1.3-5.2,2.6-8,4c-2.8,1.4-5.6,2.9-8.6,4.1
				c-3.1,1.2-6.3,2.1-9.8,2.4c-1.7,0.1-3.5,0.1-5.2-0.1c-1.8-0.2-3.6-0.8-5-2c-1.4-1.2-2.5-2.8-3.2-4.5c-0.7-1.7-1.1-3.6-1-5.5
				c0-1.9,0.4-3.8,1.1-5.5c0.7-1.8,1.6-3.5,2.6-5.1c4-6.3,9.4-11.3,14.7-15.7c1.3-1.1,2.7-2.2,4.1-3.2c0.7-0.5,1.4-1,2.1-1.5l1-0.7
				l1.1-0.7c2.9-1.7,5.9-3.1,8.9-4.3c6-2.3,11.9-3.9,17.4-5.3c5.5-1.4,10.7-2.5,15.4-3.6c9.5-2.1,17.1-4,22.2-5.6
				c2.6-0.8,4.6-1.5,5.9-2c0.7-0.2,1.2-0.4,1.5-0.6c0.3-0.1,0.5-0.2,0.5-0.2s-2.7,1.2-7.9,2.9c-5.1,1.7-12.7,3.6-22.2,5.7
				c-4.7,1.1-9.9,2.2-15.4,3.6c-5.5,1.4-11.4,3-17.3,5.4c-3,1.2-5.9,2.5-8.8,4.3c-2.8,1.7-5.5,3.9-8.2,6.1
				c-5.3,4.4-10.6,9.4-14.6,15.6c-1.9,3.2-3.6,6.7-3.6,10.4c0,1.8,0.3,3.6,1,5.3c0.7,1.6,1.7,3.2,3,4.3c1.4,1.1,3,1.7,4.7,1.9
				c1.7,0.2,3.4,0.2,5.1,0.1c3.4-0.3,6.6-1.2,9.7-2.4c3-1.1,5.8-2.7,8.6-4c2.8-1.4,5.4-2.7,8-4c5.2-2.6,9.9-4.9,14.3-7.1l0,0l0,0
				c6.5-0.1,12.1-0.2,16.6-0.2l0,0l0,0c4,1.2,7.2,2.1,9.4,2.7c1.1,0.3,1.9,0.6,2.5,0.7C370.4,172,370.7,172.1,370.7,172.1z"/>
		</g>
		<g class="st12">
			<path class="st10" d="M435.6,185.7c-1.1-0.2-2.2,0.1-3.2,0.4c-18.6,5-39.3,1.6-55.3-9.2c-4-2.7-5.8-4.6-9-5.5l-2.5-0.7
				c9.2,9.3,19.1,16.5,31.5,20.8s26.4,4.6,38.2-1.1c1.1-0.5,2.4-1.4,2.4-2.6C437.7,186.7,436.7,185.9,435.6,185.7z"/>
		</g>
	</g>
</g>
<g id="Character_00000123411442230577162210000000543371609935833242_">
	<g>
		<g>
			<polygon class="st6" points="210.9,430.7 206.7,428.5 208.8,426.6 			"/>
		</g>
		<g>
			<polygon class="st3" points="201,425.9 205.9,421.5 208.8,426.8 206.7,428.5 			"/>
		</g>
		<g>
			<g>
				<polygon class="st7" points="118.6,277.6 146.6,268.3 162.1,255.2 165.5,260.5 178.5,257.5 215.5,267.1 221.4,277.7 
					252.9,286.3 253.1,330.5 247.4,411.4 248.2,424.2 97.4,424.2 94.9,370.5 94.8,337.1 				"/>
			</g>
			<g>
				<path class="st9" d="M198.4,401.2l32.6-1.6c0,0,6.3,3.6,8,13.9c1.6,10.3,0,10.3,0,10.3l-16.4,5.5l-34.8-0.8l-12.6-15.8l9.5-5.6
					L198.4,401.2z"/>
			</g>
			<g>
				<path class="st7" d="M85.8,389.3c0,0,31.2-49.2,26-42.1c-0.6,0.9,3.2-2.8,8.1-14.9c4.7-11.6,17-60.3,17-60.3l-28.1,7.5
					c-7.4,2-13.4,2.6-19.8,6.8c-5.6,3.7-11.3,10.9-15.1,16.4c-14,20.5-39.8,60.4-43,65.5c-4.6,7.3-14,26.1-13.9,37.3
					c0.1,9.8,2,18.5,16.9,26.3c13.8,7.2,101.7,2.2,101.7,2.2l-0.5-36.6L85.8,389.3z"/>
			</g>
			<g>
				<path class="st7" d="M340.1,379.9c-1.3-3.2-50.5-57.6-75.2-82.8c-7.4-7.6-12-10.8-12-10.8l-8.1,53c0,0,2.8,12.2,4.5,21.3
					c0.4,2,25.9,19.3,25.9,19.3l5.5,3.5l-49.9,13.2l2.1,31.7l89.4-2.4C333.8,421.5,352.3,410.3,340.1,379.9z"/>
			</g>
			<g>
				<g>
					<path class="st6" d="M322.2,425.9c0,0-0.2,0-0.5,0c-0.3,0-0.8,0-1.3,0.1c-1.2,0-2.9,0.1-5.1,0.2c-4.5,0.1-10.9,0.3-19,0.6
						c-16.1,0.4-38.4,1.1-63.5,1.8l-0.2,0l0-0.2c-0.2-3-0.4-6.1-0.6-9.3c-0.5-7.7-1-15.3-1.5-22.4l0-0.2l0.2,0
						c5.3-1.1,10.5-2.5,15.4-3.8c4.9-1.4,9.6-2.7,14-3.9c8.9-2.5,16.8-4.5,23.4-6c6.6-1.5,12-2.3,15.8-2.6c1.9-0.2,3.3-0.2,4.3-0.2
						c0.5,0,0.8,0,1.1,0c0.2,0,0.4,0,0.4,0s-0.1,0-0.4,0c-0.3,0-0.6,0-1.1,0.1c-1,0-2.4,0.1-4.3,0.3c-3.7,0.3-9.1,1.2-15.7,2.7
						c-6.6,1.5-14.5,3.6-23.4,6.1c-4.4,1.2-9.1,2.6-14,3.9c-4.9,1.3-10,2.7-15.4,3.8l0.2-0.3c0.5,7.1,1,14.7,1.5,22.4
						c0.2,3.2,0.4,6.3,0.6,9.3l-0.3-0.2c25.1-0.6,47.4-1.2,63.5-1.6c8-0.2,14.5-0.3,19-0.4c2.2,0,3.9-0.1,5.1-0.1c0.6,0,1,0,1.3,0
						C322.1,425.9,322.2,425.9,322.2,425.9z"/>
				</g>
			</g>
			<g>
				<path class="st10" d="M204.9,414.4c-0.2-0.4-0.5-0.8-0.9-1.1c-1.8-1.6-3.5-3.1-5.3-4.7l-3.1,9.1c1.3,1,3,1.4,4.6,1.2
					c1.6-0.2,3.1-1.1,4.1-2.4C204.8,415.9,205.1,415.1,204.9,414.4z"/>
			</g>
			<g>
				<g>
					<path class="st8" d="M133.8,363.4l67.2,62.5l6.3,3l3.5,1.8l-1.6-3l-3.3-6.1L137.9,359c-1.2-1.1-2.9-1.1-4.1,0l0,0
						C132.5,360.2,132.5,362.2,133.8,363.4z"/>
				</g>
				<g>
					<g>
						<path class="st9" d="M135.1,398.5l5.3,0.9c0,0,27.3-10.1,31.2-10.6c3-0.4,17.4,3,23.7,4.5c2.6,0.6,4.4,2.9,4.3,5.6
							c0,0,0,0.1,0,0.1c-0.1,2.1-1.5,4-3.5,4.8l0,0c0,0,5.4,1.7,2.9,7.3c-1.8,4.2-7.5,3.5-7.5,3.5l-9.4,0.2c0,0,2.4,0.7,6,1.6
							c3.9,0.9,4.9,1.6,4.9,1.6s5.7,5.5,0.2,7.8c-3.4,1.4-5.8,1-5.8,1s1.6,5.9-2.8,6.9s-33.5-1.2-33.5-1.2s-1.5-0.9-7.5-1.4
							l-8.2-0.6L135.1,398.5z"/>
					</g>
					<g>
						<g>
							<path class="st10" d="M135.1,398.5c0,0,0,0.2,0,0.6c0,0.4,0,0.9,0,1.7c0,1.5,0.1,3.6,0.1,6.4c0.1,5.5,0.3,13.6,0.4,23.5
								l-0.2-0.2c2.4,0.2,4.9,0.3,7.5,0.5c1.3,0.1,2.7,0.2,4.1,0.4c1.4,0.2,2.8,0.4,4.2,1l-0.1,0c6.1,0.4,12.7,0.9,19.7,1.2
								c3.5,0.1,7.1,0.3,10.8,0.2c0.9,0,1.9-0.1,2.7-0.2c0.9-0.2,1.7-0.6,2.2-1.3c0.5-0.7,0.8-1.6,0.8-2.5c0.1-0.9-0.1-1.9-0.3-2.8
								l-0.1-0.3l0.4,0c1.2,0.1,2.4,0,3.6-0.3c1.2-0.3,2.5-0.7,3.4-1.5c1-0.8,1-2.2,0.5-3.3c-0.5-1.2-1.3-2.2-2.2-3.2l0,0
								c-1.3-0.7-2.9-1.1-4.5-1.5c-2.1-0.6-4.3-1.1-6.4-1.7l-1.7-0.5l1.8,0c3.2-0.1,6.4-0.1,9.4-0.2l0,0l0,0c1.3,0.1,2.6,0,3.8-0.4
								c1.2-0.4,2.3-1.1,3-2.2c0.2-0.3,0.3-0.5,0.4-0.8l0.3-0.9c0.1-0.3,0.1-0.6,0.2-0.9c0-0.3,0.1-0.6,0.1-0.9
								c0-1.2-0.6-2.4-1.5-3.2c-0.5-0.4-1-0.7-1.5-1l-0.2-0.1l-0.1,0l0,0c0,0.4-0.1-0.5,0-0.5l0,0c0.1-0.1,0.3-0.1,0.4-0.2
								c0.3-0.1,0.5-0.3,0.8-0.5c1-0.7,1.7-1.7,2-2.8c0.3-1.1,0.2-2.3-0.2-3.4c-0.5-1.1-1.3-1.9-2.2-2.5c-1-0.6-2.1-0.7-3.3-1
								c-1.1-0.3-2.2-0.5-3.3-0.8c-2.2-0.5-4.4-1-6.5-1.5c-2.1-0.5-4.2-0.9-6.2-1.2c-1-0.2-2-0.3-3-0.5c-1-0.1-2-0.3-2.9-0.2
								c-1.9,0.3-3.7,0.9-5.4,1.5c-1.7,0.5-3.4,1.1-5,1.6c-3.2,1.1-6.1,2.1-8.7,3c-5.2,1.9-9.4,3.3-12.2,4.3l0,0l0,0
								c-1.8-0.3-3.1-0.6-4-0.7c-0.4-0.1-0.7-0.1-1-0.2C135.2,398.5,135.1,398.5,135.1,398.5c0,0,0.1,0,0.3,0c0.2,0,0.5,0.1,1,0.2
								c0.9,0.1,2.2,0.4,4,0.7l0,0c2.8-1,6.9-2.6,12.2-4.5c2.6-0.9,5.5-2,8.7-3.1c1.6-0.5,3.2-1.1,5-1.7c1.7-0.5,3.5-1.2,5.4-1.5
								c1-0.1,2,0.1,3,0.2c1,0.1,2,0.3,3,0.5c2,0.4,4.1,0.8,6.2,1.2c2.1,0.5,4.3,0.9,6.5,1.4c1.1,0.3,2.2,0.5,3.3,0.8
								c0.6,0.1,1.1,0.3,1.7,0.4c0.6,0.1,1.2,0.4,1.7,0.7c1.1,0.6,1.9,1.6,2.4,2.7c0.5,1.1,0.6,2.5,0.3,3.7
								c-0.3,1.2-1.1,2.3-2.2,3.1c-0.3,0.2-0.5,0.4-0.8,0.5c-0.1,0.1-0.3,0.1-0.4,0.2l0,0c0,0.1,0-0.8,0-0.4l0.1,0l0.1,0l0.2,0.1
								c0.6,0.3,1.1,0.6,1.6,1c0.5,0.4,0.9,1,1.2,1.6c0.3,0.6,0.4,1.3,0.5,1.9c0,0.3,0,0.7-0.1,1c-0.1,0.3-0.1,0.7-0.2,1l-0.3,0.9
								c-0.2,0.3-0.3,0.6-0.5,0.9c-0.7,1.1-1.9,2-3.2,2.4c-1.3,0.4-2.6,0.6-4,0.5l0,0c-3.1,0.1-6.2,0.1-9.4,0.2l0.1-0.5
								c2.1,0.5,4.2,1.1,6.3,1.6c1.6,0.4,3.2,0.8,4.7,1.6l0,0l0,0c1,1,1.8,2.1,2.3,3.3c0.3,0.6,0.4,1.3,0.3,2c0,0.7-0.5,1.4-1,1.8
								c-1.1,0.9-2.4,1.3-3.6,1.6c-1.3,0.3-2.5,0.5-3.8,0.3l0.3-0.3c0.2,1,0.3,2,0.3,2.9c-0.1,1-0.3,2-0.9,2.8
								c-0.6,0.8-1.6,1.3-2.5,1.5c-1,0.2-1.9,0.2-2.8,0.2c-3.7,0.1-7.3-0.1-10.9-0.2c-7-0.3-13.6-0.8-19.7-1.2l0,0l-0.1,0
								c-1.2-0.5-2.7-0.8-4-1c-1.4-0.2-2.7-0.3-4-0.4c-2.6-0.2-5.2-0.4-7.5-0.5l-0.2,0l0-0.2c-0.1-10-0.2-18.1-0.2-23.6
								c0-2.7,0-4.9-0.1-6.3c0-0.7,0-1.2,0-1.6C135,398.7,135.1,398.5,135.1,398.5z"/>
						</g>
					</g>
				</g>
				<g>
					<g>
						<path class="st10" d="M195.6,403.9c0,0.1-3.4-0.1-7.5-0.4c-4.1-0.4-7.5-0.8-7.4-0.9c0-0.1,3.4,0.1,7.5,0.4
							C192.3,403.3,195.6,403.7,195.6,403.9z"/>
					</g>
				</g>
				<g>
					<g>
						<path class="st10" d="M166.1,430.7c0,0.1-0.4-0.1-0.9-0.6c-0.5-0.5-1-1.3-1-2.4c0-1.1,0.4-1.9,0.8-2.4
							c0.4-0.5,0.8-0.7,0.8-0.6c0,0.1-0.2,0.3-0.6,0.8c-0.3,0.5-0.6,1.3-0.6,2.2c0,0.9,0.4,1.7,0.8,2.2
							C165.9,430.4,166.2,430.6,166.1,430.7z"/>
					</g>
				</g>
				<g>
					<g>
						<path class="st10" d="M165.7,420.8c0,0.1-0.5,0-1.2-0.4c-0.6-0.4-1.4-1.3-1.5-2.6c-0.1-1.2,0.4-2.3,1-2.8c0.5-0.6,1-0.7,1-0.7
							c0,0.1-0.4,0.3-0.8,0.9c-0.4,0.6-0.8,1.5-0.7,2.6c0.1,1.1,0.7,1.9,1.3,2.3C165.3,420.5,165.7,420.7,165.7,420.8z"/>
					</g>
				</g>
				<g>
					<g>
						<path class="st10" d="M165.5,409.3c0,0-0.5-0.2-1-1c-0.5-0.7-0.9-1.9-0.7-3.2c0.2-1.3,1-2.3,1.7-2.8c0.7-0.5,1.2-0.6,1.2-0.6
							c0,0.1-0.4,0.3-1,0.8c-0.6,0.5-1.3,1.5-1.5,2.6c-0.2,1.2,0.1,2.3,0.5,3C165.2,408.9,165.6,409.2,165.5,409.3z"/>
					</g>
				</g>
				<g>
					<g>
						<path class="st10" d="M169,394.5c0,0-0.3-0.1-0.4-0.5c-0.2-0.4-0.3-1-0.1-1.6c0.2-0.6,0.6-1.1,0.9-1.3
							c0.4-0.2,0.6-0.3,0.6-0.2c0.1,0.1-0.8,0.6-1.1,1.7C168.6,393.6,169.1,394.4,169,394.5z"/>
					</g>
				</g>
				<g>
					<g>
						<path class="st10" d="M182.9,414.7c0,0.1-1.8,0.2-4.1,0.2c-2.2,0-4.1-0.2-4.1-0.3c0-0.1,1.8-0.2,4.1-0.2
							C181,414.5,182.9,414.6,182.9,414.7z"/>
					</g>
				</g>
				<g>
					<g>
						<path class="st10" d="M187.3,426.9c0,0.1-3.3-0.5-7.4-1.3c-4-0.9-7.3-1.7-7.3-1.8c0-0.1,3.3,0.5,7.4,1.3
							C184.1,426,187.3,426.8,187.3,426.9z"/>
					</g>
				</g>
			</g>
			<g>
				<g>
					<path class="st6" d="M114.6,338.2c0,0,0-0.2,0.2-0.6c0.1-0.4,0.3-1,0.5-1.8c0.5-1.5,1-3.8,1.4-6.6c0.4-2.8,0.6-6.2,0.4-10
						c-0.2-3.8-0.7-7.9-2.1-12c-1.4-4.1-3.4-7.8-5.8-10.7c-2.4-2.9-5.1-5-7.5-6.6c-2.4-1.5-4.6-2.4-6.1-2.9
						c-0.7-0.3-1.3-0.4-1.7-0.6c-0.4-0.1-0.6-0.2-0.6-0.2c0,0,0.2,0,0.6,0.1c0.4,0.1,1,0.2,1.8,0.5c1.5,0.5,3.7,1.3,6.2,2.8
						c2.5,1.5,5.2,3.6,7.6,6.6c2.5,2.9,4.6,6.6,6,10.8c1.4,4.2,1.9,8.4,2.1,12.2c0.1,3.8-0.1,7.2-0.5,10.1c-0.4,2.8-1,5.1-1.5,6.6
						c-0.2,0.8-0.5,1.3-0.6,1.7C114.7,338,114.6,338.2,114.6,338.2z"/>
				</g>
			</g>
			<g>
				<g>
					<path class="st6" d="M252.9,329c0,0,0,0.2,0,0.6c0,0.5,0,1.1-0.1,1.8c-0.1,1.7-0.2,3.9-0.4,6.7c-0.4,5.7-0.9,13.6-1.4,22.2
						c-0.6,8.6-1.2,16.5-1.6,22.2c-0.2,2.8-0.4,5.1-0.5,6.7c-0.1,0.8-0.1,1.4-0.2,1.8c0,0.4-0.1,0.6-0.1,0.6c0,0,0-0.2,0-0.6
						c0-0.5,0-1.1,0.1-1.8c0.1-1.7,0.2-3.9,0.4-6.7c0.4-5.7,0.9-13.6,1.4-22.2c0.6-8.6,1.2-16.5,1.6-22.2c0.2-2.8,0.4-5.1,0.5-6.7
						c0.1-0.8,0.1-1.4,0.2-1.8C252.9,329.3,252.9,329,252.9,329z"/>
				</g>
			</g>
			<g>
				<g>
					<path class="st6" d="M194.6,319.1c0,0-0.1-0.1-0.3-0.3c-0.2-0.2-0.5-0.5-0.9-0.8c-0.8-0.8-2-1.9-3.4-3.2
						c-1.5-1.4-3.2-3.1-5.2-5.1c-2-2-4.3-4.2-6.6-6.8l0.4-0.1c-1.1,4.8-2.4,10.2-3.7,16l-0.1,0.6l-0.3-0.5c-1.4-2.4-2.8-4.9-4.3-7.5
						c-6.5-11.6-12.1-22.3-16.3-29.9c-2.1-3.8-3.8-6.9-5-9c-0.6-1-1-1.9-1.4-2.5c-0.1-0.3-0.3-0.5-0.3-0.6c-0.1-0.1-0.1-0.2-0.1-0.2
						c0,0,0.1,0.1,0.1,0.2c0.1,0.2,0.2,0.4,0.4,0.6c0.3,0.6,0.8,1.4,1.4,2.4c1.2,2.1,3,5.2,5.1,9c4.3,7.6,9.9,18.2,16.4,29.8
						c1.4,2.6,2.9,5.1,4.3,7.5l-0.5,0.1c1.4-5.8,2.6-11.2,3.8-16l0.1-0.4l0.3,0.3c2.3,2.6,4.6,4.8,6.6,6.8c2,2,3.7,3.7,5.2,5.2
						c1.4,1.4,2.5,2.5,3.3,3.3c0.4,0.4,0.6,0.7,0.9,0.9C194.5,318.9,194.6,319,194.6,319.1z"/>
				</g>
			</g>
			<g>
				<g>
					<path class="st6" d="M196.5,317.8c0,0,0.3-0.4,0.8-1.1c0.5-0.7,1.3-1.7,2.2-2.9c1.8-2.5,4.4-6.2,7.4-10.5l0.2-0.2l0.2,0.2
						c1.2,1.4,2.8,2.8,4.5,4c1.7,1.2,3.6,2.4,5.5,3.7l-0.4,0.1c0-0.1,0.1-0.2,0.1-0.3c2-8.3,3.8-15.8,4.6-21.3
						c0.4-2.8,0.7-5,0.8-6.5c0.1-0.7,0.1-1.3,0.2-1.8c0-0.4,0.1-0.6,0.1-0.6c0,0,0,0.2,0,0.6c0,0.4,0,1-0.1,1.8
						c-0.1,1.6-0.3,3.8-0.7,6.6c-0.7,5.5-2.5,13.1-4.5,21.3c0,0.1-0.1,0.2-0.1,0.3l-0.1,0.4l-0.3-0.2c-1.8-1.3-3.7-2.4-5.5-3.7
						c-1.7-1.2-3.3-2.6-4.5-4.1l0.4,0c-3,4.3-5.6,7.9-7.5,10.4c-1,1.2-1.7,2.2-2.3,2.9c-0.3,0.3-0.5,0.6-0.6,0.7
						C196.6,317.7,196.5,317.8,196.5,317.8z"/>
				</g>
			</g>
			<g>
				<g>
					<path class="st6" d="M193.6,391.4c0,0,0-0.3,0-0.7c0-0.5,0-1.2,0-2.1c0-1.9,0.1-4.5,0.2-7.7c0.1-6.6,0.3-15.6,0.5-25.6
						c0.1-10,0.2-19,0.3-25.6c0-3.2,0-5.9,0.1-7.7c0-0.9,0-1.6,0-2.1c0-0.5,0-0.7,0-0.7c0,0,0,0.3,0.1,0.7c0,0.5,0,1.2,0.1,2.1
						c0,1.9,0.1,4.5,0.1,7.8c0,6.5,0,15.6-0.1,25.6c-0.1,10-0.4,19-0.6,25.6c-0.1,3.2-0.2,5.9-0.3,7.7c0,0.9-0.1,1.6-0.1,2.1
						C193.6,391.1,193.6,391.4,193.6,391.4z"/>
				</g>
			</g>
			<g>
				<g>
					<path class="st6" d="M135.5,433.9c0,0,0-0.2-0.1-0.7c0-0.5,0-1.2-0.1-2.1c0-1.8-0.1-4.5-0.2-7.7c-0.1-6.6-0.3-15.7-0.4-26.1
						l0.2,0.2c-2.4-0.4-4.9-0.8-7.5-1.2c-12-2-22.9-3.9-30.8-5.2c-3.9-0.7-7.1-1.2-9.3-1.6c-1.1-0.2-1.9-0.4-2.5-0.5
						c-0.3-0.1-0.5-0.1-0.7-0.1c-0.1,0-0.2-0.1-0.2-0.1c0,0,0.1,0,0.2,0c0.2,0,0.4,0.1,0.7,0.1c0.6,0.1,1.5,0.2,2.5,0.4
						c2.2,0.4,5.4,0.9,9.3,1.5c7.9,1.3,18.8,3.1,30.8,5.1c2.6,0.4,5.1,0.8,7.5,1.3l0.2,0l0,0.2c0.1,10.4,0.2,19.5,0.3,26.1
						c0,3.2,0,5.9,0,7.7c0,0.9,0,1.6,0,2.1C135.5,433.7,135.5,433.9,135.5,433.9z"/>
				</g>
			</g>
			<g>
				<g>
					<path class="st6" d="M85.8,389.3c0,0.1-1.7,0.2-4.3,0.8c-1.3,0.3-2.9,0.8-4.5,1.4c-1.7,0.7-3.4,1.5-5.2,2.6
						c-1.7,1.1-3.3,2.3-4.7,3.4c-1.3,1.2-2.5,2.3-3.3,3.4c-1.8,2.1-2.6,3.5-2.7,3.5c0,0,0.2-0.4,0.6-1c0.2-0.3,0.4-0.7,0.8-1.2
						c0.3-0.4,0.7-1,1.1-1.5c0.8-1.1,2-2.3,3.3-3.5c1.4-1.2,2.9-2.4,4.7-3.5c1.8-1.1,3.6-1.9,5.3-2.6c1.7-0.6,3.3-1.1,4.6-1.3
						c0.7-0.2,1.3-0.2,1.8-0.3c0.5-0.1,1-0.1,1.4-0.1C85.3,389.2,85.8,389.2,85.8,389.3z"/>
				</g>
			</g>
			<g>
				<g>
					<path class="st6" d="M111.7,347.1c0,0-0.1,0.2-0.2,0.5c-0.2,0.3-0.4,0.7-0.7,1.3c-0.7,1.1-1.6,2.7-2.7,4.6
						c-2.3,3.8-5.5,9.1-9.1,14.9c-3.6,5.8-6.9,11.1-9.2,14.9c-1.2,1.8-2.1,3.4-2.9,4.5c-0.3,0.5-0.6,0.9-0.8,1.2
						c-0.2,0.3-0.3,0.4-0.3,0.4c0,0,0.1-0.2,0.2-0.5c0.2-0.3,0.4-0.7,0.7-1.3c0.7-1.1,1.6-2.7,2.7-4.6c2.3-3.8,5.5-9.1,9.1-14.9
						c3.6-5.8,6.9-11.1,9.2-14.8c1.2-1.8,2.1-3.4,2.9-4.5c0.3-0.5,0.6-0.9,0.8-1.2C111.6,347.3,111.7,347.1,111.7,347.1z"/>
				</g>
			</g>
			<g class="st13">
				<g>
					<path d="M95.6,385.6c10.7-9.1,17.1-24.8,16-38.7l-16.5,27.6L95.6,385.6z"/>
				</g>
			</g>
			<g class="st13">
				<polygon points="153.5,280.4 173.5,325.7 180.7,312.2 191.7,316.2 178.3,302.7 174.6,318.7 				"/>
			</g>
			<g class="st13">
				<g>
					<path d="M280,383.4c8.5-4.5,16.6-8,26.2-7.1c0.9,0.1,3.1,0.3,3.9,0.8c0.7,0.4,1.6,1.9,1.5,2.8c-10.9-0.3-20.9,0.8-30.8,3.4"/>
				</g>
			</g>
			<g class="st13">
				<g>
					<path d="M253.4,323.4c0,0.7-2.5,38.1-2.6,38.8C257.1,349.9,259.2,336,253.4,323.4z"/>
				</g>
			</g>
		</g>
		<g>
			<g>
				<g>
					<g>
						<g>
							<g>
								<g>
									<path class="st6" d="M197.8,140.3c2.6-3.6,7.6-5.1,11.7-3.7c5.6-3.2,13.4-1.9,17.7,3c4.1-1.7,9.1-1,12.7,1.7
										c3.6,2.7,5.6,7.3,5.1,11.7c4.5,0,8.9,3.1,10.3,7.3c1.5,4.3-0.1,9.4-3.7,12.1c4.6,2.3,6.9,8.2,5.1,13
										c-1.8,4.8-7.5,7.7-12.4,6.4L198,152.6C195.3,149.1,195.3,143.9,197.8,140.3z"/>
								</g>
							</g>
						</g>
					</g>
				</g>
			</g>
			<g>
				<g>
					<path class="st9" d="M208.1,146.8l-2.3-0.3c-24.6-2.2-40.2,17.4-41.8,42l-7.7,72.6l39.5,52.7l12.7-18.7l4-21.9
						c0,0,24-0.1,27.8-23.5c1.8-11.3,3.7-34.8,5.2-56.2C247.2,170.5,230.9,150.2,208.1,146.8z"/>
					<g>
						<g>
							<g>
								<g>
									<g>
										<g>
											<g>
												<g>
													<g>
														<g>
															<path class="st10" d="M212.6,273.1c0,0-14.9-1.4-29.1-13.6c0,0,4.6,18,28.1,19.4L212.6,273.1z"/>
														</g>
													</g>
												</g>
											</g>
										</g>
									</g>
								</g>
							</g>
						</g>
					</g>
					<g>
						<g>
							<g>
								<g>
									<g>
										<g>
											<g>
												<g>
													<g>
														<g>
															<g>
																<g>
																	<g>
																		<path class="st6" d="M234,217c-0.2,1.8-1.9,3.1-3.7,2.9c-1.9-0.2-3.2-1.8-3-3.5c0.2-1.8,1.9-3.1,3.7-2.9
																			C232.9,213.7,234.2,215.3,234,217z"/>
																	</g>
																</g>
															</g>
														</g>
													</g>
												</g>
											</g>
										</g>
									</g>
								</g>
							</g>
						</g>
					</g>
					<g>
						<g>
							<g>
								<g>
									<g>
										<g>
											<g>
												<g>
													<g>
														<g>
															<g>
																<g>
																	<g>
																		<g>
																			<path class="st6" d="M238.9,205.3c-0.5,0.4-2.7-1.9-6.3-2.4c-3.6-0.6-6.5,0.9-6.8,0.4c-0.2-0.2,0.4-0.9,1.7-1.6
																				c1.3-0.7,3.3-1.2,5.6-0.8c2.2,0.3,4,1.5,5,2.5C238.9,204.3,239.2,205.2,238.9,205.3z"/>
																		</g>
																	</g>
																</g>
															</g>
														</g>
													</g>
												</g>
											</g>
										</g>
									</g>
								</g>
							</g>
						</g>
					</g>
					<g>
						<g>
							<g>
								<g>
									<g>
										<g>
											<g>
												<g>
													<g>
														<g>
															<g>
																<g>
																	<g>
																		<path class="st6" d="M203.5,213c-0.2,1.8-1.9,3.1-3.7,2.9c-1.9-0.2-3.2-1.8-3-3.5c0.2-1.8,1.9-3.1,3.7-2.9
																			C202.4,209.7,203.7,211.2,203.5,213z"/>
																	</g>
																</g>
															</g>
														</g>
													</g>
												</g>
											</g>
										</g>
									</g>
								</g>
							</g>
						</g>
					</g>
					<g>
						<g>
							<g>
								<g>
									<g>
										<g>
											<g>
												<g>
													<g>
														<g>
															<g>
																<g>
																	<g>
																		<g>
																			<path class="st6" d="M204.6,199.7c-0.5,0.4-2.7-1.9-6.3-2.4c-3.6-0.6-6.5,0.9-6.8,0.4c-0.2-0.2,0.4-0.9,1.7-1.6
																				c1.3-0.7,3.3-1.2,5.5-0.8c2.2,0.3,4,1.5,5,2.5C204.5,198.7,204.8,199.5,204.6,199.7z"/>
																		</g>
																	</g>
																</g>
															</g>
														</g>
													</g>
												</g>
											</g>
										</g>
									</g>
								</g>
							</g>
						</g>
					</g>
					<g>
						<g>
							<g>
								<g>
									<g>
										<g>
											<g>
												<g>
													<g>
														<g>
															<g>
																<g>
																	<g>
																		<path class="st6" d="M212.4,228.1c0-0.2,2.3-0.3,6-0.2c0.9,0,1.8,0,2.1-0.6c0.3-0.6,0.1-1.7-0.2-2.8
																			c-0.5-2.4-1.1-4.8-1.7-7.4c-2.3-10.5-3.8-19.1-3.4-19.2c0.4-0.1,2.6,8.4,4.9,18.9c0.5,2.6,1.1,5.1,1.5,7.4
																			c0.2,1.1,0.6,2.4-0.1,3.7c-0.4,0.6-1.1,1-1.7,1.1c-0.6,0.1-1.1,0-1.6,0C214.7,228.7,212.4,228.3,212.4,228.1z"/>
																	</g>
																</g>
															</g>
														</g>
													</g>
												</g>
											</g>
										</g>
									</g>
								</g>
							</g>
						</g>
					</g>
					<g>
						<g>
							<g>
								<g>
									<g>
										<g>
											<g>
												<g>
													<g>
														<path class="st6" d="M206.2,189.4c-0.6,0.9-3.5-0.4-7.3-0.9c-3.8-0.6-7-0.2-7.3-1.2c-0.1-0.5,0.7-1.2,2.1-1.8
															c1.4-0.6,3.5-1,5.8-0.6c2.3,0.3,4.2,1.3,5.3,2.2C205.9,188.1,206.4,189,206.2,189.4z"/>
													</g>
												</g>
											</g>
										</g>
									</g>
								</g>
							</g>
						</g>
					</g>
					<g>
						<g>
							<g>
								<g>
									<g>
										<g>
											<g>
												<g>
													<g>
														<path class="st6" d="M239.6,195.4c-0.7,0.8-3.1-0.2-6.1-0.5c-3-0.3-5.6,0.2-6.1-0.7c-0.2-0.4,0.2-1.2,1.4-1.9
															c1.1-0.7,3-1.2,5.1-1c2.1,0.2,3.8,1.1,4.8,2C239.6,194.1,239.9,195,239.6,195.4z"/>
													</g>
												</g>
											</g>
										</g>
									</g>
								</g>
							</g>
						</g>
					</g>
					<g>
						<g>
							<g>
								<g>
									<g>
										<g>
											<g>
												<g>
													<path class="st6" d="M245,182.3c0,0-4-15.6-10.5-20.1c-7.9-5.4-13,3.4-20.9-0.1c-7.8-3.5-15.4-8.7-24.7-3.7
														c-10.2,5.5-6.6,11-8.7,21.3c-8.6,41.8-18.1,52.5-17.3,32.4c0.1-2.2-5.7-4.8-5.2-14.2c0.6-12.1,2.3-26.6,6.3-34.7
														c3.3-6.8,8.1-11.1,16.2-15.4c12.8-6.8,28.6-4.7,39.2-2C229.9,148.7,248.7,164.1,245,182.3z"/>
												</g>
											</g>
										</g>
									</g>
								</g>
							</g>
						</g>
					</g>
					<g>
						<g>
							<g>
								<g>
									<g>
										<g>
											<g>
												<g>
													<path class="st9" d="M164.4,211.8c0.4-3.6-2.3-7-5.9-7.2c-4.4-0.2-9.7,1.5-10.7,10.6c-1.9,16.1,14.6,14.7,14.7,14.2
														C162.5,229.1,163.7,218.5,164.4,211.8z"/>
												</g>
											</g>
										</g>
									</g>
								</g>
							</g>
						</g>
					</g>
					<g>
						<g>
							<g>
								<g>
									<g>
										<g>
											<g>
												<g>
													<path class="st10" d="M159.7,223c-0.1-0.1-0.3,0.2-0.8,0.3c-0.5,0.2-1.3,0.2-2.1-0.2c-1.6-0.8-2.7-3.7-2.5-6.6
														c0.1-1.5,0.6-2.8,1.3-3.9c0.6-1.1,1.5-1.9,2.4-1.9c0.9-0.1,1.4,0.5,1.6,1c0.2,0.5,0,0.8,0.1,0.8c0,0,0.4-0.2,0.3-0.9
														c0-0.3-0.2-0.7-0.5-1.1c-0.3-0.4-0.9-0.6-1.5-0.6c-1.3-0.1-2.5,0.9-3.2,2.1c-0.8,1.2-1.4,2.7-1.5,4.4
														c-0.3,3.3,1,6.5,3.3,7.4c1.1,0.4,2.1,0.2,2.6-0.1C159.6,223.4,159.8,223,159.7,223z"/>
												</g>
											</g>
										</g>
									</g>
								</g>
							</g>
						</g>
					</g>
				</g>
				<g>
					<g>
						<g>
							<g>
								<g>
									<g>
										<g>
											<path class="st6" d="M169.4,180.8c1.9,1.7,3.8,3.5,6.3,4.1c2.5,0.6,5.5-0.4,6.3-2.8c0.4-1.1,0.3-2.4,1.1-3.2
												c1-0.9,2.6-0.3,3.9,0c4.6,1.2,9.8-1.4,11.7-5.7c0.9,2,3.7,2.3,5.7,1.4c2-0.9,3.4-2.6,5.1-4c1.6-1.4,3.8-2.5,5.9-1.9
												c1.2,0.3,2.2,1.2,3.4,1.3c2.1,0.1,3.5-2.2,4.2-4.2c0.6-2,1.2-4.4,3.2-5.3c1.8-0.8,3.9,0.1,5.7,0.7
												c1.9,0.6,4.5,0.5,5.2-1.3c0.4-1,0.1-2.1-0.3-3c-1.9-4.3-7.1-6.9-11.7-5.8c-0.8-5.5-5.1-10.4-10.5-11.8
												c-5.4-1.4-11.5,0.7-14.9,5.2c-2.9-3.6-7.6-5.6-12.3-5.3c-4.6,0.3-9,3.1-11.3,7c-3.7-1.6-8.4-0.8-11.4,2
												c-2.9,2.8-4,7.4-2.6,11.2c-3.1,1.2-6,3.7-6.6,7c-0.6,3.3,2.2,7.1,5.5,6.7c-1.7,2.4-1.2,6,1.1,7.9c2.3,1.8,6,1.5,7.9-0.7"
												/>
										</g>
									</g>
								</g>
							</g>
						</g>
					</g>
				</g>
			</g>
			<g>
				<path class="st10" d="M202.6,232.5c-0.3-0.2-0.7-0.4-1-0.4c-0.3,0.1-0.6,0.4-0.7,0.6c-1.5,2.3-1.6,5.4-0.4,7.9c0,0,0,0,0,0.1
					c1.8,3.6,6.9,3.7,9.2,0.4l1.7-2.5C209.4,237.3,204.7,233.9,202.6,232.5z"/>
			</g>
			<g>
				<g>
					<path class="st6" d="M208.6,242.3c0.1,0.1-1.3,1.5-4.3,1.3c-0.7,0-1.6-0.3-2.3-0.8c-0.7-0.4-1.5-1.1-1.9-2
						c-0.9-1.8-1-4-0.6-6.1c0.1-0.5,0.2-1,0.4-1.6c0.2-0.5,0.5-1.1,1.2-1.4c0.8-0.3,1.5,0.1,1.8,0.4c0.4,0.3,0.8,0.6,1.1,0.8
						c1.4,1,2.6,2,3.8,2.9c2.2,1.7,3.5,2.8,3.4,2.9c-0.1,0.1-1.5-0.8-3.8-2.3c-1.2-0.9-2.6-1.8-4-2.7c-0.7-0.5-1.6-1.3-2-1.1
						c-0.5,0.2-0.8,1.3-1,2.3c-0.4,2-0.3,4,0.4,5.5c0.4,0.7,0.9,1.3,1.6,1.7c0.6,0.5,1.2,0.7,1.9,0.8
						C207,243.2,208.6,242.1,208.6,242.3z"/>
				</g>
			</g>
			<g>
				<g>
					<g>
						<g>
							<g>
								<g>
									<g>
										<path class="st8" d="M160.1,173.1c0-0.1-0.5,1.3,0.5,3.2c0.5,0.9,1.5,1.9,2.9,2.4c1.4,0.5,3.2,0.4,4.8-0.6l-0.7-0.2
											c0.6,1.5,1.4,3.1,2.6,4.5c0.8,0.9,1.6,1.7,2.6,2.3c1,0.6,2.2,0.8,3.2,0.8c2.1,0.1,4-0.7,5-2c1-1.2,1.5-2.4,1.8-3.1
											c0.3-0.8,0.4-1.3,0.3-1.3c-0.1,0-0.3,0.4-0.7,1.1c-0.4,0.7-0.9,1.8-1.9,2.8c-1.9,2.1-7,2.5-9.7-1.2
											c-1.1-1.3-1.9-2.8-2.5-4.2l-0.2-0.5l-0.5,0.3c-1.3,0.9-2.8,1-4,0.7c-1.2-0.3-2.1-1.2-2.7-2
											C160,174.4,160.2,173.1,160.1,173.1z"/>
									</g>
								</g>
							</g>
						</g>
					</g>
				</g>
			</g>
			<g>
				<g>
					<g>
						<g>
							<g>
								<g>
									<g>
										<path class="st8" d="M195.8,141.1c0,0.1,0.4,0.2,1.1,0.6c0.7,0.4,1.6,1.2,2.2,2.5l0.1,0.3l0.3-0.3c1.8-1.8,4.7-4,8.7-5.1
											c2-0.5,4.2-0.8,6.5-0.4c2.3,0.3,4.6,1.3,6.5,3c1.5,1.2,2.7,2.8,3.5,4.4c0.8,1.7,1.1,3.4,1,5.1l0,0.5l0.5-0.1
											c2.5-0.3,4.9,0.5,6.5,1.8c1.7,1.3,2.6,3,3.1,4.4c0.9,3,0.1,4.9,0.3,4.9c0,0,0.2-0.4,0.4-1.3c0.1-0.9,0.2-2.2-0.2-3.8
											c-0.4-1.6-1.3-3.4-3.1-4.9c-1.7-1.4-4.3-2.4-7.1-2.1l0.5,0.5c0.1-1.8-0.3-3.7-1.1-5.5c-0.8-1.8-2.1-3.4-3.7-4.8
											c-2-1.7-4.5-2.8-7-3.1c-2.4-0.4-4.8-0.1-6.9,0.5c-4.2,1.2-7.1,3.6-8.8,5.5l0.4,0.1c-0.7-1.4-1.8-2.2-2.5-2.5
											C196.3,141.1,195.8,141,195.8,141.1z"/>
									</g>
								</g>
							</g>
						</g>
					</g>
				</g>
			</g>
		</g>
	</g>
</g>
</svg>
