<?xml version="1.0" encoding="utf-8"?>
<!-- Generator: Adobe Illustrator 26.5.0, SVG Export Plug-In . SVG Version: 6.00 Build 0)  -->
<svg version="1.1" xmlns="http://www.w3.org/2000/svg" xmlns:xlink="http://www.w3.org/1999/xlink" x="0px" y="0px"
	 viewBox="0 0 500 500" style="enable-background:new 0 0 500 500;" xml:space="preserve">
<style type="text/css">
	.st0{fill:#EBEBEB;}
	.st1{fill:#FFFFFF;}
	.st2{fill:#FAFAFA;}
	.st3{fill:#E0E0E0;}
	.st4{display:none;}
	.st5{display:inline;}
	.st6{fill:#F5F5F5;}
	.st7{fill:#FF725E;}
	.st8{fill:#263238;}
	.st9{opacity:0.3;}
	.st10{fill:#455A64;}
	.st11{opacity:0.2;}
	.st12{fill:none;stroke:#000000;stroke-width:5.000000e-02;stroke-miterlimit:10;}
	.st13{fill:#FFBF9D;}
	.st14{fill:#FF9A6C;}
</style>
<g id="Background_Complete">
	<g>
		<g>
			<g>
				<g>
					<g>
						<g>
							
								<rect x="359" y="258.7" transform="matrix(-1 -1.224647e-16 1.224647e-16 -1 790.2039 573.0951)" class="st0" width="72.3" height="55.7"/>
						</g>
					</g>
				</g>
				<g>
					<g>
						<g>
							
								<rect x="364.1" y="299.7" transform="matrix(-1 -1.224647e-16 1.224647e-16 -1 736.9787 609.2582)" class="st1" width="8.7" height="9.8"/>
						</g>
					</g>
				</g>
				<g>
					<g>
						<g>
							<rect x="401" y="258.8" class="st2" width="8.2" height="11.9"/>
						</g>
					</g>
				</g>
				<g>
					<g>
						<g>
							<rect x="401" y="302.4" class="st2" width="8.2" height="11.9"/>
						</g>
					</g>
				</g>
			</g>
		</g>
		<g>
			<g>
				<g>
					<g>
						<path class="st3" d="M377,314.8c-0.1,0-0.2-12.3-0.2-27.4c0-15.1,0.1-27.4,0.2-27.4c0.1,0,0.2,12.3,0.2,27.4
							C377.2,302.5,377.1,314.8,377,314.8z"/>
					</g>
				</g>
			</g>
		</g>
	</g>
	<g>
		<g>
			<g>
				<g>
					<g>
						<g>
							
								<rect x="329.5" y="314.2" transform="matrix(-1 -1.224647e-16 1.224647e-16 -1 783.676 724.6304)" class="st0" width="124.7" height="96.2"/>
						</g>
					</g>
				</g>
				<g>
					<g>
						<g>
							
								<rect x="338.4" y="385" transform="matrix(-1 -1.224647e-16 1.224647e-16 -1 691.8409 787.0265)" class="st1" width="15" height="17"/>
						</g>
					</g>
				</g>
				<g>
					<g>
						<g>
							<rect x="402" y="314.5" class="st2" width="14.2" height="20.5"/>
						</g>
					</g>
				</g>
				<g>
					<g>
						<g>
							<rect x="402" y="389.6" class="st2" width="14.2" height="20.5"/>
						</g>
					</g>
				</g>
			</g>
		</g>
		<g>
			<g>
				<g>
					<g>
						<path class="st3" d="M360.6,411.1c-0.2,0-0.4-21.2-0.4-47.2c0-26.1,0.2-47.2,0.4-47.2c0.2,0,0.4,21.1,0.4,47.2
							C361,389.9,360.8,411.1,360.6,411.1z"/>
					</g>
				</g>
			</g>
		</g>
	</g>
	<g>
		<polygon class="st0" points="450.2,114.2 456.9,127.7 471.8,129.9 461,140.4 463.6,155.3 450.2,148.3 436.9,155.3 439.4,140.4 
			428.6,129.9 443.5,127.7 		"/>
	</g>
	<g>
		<polygon class="st0" points="52.5,289 56.7,297.5 66.1,298.9 59.3,305.5 60.9,314.9 52.5,310.5 44.1,314.9 45.7,305.5 38.9,298.9 
			48.3,297.5 		"/>
	</g>
	<g>
		<polygon class="st0" points="57.7,214.7 67.1,233.6 88,236.6 72.9,251.4 76.4,272.2 57.7,262.4 39,272.2 42.6,251.4 27.5,236.6 
			48.4,233.6 		"/>
	</g>
	<g>
		<polygon class="st0" points="444.3,175.3 448.3,183.5 457.3,184.8 450.8,191.2 452.3,200.1 444.3,195.9 436.2,200.1 437.8,191.2 
			431.2,184.8 440.2,183.5 		"/>
	</g>
	<g>
		<polygon class="st0" points="312,43.1 316.1,51.2 325.1,52.5 318.6,58.9 320.1,67.9 312,63.6 304,67.9 305.5,58.9 299,52.5 
			308,51.2 		"/>
	</g>
	<g>
		<polygon class="st0" points="404.2,130.4 406.9,135.8 412.8,136.6 408.5,140.8 409.5,146.6 404.2,143.9 399,146.6 400,140.8 
			395.7,136.6 401.6,135.8 		"/>
	</g>
	<g>
		<polygon class="st0" points="160.9,400.1 166.1,410.5 177.5,412.2 169.2,420.3 171.2,431.7 160.9,426.3 150.7,431.7 152.6,420.3 
			144.3,412.2 155.8,410.5 		"/>
	</g>
	<g>
		<polygon class="st0" points="174.5,389.8 176.6,394.1 181.3,394.8 177.9,398.1 178.7,402.8 174.5,400.6 170.2,402.8 171,398.1 
			167.6,394.8 172.4,394.1 		"/>
	</g>
</g>
<g id="Background_Simple" class="st4">
	<g class="st5">
		<path class="st6" d="M462.3,345.3l-1-0.9c-8.6-7.5-20.5-9.8-31-5.7c-1.3,0.5-2.7,1.2-3.9,1.9c-9.1,5.2-15.2,15.3-15.7,25.8
			c-0.3,6.2,1.2,12.8-1.3,18.4c-3.3,7.4-11.9,10.3-19.6,12.5c-7.7,2.2-16.3,5.2-19.5,12.6c-2,4.6-1.4,10.1,0.4,14.8
			c4.8,12.6,17.3,21.1,30.5,23.2c13.1,2.1,26.6-1.7,38.2-8.2c16.2-9.1,29.7-24,34.9-42C479.3,379.8,475.4,358.7,462.3,345.3z"/>
	</g>
	<g class="st5">
		<path class="st6" d="M410.5,65.1l-1.3,0.5c-10.7,3.9-18.5,13.2-20,24.4c-0.2,1.4-0.3,2.9-0.3,4.3c0.2,10.5,6,20.7,15,26.3
			c5.3,3.3,11.8,5.2,15.5,10.1c4.9,6.4,3.3,15.4,1.5,23.2c-1.8,7.8-3.4,16.8,1.5,23.2c3.1,4,8.1,6.1,13.2,6.8
			c13.3,1.9,26.9-4.9,35.1-15.4S482,144.3,482,131c0-18.6-6.6-37.6-19.8-50.8C448.9,66.9,428.6,60.2,410.5,65.1z"/>
	</g>
	<g class="st5">
		<path class="st6" d="M41.2,373.4l0.7-1.2c5.9-9.7,16.6-15.6,27.8-14.9c1.4,0.1,2.9,0.3,4.3,0.6c10.2,2.2,19.1,9.9,22.8,19.8
			c2.2,5.8,2.8,12.5,6.9,17.2c5.4,6,14.5,6.2,22.5,6c8-0.2,17.1,0,22.4,6c3.3,3.8,4.4,9.2,4.1,14.2c-0.7,13.4-10.1,25.4-22,31.4
			c-11.9,6-25.9,6.5-38.9,3.9c-18.2-3.7-35.6-13.8-46-29.4C35.5,411.4,32.8,390.2,41.2,373.4z"/>
	</g>
	<g class="st5">
		
			<ellipse transform="matrix(0.2322 -0.9727 0.9727 0.2322 65.0519 655.4916)" class="st6" cx="447.7" cy="286.5" rx="25.1" ry="25.1"/>
	</g>
	<g class="st5">
		
			<ellipse transform="matrix(0.7071 -0.7071 0.7071 0.7071 52.1625 231.9899)" class="st6" cx="306.1" cy="53" rx="25.1" ry="25.1"/>
	</g>
	<g class="st5">
		
			<ellipse transform="matrix(0.2212 -0.9752 0.9752 0.2212 -256.9462 306.502)" class="st6" cx="63.4" cy="314.1" rx="25.1" ry="25.1"/>
	</g>
</g>
<g id="Stars">
	<g>
		<polygon class="st7" points="364.1,349.9 368.7,359.1 378.7,360.5 371.4,367.7 373.2,377.7 364.1,373 355.1,377.7 356.8,367.7 
			349.5,360.5 359.6,359.1 		"/>
	</g>
	<g>
		<polygon class="st7" points="385.7,341.8 387.8,346.1 392.6,346.8 389.1,350.2 389.9,354.9 385.7,352.7 381.4,354.9 382.2,350.2 
			378.8,346.8 383.6,346.1 		"/>
	</g>
</g>
<g id="Speech_Bubble">
	<g>
		<g>
			<g>
				<g>
					<g>
						<g>
							<g>
								<g>
									<g>
										<g>
											<g>
												<g>
													<g>
														<g>
															<g>
																<path class="st2" d="M357.4,103.7l3.5-11.1c-2.7-5.5-4.1-11.8-3.5-18.4c1.7-18.9,18.5-32.9,37.4-31.2
																	c19,1.7,32.9,18.5,31.2,37.4c-1.7,18.9-18.5,32.9-37.4,31.2c-7.9-0.7-14.4-3.6-19.8-8.6l0,0L357.4,103.7z"/>
															</g>
															<g>
																<g>
																	<path class="st8" d="M357.4,103.7c0,0,0.3,0,0.8-0.1c0.5,0,1.2-0.1,2.2-0.2c1.9-0.1,4.8-0.3,8.5-0.6l0,0l0,0
																		c3.3,3,8.2,6.3,15,7.8c1.7,0.4,3.4,0.6,5.3,0.8c0.9,0,1.9,0.1,2.8,0.1c0.9,0,1.9-0.1,2.9-0.2
																		c3.9-0.4,8-1.4,11.9-3.3c3.9-1.9,7.7-4.7,10.8-8.3c3.1-3.6,5.7-7.9,7.1-12.8c1.4-4.9,1.8-10.2,0.9-15.5
																		c-0.2-1.3-0.6-2.6-0.9-3.9c-0.1-0.7-0.4-1.3-0.7-1.9c-0.2-0.6-0.5-1.3-0.7-1.9c-1.2-2.5-2.5-4.9-4.2-7.1
																		c-0.8-1.1-1.8-2.1-2.7-3.1c-0.4-0.5-1-0.9-1.5-1.4c-0.5-0.4-1-0.9-1.5-1.4l-1.6-1.2l-0.8-0.6l-0.9-0.5l-1.7-1
																		c-0.6-0.3-1.2-0.6-1.8-0.9c-4.8-2.3-10.1-3.4-15.2-3.3c-5.1,0.1-10,1.3-14.2,3.4c-4.3,2.1-7.9,4.9-10.8,8.2
																		c-2.9,3.3-5,6.9-6.4,10.6c-0.2,0.5-0.3,0.9-0.5,1.4c-0.2,0.5-0.3,0.9-0.4,1.4c-0.2,0.9-0.5,1.8-0.7,2.7
																		c-0.2,1.8-0.6,3.6-0.6,5.3c-0.3,6.9,1.5,12.5,3.5,16.5l0,0l0,0c-1.2,3.6-2.1,6.3-2.7,8.2c-0.3,0.9-0.5,1.6-0.7,2.1
																		C357.5,103.4,357.4,103.7,357.4,103.7s0.1-0.2,0.2-0.7c0.2-0.5,0.4-1.2,0.6-2.1c0.6-1.9,1.5-4.7,2.6-8.3l0,0.1
																		c-2-4-3.9-9.7-3.6-16.6c0-1.7,0.4-3.5,0.6-5.3c0.2-0.9,0.4-1.8,0.7-2.7c0.1-0.5,0.2-0.9,0.4-1.4
																		c0.2-0.5,0.3-0.9,0.5-1.4c1.4-3.7,3.5-7.4,6.4-10.7c2.9-3.3,6.6-6.2,10.9-8.3c4.3-2.1,9.3-3.4,14.4-3.5
																		c5.1-0.1,10.5,1,15.4,3.3c0.6,0.3,1.2,0.6,1.8,0.9l1.8,1.1l0.9,0.5l0.8,0.6l1.7,1.2c0.5,0.4,1,0.9,1.6,1.4
																		c0.5,0.5,1.1,0.9,1.5,1.4c0.9,1,1.9,2,2.7,3.2c1.8,2.2,3.1,4.7,4.3,7.2c0.3,0.6,0.5,1.3,0.7,1.9
																		c0.2,0.7,0.5,1.3,0.7,2c0.3,1.3,0.8,2.6,0.9,4c0.9,5.4,0.6,10.8-0.9,15.7c-1.4,5-4,9.4-7.2,13
																		c-3.2,3.6-7,6.4-11,8.3c-4,1.9-8.1,3-12.1,3.3c-1,0-2,0.1-2.9,0.1c-1,0-1.9-0.1-2.8-0.1c-1.9-0.1-3.6-0.4-5.3-0.8
																		c-6.8-1.5-11.8-4.9-15-7.9l0.1,0c-3.7,0.2-6.6,0.3-8.6,0.4c-0.9,0-1.7,0.1-2.2,0.1
																		C357.7,103.7,357.4,103.7,357.4,103.7z"/>
																</g>
															</g>
														</g>
													</g>
												</g>
											</g>
										</g>
									</g>
								</g>
							</g>
						</g>
					</g>
				</g>
			</g>
		</g>
		<g>
			<g>
				<g>
					<g>
						<polygon class="st7" points="372.3,76 378,71.1 387.5,80.9 408.9,63.1 413.5,68.7 386,91 						"/>
					</g>
				</g>
			</g>
		</g>
	</g>
</g>
<g id="Form">
	<g>
		<g>
			<g>
				<g>
					<g>
						<g>
							<g>
								<path class="st3" d="M298.1,349.5l-191.8,42.7c-4.7,1-9.3-1.9-10.3-6.5L33.8,106.4c-1-4.7,1.9-9.3,6.5-10.3l191.8-42.7
									c4.7-1,9.3,1.9,10.3,6.5l62.2,279.2C305.7,343.8,302.8,348.5,298.1,349.5z"/>
							</g>
						</g>
					</g>
					<g>
						<g>
							<g>
								<g>
									<path class="st8" d="M298.1,349.5c0,0,0.2-0.1,0.6-0.2c0.4-0.1,1-0.4,1.8-0.8c0.7-0.4,1.6-1.1,2.4-2.1c0.8-1,1.5-2.4,1.8-4
										c0.1-0.8,0.1-1.7,0-2.7c-0.2-0.9-0.4-1.9-0.6-2.9c-0.5-2-1-4.3-1.5-6.7c-1.1-4.8-2.3-10.4-3.7-16.7
										c-5.6-25.2-13.8-61.6-23.8-106.6c-5-22.5-10.5-47.2-16.4-73.6c-3-13.2-6-26.9-9.2-41c-1.6-7-3.2-14.2-4.8-21.4
										c-0.8-3.6-1.6-7.3-2.5-10.9c-0.4-1.8-1.5-3.4-3-4.6c-1.5-1.1-3.3-1.8-5.2-1.8c-0.9,0-1.8,0.2-2.8,0.4
										c-0.9,0.2-1.9,0.4-2.8,0.6c-1.9,0.4-3.7,0.8-5.6,1.3c-3.8,0.8-7.6,1.7-11.4,2.5c-7.6,1.7-15.3,3.4-23.1,5.2
										c-15.6,3.5-31.5,7-47.7,10.6c-32.4,7.2-65.9,14.7-100.2,22.3c-2.1,0.5-4,1.8-5.2,3.5c-1.2,1.8-1.7,4-1.3,6.1
										c0.9,4.3,1.9,8.5,2.8,12.8c1.9,8.5,3.8,16.9,5.6,25.3c3.7,16.7,7.4,33.2,11,49.4c7.2,32.4,14.2,63.6,20.8,93.4
										c6.6,29.8,12.9,58,18.8,84.5c0.7,3.3,1.5,6.6,2.2,9.8c0.4,1.6,0.7,3.3,1.1,4.8c0.4,1.6,1.3,3,2.5,4.1
										c1.2,1.1,2.7,1.8,4.2,2.1c0.8,0.1,1.6,0.1,2.4,0.1c0.8-0.1,1.6-0.3,2.3-0.5c3.1-0.7,6.2-1.4,9.3-2.1
										c12.3-2.7,24.1-5.4,35.3-7.9c45-10,81.4-18.1,106.6-23.7c12.6-2.8,22.4-5,29-6.4c3.3-0.7,5.8-1.3,7.5-1.7
										C297.2,349.7,298.1,349.5,298.1,349.5s-0.9,0.2-2.6,0.6c-1.7,0.4-4.2,1-7.5,1.7c-6.6,1.5-16.4,3.7-29,6.5
										c-25.2,5.6-61.6,13.8-106.6,23.8c-11.3,2.5-23,5.1-35.3,7.9c-3.1,0.7-6.2,1.4-9.3,2.1c-0.8,0.2-1.6,0.4-2.4,0.5
										c-0.8,0.1-1.6,0.1-2.5-0.1c-1.6-0.3-3.2-1-4.4-2.2c-1.2-1.1-2.2-2.6-2.6-4.2c-0.4-1.6-0.7-3.2-1.1-4.9
										c-0.7-3.3-1.5-6.5-2.2-9.8c-5.9-26.5-12.2-54.7-18.9-84.5c-6.6-29.8-13.6-61-20.8-93.4c-3.6-16.2-7.3-32.7-11-49.4
										c-1.9-8.4-3.7-16.8-5.6-25.3c-0.9-4.2-1.9-8.5-2.8-12.8c-0.4-2.2,0.1-4.6,1.4-6.4c1.2-1.9,3.2-3.2,5.4-3.7
										c34.3-7.7,67.9-15.1,100.2-22.3c16.2-3.6,32.1-7.1,47.7-10.6c7.8-1.7,15.5-3.5,23.1-5.1c3.8-0.8,7.6-1.7,11.4-2.5
										c1.9-0.4,3.8-0.8,5.6-1.3c0.9-0.2,1.9-0.4,2.8-0.6c0.9-0.2,1.9-0.4,2.9-0.4c2,0,3.9,0.7,5.4,1.9c1.5,1.2,2.6,2.9,3.1,4.8
										c0.8,3.7,1.6,7.3,2.5,10.9c1.6,7.2,3.2,14.4,4.8,21.5c3.1,14.1,6.2,27.8,9.1,41c5.9,26.5,11.4,51.1,16.4,73.6
										c10,45,18.1,81.4,23.7,106.6c1.4,6.3,2.6,11.9,3.7,16.7c0.5,2.4,1,4.7,1.5,6.7c0.2,1,0.5,2,0.6,2.9c0.1,0.9,0.2,1.9,0,2.7
										c-0.3,1.7-1,3.1-1.8,4.1c-0.8,1-1.7,1.7-2.5,2.1c-0.8,0.4-1.4,0.6-1.8,0.8C298.3,349.4,298.1,349.5,298.1,349.5z"/>
								</g>
							</g>
						</g>
					</g>
				</g>
				<g class="st9">
					<g>
						<g>
							<polygon points="116.1,382.3 290.8,342.4 285.3,308.2 275.4,289 108.2,354.6 							"/>
						</g>
					</g>
				</g>
				<g class="st9">
					<g>
						<g>
							<polygon points="189,63.6 195.6,74.5 196.9,80.3 192.4,81.3 							"/>
						</g>
					</g>
				</g>
				<g>
					<g>
						<g>
							<polygon class="st1" points="43.8,108.1 104.4,380.1 294.4,337.7 283.6,289.1 233.8,65.7 							"/>
						</g>
					</g>
					<g>
						<g>
							<g>
								<path class="st8" d="M43.8,108.1c1.4-0.3,74.5-16.7,190-42.5l0.2,0l0,0.2c16.9,75.6,37.9,169.9,60.7,272l0,0l0,0.2l-0.2,0
									c-67.9,15.1-132.4,29.5-190,42.3l-0.2,0l0-0.2C68.5,219.5,44.1,109.7,43.8,108.1c0.4,1.7,24.9,111.4,60.8,272l-0.2-0.1
									c57.6-12.8,122.1-27.2,190-42.4l-0.2,0.2l0,0c-22.7-102.1-43.7-196.4-60.6-272l0.2,0.1C118.3,91.5,45.1,107.7,43.8,108.1z"
									/>
							</g>
						</g>
					</g>
				</g>
			</g>
			<g>
				<g>
					<g>
						<g>
							<path class="st8" d="M193.5,83.5L97.3,105l-4.8-21.7c-0.8-3.4,1.4-6.8,4.8-7.6L181.1,57c3.4-0.8,6.8,1.4,7.6,4.8L193.5,83.5z
								"/>
						</g>
					</g>
				</g>
				<g>
					<g>
						<g>
							<polygon class="st8" points="149.1,53.2 124.6,58.6 132.1,78.9 150.6,74.8 							"/>
						</g>
					</g>
				</g>
				<g>
					<g>
						<g>
							<g>
								<path class="st10" d="M181.1,57c0,0.1-18.7,4.4-41.8,9.5c-23.1,5.2-41.9,9.2-41.9,9.1c0-0.1,18.7-4.4,41.9-9.5
									C162.3,61,181,56.9,181.1,57z"/>
							</g>
						</g>
					</g>
				</g>
				<g>
					<g>
						<g>
							<g>
								<path class="st10" d="M98.5,100c-0.1,0-1.1-3.9-2.2-8.8c-1.1-4.9-1.9-8.8-1.8-8.9c0.1,0,1.1,3.9,2.2,8.8
									C97.8,96,98.6,100,98.5,100z"/>
							</g>
						</g>
					</g>
				</g>
				<g>
					<g>
						<g>
							<g>
								<path class="st10" d="M188.9,77.6c-0.1,0-1-3.5-2-8c-1-4.4-1.7-8-1.6-8c0.1,0,1,3.5,2,8C188.3,74,189,77.6,188.9,77.6z"/>
							</g>
						</g>
					</g>
				</g>
				<g>
					<g>
						<g>
							<g>
								<path class="st10" d="M185.1,82.4c0,0.1-19.2,4.5-43,9.8c-23.8,5.3-43,9.5-43.1,9.4c0-0.1,19.2-4.5,43-9.8
									C165.8,86.5,185,82.3,185.1,82.4z"/>
							</g>
						</g>
					</g>
				</g>
			</g>
		</g>
		<g>
			<g>
				<g>
					<path class="st8" d="M134.4,161.5c0,0.1-12.9,3.1-29,6.7c-16,3.6-29,6.4-29.1,6.3c0-0.1,12.9-3.1,29-6.7
						C121.4,164.2,134.4,161.4,134.4,161.5z"/>
				</g>
			</g>
		</g>
		<g>
			<g>
				<g>
					<path class="st8" d="M231.2,150.6c0,0.1-33.9,7.8-75.7,17.1c-41.8,9.3-75.8,16.8-75.8,16.7c0-0.1,33.9-7.8,75.7-17.1
						C197.2,158,231.1,150.5,231.2,150.6z"/>
				</g>
			</g>
		</g>
		<g>
			<g>
				<g>
					<path class="st8" d="M233.2,160c0,0.1-33.9,7.8-75.7,17.1c-41.8,9.3-75.8,16.8-75.8,16.7c0-0.1,33.9-7.8,75.7-17.1
						C199.3,167.3,233.2,159.9,233.2,160z"/>
				</g>
			</g>
		</g>
		<g>
			<g>
				<g>
					<path class="st8" d="M235.3,169.3c0,0.1-33.9,7.8-75.7,17.1c-41.8,9.3-75.8,16.8-75.8,16.7c0-0.1,33.9-7.8,75.7-17.1
						C201.4,176.7,235.3,169.2,235.3,169.3z"/>
				</g>
			</g>
		</g>
		<g>
			<g>
				<g>
					<path class="st8" d="M237.4,178.7c0,0.1-33.9,7.8-75.7,17.1c-41.8,9.3-75.8,16.8-75.8,16.7c0-0.1,33.9-7.8,75.7-17.1
						C203.4,186,237.4,178.6,237.4,178.7z"/>
				</g>
			</g>
		</g>
		<g>
			<g>
				<g>
					<path class="st8" d="M239.5,188c0,0.1-33.9,7.8-75.7,17.1c-41.8,9.3-75.8,16.8-75.8,16.7c0-0.1,33.9-7.8,75.7-17.1
						C205.5,195.4,239.5,187.9,239.5,188z"/>
				</g>
			</g>
		</g>
		<g>
			<g>
				<g>
					<path class="st8" d="M117.4,253.8c0,0,0-0.1-0.1-0.3c-0.1-0.2-0.1-0.5-0.2-0.9c-0.2-0.8-0.5-1.9-0.8-3.3
						c-0.7-2.9-1.6-7-2.7-11.8l0.2,0.1c-4.8,1.1-10.4,2.3-16.4,3.7c0,0.1,0.3-0.5,0.2-0.2l0,0l0,0l0,0l0,0l0,0.1l0,0.1l0.1,0.3
						l0.1,0.6c0.1,0.4,0.2,0.7,0.2,1.1c0.2,0.7,0.3,1.5,0.5,2.2c0.3,1.4,0.6,2.9,0.9,4.2c0.6,2.8,1.2,5.4,1.7,7.7l-0.2-0.1
						c4.9-1,9-1.9,11.9-2.5c1.4-0.3,2.5-0.5,3.4-0.7c0.4-0.1,0.7-0.1,0.9-0.2C117.3,253.8,117.4,253.8,117.4,253.8
						c0,0-0.1,0-0.3,0.1c-0.2,0.1-0.5,0.1-0.9,0.2c-0.8,0.2-1.9,0.5-3.3,0.8c-2.9,0.7-7,1.6-11.9,2.8l-0.2,0l0-0.2
						c-0.5-2.4-1.1-5-1.7-7.7c-0.3-1.4-0.6-2.8-1-4.2c-0.2-0.7-0.3-1.5-0.5-2.2c-0.1-0.4-0.2-0.7-0.2-1.1l-0.1-0.6l-0.1-0.3l0-0.1
						l0-0.1l0,0l0,0l0,0l0,0c-0.1,0.2,0.2-0.3,0.2-0.3c6-1.3,11.6-2.6,16.4-3.6l0.2,0l0,0.2c1.1,4.9,1.9,9,2.6,12
						c0.3,1.4,0.5,2.5,0.7,3.3c0.1,0.4,0.1,0.6,0.2,0.9C117.4,253.7,117.4,253.8,117.4,253.8z"/>
				</g>
			</g>
		</g>
		<g>
			<g>
				<g>
					
						<rect x="124.5" y="226" transform="matrix(0.9761 -0.2175 0.2175 0.9761 -45.8387 45.3649)" class="st3" width="117.2" height="9.8"/>
				</g>
			</g>
		</g>
		<g>
			<g>
				<g>
					<path class="st8" d="M123.7,282.3c0,0,0-0.1-0.1-0.3c-0.1-0.2-0.1-0.5-0.2-0.9c-0.2-0.8-0.5-1.9-0.8-3.3
						c-0.7-2.9-1.6-7-2.7-11.8l0.2,0.1c-4.8,1.1-10.4,2.3-16.4,3.7c0,0.1,0.3-0.5,0.2-0.2l0,0l0,0l0,0l0,0l0,0.1l0,0.1l0.1,0.3
						l0.1,0.6c0.1,0.4,0.2,0.7,0.2,1.1c0.2,0.7,0.3,1.5,0.5,2.2c0.3,1.4,0.6,2.9,0.9,4.2c0.6,2.8,1.2,5.4,1.7,7.7l-0.2-0.1
						c4.9-1,9-1.9,11.9-2.5c1.4-0.3,2.5-0.5,3.4-0.7c0.4-0.1,0.7-0.1,0.9-0.2C123.6,282.3,123.7,282.3,123.7,282.3
						c0,0-0.1,0-0.3,0.1c-0.2,0.1-0.5,0.1-0.9,0.2c-0.8,0.2-1.9,0.5-3.3,0.8c-2.9,0.7-7,1.6-11.9,2.8l-0.2,0l0-0.2
						c-0.5-2.4-1.1-5-1.7-7.7c-0.3-1.4-0.6-2.8-1-4.2c-0.2-0.7-0.3-1.5-0.5-2.2c-0.1-0.4-0.2-0.7-0.2-1.1l-0.1-0.6l-0.1-0.3l0-0.1
						l0-0.1l0,0l0,0l0,0l0,0c-0.1,0.2,0.2-0.3,0.2-0.3c6-1.3,11.6-2.6,16.4-3.6l0.2,0l0,0.2c1.1,4.9,1.9,9,2.6,12
						c0.3,1.4,0.5,2.5,0.7,3.3c0.1,0.4,0.1,0.6,0.2,0.9C123.7,282.2,123.7,282.3,123.7,282.3z"/>
				</g>
			</g>
		</g>
		<g>
			<g>
				<g>
					
						<rect x="130.9" y="254.5" transform="matrix(0.9761 -0.2175 0.2175 0.9761 -51.8759 47.4254)" class="st3" width="117.2" height="9.8"/>
				</g>
			</g>
		</g>
		<g>
			<g>
				<g>
					<path class="st8" d="M130.1,310.7c0,0,0-0.1-0.1-0.3c-0.1-0.2-0.1-0.5-0.2-0.9c-0.2-0.8-0.5-1.9-0.8-3.3
						c-0.7-2.9-1.6-7-2.7-11.8l0.2,0.1c-4.8,1.1-10.4,2.3-16.4,3.7c0,0.1,0.3-0.5,0.2-0.2l0,0l0,0l0,0l0,0l0,0.1l0,0.1l0.1,0.3
						l0.1,0.6c0.1,0.4,0.2,0.7,0.2,1.1c0.2,0.7,0.3,1.5,0.5,2.2c0.3,1.4,0.6,2.9,0.9,4.2c0.6,2.8,1.2,5.4,1.7,7.7l-0.2-0.1
						c4.9-1,9-1.9,11.9-2.5c1.4-0.3,2.5-0.5,3.4-0.7c0.4-0.1,0.7-0.1,0.9-0.2C129.9,310.7,130,310.7,130.1,310.7c0,0-0.1,0-0.3,0.1
						c-0.2,0.1-0.5,0.1-0.9,0.2c-0.8,0.2-1.9,0.5-3.3,0.8c-2.9,0.7-7,1.6-11.9,2.8l-0.2,0l0-0.2c-0.5-2.4-1.1-5-1.7-7.7
						c-0.3-1.4-0.6-2.8-1-4.2c-0.2-0.7-0.3-1.5-0.5-2.2c-0.1-0.4-0.2-0.7-0.2-1.1l-0.1-0.6l-0.1-0.3l0-0.1l0-0.1l0,0l0,0l0,0l0,0
						c-0.1,0.2,0.2-0.3,0.2-0.3c6-1.3,11.6-2.6,16.4-3.6l0.2,0l0,0.2c1.1,4.9,1.9,9,2.6,12c0.3,1.4,0.5,2.5,0.7,3.3
						c0.1,0.4,0.1,0.6,0.2,0.9C130,310.6,130.1,310.7,130.1,310.7z"/>
				</g>
			</g>
		</g>
		<g>
			<g>
				<g>
					
						<rect x="137.2" y="282.9" transform="matrix(0.9761 -0.2175 0.2175 0.9761 -57.913 49.486)" class="st3" width="117.2" height="9.8"/>
				</g>
			</g>
		</g>
		<g>
			<g>
				<g>
					<g>
						<g>
							<g>
								<polygon class="st7" points="101.6,247.9 103.3,245.2 108.4,248.1 115,238.2 117.6,239.9 109.1,252.4 								"/>
							</g>
						</g>
					</g>
				</g>
			</g>
		</g>
		<g>
			<g>
				<g>
					<g>
						<g>
							<g>
								<polygon class="st7" points="107.7,275.4 109.5,272.7 114.6,275.6 121.1,265.7 123.7,267.4 115.2,279.9 								"/>
							</g>
						</g>
					</g>
				</g>
			</g>
		</g>
		<g>
			<g>
				<g>
					<g>
						<g>
							<g>
								<polygon class="st7" points="114,303.6 115.7,300.9 120.9,303.8 127.4,293.8 130,295.6 121.5,308.1 								"/>
							</g>
						</g>
					</g>
				</g>
			</g>
		</g>
		<g>
			<g>
				<g>
					<path class="st8" d="M166.4,339c0,0.1-9.6,2.4-21.6,5c-11.9,2.7-21.6,4.7-21.7,4.6c0-0.1,9.6-2.4,21.6-5
						C156.7,341,166.4,338.9,166.4,339z"/>
				</g>
			</g>
		</g>
		<g>
			<g>
				<g>
					<path class="st8" d="M187.9,333.9c0,0.1-3.5,1-7.9,2c-4.4,1-8,1.7-8,1.6c0-0.1,3.5-1,7.9-2
						C184.3,334.5,187.9,333.8,187.9,333.9z"/>
				</g>
			</g>
		</g>
		<g>
			<g>
				<g>
					<path class="st8" d="M259.3,311.4c0,0.1-8.7,2.1-19.4,4.5c-10.7,2.4-19.5,4.2-19.5,4.1c0-0.1,8.7-2.1,19.4-4.5
						C250.5,313.1,259.3,311.3,259.3,311.4z"/>
				</g>
			</g>
		</g>
		<g>
			<g>
				<g>
					<path class="st8" d="M250,337.7c0,0,0.1-0.3,0.2-0.8c0.1-0.5,0.1-1.3-0.1-2.3c-0.3-1-0.8-2.1-1.4-3.4c-0.6-1.3-1.4-2.9-1.4-4.8
						c0-1.9,0.8-3.9,2.5-5.4c1.7-1.5,4.3-2,6.6-1.2c1.2,0.4,2.3,1.1,3.2,2.1c0.4,0.5,0.7,1.2,0.8,1.9c0.1,0.7-0.5,1.5-1.2,1.7
						c-0.7,0.3-1.3,0.3-2,0.5c-0.7,0.1-1.3,0.3-2,0.4c-1.3,0.3-2.7,0.5-4.1,0.7c-2.8,0.4-5.6,0.4-8.2,0c-1.3-0.1-2.6-0.2-3.6,0.6
						c-1,0.7-1.4,1.9-2.2,2.9c-0.4,0.5-0.8,1-1.4,1.2c-0.6,0.3-1.3,0.3-1.8,0.1c-1.2-0.4-2-1.2-2.9-1.7c-0.5-0.3-0.9-0.5-1.4-0.5
						c-0.5,0-1,0.1-1.3,0.3c-0.8,0.5-1.2,1.5-1.7,2.2c-1,1.6-2.8,2.4-4.2,2.4c-1.5,0.1-2.7-0.6-3.5-1.2c-0.8-0.7-1.2-1.4-1.4-1.9
						c-0.2-0.5-0.2-0.8-0.2-0.8c0,0,0.1,0.3,0.3,0.8c0.2,0.5,0.6,1.2,1.4,1.8c0.8,0.6,1.9,1.2,3.4,1.1c1.4-0.1,3-0.8,4-2.4
						c0.5-0.7,0.9-1.7,1.8-2.3c0.4-0.3,1-0.5,1.6-0.4c0.6,0.1,1.1,0.3,1.5,0.6c1,0.5,1.8,1.3,2.9,1.6c0.5,0.2,1.1,0.2,1.6-0.1
						c0.5-0.2,0.9-0.6,1.2-1.1c0.7-1,1.2-2.2,2.2-3c0.5-0.4,1.2-0.6,1.9-0.7c0.7-0.1,1.3,0,2,0c2.6,0.4,5.3,0.3,8.1-0.1
						c1.4-0.2,2.7-0.4,4.1-0.7c0.7-0.1,1.3-0.3,2-0.4c0.6-0.2,1.3-0.2,1.9-0.5c0.6-0.2,1-0.7,0.9-1.3c0-0.6-0.3-1.2-0.7-1.6
						c-0.8-0.9-1.9-1.6-3-2c-2.2-0.7-4.7-0.3-6.3,1.1c-1.6,1.4-2.4,3.3-2.5,5.1c0,1.8,0.7,3.3,1.3,4.7c0.6,1.3,1.1,2.5,1.3,3.5
						c0.2,1,0.2,1.8,0,2.4C250.1,337.5,250,337.7,250,337.7z"/>
				</g>
			</g>
		</g>
		<g>
			<g>
				<g>
					<path class="st8" d="M270.7,324.9c0,0-0.2,0.1-0.5,0.2c-0.4,0.1-0.9,0.2-1.5,0.4c-1.4,0.3-3.3,0.8-5.6,1.3
						c-4.7,1.1-11.2,2.6-18.4,4.4c-7.1,1.8-13.6,3.6-18.3,4.8c-2.3,0.6-4.2,1.1-5.5,1.5c-0.6,0.2-1.1,0.3-1.5,0.4
						c-0.3,0.1-0.5,0.1-0.5,0.1c0,0,0.2-0.1,0.5-0.2c0.4-0.1,0.9-0.3,1.5-0.5c1.3-0.4,3.2-1,5.5-1.6c4.6-1.4,11.1-3.1,18.2-5
						c7.2-1.8,13.7-3.3,18.4-4.3c2.4-0.5,4.3-0.9,5.6-1.2c0.6-0.1,1.1-0.2,1.5-0.3C270.5,324.9,270.7,324.9,270.7,324.9z"/>
				</g>
			</g>
		</g>
		<g>
			
				<rect x="111.7" y="114" transform="matrix(0.9761 -0.2175 0.2175 0.9761 -22.7915 35.8505)" class="st3" width="79.6" height="14.9"/>
		</g>
	</g>
</g>
<g id="Character_00000039826182135072414070000016352920049323683971_">
	<g>
		<g>
			<g>
				<g>
					<g>
						<g>
							<g>
								<g>
									<polygon class="st7" points="262.1,342.3 287.2,474.9 310.1,432.5 353.6,458 307.5,328.9 									"/>
								</g>
							</g>
						</g>
					</g>
				</g>
				<g class="st9">
					<g>
						<path d="M270.6,386.9c4.6,1,10.1-0.7,13.3-4.1c2.3-2.4,3.8-5.6,6.7-7.2c2.6-1.4,5.8-1.2,8.6-0.4c2.8,0.8,5.5,2.1,8.4,2.8
							c5.6,1.5,11.8,0.5,16.7-2.5l-7.2-20.1l-33.6-4.2l-16,19.2L270.6,386.9z"/>
					</g>
				</g>
				<g>
					<g>
						<path class="st8" d="M308.5,427.2c-0.1,0-3.9-13.7-8.3-30.7c-4.5-17-8-30.8-7.8-30.9c0.1,0,3.9,13.7,8.3,30.8
							C305.1,413.4,308.6,427.2,308.5,427.2z"/>
					</g>
				</g>
			</g>
			<g>
				<g>
					<g>
						<g>
							<g>
								<polygon class="st7" points="265.8,349.2 240.7,481.8 217.8,439.4 174.3,464.9 220.4,335.8 								"/>
							</g>
						</g>
					</g>
				</g>
			</g>
			<g class="st9">
				<path d="M206.6,374.4c0,0,7.1,5.9,15.7,3.2c8.5-2.7,13.8-3.3,18.4,0c4.6,3.3,17.1,14,17.1,14l2.9-15.3l-16.7-23l-17.5,3.5
					L214,358l-4.6,8.8L206.6,374.4z"/>
			</g>
			<g>
				<path class="st7" d="M412.9,229.5c0,9.5-12.2,17.7-13.9,26.7c-1.8,9.3,6.2,21.5,2.7,30c-3.6,8.7-18,11.6-23.1,19.3
					c-5.2,7.8-2.4,22.2-9,28.7c-6.6,6.6-21,3.8-28.7,9c-7.7,5.2-10.6,19.5-19.3,23.1c-8.5,3.5-20.7-4.5-30-2.7
					c-9,1.8-17.2,13.9-26.7,13.9c-9.5,0-17.7-12.2-26.7-13.9c-9.3-1.8-21.5,6.2-30,2.7c-8.7-3.6-11.6-18-19.3-23.1
					c-7.8-5.2-22.2-2.4-28.7-9c-6.6-6.6-3.8-21-9-28.7c-5.2-7.7-19.5-10.6-23.1-19.3c-3.5-8.5,4.5-20.7,2.7-30
					c-1.8-9-13.9-17.2-13.9-26.7s12.2-17.7,13.9-26.7c1.8-9.3-6.2-21.5-2.7-30c3.6-8.7,18-11.6,23.1-19.3c5.2-7.8,2.4-22.2,9-28.7
					c6.6-6.6,21-3.8,28.7-9c7.7-5.2,10.6-19.5,19.3-23.1c8.5-3.5,20.7,4.5,30,2.7c9-1.8,17.2-13.9,26.7-13.9
					c9.5,0,17.7,12.2,26.7,13.9c9.3,1.8,21.5-6.2,30-2.7c8.7,3.6,11.6,18,19.3,23.1c7.8,5.2,22.2,2.4,28.7,9c6.6,6.6,3.8,21,9,28.7
					c5.2,7.7,19.5,10.6,23.1,19.3c3.5,8.5-4.5,20.7-2.7,30C400.7,211.8,412.9,220,412.9,229.5z"/>
			</g>
			<g>
				<g>
					<path class="st8" d="M230.2,146.5c0,0-0.1-0.1-0.3-0.4c-0.2-0.3-0.4-0.7-0.7-1.2c-0.6-1.1-1.4-2.6-2.4-4.6
						c-1.9-3.9-4.4-9.3-6.8-15.5c-2.4-6.2-4.3-11.9-5.5-16c-0.6-2.1-1.1-3.8-1.4-5c-0.1-0.5-0.2-1-0.3-1.4c-0.1-0.3-0.1-0.5-0.1-0.5
						c0,0,0.1,0.2,0.2,0.5c0.1,0.4,0.3,0.8,0.4,1.3c0.4,1.2,0.9,2.9,1.5,4.9c1.3,4.1,3.2,9.8,5.6,16c2.4,6.2,4.8,11.6,6.7,15.5
						c0.9,1.9,1.7,3.5,2.2,4.6c0.2,0.5,0.4,0.9,0.6,1.3C230.1,146.4,230.2,146.5,230.2,146.5z"/>
				</g>
			</g>
			<g>
				<g>
					<path class="st8" d="M243.3,141.5c0,0-0.2-0.4-0.4-1.1c-0.2-0.7-0.5-1.8-0.8-3.1c-0.7-2.6-1.5-6.2-2.2-10.2
						c-0.7-4-1.3-7.7-1.6-10.4c-0.2-1.3-0.3-2.4-0.3-3.2c-0.1-0.7-0.1-1.2,0-1.2c0,0,0.1,0.4,0.2,1.1c0.1,0.8,0.3,1.9,0.5,3.1
						c0.4,2.6,1,6.3,1.7,10.3c0.7,4,1.5,7.6,2.1,10.2c0.3,1.2,0.5,2.3,0.7,3.1C243.3,141.1,243.4,141.5,243.3,141.5z"/>
				</g>
			</g>
			<g>
				<g>
					<path class="st8" d="M266.6,139.2c-0.1,0-0.5-11.2-0.8-25.1c-0.3-13.8-0.5-25.1-0.3-25.1c0.1,0,0.5,11.2,0.8,25.1
						C266.6,128,266.7,139.2,266.6,139.2z"/>
				</g>
			</g>
			<g>
				<g>
					<path class="st8" d="M290,116.2c0.1,0-1.5,5.7-3.6,12.5c-2.1,6.9-4,12.4-4.1,12.4c-0.1,0,1.5-5.7,3.6-12.5
						C288,121.7,289.9,116.1,290,116.2z"/>
				</g>
			</g>
			<g>
				<g>
					<path class="st8" d="M299.5,145.1c0,0,0-0.2,0.1-0.5c0.1-0.4,0.3-0.8,0.5-1.3c0.4-1.1,1-2.8,1.8-4.8c1.6-4,3.8-9.6,6.4-15.7
						c2.6-6.1,4.9-11.6,6.7-15.6c0.9-1.9,1.6-3.5,2.1-4.7c0.2-0.5,0.4-0.9,0.6-1.3c0.1-0.3,0.2-0.4,0.2-0.4s0,0.2-0.1,0.5
						c-0.1,0.4-0.3,0.8-0.5,1.3c-0.5,1.2-1.2,2.8-2,4.7c-1.7,4.1-4,9.5-6.5,15.6c-2.5,6.1-4.8,11.6-6.5,15.6c-0.8,1.9-1.5,3.5-2,4.7
						c-0.2,0.5-0.4,0.9-0.5,1.3C299.6,145,299.6,145.2,299.5,145.1z"/>
				</g>
			</g>
			<g>
				<g>
					<path class="st8" d="M312,151.7c0,0,0.2-0.4,0.6-1c0.4-0.6,1-1.5,1.7-2.7c1.5-2.2,3.7-5.2,6.2-8.5c2.5-3.2,4.9-6,6.7-8
						c0.9-1,1.6-1.8,2.2-2.3c0.5-0.5,0.8-0.8,0.8-0.8c0,0-0.2,0.4-0.7,0.9c-0.5,0.7-1.2,1.5-2,2.4c-1.7,2.1-4.1,4.9-6.6,8.1
						c-2.5,3.2-4.7,6.2-6.3,8.3c-0.7,1-1.4,1.9-1.9,2.6C312.3,151.4,312.1,151.7,312,151.7z"/>
				</g>
			</g>
			<g>
				<g>
					<path class="st8" d="M330.2,166.6c-0.1-0.1,7.8-7.6,17.7-16.8c9.9-9.2,17.9-16.5,18-16.4c0.1,0.1-7.8,7.6-17.7,16.8
						C338.4,159.3,330.3,166.7,330.2,166.6z"/>
				</g>
			</g>
			<g>
				<g>
					<path class="st8" d="M362,169.7c0,0.1-1.1,0.7-3,1.6c-1.9,1-4.4,2.4-7.3,4c-2.8,1.6-5.4,3-7.3,3.9c-1,0.4-1.7,0.8-2.3,1
						c-0.6,0.2-0.9,0.3-0.9,0.3c0-0.1,1.1-0.7,3-1.6c1.9-1,4.4-2.4,7.3-4c2.8-1.6,5.4-3,7.3-3.9c1-0.4,1.7-0.8,2.3-1
						C361.7,169.8,362,169.6,362,169.7z"/>
				</g>
			</g>
			<g>
				<g>
					<path class="st8" d="M391.4,181.9c0,0.1-9.4,3.6-21,7.7c-11.7,4.1-21.2,7.3-21.2,7.2c0-0.1,9.4-3.6,21-7.7
						C381.8,185,391.3,181.7,391.4,181.9z"/>
				</g>
			</g>
			<g>
				<g>
					<path class="st8" d="M400.7,235.3c0,0.1-10.2-0.7-22.9-1.9c-12.6-1.2-22.8-2.3-22.8-2.4c0-0.1,10.2,0.7,22.9,1.9
						C390.5,234.1,400.8,235.2,400.7,235.3z"/>
				</g>
			</g>
			<g>
				<g>
					<path class="st8" d="M393.2,283.3c-0.1,0.1-9.6-4.3-21.4-9.8c-11.7-5.5-21.2-10.2-21.2-10.3c0.1-0.1,9.6,4.3,21.4,9.8
						C383.8,278.6,393.3,283.2,393.2,283.3z"/>
				</g>
			</g>
			<g>
				<g>
					<path class="st8" d="M361.7,328.9c-0.1,0.1-7-7.9-15.4-17.9c-8.4-10-15.1-18.1-15-18.2c0.1-0.1,7,7.9,15.4,17.9
						C355.1,320.7,361.9,328.8,361.7,328.9z"/>
				</g>
			</g>
			<g>
				<g>
					<path class="st8" d="M335.5,335c0,0-0.3-0.4-0.8-1.1c-0.5-0.7-1.2-1.8-2.1-3.2c-1.7-2.7-4.1-6.5-6.5-10.7
						c-2.5-4.3-4.6-8.2-6-11c-0.7-1.4-1.3-2.6-1.7-3.4c-0.4-0.8-0.6-1.3-0.6-1.3c0,0,0.3,0.4,0.7,1.2c0.5,0.9,1.1,2,1.9,3.3
						c1.6,2.8,3.7,6.7,6.2,10.9c2.5,4.2,4.7,8.1,6.4,10.8c0.8,1.3,1.4,2.4,2,3.3C335.3,334.5,335.5,334.9,335.5,335z"/>
				</g>
			</g>
			<g>
				<g>
					<path class="st8" d="M319.1,357.9c0,0-0.1-0.1-0.3-0.4c-0.2-0.3-0.4-0.7-0.7-1.2c-0.6-1.1-1.3-2.6-2.3-4.6
						c-1.8-3.9-4.2-9.4-6.5-15.5c-2.2-6.2-3.9-11.9-5-16c-0.5-2.1-1-3.8-1.2-5c-0.1-0.5-0.2-1-0.3-1.4c-0.1-0.3-0.1-0.5-0.1-0.5
						c0,0,0.1,0.2,0.2,0.5c0.1,0.4,0.2,0.8,0.4,1.3c0.3,1.2,0.8,2.9,1.4,4.9c1.2,4.1,2.9,9.8,5.2,16c2.2,6.2,4.6,11.6,6.3,15.5
						c0.9,1.9,1.6,3.5,2.1,4.6c0.2,0.5,0.4,0.9,0.6,1.3C319.1,357.7,319.2,357.9,319.1,357.9z"/>
				</g>
			</g>
			<g>
				<g>
					<path class="st8" d="M286.1,341.8c-0.1,0-0.2-1.3-0.4-3.5c-0.2-2.2-0.6-5.1-1.1-8.4c-0.5-3.3-1.2-6.2-1.6-8.3
						c-0.5-2.1-0.8-3.4-0.7-3.4c0,0,0.2,0.3,0.3,0.9c0.2,0.6,0.4,1.4,0.7,2.5c0.6,2.1,1.3,5,1.8,8.3c0.5,3.3,0.9,6.3,1,8.4
						c0.1,1.1,0.1,2,0.1,2.6C286.1,341.5,286.1,341.8,286.1,341.8z"/>
				</g>
			</g>
			<g>
				<g>
					<path class="st8" d="M264.5,370.6c0,0,0-0.2,0-0.5c0-0.4,0-0.9,0-1.5c0-1.3,0-3.1,0-5.4c0.1-4.6,0.3-10.9,0.7-17.8
						c0.4-7,0.8-13.2,1.2-17.8c0.2-2.3,0.4-4.1,0.5-5.4c0.1-0.6,0.1-1.1,0.2-1.5c0-0.3,0.1-0.5,0.1-0.5c0,0,0,0.2,0,0.5
						c0,0.4,0,0.9-0.1,1.5c-0.1,1.4-0.2,3.2-0.3,5.4c-0.3,4.6-0.6,10.9-1,17.8c-0.4,7-0.6,13.2-0.8,17.8c-0.1,2.2-0.2,4-0.2,5.4
						c0,0.6-0.1,1.1-0.1,1.5C264.5,370.4,264.5,370.6,264.5,370.6z"/>
				</g>
			</g>
			<g>
				<g>
					<path class="st8" d="M246.9,320.2c0.1,0,0,1-0.3,2.6c-0.3,1.6-0.7,3.7-1.2,6.1c-0.6,2.4-1.1,4.5-1.6,6
						c-0.5,1.5-0.8,2.4-0.9,2.4c-0.1,0,0.1-1,0.5-2.5c0.4-1.7,0.9-3.8,1.4-6c0.5-2.3,1-4.3,1.4-6
						C246.6,321.2,246.8,320.2,246.9,320.2z"/>
				</g>
			</g>
			<g>
				<g>
					<path class="st8" d="M215.1,305c0.1,0.1-1.8,2.9-4.4,6.2c-2.5,3.3-4.7,6-4.8,5.9c-0.1-0.1,1.8-2.9,4.4-6.2
						C212.8,307.5,215,304.9,215.1,305z"/>
				</g>
			</g>
			<g>
				<g>
					<path class="st8" d="M198.4,293.8c0.1,0.1-6.1,7.4-13.9,16.3c-7.8,8.9-14.1,16-14.3,15.9c-0.1-0.1,6.1-7.4,13.9-16.3
						C191.9,300.8,198.3,293.7,198.4,293.8z"/>
				</g>
			</g>
			<g>
				<g>
					<path class="st8" d="M190.1,281.4c0.1,0.1-3.4,3.1-7.7,6.7c-4.4,3.6-8,6.4-8,6.3c-0.1-0.1,3.4-3.1,7.7-6.7
						C186.4,284.1,190,281.2,190.1,281.4z"/>
				</g>
			</g>
			<g>
				<g>
					<path class="st8" d="M180.3,262.6c0.1,0.1-8.6,4.4-19.3,9.6c-10.7,5.2-19.5,9.3-19.5,9.1c-0.1-0.1,8.6-4.4,19.3-9.6
						C171.5,266.6,180.2,262.5,180.3,262.6z"/>
				</g>
			</g>
			<g>
				<g>
					<path class="st8" d="M176.4,253.3c0,0-0.3,0.1-0.9,0.3c-0.6,0.1-1.4,0.3-2.5,0.5c-2.1,0.4-5,0.8-8.3,1.2
						c-3.3,0.3-6.2,0.5-8.4,0.5c-1.1,0-1.9,0-2.5,0c-0.6,0-0.9,0-0.9-0.1c0-0.1,1.3-0.1,3.5-0.3c2.1-0.1,5.1-0.3,8.3-0.7
						c3.2-0.3,6.2-0.7,8.3-1C175,253.4,176.4,253.2,176.4,253.3z"/>
				</g>
			</g>
			<g>
				<g>
					<path class="st8" d="M173.2,231.8c0,0-0.6,0-1.7,0c-1.2-0.1-2.8-0.1-4.8-0.2c-4-0.2-9.6-0.4-15.7-0.3c-6.1,0-11.7,0.3-15.7,0.5
						c-1.9,0.1-3.5,0.2-4.8,0.3c-1.1,0.1-1.7,0.1-1.7,0.1c0,0,0.6-0.1,1.7-0.3c1.1-0.1,2.7-0.3,4.7-0.5c4-0.3,9.6-0.6,15.7-0.7
						c6.1,0,11.7,0.2,15.7,0.5c2,0.1,3.6,0.3,4.8,0.4C172.6,231.6,173.2,231.7,173.2,231.8z"/>
				</g>
			</g>
			<g>
				<g>
					<path class="st8" d="M175.2,212.8c0,0.1-6.5-1.5-14.5-3.8c-7.9-2.2-14.4-4.1-14.3-4.3c0-0.1,6.5,1.5,14.5,3.8
						C168.8,210.8,175.2,212.7,175.2,212.8z"/>
				</g>
			</g>
			<g>
				<g>
					<path class="st8" d="M179.4,197c0,0-0.2,0-0.5-0.1c-0.4-0.1-0.8-0.2-1.3-0.4c-1.1-0.4-2.8-0.9-4.8-1.6c-4-1.5-9.5-3.7-15.4-6.6
						c-5.9-2.9-11-5.9-14.6-8.2c-1.8-1.2-3.3-2.1-4.2-2.8c-0.4-0.3-0.8-0.6-1.1-0.8c-0.3-0.2-0.4-0.3-0.4-0.3c0,0,0.2,0.1,0.4,0.2
						c0.3,0.2,0.7,0.4,1.2,0.7c1,0.6,2.5,1.6,4.3,2.7c3.7,2.2,8.8,5.2,14.7,8c5.9,2.9,11.3,5.2,15.3,6.7c2,0.8,3.6,1.4,4.7,1.8
						c0.5,0.2,0.9,0.4,1.3,0.5C179.2,196.9,179.4,197,179.4,197z"/>
				</g>
			</g>
			<g>
				<g>
					<path class="st8" d="M188.8,181c-0.1,0.1-5.1-3.3-11.3-7.6c-6.2-4.3-11.1-8-11-8.1c0.1-0.1,5.1,3.3,11.3,7.6
						C183.9,177.3,188.9,180.9,188.8,181z"/>
				</g>
			</g>
			<g>
				<g>
					<path class="st8" d="M168.9,132.4c0,0,0.1,0.1,0.4,0.3c0.3,0.2,0.6,0.5,1,0.9c0.9,0.8,2.2,1.9,3.7,3.3
						c3.2,2.8,7.4,6.6,12.1,10.8c4.7,4.2,9,8,12.2,10.8c1.5,1.3,2.7,2.4,3.7,3.3c0.4,0.4,0.7,0.7,1,0.9c0.2,0.2,0.3,0.3,0.3,0.3
						c0,0-0.1-0.1-0.4-0.3c-0.3-0.2-0.6-0.5-1-0.8c-0.9-0.7-2.2-1.8-3.8-3.1c-3.2-2.7-7.5-6.4-12.3-10.6c-4.7-4.2-9-8.1-12-10.9
						c-1.5-1.4-2.7-2.6-3.6-3.4c-0.4-0.4-0.7-0.7-1-0.9C169,132.6,168.9,132.4,168.9,132.4z"/>
				</g>
			</g>
			<g>
				<g>
					<path class="st8" d="M200.1,133.3c0,0,0.3,0.2,0.7,0.7c0.4,0.5,1,1.2,1.7,2c1.4,1.7,3.2,4.2,5.2,7c1.9,2.8,3.5,5.4,4.6,7.3
						c0.6,1,1,1.8,1.3,2.3c0.3,0.6,0.4,0.9,0.4,0.9c-0.1,0-0.8-1.1-2-3c-1.2-1.9-2.9-4.4-4.8-7.2c-1.9-2.8-3.7-5.3-5-7.1
						C200.8,134.5,200,133.4,200.1,133.3z"/>
				</g>
			</g>
			<g class="st11">
				<path d="M160.1,124.8l43.5,38.1l10.8-8.7l-25.2-38.7c0,0-1.9,1.4-7,2.9C177.3,119.8,163,120.2,160.1,124.8z"/>
			</g>
			<g class="st11">
				<path d="M208.5,92.6l21.2,53.2l13.6-4.3l-4.5-46.1c0,0-2.3,0.5-7.5-0.1C226.3,94.7,214.1,89.9,208.5,92.6z"/>
			</g>
			<g class="st9">
				<path d="M265.2,81.5l1.4,57.7l12.7,0.6l12.9-44.3c-0.2,0-3.6-0.6-7.5-3.1C280.3,89.6,271.3,81,265.2,81.5z"/>
			</g>
			<g class="st11">
				<path d="M320.7,92.4l-21.1,53.2l11.5,5.5l29.1-35.9c-0.2-0.1-3-2.4-5.5-6.5C331.8,104.3,327.1,94.2,320.7,92.4z"/>
			</g>
			<g class="st11">
				<path d="M370.2,125.6l-39.3,41l8.8,11.8l38.4-25.6c0,0-1.6-2.6-2.5-7.5C374.6,140.3,374.5,131.2,370.2,125.6z"/>
			</g>
			<g class="st11">
				<path d="M401.3,171.9l-52.9,21.8l4.4,13.5l46.1-5c0,0-0.3-1.4,0.3-6.6C399.7,190.5,405,179.3,401.3,171.9z"/>
			</g>
			<g class="st11">
				<path d="M413,229.5l-57.7,2l-0.5,12.7l44,12.9c0-0.2,0.4-2.7,1.7-5.3C403.8,245.8,413,237.1,413,229.5z"/>
			</g>
			<g class="st11">
				<path d="M402.4,284.1l-53.1-20.7l-5.4,11.5l36.2,28.7c0.1-0.2,2.2-2.2,6.3-4.8C390.7,296.1,401.1,291.5,402.4,284.1z"/>
			</g>
			<g class="st11">
				<g>
					<path d="M324.2,283.3l-13.2,11c1,1,18.5,30.8,29.3,49.3c0.1-0.1,0.3-0.2,0.4-0.3c7.1-4.8,19.8-2.9,26.9-7.6L324.2,283.3z"/>
				</g>
				<g>
					<path d="M300,304.2l-19.6,6.7l9.3,53.3c0.6-0.2,1.2-0.4,1.8-0.5c9.3-1.8,21.5,6.2,30,2.7c1.2-0.5,2.2-1.2,3.2-2L300,304.2z"/>
				</g>
				<g>
					<path d="M264.1,377.6l3.1-69.7l-17-4.3l-12.6,60c0.2,0,0.3,0,0.5,0.1C246.9,365.4,254.9,377,264.1,377.6z"/>
				</g>
				<g>
					<path d="M221.4,296.1c0,0-22.4,30.1-34.2,46.2c0.5,0.3,1.1,0.6,1.6,0.9c7.7,5.2,10.6,19.5,19.3,23.1c0.4,0.2,0.8,0.3,1.2,0.4
						l31.3-59.3L221.4,296.1z"/>
				</g>
				<g>
					<path d="M198.4,271.9l-47.9,32.9c0.2,0.2,0.4,0.5,0.5,0.7c5.2,7.8,2.4,22.2,9,28.7c0.6,0.6,1.3,1.1,2,1.6
						c16.9-19.1,47.3-53.3,48.4-54.5L198.4,271.9z"/>
				</g>
				<g>
					<path d="M187.4,248.4l-56.6,9.1c0.9,9.1-6.3,20.5-2.9,28.7c0.2,0.5,0.5,1,0.7,1.4c19.8-9.9,61.2-30.4,62.9-30.5L187.4,248.4z"
						/>
				</g>
				<g>
					<path d="M184.3,216.9l-53.5-15.4c0,0.5-0.1,0.9-0.2,1.4c-1.8,9-13.9,17.2-13.9,26.7c0,0.6,0.1,1.3,0.2,1.9h65.3L184.3,216.9z"
						/>
				</g>
				<g>
					<path d="M128.2,172.4c20,10.7,59.1,32.4,59.1,32.4l9.6-18.3l-45.2-34c-0.2,0.4-0.4,0.7-0.6,1
						C146,161.1,132.1,164.1,128.2,172.4z"/>
				</g>
			</g>
			<g>
				<g>
					<path class="st8" d="M412.9,229.5c0,0,0-0.2-0.1-0.6c-0.1-0.4,0-1.1-0.3-1.9c-0.3-1.6-1.2-4-3-6.7c-1.7-2.8-4.3-5.8-7-9.8
						c-1.3-2-2.7-4.2-3.4-6.9c-0.7-2.7-0.6-5.7,0-8.7c0.6-3,1.5-6.2,2.3-9.5c0.7-3.3,1.5-6.9,0.8-10.6c-0.4-1.8-1.3-3.6-2.5-5.1
						c-1.2-1.5-2.8-2.8-4.4-3.9c-3.3-2.4-7.1-4.2-10.8-6.7c-1.8-1.2-3.6-2.6-5.1-4.4c-1.5-1.7-2.5-3.9-3.1-6.2
						c-1.3-4.5-1.6-9.4-2.5-14.3c-0.5-2.4-1.2-4.9-2.5-7.1c-1.3-2.2-3.3-3.9-5.7-4.9c-2.4-1.1-5-1.6-7.6-2c-2.7-0.4-5.4-0.7-8.1-1.2
						c-2.7-0.5-5.5-1.1-8-2.5c-2.5-1.4-4.5-3.6-6.2-6c-1.7-2.4-3.1-4.9-4.6-7.5c-1.5-2.5-3.1-5.1-5.2-7.2c-2.1-2.1-4.8-3.7-7.9-3.9
						c-3-0.2-6.1,0.4-9.1,1.1c-3,0.7-6.1,1.6-9.2,2.2c-3.1,0.6-6.5,0.8-9.7-0.2c-3.1-1.1-5.9-3-8.5-4.9c-2.7-2-5.3-4-8.1-5.8
						c-2.8-1.7-6.1-3.1-9.4-2.7l-0.6,0c-0.2,0-0.4,0.1-0.6,0.1c-0.4,0.1-0.8,0.2-1.2,0.3c-0.8,0.3-1.6,0.5-2.4,0.9
						c-1.6,0.7-3,1.6-4.4,2.6c-2.8,1.9-5.5,4.2-8.4,6.2c-1.4,1-3,1.9-4.6,2.7c-1.6,0.7-3.4,1.2-5.2,1.3c-3.6,0.2-7.2-0.6-10.7-1.5
						c-3.5-0.9-7-1.9-10.6-2.2c-1.8-0.2-3.6-0.1-5.4,0.4c-1.8,0.4-3.3,1.4-4.7,2.6c-2.8,2.4-4.7,5.6-6.6,8.8
						c-1.9,3.2-3.7,6.5-6.3,9.4c-1.3,1.4-2.8,2.7-4.5,3.6c-1.7,0.9-3.6,1.4-5.5,1.9c-3.8,0.8-7.6,1.2-11.4,1.9
						c-3.7,0.7-7.6,1.7-10.4,4.4c-1.3,1.4-2.3,3.1-3,4.9c-0.7,1.8-1.1,3.7-1.5,5.7c-0.7,3.9-1,7.8-2,11.7c-0.4,1.9-1.1,3.9-2.1,5.6
						c-1,1.8-2.4,3.3-4,4.5c-3.2,2.5-6.8,4.4-10.2,6.5c-1.7,1.1-3.4,2.2-5,3.4c-1.5,1.3-2.9,2.8-3.9,4.5c-1,1.7-1.4,3.7-1.4,5.8
						c0,2,0.3,4,0.7,6c0.8,4,2.1,7.9,2.8,12c0.4,2,0.5,4.2,0.2,6.3c-0.3,2.1-1.1,4.1-2.1,5.9c-2.1,3.7-4.8,6.9-7.2,10.3
						c-1.2,1.7-2.3,3.5-3.2,5.3c-0.9,1.9-1.5,3.9-1.5,6c0,2.1,0.6,4.1,1.5,6c0.9,1.9,2,3.6,3.2,5.3c2.4,3.4,5.1,6.6,7.2,10.3
						c1,1.8,1.8,3.8,2.1,5.9c0.3,2.1,0.2,4.2-0.2,6.3c-0.7,4.1-1.9,8.1-2.8,12c-0.4,2-0.7,4-0.7,6c0,2,0.4,4,1.4,5.8
						c0.9,1.8,2.3,3.2,3.9,4.5c1.6,1.3,3.2,2.4,5,3.4c3.4,2.1,7,4,10.2,6.5c1.6,1.3,3,2.8,4,4.5c1,1.8,1.7,3.7,2.1,5.6
						c0.9,3.9,1.3,7.9,2,11.7c0.4,1.9,0.8,3.8,1.5,5.7c0.7,1.8,1.6,3.5,3,4.9c2.8,2.7,6.7,3.8,10.4,4.4c3.8,0.7,7.6,1,11.4,1.9
						c1.9,0.4,3.7,1,5.5,1.9c1.7,0.9,3.2,2.2,4.5,3.6c2.5,2.9,4.4,6.2,6.3,9.4c1.9,3.2,3.8,6.4,6.6,8.8c1.4,1.2,2.9,2.2,4.7,2.6
						c1.7,0.4,3.6,0.5,5.4,0.4c3.6-0.3,7.1-1.4,10.6-2.2c3.5-0.9,7-1.7,10.7-1.5c1.8,0.1,3.6,0.6,5.2,1.3c1.6,0.8,3.2,1.7,4.6,2.7
						c2.9,2,5.6,4.2,8.5,6.2c1.4,0.9,2.9,1.9,4.4,2.6c0.8,0.4,1.6,0.6,2.4,0.9c0.4,0.1,0.8,0.2,1.2,0.3c0.2,0,0.4,0.1,0.6,0.1l0.6,0
						c3.4,0.4,6.6-1,9.4-2.7c2.9-1.7,5.5-3.8,8.1-5.8c2.7-1.9,5.4-3.8,8.5-4.9c3.2-1,6.5-0.8,9.7-0.2c3.2,0.6,6.2,1.5,9.2,2.2
						c3,0.7,6.1,1.3,9.1,1.1c3-0.2,5.8-1.7,7.9-3.9c2.1-2.2,3.7-4.7,5.2-7.2c1.5-2.5,2.9-5.1,4.6-7.5c1.7-2.4,3.6-4.6,6.2-6
						c2.5-1.4,5.3-2,8-2.5c2.7-0.5,5.4-0.8,8.1-1.2c2.6-0.4,5.3-1,7.6-2c2.4-1,4.4-2.7,5.7-4.9c1.3-2.2,2-4.6,2.5-7.1
						c1-4.9,1.3-9.7,2.5-14.3c0.7-2.3,1.6-4.4,3.1-6.2c1.5-1.8,3.3-3.1,5.1-4.4c3.7-2.5,7.5-4.3,10.8-6.7c1.6-1.2,3.2-2.4,4.4-3.9
						c1.2-1.5,2.1-3.2,2.5-5.1c0.4-1.8,0.3-3.7,0.2-5.4c-0.2-1.8-0.6-3.5-0.9-5.2c-0.8-3.3-1.7-6.5-2.3-9.5c-0.6-3-0.7-6,0-8.7
						c0.7-2.7,2.1-4.9,3.4-6.9c2.7-3.9,5.3-7,7-9.8c1.8-2.7,2.7-5.1,3-6.7c0.2-0.8,0.2-1.4,0.3-1.9
						C412.9,229.7,412.9,229.5,412.9,229.5s0,0.2,0,0.6c0,0.4,0,1.1-0.2,1.9c-0.3,1.6-1.2,4-3,6.7c-1.7,2.8-4.3,5.9-7,9.8
						c-1.3,2-2.7,4.2-3.4,6.8c-0.7,2.6-0.6,5.6,0,8.6c0.6,3,1.5,6.2,2.3,9.5c0.4,1.7,0.8,3.4,1,5.2c0.2,1.8,0.3,3.7-0.1,5.5
						c-0.4,1.9-1.3,3.6-2.5,5.2c-1.3,1.5-2.8,2.8-4.5,4c-3.3,2.4-7.2,4.3-10.8,6.7c-1.8,1.2-3.6,2.6-5,4.3c-1.5,1.7-2.4,3.8-3.1,6.1
						c-1.3,4.5-1.5,9.4-2.5,14.3c-0.5,2.4-1.2,4.9-2.5,7.2c-1.3,2.3-3.4,4-5.8,5.1c-2.4,1.1-5.1,1.6-7.7,2.1
						c-2.7,0.4-5.4,0.8-8.1,1.2c-2.7,0.5-5.5,1.1-7.9,2.5c-2.5,1.3-4.4,3.5-6,5.9c-1.6,2.4-3.1,4.9-4.6,7.5
						c-1.5,2.5-3.1,5.1-5.2,7.3c-2.1,2.2-5,3.8-8.1,4c-3.1,0.2-6.2-0.4-9.3-1.1c-3.1-0.7-6.1-1.6-9.2-2.2c-3.1-0.6-6.4-0.8-9.4,0.2
						c-3,1.1-5.8,2.9-8.4,4.9c-2.7,2-5.3,4-8.1,5.8c-0.7,0.4-1.5,0.9-2.2,1.2c-0.4,0.2-0.8,0.4-1.2,0.5l-1.2,0.4
						c-1.6,0.5-3.4,0.8-5.1,0.6l-0.6-0.1c-0.2,0-0.4-0.1-0.6-0.1c-0.4-0.1-0.9-0.2-1.3-0.3c-0.8-0.3-1.7-0.5-2.4-0.9
						c-1.6-0.7-3.1-1.7-4.5-2.6c-2.9-2-5.6-4.2-8.5-6.1c-1.4-1-3-1.9-4.5-2.6c-1.6-0.7-3.3-1.1-5-1.3c-3.5-0.2-7,0.6-10.5,1.5
						c-3.5,0.9-7,1.9-10.7,2.2c-1.8,0.2-3.7,0.1-5.5-0.4c-1.8-0.4-3.5-1.5-4.9-2.7c-2.8-2.5-4.8-5.8-6.7-8.9
						c-1.9-3.2-3.7-6.5-6.2-9.3c-1.3-1.4-2.7-2.6-4.4-3.5c-1.7-0.8-3.5-1.4-5.3-1.8c-3.7-0.8-7.5-1.2-11.4-1.9
						c-1.9-0.4-3.8-0.8-5.7-1.5c-1.8-0.7-3.6-1.7-5-3.1c-1.4-1.4-2.4-3.2-3.1-5.1c-0.7-1.9-1.1-3.8-1.5-5.7c-0.7-3.9-1-7.8-2-11.7
						c-0.4-1.9-1.1-3.8-2.1-5.5c-1-1.7-2.3-3.2-3.9-4.4c-3.1-2.5-6.7-4.4-10.1-6.5c-1.7-1.1-3.4-2.2-5-3.5c-1.6-1.3-3-2.9-4-4.7
						c-1-1.8-1.5-3.9-1.4-6c0-2.1,0.3-4.1,0.7-6.1c0.9-4,2.1-8,2.8-12c0.3-2,0.5-4.1,0.2-6.1c-0.3-2-1.1-3.9-2-5.7
						c-2-3.6-4.8-6.8-7.2-10.2c-1.2-1.7-2.4-3.5-3.3-5.4c-0.9-1.9-1.5-4-1.5-6.2c0-2.2,0.7-4.3,1.6-6.2c0.9-1.9,2-3.7,3.3-5.4
						c2.4-3.4,5.1-6.6,7.2-10.2c1-1.8,1.8-3.7,2-5.7c0.3-2,0.1-4.1-0.2-6.1c-0.7-4.1-1.9-8-2.8-12c-0.4-2-0.7-4.1-0.7-6.1
						c0-2.1,0.4-4.2,1.5-6c1-1.8,2.4-3.4,4-4.7c1.6-1.3,3.3-2.4,5-3.5c3.5-2.1,7-4,10.1-6.5c1.6-1.2,2.9-2.7,3.9-4.4
						c1-1.7,1.6-3.6,2.1-5.5c0.9-3.8,1.2-7.8,2-11.7c0.4-1.9,0.8-3.9,1.5-5.7c0.7-1.8,1.7-3.6,3.1-5.1c1.4-1.4,3.2-2.4,5-3.1
						c1.8-0.7,3.8-1.1,5.7-1.5c3.8-0.7,7.6-1,11.4-1.9c1.8-0.4,3.7-1,5.3-1.8c1.7-0.8,3.1-2.1,4.4-3.5c2.5-2.8,4.3-6.1,6.2-9.3
						c1.9-3.2,3.9-6.5,6.7-8.9c1.4-1.2,3.1-2.2,4.9-2.7c1.8-0.5,3.7-0.5,5.5-0.4c3.7,0.4,7.2,1.4,10.7,2.2c3.5,0.9,7,1.7,10.5,1.5
						c1.7-0.1,3.5-0.6,5-1.3c1.6-0.7,3.1-1.6,4.5-2.6c2.9-2,5.6-4.2,8.5-6.1c1.4-1,2.9-1.9,4.5-2.6c0.8-0.4,1.6-0.6,2.4-0.9
						c0.4-0.1,0.8-0.2,1.3-0.3c0.2,0,0.4-0.1,0.6-0.1l0.6-0.1c1.7-0.2,3.5,0.1,5.1,0.6l1.2,0.4c0.4,0.2,0.8,0.4,1.2,0.5
						c0.8,0.3,1.5,0.8,2.2,1.2c2.9,1.8,5.5,3.9,8.1,5.8c2.6,1.9,5.4,3.8,8.4,4.9c3.1,1,6.3,0.8,9.4,0.2c3.1-0.6,6.2-1.5,9.2-2.2
						c3-0.7,6.2-1.3,9.3-1.1c3.1,0.2,6,1.8,8.1,4c2.1,2.2,3.7,4.8,5.2,7.3c1.5,2.5,2.9,5.1,4.6,7.5c1.6,2.3,3.6,4.5,6,5.9
						c2.4,1.4,5.2,2,7.9,2.5c2.7,0.5,5.4,0.8,8.1,1.2c2.7,0.4,5.3,1,7.7,2.1c2.4,1,4.6,2.8,5.8,5.1c1.3,2.2,2,4.7,2.5,7.2
						c1,4.9,1.3,9.8,2.5,14.3c0.6,2.2,1.6,4.4,3.1,6.1c1.5,1.7,3.2,3.1,5,4.3c3.6,2.4,7.4,4.3,10.8,6.7c1.7,1.2,3.2,2.5,4.5,4
						c1.2,1.5,2.1,3.3,2.5,5.2c0.4,1.9,0.3,3.7,0.1,5.5c-0.2,1.8-0.6,3.5-1,5.2c-0.8,3.3-1.7,6.5-2.3,9.5c-0.6,3-0.7,6,0,8.6
						c0.7,2.6,2.1,4.8,3.4,6.8c2.7,3.9,5.3,7,7,9.8c1.8,2.7,2.7,5.1,3,6.7c0.2,0.8,0.2,1.5,0.2,1.9
						C412.9,229.3,412.9,229.5,412.9,229.5z"/>
				</g>
			</g>
			<g>
				<path class="st12" d="M311.6,209.5"/>
			</g>
			<g>
				<g>
					<path class="st8" d="M237,367c0.1,0-3.6,15-8.2,33.4c-4.7,18.4-8.6,33.3-8.7,33.3c-0.1,0,3.6-15,8.2-33.4
						C233,381.8,236.9,366.9,237,367z"/>
				</g>
			</g>
		</g>
		<g>
			<g>
				<circle class="st1" cx="264.8" cy="229.5" r="90.8"/>
			</g>
			<g>
				<path class="st10" d="M208.9,198.1c-1.3,1.3-8.1,13.8-8.8,24.1c-0.6,10.3,0.9,68.3,0.9,68.3l0.3,3.8
					c16.3,19.1,75.7,47.5,129.2-0.1l0,0l3-35.7l-8.8-75.5l-30.7-7.5l-7.2-11.7l-47.9,11.2l-4.3,10.1L208.9,198.1z"/>
			</g>
			<g>
				<g>
					<g>
						<g>
							<g>
								<g>
									<g>
										<g>
											<g>
												<g>
													<g>
														<path class="st8" d="M283.5,133.5c2.1-7.8,4.2-15.7,4.9-23.8c0.7-8.1,0.1-16.5-3.2-23.9c-0.5-1.1-4.5-8.7-5.8-8.5
															c-0.9,0.1,1.8,7.2,1.3,8c-3.8,7.5-4.5,16.2-3.4,24.6C278.5,118.2,280.7,125.6,283.5,133.5"/>
													</g>
												</g>
											</g>
										</g>
									</g>
								</g>
							</g>
						</g>
						<g>
							<g>
								<g>
									<path class="st13" d="M282.7,102.5c-0.4-20.4-12.6-37.1-32.9-36.2l-1.9,0.2c-18.9,2-33.1,18.1-32.6,37.1
										c0.4,17.7,1.1,37.2,2.2,46.5c2.3,19.4,22.1,20.4,22.1,20.4c0,0,0.9,12.8,0.9,12.8l8.4,9.1l38.7-24L282.7,102.5z"/>
								</g>
							</g>
						</g>
						<g>
							<g>
								<g>
									<g>
										<g>
											<g>
												<g>
													<g>
														<g>
															<g>
																<path class="st14" d="M239.6,170.7c0,0,12.3-0.6,24.5-10.2c0,0-4.1,17.6-23.7,17.9L239.6,170.7z"/>
															</g>
														</g>
													</g>
												</g>
											</g>
										</g>
									</g>
								</g>
							</g>
						</g>
						<g>
							<g>
								<g>
									<g>
										<g>
											<g>
												<g>
													<g>
														<g>
															<g>
																<g>
																	<g>
																		<g>
																			<g>
																				<g>
																					<g>
																						<path class="st8" d="M226.5,119.5c0.1,1.5,1.4,2.6,3,2.5c1.5-0.1,2.7-1.3,2.6-2.8c-0.1-1.5-1.4-2.6-3-2.5
																							C227.6,116.8,226.4,118,226.5,119.5z"/>
																					</g>
																				</g>
																			</g>
																		</g>
																	</g>
																</g>
															</g>
														</g>
													</g>
												</g>
											</g>
										</g>
									</g>
								</g>
							</g>
						</g>
						<g>
							<g>
								<g>
									<g>
										<g>
											<g>
												<g>
													<g>
														<g>
															<g>
																<g>
																	<g>
																		<g>
																			<g>
																				<g>
																					<g>
																						<g>
																							<path class="st8" d="M220.3,111.3c0.4,0.3,2.3-1.5,5.3-1.8c3-0.3,5.3,1,5.6,0.6c0.1-0.2-0.3-0.8-1.3-1.4
																								c-1-0.6-2.7-1.1-4.5-0.9c-1.9,0.2-3.4,1.1-4.2,1.9C220.4,110.5,220.2,111.2,220.3,111.3z"/>
																						</g>
																					</g>
																				</g>
																			</g>
																		</g>
																	</g>
																</g>
															</g>
														</g>
													</g>
												</g>
											</g>
										</g>
									</g>
								</g>
							</g>
						</g>
						<g>
							<g>
								<g>
									<g>
										<g>
											<g>
												<g>
													<g>
														<g>
															<g>
																<g>
																	<g>
																		<g>
																			<g>
																				<g>
																					<g>
																						<path class="st8" d="M252.9,117.3c0.1,1.5,1.4,2.6,3,2.5c1.5-0.1,2.7-1.3,2.6-2.8c-0.1-1.5-1.4-2.6-3-2.5
																							C254,114.5,252.8,115.8,252.9,117.3z"/>
																					</g>
																				</g>
																			</g>
																		</g>
																	</g>
																</g>
															</g>
														</g>
													</g>
												</g>
											</g>
										</g>
									</g>
								</g>
							</g>
						</g>
						<g>
							<g>
								<g>
									<g>
										<g>
											<g>
												<g>
													<g>
														<g>
															<g>
																<g>
																	<g>
																		<g>
																			<g>
																				<g>
																					<g>
																						<g>
																							<path class="st8" d="M249.7,109.4c0.4,0.3,2.3-1.5,5.3-1.8c3-0.3,5.3,1,5.6,0.6c0.1-0.2-0.3-0.8-1.3-1.4
																								c-1-0.6-2.7-1.1-4.5-0.9c-1.9,0.2-3.4,1.1-4.2,1.9C249.8,108.6,249.5,109.3,249.7,109.4z"/>
																						</g>
																					</g>
																				</g>
																			</g>
																		</g>
																	</g>
																</g>
															</g>
														</g>
													</g>
												</g>
											</g>
										</g>
									</g>
								</g>
							</g>
						</g>
						<g>
							<g>
								<g>
									<g>
										<g>
											<g>
												<g>
													<g>
														<g>
															<g>
																<g>
																	<g>
																		<g>
																			<g>
																				<g>
																					<g>
																						<path class="st8" d="M241.4,133.5c0-0.2-1.9-0.3-4.9-0.4c-0.8,0-1.5-0.1-1.7-0.6c-0.2-0.5,0-1.4,0.3-2.3
																							c0.5-1.9,1.1-3.9,1.6-6c2.3-8.6,3.8-15.6,3.5-15.7c-0.3-0.1-2.5,6.8-4.7,15.4c-0.5,2.1-1.1,4.1-1.5,6.1
																							c-0.2,0.9-0.6,1.9-0.1,3c0.3,0.5,0.9,0.9,1.4,1c0.5,0.1,0.9,0.1,1.3,0C239.6,133.9,241.4,133.7,241.4,133.5z"
																							/>
																					</g>
																				</g>
																			</g>
																		</g>
																	</g>
																</g>
															</g>
														</g>
													</g>
												</g>
											</g>
										</g>
									</g>
								</g>
							</g>
						</g>
						<g>
							<g>
								<g>
									<g>
										<g>
											<g>
												<g>
													<g>
														<g>
															<g>
																<g>
																	<g>
																		<g>
																			<g>
																				<g>
																					<g>
																						<path class="st8" d="M250.4,134.7c-0.5,0-0.2,3.3-2.7,5.9c-2.5,2.6-6,2.6-6,3.1c0,0.2,0.8,0.5,2.3,0.4
																							c1.4-0.1,3.5-0.8,5-2.4c1.5-1.6,2.1-3.6,2-4.9C251.1,135.4,250.7,134.6,250.4,134.7z"/>
																					</g>
																				</g>
																			</g>
																		</g>
																	</g>
																</g>
															</g>
														</g>
													</g>
												</g>
											</g>
										</g>
									</g>
								</g>
							</g>
						</g>
						<g>
							<g>
								<g>
									<g>
										<g>
											<g>
												<g>
													<g>
														<g>
															<g>
																<g>
																	<g>
																		<path class="st8" d="M248.6,97.3c0.4,0.8,3.3,0.1,6.9,0.1c3.6,0,6.5,0.7,6.9-0.1c0.2-0.4-0.4-1.1-1.6-1.7
																			c-1.2-0.7-3.1-1.2-5.2-1.2c-2.1,0-4,0.5-5.2,1.2C249,96.2,248.4,96.9,248.6,97.3z"/>
																	</g>
																</g>
															</g>
														</g>
													</g>
												</g>
											</g>
										</g>
									</g>
								</g>
							</g>
						</g>
						<g>
							<g>
								<g>
									<g>
										<g>
											<g>
												<g>
													<g>
														<g>
															<g>
																<g>
																	<g>
																		<path class="st8" d="M220.5,101.2c0.6,0.6,2.6-0.3,5.1-0.6c2.5-0.4,4.6,0,5-0.8c0.2-0.4-0.2-1-1.2-1.6
																			c-1-0.5-2.5-0.9-4.2-0.7c-1.7,0.2-3.1,1-3.9,1.8C220.5,100.2,220.3,100.9,220.5,101.2z"/>
																	</g>
																</g>
															</g>
														</g>
													</g>
												</g>
											</g>
										</g>
									</g>
								</g>
							</g>
						</g>
						<g>
							<g>
								<g>
									<g>
										<g>
											<g>
												<g>
													<g>
														<path class="st13" d="M282.7,117.1c0.3-0.2,12.9-5.4,13.9,8c1,13.3-12.6,11.6-12.7,11.2
															C283.9,135.9,282.7,117.1,282.7,117.1z"/>
													</g>
												</g>
											</g>
										</g>
									</g>
								</g>
							</g>
						</g>
						<g>
							<g>
								<g>
									<g>
										<g>
											<g>
												<g>
													<g>
														<g>
															<path class="st14" d="M287.6,130.9c0.1,0,0.2,0.1,0.6,0.3c0.4,0.1,1.1,0.2,1.7-0.1c1.4-0.6,2.4-2.9,2.3-5.4
																c-0.1-1.2-0.4-2.4-0.9-3.3c-0.5-0.9-1.2-1.6-1.9-1.7c-0.7-0.1-1.2,0.3-1.3,0.7c-0.2,0.4,0,0.6-0.1,0.7
																c0,0-0.3-0.2-0.2-0.8c0-0.3,0.2-0.6,0.5-0.9c0.3-0.3,0.8-0.5,1.3-0.4c1,0,2,0.9,2.6,1.9c0.6,1,1,2.3,1.1,3.7
																c0.1,2.7-1.1,5.3-3,6c-0.9,0.3-1.7,0.1-2.2-0.2C287.7,131.2,287.6,130.9,287.6,130.9z"/>
														</g>
													</g>
												</g>
											</g>
										</g>
									</g>
								</g>
							</g>
						</g>
						<g>
							<g>
								<g>
									<g>
										<g>
											<g>
												<g>
													<g>
														<path class="st8" d="M222.5,81c-2.2-1.1,3.8-8.5,8.9-11.2c7.8-4.2,19.9-7.2,27.4-5.6c9.1,2,16.7,5.9,21.7,13.7
															c5,7.8,7.3,17.2,7.6,26.4c0.1,2.8,0,5.8-1.4,8.3c-1.7,3.1-5.1,5.2-4.7,9.2c0.2,1.5-0.2,3-1.1,4.2
															c-2.3,2.8-5.4,0.5-6.9-1.9c-3.3-5-4-11.3-4.6-17.2c-0.5-4.2-0.9-8.6,0-12.7c0.5-2.3,1.4-4.4,1.8-6.7
															c0.4-2.3,0.2-4.8-1.4-6.6c-0.2-0.3-0.6-0.6-1.2-1c-4-3.1-9.3-3.7-14-1.7c-7.3,3.1-19.9,7.9-23.4,5.6
															c-5.1-3.4-6.4-5.7-6.4-5.7L222.5,81z"/>
													</g>
												</g>
											</g>
										</g>
									</g>
								</g>
							</g>
						</g>
					</g>
				</g>
			</g>
			<g>
				<path class="st10" d="M208.9,198.1c-0.8,1.1-11.7,4.7-15.8,11.6c-4.1,6.9-8.2,37.9-8.2,37.9l-2.6,20.4
					c5.2,8.2,12.2,19.1,19.6,26.8L208.9,198.1z"/>
			</g>
			<g class="st9">
				<g>
					<path d="M291,228c0.5,4.2,0.9,8.4,2.4,12.3c1.4,3.9,3.9,7.6,7.6,9.7c1.5,0.8,3.3,1.4,4.6,2.6c1.4,1.3,2.1,3.1,3.3,4.6
						c1.5,1.6,3.5,2.6,5.6,3.3c6.1,2.2,12.1,3.2,18.6,3c0.2-2.1,0.2-10,0.4-12.1L291,228z"/>
				</g>
			</g>
			<g>
				<g>
					<g>
						<path class="st10" d="M324.7,183.1c0,0,13.8,4.1,17.8,9.9c4,5.9,11.2,28.6,12.7,32.8c1.5,4.2,0.2,14-2.6,21
							c-2.8,7-7.5,13.1-15.8,14c-8.3,0.9-21.3-3.9-24.2-7c-2.9-3.1-4.2-10.1-4.2-10.1c3.7-0.6,7.3-1.6,10.8-2.7"/>
					</g>
					<g>
						<g>
							<path class="st8" d="M319.3,241.1c0,0-0.1,0-0.2,0.1c-0.1,0-0.3,0.1-0.5,0.2c-0.5,0.2-1.2,0.4-2.1,0.7
								c-1.8,0.5-4.5,1.3-8,1.9l0.1-0.2c0.3,1.6,0.8,3.3,1.4,5.1c0.3,0.9,0.7,1.8,1.2,2.7c0.5,0.9,1.1,1.8,1.8,2.5
								c0.8,0.7,1.8,1.3,2.8,1.8c1,0.6,2.1,1,3.2,1.5c2.3,0.9,4.7,1.7,7.3,2.3c2.6,0.6,5.4,1,8.2,1.1c0.7,0,1.4-0.1,2.2-0.1
								c0.7-0.1,1.4-0.2,2.1-0.4c1.4-0.3,2.8-0.9,4.1-1.6c2.6-1.5,4.9-3.7,6.6-6.4c1.7-2.7,3-5.7,3.9-8.9c0.7-2.4,1.2-4.9,1.6-7.3
								c0.3-2.4,0.5-4.9,0.4-7.3c-0.1-1.2-0.3-2.3-0.7-3.4c-0.4-1.1-0.7-2.2-1.1-3.3c-0.7-2.2-1.4-4.3-2.1-6.4
								c-1.4-4.2-2.8-8.1-4.2-11.8c-1.4-3.6-2.8-7.1-4.4-9.9c-0.8-1.4-1.9-2.6-3.1-3.5c-1.2-0.9-2.4-1.7-3.5-2.3
								c-2.3-1.3-4.4-2.2-6.1-3c-1.7-0.7-3.1-1.2-4-1.5c-0.4-0.2-0.8-0.3-1.1-0.4c-0.2-0.1-0.4-0.1-0.4-0.1c0,0,0.1,0,0.4,0.1
								c0.3,0.1,0.6,0.2,1.1,0.3c0.9,0.3,2.3,0.8,4.1,1.5c1.7,0.7,3.8,1.6,6.2,2.9c1.2,0.7,2.4,1.4,3.6,2.3c1.2,0.9,2.4,2.1,3.2,3.6
								c1.7,2.9,3.1,6.3,4.5,10c1.4,3.7,2.8,7.6,4.3,11.8c0.7,2.1,1.4,4.2,2.2,6.4c0.4,1.1,0.7,2.2,1.1,3.3c0.4,1.1,0.7,2.3,0.7,3.5
								c0.2,2.4,0,4.9-0.4,7.4c-0.3,2.5-0.9,5-1.6,7.4c-0.9,3.2-2.2,6.3-4,9c-1.7,2.7-4,5.1-6.8,6.6c-1.3,0.8-2.8,1.3-4.3,1.6
								c-0.7,0.2-1.5,0.3-2.2,0.4c-0.7,0-1.5,0.1-2.2,0.1c-2.9,0-5.7-0.5-8.3-1.1c-2.6-0.6-5.1-1.4-7.4-2.4c-1.1-0.5-2.2-1-3.3-1.5
								c-1-0.6-2-1.1-2.9-1.9c-0.8-0.8-1.4-1.7-1.9-2.6c-0.5-0.9-0.9-1.9-1.2-2.8c-0.6-1.8-1.1-3.5-1.4-5.1l0-0.1l0.1,0
								c3.5-0.6,6.2-1.3,8.1-1.8c0.9-0.3,1.6-0.5,2.1-0.6c0.2-0.1,0.4-0.1,0.5-0.2C319.2,241.1,319.3,241.1,319.3,241.1z"/>
						</g>
					</g>
				</g>
				<g>
					<g>
						<path class="st8" d="M344.5,233.7c-0.1,0-0.4-1.7-1.6-4.2c-1.1-2.5-3.2-5.9-6.2-8.8c-1.5-1.5-3.2-2.6-4.8-3.4
							c-0.4-0.2-0.8-0.4-1.2-0.5c-0.4-0.2-0.8-0.3-1.2-0.4c-0.8-0.3-1.5-0.3-2.2-0.5c-0.2,0-0.3-0.1-0.5-0.1c-0.2,0-0.3,0-0.5,0
							c-0.3,0-0.6,0-0.9,0c-0.6,0-1,0.1-1.4,0.1c-0.8,0.1-1.2,0.2-1.2,0.1c0,0,0.4-0.1,1.2-0.3c0.4-0.1,0.9-0.2,1.4-0.2
							c0.3,0,0.6,0,0.9,0c0.2,0,0.3,0,0.5,0c0.2,0,0.3,0,0.5,0.1c0.7,0.1,1.5,0.1,2.3,0.4c0.4,0.1,0.8,0.2,1.2,0.4
							c0.4,0.2,0.8,0.4,1.3,0.5c1.7,0.8,3.4,2,5,3.5c3.1,3,5.1,6.5,6.2,9.1c0.3,0.7,0.5,1.2,0.7,1.8c0.2,0.5,0.3,1,0.4,1.4
							C344.5,233.3,344.6,233.7,344.5,233.7z"/>
					</g>
				</g>
				<g>
					<g>
						<path class="st8" d="M352.1,221.4c-0.1,0-0.5-1.8-2.1-4.2c-1.6-2.4-4.5-5.4-8.8-6.6c-4.2-1.3-8.3-0.9-11.2-0.6
							c-1.4,0.2-2.5,0.3-3.4,0.4c-0.8,0.1-1.3,0.1-1.3,0.1c0,0,0.4-0.1,1.2-0.3c0.8-0.2,2-0.4,3.4-0.6c2.9-0.4,7-0.8,11.4,0.5
							c2.2,0.7,4.1,1.8,5.6,3c1.5,1.3,2.6,2.7,3.4,3.9c0.8,1.3,1.2,2.4,1.5,3.2C352,220.9,352.1,221.4,352.1,221.4z"/>
					</g>
				</g>
				<g>
					<g>
						<path class="st8" d="M341.7,206.6c0,0.2-3.6-1-8.2-0.8c-4.6,0.2-8.1,1.6-8.1,1.4c0-0.1,0.8-0.5,2.3-0.9c1.4-0.5,3.5-0.9,5.8-1
							c2.3-0.1,4.4,0.2,5.9,0.5C340.8,206.1,341.7,206.5,341.7,206.6z"/>
					</g>
				</g>
				<g>
					<g>
						<path class="st8" d="M319.4,186.5c0.1,0-0.1,1.4-0.3,3.7c-0.2,2.3-0.2,5.4,0.1,8.8c0.3,3.3,0.9,6.3,1.4,8.4l-0.4,0.1
							c-0.4-1.2-0.7-2.1-0.9-2.7c-0.2-0.7-0.3-1-0.3-1c0,0,0.2,0.3,0.5,1s0.6,1.5,1.1,2.7l-0.4,0.1c-0.6-2.1-1.3-5.1-1.6-8.5
							c-0.3-3.5-0.2-6.6,0.1-8.9c0.1-1.1,0.3-2,0.4-2.7C319.3,186.8,319.3,186.5,319.4,186.5z"/>
					</g>
				</g>
				<g>
					<g>
						<path class="st13" d="M299.9,160.8c0,0-7.2,0-8.1,8.6c-0.7,6.6,0,13,0,15.9s-1.3,13.2-1.3,13.2s-4.9,4.3-4.8,9.5
							c0.1,5.2,3.8,6.8,3.8,6.8s-2.3,5,2.1,9.5c0,0-2.1,4.8-0.4,8c1.3,2.5,4.3,3.3,4.3,3.3s-2.1,4.7,3,6.7c3,1.2,7.4,0.9,7.4,0.9
							l5.3-0.1l4.7,2.6c0,0,8.1-3.5,8.3-8.3c0.2-4.7,0.2-4.7,0.2-4.7s-2.3-7.8-2.5-10.3c-0.2-2.5,1.9-8.5,0.6-11.1
							c-1.2-2.7-5.6-4.3-5.2-8c0.4-3.8-0.4-5.8-2.3-7.9c-1.9-2.1-10.1-6.2-10.1-6.2s-2.1-6-2.1-10.1
							C303,175,307.1,162.4,299.9,160.8z"/>
					</g>
					<g>
						<g>
							<path class="st14" d="M304.7,190.8c0,0.1-0.7,0.5-2,1.3c-1.3,0.7-3,1.7-5,2.8c-2,1.1-3.7,2-5,2.6s-2.1,1-2.2,1
								c0-0.1,0.7-0.5,2-1.3c1.3-0.7,3-1.7,5-2.8c2-1.1,3.7-2,5-2.6C303.9,191.1,304.7,190.8,304.7,190.8z"/>
						</g>
					</g>
					<g>
						<g>
							<path class="st14" d="M309.4,207c0,0-0.2,0.2-0.6,0.6c-0.4,0.3-1.1,0.8-1.9,1.3c-1.6,1-4,2.3-6.7,3.4c-2.7,1-5.4,1.7-7.3,2
								c-0.9,0.1-1.7,0.2-2.3,0.3c-0.5,0-0.8,0-0.8,0c0-0.1,1.2-0.2,3-0.6c1.9-0.4,4.4-1,7.1-2.1c2.7-1,5.1-2.3,6.7-3.2
								C308.4,207.6,309.4,206.9,309.4,207z"/>
						</g>
					</g>
					<g>
						<g>
							<path class="st14" d="M315.5,201.9c0.1,0-0.1,1-1,1.7c-0.8,0.8-1.8,1-1.8,0.8c-0.1-0.1,0.7-0.5,1.5-1.2
								C315,202.5,315.4,201.8,315.5,201.9z"/>
						</g>
					</g>
					<g>
						<g>
							<path class="st14" d="M312.6,221.2c0,0.1-1.1,0.5-3,1.1c-1.9,0.6-4.5,1.2-7.5,1.7c-3,0.5-5.7,0.7-7.7,0.7c-2,0-3.2,0-3.2-0.1
								c0-0.1,1.2-0.1,3.2-0.3c2-0.1,4.6-0.4,7.6-0.9c2.9-0.5,5.6-1.1,7.5-1.6C311.4,221.4,312.6,221.1,312.6,221.2z"/>
						</g>
					</g>
					<g>
						<g>
							<path class="st14" d="M319.1,220c-0.1,0,0.2-0.6,0.5-1.5c0.3-0.9,0.6-2.3,0.4-3.8c-0.2-1.5-0.8-2.8-1.3-3.6
								c-0.5-0.8-1-1.3-0.9-1.4c0,0,0.6,0.3,1.2,1.2c0.6,0.8,1.3,2.1,1.5,3.7c0.2,1.6-0.1,3-0.6,4C319.6,219.5,319.2,220,319.1,220z
								"/>
						</g>
					</g>
					<g>
						<g>
							<path class="st14" d="M313,235.6c0,0.1-0.9,0.3-2.5,0.6c-1.6,0.3-3.8,0.5-6.3,0.5c-2.5,0-4.7-0.3-6.3-0.5
								c-1.6-0.3-2.6-0.6-2.5-0.6c0-0.1,1,0.1,2.6,0.2c1.6,0.2,3.8,0.4,6.2,0.4c2.4,0,4.6-0.2,6.2-0.3
								C312,235.7,313,235.5,313,235.6z"/>
						</g>
					</g>
					<g>
						<g>
							<path class="st14" d="M300.3,179.3c0,0.1-0.3,0.3-1,0.6c-0.7,0.2-1.7,0.4-2.7,0.3c-1.1-0.1-2-0.5-2.6-0.9
								c-0.6-0.4-0.9-0.7-0.8-0.8c0.1-0.1,1.5,1,3.5,1.2C298.6,179.9,300.2,179.1,300.3,179.3z"/>
						</g>
					</g>
					<g>
						<g>
							<path class="st14" d="M320.6,220.6c0,0,0.1,0.3,0.1,0.8c0,0.5,0,1.2-0.2,2.1c-0.2,0.9-0.5,1.9-0.8,3
								c-0.3,1.1-0.6,2.4-0.4,3.6c0.2,1.3,1.1,2.3,1.3,3.6c0.2,1.3-0.3,2.3-0.8,3.1c-0.5,0.8-1,1.3-1.3,1.7
								c-0.3,0.4-0.5,0.5-0.6,0.5c-0.1-0.1,0.7-0.9,1.5-2.4c0.4-0.8,0.8-1.8,0.6-2.8c-0.1-1.1-1.1-2.1-1.3-3.6
								c-0.2-1.4,0.1-2.7,0.4-3.9c0.3-1.1,0.7-2.1,0.9-3C320.6,221.7,320.5,220.6,320.6,220.6z"/>
						</g>
					</g>
				</g>
				<g>
					<g>
						<path class="st8" d="M323.3,226.8c0,0,0.2,0.3,0.3,0.9c0.2,0.6,0.4,1.5,0.6,2.6c0.2,1.1,0.4,2.5,0.5,4c0,1.5-0.1,3.3-0.9,4.9
							c-0.8,1.6-2,2.9-3.1,3.9c-1.1,1-2.2,1.8-3.2,2.5c-0.9,0.6-1.7,1.1-2.3,1.4c-0.6,0.3-0.9,0.5-0.9,0.4c0-0.1,1.2-0.8,3-2.2
							c0.9-0.7,2-1.5,3.1-2.5c1.1-1,2.2-2.3,2.9-3.8c0.7-1.5,0.9-3.2,0.9-4.7c0-1.5-0.2-2.8-0.4-4
							C323.6,228.2,323.2,226.9,323.3,226.8z"/>
					</g>
				</g>
			</g>
			<g>
				<g>
					<path class="st8" d="M247.9,193.6c0,0-0.4-0.3-1.2-0.9c-0.8-0.7-1.8-1.5-3-2.5c-0.6-0.5-1.3-1.1-2.1-1.8
						c-0.4-0.3-0.7-0.6-1.2-0.8c-0.4-0.2-0.9-0.3-1.3,0c-0.9,0.5-1.4,1.6-2.2,2.5c-0.7,1-1.4,2-2.2,3c-1.2,1.6-2.4,3.2-3.4,4.6
						l-0.6,0.9l0.2-1.1c0.7-3.6,1.7-6.6,2.5-8.7c0.4-1,0.8-1.9,1-2.4c0.3-0.6,0.4-0.8,0.4-0.8c0,0-0.1,0.3-0.3,0.9
						c-0.2,0.6-0.5,1.4-0.9,2.5c-0.7,2.1-1.6,5.1-2.3,8.7l-0.4-0.2c1.1-1.4,2.2-3,3.4-4.6c0.8-1,1.5-2,2.2-3
						c0.4-0.5,0.7-0.9,1.1-1.4c0.4-0.5,0.8-0.9,1.3-1.2c0.6-0.3,1.3-0.2,1.7,0.1c0.5,0.3,0.9,0.6,1.3,0.9c0.7,0.6,1.4,1.2,2,1.8
						c1.2,1.1,2.2,1.9,2.9,2.6C247.5,193.2,247.9,193.5,247.9,193.6z"/>
				</g>
			</g>
			<g>
				<g>
					<path class="st8" d="M290.1,185.1c0,0-0.1,0.1-0.4,0.3c-0.3,0.2-0.7,0.6-1.2,0.9c-1.1,0.8-2.6,1.9-4.4,3.3
						c-3.8,2.8-9,6.6-14.7,10.8l-0.2,0.2l-0.1-0.2c-0.1-0.2-0.2-0.4-0.4-0.6c-2.7-4.3-5.2-8.3-7.4-11.7l0.3,0.1
						c-3.5,1.4-6.3,2.9-8.2,4.1c-0.9,0.6-1.7,1-2.2,1.4c-0.5,0.3-0.8,0.5-0.8,0.5c0,0,0.2-0.2,0.7-0.6c0.5-0.4,1.2-0.9,2.1-1.5
						c1.9-1.2,4.6-2.8,8.2-4.3l0.2-0.1l0.1,0.2c2.2,3.4,4.7,7.4,7.4,11.6c0.1,0.2,0.2,0.4,0.4,0.6l-0.4-0.1
						c5.8-4.2,11-7.9,14.8-10.7c1.9-1.3,3.4-2.4,4.5-3.2c0.5-0.3,0.9-0.6,1.2-0.8C289.9,185.2,290.1,185.1,290.1,185.1z"/>
				</g>
			</g>
			<g>
				<g>
					<path class="st8" d="M200.3,224.9c0,0,0,0.2,0.1,0.7c0,0.5,0,1.2,0.1,2c0,1.8,0.1,4.3,0.1,7.4c0.1,6.3,0.4,15,0.7,24.5
						c0.3,9.6,0.5,18.3,0.5,24.6c0,3.1,0,5.7,0,7.4c0,0.8,0,1.5,0,2c0,0.5,0,0.7-0.1,0.7c0,0,0-0.2-0.1-0.7c0-0.5,0-1.2-0.1-2
						c0-1.8-0.1-4.3-0.1-7.4c-0.1-6.3-0.4-15-0.7-24.6c-0.3-9.6-0.5-18.3-0.5-24.6c0-3.1,0-5.7,0-7.4c0-0.8,0-1.5,0-2
						C200.3,225.1,200.3,224.9,200.3,224.9z"/>
				</g>
			</g>
			<g>
				<g>
					<path class="st8" d="M248.2,315.2c0,0,0-0.1-0.1-0.3c0-0.2-0.1-0.5-0.1-0.8c-0.1-0.8-0.2-1.9-0.3-3.3c-0.3-2.8-0.6-7-0.9-12.1
						c-0.3-5.1-0.6-11.2-0.8-17.9c-0.1-6.7-0.2-14.2,0-22c0.2-7.8,0.5-15.2,1-21.9c0.5-6.7,1-12.8,1.5-17.9c0.5-5.1,1-9.2,1.4-12
						c0.2-1.4,0.4-2.5,0.5-3.3c0.1-0.3,0.1-0.6,0.1-0.8c0-0.2,0.1-0.3,0.1-0.3c0,0,0,0.1,0,0.3c0,0.2,0,0.5-0.1,0.9
						c-0.1,0.8-0.2,1.9-0.4,3.3c-0.3,2.8-0.8,6.9-1.3,12c-0.5,5.1-1,11.1-1.4,17.9c-0.4,6.7-0.8,14.1-0.9,21.9
						c-0.2,7.8-0.1,15.2,0,21.9c0.1,6.7,0.4,12.8,0.7,17.9c0.3,5.1,0.5,9.2,0.8,12.1c0.1,1.4,0.2,2.5,0.2,3.3c0,0.4,0,0.6,0,0.9
						C248.2,315.1,248.2,315.2,248.2,315.2z"/>
				</g>
			</g>
			<g>
				<g>
					<path class="st8" d="M218.4,151.5c0,0-0.4,0.2-1.1,0.7c-0.7,0.5-1.8,1.1-3.1,2c-1.4,0.9-3,2.2-4.9,3.6c-1,0.7-1.9,1.6-3,2.5
						c-0.5,0.4-1.1,0.9-1.6,1.4c-0.6,0.5-1.1,1-1.7,1.6c-4.5,4.2-9.7,9.9-14.5,17.4c-0.6,0.9-1.2,1.9-1.8,2.9c-0.6,1-1.1,2-1.7,3
						c-0.5,1-1.2,2.1-1.7,3.2c-0.5,1.1-1,2.2-1.5,3.4c-0.3,0.6-0.5,1.1-0.8,1.7c-0.2,0.6-0.5,1.2-0.7,1.8c-0.5,1.2-0.9,2.4-1.4,3.7
						c-0.7,2.5-1.7,5.1-2.2,7.8c-1.4,5.4-2.2,11.2-2.5,17.2c-0.3,6.1,0,12.4,1.1,18.8c2.1,12.9,7.2,26.3,15.8,38.2
						c8.5,11.9,20.6,22.3,35,29.2c14.4,6.9,31.3,9.8,48.2,8.1c16.9-1.7,32.7-8.4,45.4-18.1c3.2-2.4,6.1-5.1,8.9-7.8
						c0.7-0.7,1.4-1.4,2-2.1c0.7-0.7,1.3-1.4,2-2.2c0.6-0.7,1.3-1.5,1.9-2.2c0.6-0.8,1.2-1.5,1.8-2.3c4.8-6,8.5-12.6,11.5-19.4
						c3-6.7,4.9-13.7,6.1-20.5c0.6-3.4,1-6.8,1.2-10.2c0.1-1.7,0.1-3.4,0.2-5c0-1.7-0.1-3.3-0.2-4.9c0-0.8-0.1-1.6-0.1-2.4
						c0-0.8-0.2-1.6-0.3-2.4c-0.2-1.6-0.4-3.2-0.6-4.7c-0.2-1.6-0.6-3.1-0.9-4.6c-0.3-1.5-0.6-3-1-4.5c-0.4-1.5-0.8-2.9-1.2-4.3
						c-0.2-0.7-0.4-1.4-0.7-2.1c-0.3-0.7-0.5-1.4-0.8-2.1c-0.5-1.4-1-2.7-1.6-4c-0.6-1.3-1.2-2.6-1.8-3.8c-4.8-10-11-18.1-17.3-24.4
						c-6.2-6.3-12.5-10.7-17.8-13.9c-1.3-0.8-2.6-1.5-3.8-2.2c-0.6-0.4-1.2-0.6-1.8-0.9c-0.6-0.3-1.1-0.5-1.7-0.8
						c-1.1-0.5-2.1-1-3-1.4c-0.9-0.5-1.8-0.7-2.5-1c-1.5-0.6-2.7-1-3.5-1.3c-0.8-0.3-1.2-0.5-1.2-0.5s0.4,0.1,1.2,0.4
						c0.8,0.3,2,0.7,3.5,1.3c0.8,0.3,1.6,0.6,2.6,1c0.9,0.4,1.9,0.9,3,1.4c0.5,0.3,1.1,0.5,1.7,0.8c0.6,0.3,1.2,0.5,1.8,0.9
						c1.2,0.7,2.5,1.4,3.8,2.2c5.3,3.2,11.6,7.6,17.9,13.9c6.3,6.3,12.5,14.4,17.4,24.4c0.6,1.3,1.2,2.5,1.8,3.8
						c0.6,1.3,1,2.7,1.6,4c0.3,0.7,0.5,1.4,0.8,2.1c0.3,0.7,0.5,1.4,0.7,2.1c0.4,1.4,0.8,2.9,1.3,4.3c0.5,1.5,0.7,3,1.1,4.5
						c0.3,1.5,0.7,3.1,0.9,4.6c0.2,1.6,0.4,3.2,0.6,4.8c0.1,0.8,0.2,1.6,0.3,2.4c0,0.8,0.1,1.6,0.1,2.4c0.1,1.6,0.2,3.3,0.2,5
						c-0.1,1.7-0.1,3.4-0.2,5c-0.2,3.4-0.6,6.8-1.2,10.3c-1.2,6.9-3.2,13.9-6.1,20.6c-3,6.7-6.7,13.4-11.5,19.5
						c-0.6,0.8-1.2,1.5-1.8,2.3c-0.6,0.7-1.3,1.5-1.9,2.2c-0.6,0.7-1.3,1.5-2,2.2c-0.7,0.7-1.4,1.4-2,2.1c-2.8,2.7-5.8,5.4-9,7.8
						c-12.7,9.8-28.6,16.5-45.6,18.2c-17,1.8-33.9-1.2-48.4-8.2c-14.5-6.9-26.6-17.3-35.2-29.4c-8.7-12-13.8-25.5-15.8-38.4
						c-1-6.5-1.4-12.8-1-18.9c0.3-6.1,1.1-11.9,2.5-17.3c0.6-2.7,1.5-5.3,2.3-7.8c0.4-1.2,0.9-2.5,1.4-3.7c0.2-0.6,0.5-1.2,0.7-1.8
						c0.2-0.6,0.5-1.2,0.8-1.7c0.5-1.1,1-2.3,1.6-3.4c0.5-1.1,1.1-2.1,1.7-3.2c0.6-1,1.1-2.1,1.7-3c0.6-1,1.2-1.9,1.8-2.9
						c4.8-7.5,10-13.1,14.6-17.4c0.6-0.5,1.1-1.1,1.7-1.5c0.6-0.5,1.1-0.9,1.6-1.4c1.1-0.9,2-1.7,3-2.5c2-1.4,3.6-2.6,4.9-3.5
						c1.4-0.9,2.4-1.5,3.2-2C218,151.7,218.4,151.5,218.4,151.5z"/>
				</g>
			</g>
		</g>
	</g>
</g>
</svg>
