<?xml version="1.0" encoding="utf-8"?>
<!-- Generator: Adobe Illustrator 26.5.0, SVG Export Plug-In . SVG Version: 6.00 Build 0)  -->
<svg version="1.1" xmlns="http://www.w3.org/2000/svg" xmlns:xlink="http://www.w3.org/1999/xlink" x="0px" y="0px"
	 viewBox="0 0 750 500" style="enable-background:new 0 0 750 500;" xml:space="preserve">
<style type="text/css">
	.st0{fill:#F5F5F5;}
	.st1{fill:#EBEBEB;}
	.st2{opacity:0.6;}
	.st3{fill:#263238;}
	.st4{display:none;}
	.st5{display:inline;fill:#F5F5F5;}
	.st6{fill:#FFFFFF;}
	.st7{fill:#FF725E;}
	.st8{fill:#C27461;}
	.st9{fill:#7D4336;}
	.st10{fill:#455A64;}
	.st11{opacity:0.3;}
	.st12{fill:#FFCFB4;}
	.st13{fill:#FF9D64;}
	.st14{fill:#824E44;}
	.st15{fill:#FFBF9D;}
	.st16{fill:#5B342F;}
	.st17{fill:#FF9A6C;}
</style>
<g id="Background_Complete">
	<g>
		<g>
			<g>
				<path class="st0" d="M536,204.9c-1.7-3.8-2.1-8.1-3.2-12.1c-0.6-2.2-1.6-4.5-3.6-5.4c-1.3-0.6-2.9-0.5-4.3-1
					c-5.1-1.5-6.5-8.7-11.3-10.9c-1.5-0.7-3.2-0.8-4.9-1c-6.5-0.8-13.2-3-17.2-8.1c-1.3-1.6-2.4-3.6-4-4.9c-1.7-1.3-4.2-1.9-5.8-0.5
					c1.4,2.7,2.7,5.5,4,8.2c1.2,2.5,2.5,5,4.5,6.8c2.1,1.8,5.1,2.8,7.6,1.6c0.8-0.4,1.6-1,2.6-0.9c0.7,0.1,1.2,0.5,1.7,1.1
					c3.5,3.9,2.4,10.4-1.1,14.4c-3.4,4-8.5,6-13.4,8c-1.7,0.7-3.6,1.4-5.5,1.1c-3.4-0.6-5.2-4.3-6.2-7.6c-2.2-7.3-3.3-15.3-7.8-21.5
					c-1.4-1.9-3.3-3.7-4.1-6c-0.9-2.5-0.7-5.3-2.2-7.5c-1.5-2.3-4.8-3.6-5-6.3c-0.1-1.9,1.4-3.6,3.2-4.4c1.7-0.8,3.7-1.1,5.5-1.8
					c0.7-0.3,1.5-0.8,1.5-1.6c0-1.1-1.6-1.6-2-2.7c-0.4-1.2,0.8-2.3,1.3-3.5c1.1-2.7-1.7-5.4-4.4-6.5c-2.7-1.1-5.9-1.9-7.2-4.5
					c-0.6-1.2-0.6-2.6-0.9-3.9c-0.6-3.3-3.1-6.5-6.4-7.1c-3.4-0.5-7.1,2.4-6.5,5.8c0.3,1.8,1.7,3.3,2.4,4.9c0.8,1.7,0.5,4.2-1.2,4.8
					c-2.9,0.9-5.6-4.4-8-2.6c1,3.4,1.9,6.7,2.9,10.1c-3.8,1.9-8.3-1.6-9.9-5.5c-1.6-3.9-1.7-8.4-3.6-12.2c-1.9-3.8-7.1-6.6-10.4-3.9
					c-0.2,4.9,6.3,6.8,9.1,10.8c2,2.8,1.7,7.5-1.3,9.3c-3,1.8-7.8-1.3-6.6-4.6c0.4-1.1,1.4-2.1,1.5-3.3c0.1-1.5-1.2-2.8-2.4-3.7
					c-1.8-1.6-3.7-3.1-5.5-4.6c-1.2-1-2.4-2-3.9-2.5c-3.8-1.1-7.5,2-9.5,5.3c-2,3.4-3.1,7.4-5.9,10.2c-4,4.1-11.5,4.3-15.2,0.1
					c-3.7-4.3-1.8-12.3,3.7-13.9c2.1-0.6,4.7-0.5,5.8-2.4c1.9-3.3-3.6-7.4-1.7-10.7c1.4-2.5,5.3-1.4,8.1-2.2c2.8-0.8,4.3-3.6,6-6
					c1.6-2.4,4.2-4.8,7-4.2c-0.2-1.7-0.4-3.5,0.3-5c0.7-1.5,2.8-2.5,4.2-1.5c-1.4,2.3,0.3,5.5,2.7,6.6c2.4,1.1,5.3,0.9,8,0.6
					c2.7-0.3,6-1.3,6.3-4c0.1-0.9-0.2-1.8,0.1-2.6c1.2-3.2,7.1,1.2,9.3-1.4c1.3-1.3-0.1-3.7-2-4.2c-1.8-0.5-3.7,0.2-5.5,0.3
					c-1.9,0.1-4.1-0.9-4.2-2.8c-0.1-1.8,2-3.1,2.2-4.9c0.4-3.1-4.8-3.9-6.7-1.4c-1.8,2.5-1.2,5.9-0.6,8.9c0.6,3,0.8,6.6-1.4,8.7
					c-1,1.4-3.4,0.7-4.3-0.8c-0.8-1.5-0.7-3.4-0.8-5.1c-0.1-1.7-0.9-3.7-2.6-4.2c-1.2-0.3-2.4,0.2-3.6,0.4
					c-4.8,0.6-8.1-5.6-6.6-10.1c1.5-4.6,5.8-7.5,10-9.8c3.1-1.7,6.9-3.3,9.9-1.6c1.4,0.8,2.4,2.2,3.8,3c2.4,1.4,5.4,0.9,8.1,1
					c4.3,0.1,8.6,1.8,11.9,4.6c1.2,1.1,2.4,3,1.4,4.3c-1,1.4-4,1.7-3.5,3.4c3.2,1.1,7.1-1.4,7.4-4.8c1.6,0.7,2.7,2.3,2.9,4
					c3.5-3.5,10.1-3,13,1.1c0.8,1.1,1.3,2.4,2.4,3.1c1.1,0.7,3,0.4,3.1-0.9c0.1-0.4-0.1-0.8-0.2-1.2c-0.7-1.9-1.3-3.7-2-5.5
					c2.5-1.4,5.5,0.8,7.3,3.1c6.4,8.6,11,3.4,20,4.8c6.1,0.9,8.8,4.8,12.2,9.6c10.5,14.5,24.5,26.5,34.1,41.7c1,1.6,1.9,3.2,2.8,4.8
					c-0.2-0.4-0.3-0.8-0.5-1.2c-3.8-9.9-8.4-19.4-13.9-28.3c-1.2-1.9-2.4-3.8-3.6-5.7c-0.8-1.1-1.6-2.3-2.4-3.4
					c-1-1.5-2.1-2.9-3.1-4.3c-0.8-1.1-1.7-2.3-2.6-3.4c-0.6-0.8-1.2-1.5-1.9-2.3c-0.7-0.9-1.4-1.7-2.1-2.6l-2.3-2.7
					c-0.2-0.3-0.5-0.5-0.7-0.8c-0.8-0.9-1.6-1.8-2.5-2.7c-0.1-0.1-0.1-0.2-0.2-0.3c-0.2-0.2-0.5-0.5-0.7-0.7
					c-0.7-0.8-1.4-1.5-2.1-2.2c-1.2-1.2-2.4-2.4-3.6-3.6c-1-1-2-2-3.1-2.9c-0.9-0.8-1.9-1.7-2.8-2.5c-0.9-0.8-1.9-1.6-2.8-2.4
					c-1.1-1-2.3-1.9-3.5-2.9h0c-3.3-2.7-6.7-5.2-10.2-7.5c-0.9-0.6-1.7-1.2-2.6-1.7c-0.9-0.6-1.8-1.1-2.7-1.7
					c-0.9-0.5-1.8-1.1-2.7-1.6c-0.9-0.6-1.8-1.1-2.7-1.6c-0.7-0.4-1.4-0.8-2.2-1.2c-0.4-0.2-0.7-0.4-1.1-0.6
					c-1.6-0.9-3.1-1.7-4.7-2.5c-0.8-0.4-1.6-0.8-2.4-1.2c-1-0.5-2-1-3.1-1.5c-0.1-0.1-0.3-0.2-0.5-0.2c-0.9-0.4-1.9-0.9-2.8-1.3
					c-1.3-0.6-2.7-1.1-4-1.7c-1.5-0.6-3.1-1.3-4.6-1.8c-1.7-0.7-3.4-1.3-5.2-1.9c-1.7-0.6-3.5-1.2-5.3-1.7c-1.8-0.5-3.6-1-5.4-1.5
					c-3.6-1-7.2-1.8-10.8-2.5c-0.1,0-0.1,0-0.2-0.1c-1.4-0.3-2.8-0.5-4.2-0.8c-0.1,0-0.2-0.1-0.3-0.1c-0.6-0.1-1.2-0.2-1.9-0.3
					c-2.6-0.4-5.2-0.8-7.9-1.1c-0.3-0.1-0.6-0.1-1-0.1c-0.8-0.1-1.5-0.2-2.3-0.2c-1.7-0.2-3.5-0.3-5.3-0.4c-1.8-0.1-3.7-0.2-5.5-0.3
					c-1.9-0.1-3.9-0.1-5.8-0.1c-5.1,0-10.2,0.2-15.3,0.7c-1.2,0.1-2.4,0.2-3.6,0.3c-1.2,0.1-2.5,0.3-3.7,0.4
					c-1.2,0.2-2.5,0.3-3.7,0.5c-1.2,0.2-2.4,0.4-3.7,0.6c-1,0.2-2.1,0.4-3.1,0.6c-2.6,0.5-5.1,1-7.6,1.6c-1.2,0.3-2.4,0.6-3.5,0.9
					c-1.2,0.3-2.4,0.6-3.5,1c-1.9,0.5-3.8,1.1-5.7,1.7h0c-1.5,0.5-3.1,1-4.6,1.6c0,0-0.1,0-0.1,0.1c-1.6,0.5-3.1,1.1-4.6,1.7
					c-0.1,0-0.2,0.1-0.2,0.1c-1.4,0.5-2.8,1.1-4.2,1.7c-1.7,0.7-3.4,1.5-5.1,2.2c-1.4,0.7-2.8,1.3-4.2,2c-1.5,0.7-3,1.5-4.4,2.2
					c-0.1,0-0.1,0.1-0.2,0.1c-1.4,0.7-2.8,1.5-4.2,2.3c-1.4,0.8-2.8,1.6-4.2,2.5h0c-1.3,0.8-2.6,1.6-3.9,2.4c-0.5,0.3-1,0.6-1.4,1
					c-1.4,0.9-2.7,1.8-4,2.7c-1.6,1.1-3.2,2.3-4.8,3.5c-1.4,1-2.8,2.1-4.1,3.2c-7.7,6.2-15,13-21.5,20.4c-2.3,2.6-4.5,5.2-6.6,7.9
					c-1.8,2.3-3.6,4.6-5.2,7c-1.5,2.1-3,4.2-4.3,6.4c1.4-2.2,2.8-4.3,4.3-6.4c0.4-0.1,0.9-0.1,1.3-0.1c2.5-0.2,5.1-0.1,7.3-1.2
					c2-1,3.5-2.8,5.4-4.2c4.8-3.4,12.5-4,13.8-9.7c0.4-1.9-0.1-4,0.6-5.8c1.3-3.4,5.9-3.9,9.6-3.9c1.6,0,3.4,0.2,4.1,1.6
					c0.5,1,0.2,2.2-0.2,3.2c-2.2,6.4-6.8,11.9-12.5,15.4c-4.8,2.9-11,5.1-12.3,10.5c0.7,1.8,4,1.7,4.3,3.6c0.2,1.5-1.8,2.3-2.5,3.7
					c-1,2,1.3,4.4,3.6,4.3c2.3-0.1,4.2-1.7,5.8-3.3c5-4.6,10.2-9.6,12-16.2c0.8-2.7,1-5.9,3.2-7.7c2.6-2.1,7.2-0.7,8.1,2.6
					c2.2-1.2,5.5-2.1,6.6,0.1c0.4,0.8,0.3,1.7,0.5,2.6c0.7,3.5,5.5,5.1,6,8.6c0.6,4.1-4.6,6.2-8.7,6.8c-3.7,0.6-7.4,1.1-11.1,1.7
					c-1.6,0.2-3.3,0.5-4.6,1.5c-1.3,1-2.1,2.8-1.4,4.3c0.4,0.8,1.3,1.3,1.9,2c3.1,3.1,0.5,9.4-3.8,9.5c-1.5,0.1-2.9-0.5-4.4-0.5
					c-4.4-0.2-7.8,3.7-9.9,7.5c-2.1,3.9-3.6,8.3-7.1,10.9c-5.6,4.2-15.3,3.3-18.1,9.8c-1.1,2.6-0.5,5.6-0.1,8.4
					c0.4,2.8,0.6,5.9-1,8.2c-1.6,2.3-5.8,2.8-7,0.2c-0.5-1.1-0.4-2.4-0.2-3.6c0.7-4,1.3-8.1,1.9-12.1c0.5-3,0.9-6.4-0.9-8.8
					c-2.5-3.4-8.1-3.1-11.3-0.4c-3.2,2.8-4.5,7.1-5.4,11.2c-0.7,3.1-1.4,7.4-3.1,10.9c0,0,0,0,0,0c-0.6,3.4-1,6.8-1.4,10.3
					c-0.4,3.6-0.6,7.1-0.7,10.7c0.4-0.4,0.9-0.8,1.4-1.3c1.7-1.8,5.2-9.3,8.3-5.6c0.8,0.9,0.8,2.4,0.1,3.4c-1,1.2-2.9,1.5-3.6,2.8
					c-0.9,1.6,0.4,3.6,1.8,4.6c1.5,1.1,3.3,1.7,4.3,3.2c2,2.9,0.1,7.2,2,10.1c1.7,2.5,5.2,2.7,8.3,3c0.4,0.1,0.7,0.1,1,0.2
					c0.8-6,3.7-10.9,11.9-12.8c11.3-2.6,26.2,6.8,32.5,15.3c7.1,9.5,10.5,23,21.3,27.8c7.8,3.4,18.9,2.2,22.7,9.8
					c3.4,6.8-2.5,14.5-3.4,22.1c-0.6,5,1.1,10,1.4,15c0.4,5-1.1,10.9-5.7,13c-2.5,1.1-5.7,1-7.8,2.9c-3.6,3.4-0.7,10.5-4.3,14
					c-1.3,1.2-3.1,1.6-4.6,2.4c-8.2,4.1-8,16.2-4.2,24.5c0.1,0.3,0.3,0.6,0.4,0.9c12.1,7.2,25.1,13,38.8,17.1
					c15.7,4.8,32.4,7.3,49.7,7.3c29.3,0,56.9-7.3,81-20.2h0c5.2-2.8,10.4-5.9,15.3-9.2c7.6-5.1,14.8-10.8,21.5-17.1
					c4.6-4.3,9-8.9,13.1-13.7c2.9-3.3,5.6-6.8,8.3-10.4c1.3-1.8,2.7-3.7,3.9-5.5c3.8-5.5,7.2-11.3,10.3-17.2
					c4.5-8.6,8.2-17.6,11.2-26.9c3-9.4,5.2-19.2,6.6-29.3c0.5-3.9,0.9-7.8,1.2-11.8c-1.9,1.8-4.3,3.1-6.9,3.1
					C541.1,212.2,537.7,208.8,536,204.9z"/>
			</g>
			<g>
				<path class="st1" d="M338.6,70.3c-3.4,2-5.2,5.9-7.9,8.9c-2.6,3-7.4,5.1-10.5,2.6c-1.5-1.2-2.2-3.2-2.3-5.1
					c-0.2-2.7,0.4-5.6,1.9-7.9c1.5-2.4,3.8-4.3,5-6.9c1.3-2.6,1-6.3-1.6-7.5c-1.4-0.6-3.2-0.4-4.4-1.3c-2.2-1.6-0.6-5.5,2-6.5
					c2.6-1,5.5-0.2,8.2,0c10,0.6,17.4-5.9,24.9-11.4c5.9-4.2,18.3-9.2,25.1-4.9c2.7,1.7,3.8,6.2,1.2,8.1c-1.1,0.9-2.7,1.1-3.8,2
					c-1.3,1.2-1.5,3.1-2.2,4.6c-1.9,4.1-7.4,5.5-9.1,9.6c-1.1,2.5-0.6,5.6-2.2,7.7c-1.3,1.7-3.5,2.3-5.6,2.8
					c-4.4,1-8.7,2.1-13.1,3.1C342.3,68.8,340.3,69.3,338.6,70.3z"/>
			</g>
			<g>
				<path class="st1" d="M455.3,282.9c-4.3,6.5-5.1,14.7-6.3,22.4c-1.2,7.7-3.3,16-9.2,21.1c-5.9,5.1-16.9,4.8-20.1-2.3
					c-1.8-3.9-0.9-8.4-1.8-12.6c-1.3-5.4-5.6-9.6-7.6-14.7c-1.7-4.4-1.7-9.2-1.9-14c-0.8-25.8-7.1-52.7-24.6-71.7
					c-2.2-2.3-4.6-4.6-7.7-5.4c-3.6-1-7.8,0.5-10.1,3.5c-1.4,1.9-2.1,4.2-3.9,5.8c-3.8,3.4-10.3,1-12.8-3.5
					c-2.5-4.4-2.2-9.8-1.7-14.9c0.5-6.3,1-12.6,1.6-18.8c0.3-3.3,0.6-6.8,2.8-9.3c3.1-3.5,8.6-3.7,12.3-6.5c4.9-3.7,5.6-10.7,8.7-16
					c3.1-5.3,12.8-7.6,14.2-1.6c10.3-22,33,10.7,46.5,8.2c3.9-0.7,7.7-2.6,11.7-2c7,1,10.6,8.7,12.9,15.3c3.9,11,7.9,22,11.8,33
					c1.5,4.2,3.4,8.8,7.6,10.5c3.2,1.2,6.9,0.3,10.1,1.5c8.5,3.1,5.7,16.4-1.1,22.3c-6.8,5.9-16.4,9.6-19.6,18
					c-2.4,6.3-0.5,13.8-3.1,20C462,275.6,458,278.8,455.3,282.9z"/>
			</g>
			<g>
				<path class="st1" d="M487.5,290.1c-2.8,0.4-6.1-1-8.2,0.9c-1.2,1.1-1.5,2.9-2,4.4c-0.7,2.2-2,4.2-3.9,5.4
					c-2,1.2-4.6,1.3-6.4-0.1c-1.8-1.4-2.4-4.3-0.9-6c0.7-0.8,1.6-1.3,2.4-2c3.7-3.5,1.2-10,4-14.1c1.7-2.4,4.3-4.9,6.1-7.4
					c1.4-1.9,1.9-3.4,4.5-3.9C494.2,264.9,499.3,288.4,487.5,290.1z"/>
			</g>
			<g class="st2">
				<path class="st3" d="M283.7,341.2c1.5,1,2.9,1.9,4.4,2.9c1,0.7,2.1,1.3,3.1,1.9c-1.1-0.6-2.1-1.3-3.1-1.9
					C286.7,343.2,285.2,342.2,283.7,341.2z"/>
			</g>
			<g class="st2">
				<path class="st3" d="M207.4,190.6L207.4,190.6L207.4,190.6L207.4,190.6L207.4,190.6c0,0.3-0.1,0.6-0.1,1c0,1,0,2.1-0.1,3.1
					c0-1,0-2.1,0.1-3.1C207.3,191.2,207.3,190.9,207.4,190.6z"/>
			</g>
			<g>
				<g>
					<path class="st1" d="M229.7,243.2c-0.5-4.9,1.1-9.9,1.2-14.9c0.1-3.4-0.2-7.1-0.2-10.5c-3-0.1-5.9-0.5-8.8-1.2
						c-0.6-0.1-1.3-0.3-1.6-0.8c-0.4-0.5-0.3-1.2-0.4-1.8c-0.2-3.9-4-6.4-7.3-8.4c-1.7-1-3.5-2-5.3-2.6c0,0.4,0,0.8,0,1.2
						c0.7,19.2,4.5,37.7,11,54.8c3,7.8,6.5,15.4,10.5,22.6c1.7,3.1,3.6,6.2,5.5,9.3c2.4,3.7,4.9,7.4,7.6,10.9c2.5,3.4,5.2,6.7,8,9.9
						c3.9,4.4,7.9,8.6,12.2,12.6c3.8,3.6,7.8,6.9,11.9,10.1c-9.4-25.3-18.3-51.1-34.4-72.7C235.4,255.9,230.5,250.2,229.7,243.2z"/>
				</g>
				<g>
					<path class="st1" d="M231,211c-0.4-0.1-0.7-0.1-1-0.2c-3-0.3-6.6-0.5-8.3-3c-1.9-2.9,0-7.3-2-10.1c-1-1.5-2.8-2.2-4.3-3.2
						c-1.5-1-2.7-3-1.8-4.6c0.7-1.3,2.7-1.6,3.6-2.8c0.8-1,0.7-2.5-0.1-3.4c-3.1-3.7-6.6,3.8-8.3,5.6c-0.5,0.5-1,1-1.4,1.3v0
						c0,0.3-0.1,0.6-0.1,1c0,1,0,2.1-0.1,3.1c0,1-0.1,2.1-0.1,3.1c0,0.8,0,0.8,0,1.6c0,0.8,0.1,2.6,0.1,3.4c1.9,0.6,3.6,1.6,5.3,2.6
						c3.4,1.9,7.1,4.5,7.3,8.4c0,0.6,0,1.3,0.4,1.8c0.4,0.5,1,0.7,1.6,0.8c2.9,0.7,5.8,1.1,8.8,1.2"/>
				</g>
				<g>
					<path class="st1" d="M230.7,217.7c0.1,3.5,0.3,7.1,0.2,10.5c-0.1,5-1.7,9.9-1.2,14.9c0.8,7,5.7,12.7,9.9,18.4
						c16.1,21.5,25,47.4,34.4,72.7h0c1.7,1.4,3.5,2.7,5.3,4c1.4,1,2.9,2,4.3,3c1.5,1,2.9,1.9,4.4,2.9c1,0.7,2.1,1.3,3.1,1.9
						c-0.1-0.3-0.3-0.6-0.4-0.9c-3.8-8.3-4-20.4,4.2-24.5c1.6-0.8,3.3-1.2,4.6-2.4c3.6-3.4,0.7-10.5,4.3-14c2-1.9,5.2-1.8,7.8-2.9
						c4.6-2.1,6-8,5.7-13c-0.4-5-2-10-1.4-15c0.9-7.6,6.8-15.3,3.4-22.1c-3.8-7.6-14.9-6.4-22.7-9.8c-10.9-4.8-14.2-18.3-21.3-27.8
						c-6.4-8.5-21.2-17.9-32.5-15.3c-8.2,1.9-11,6.8-11.9,12.8"/>
				</g>
				<g>
					<path class="st1" d="M218,147.5c3.2-2.8,8.8-3.1,11.3,0.4c1.8,2.5,1.4,5.8,0.9,8.8c-0.6,4-1.3,8.1-1.9,12.1
						c-0.2,1.2-0.4,2.5,0.2,3.6c1.2,2.6,5.4,2.1,7-0.2c1.6-2.3,1.4-5.4,1-8.2c-0.4-2.8-1-5.8,0.1-8.4c2.7-6.5,12.4-5.5,18.1-9.8
						c3.5-2.6,5.1-7,7.1-10.9c2.1-3.9,5.5-7.7,9.9-7.5c1.5,0.1,2.9,0.6,4.4,0.5c4.3-0.1,6.8-6.5,3.8-9.5c-0.6-0.7-1.5-1.2-1.9-2
						c-0.8-1.4,0.1-3.3,1.4-4.3c1.3-1,3-1.2,4.6-1.5c3.7-0.6,7.4-1.2,11.1-1.7c4.1-0.6,9.3-2.7,8.7-6.8c-0.5-3.5-5.3-5.1-6-8.6
						c-0.2-0.8-0.1-1.8-0.5-2.6c-1.1-2.2-4.5-1.3-6.6-0.1c-0.9-3.3-5.5-4.7-8.1-2.6c-2.2,1.8-2.5,5-3.2,7.7c-1.8,6.6-7,11.5-12,16.2
						c-1.7,1.5-3.6,3.2-5.8,3.3c-2.3,0.1-4.6-2.3-3.6-4.3c0.7-1.4,2.7-2.2,2.5-3.7c-0.3-1.9-3.6-1.8-4.3-3.6
						c1.3-5.4,7.5-7.7,12.3-10.5c5.8-3.5,10.3-9,12.5-15.4c0.4-1,0.7-2.2,0.2-3.2c-0.7-1.4-2.5-1.6-4.1-1.6
						c-3.7-0.1-8.2,0.4-9.6,3.9c-0.7,1.8-0.2,3.9-0.6,5.8c-1.3,5.7-9.1,6.3-13.8,9.7c-1.9,1.3-3.3,3.1-5.4,4.2
						c-2.2,1.1-4.8,1-7.3,1.2c-0.4,0-0.9,0.1-1.3,0.1c-1.5,2.1-3,4.2-4.3,6.4c-1.4,2.2-2.7,4.4-4,6.6c-6.1,10.5-11.2,21.6-15,33.4
						c-1.3,4.1-2.5,8.2-3.5,12.5c-1,4.2-1.9,8.5-2.6,12.8c1.7-3.5,2.5-7.8,3.1-10.9C213.5,154.6,214.9,150.3,218,147.5z"/>
				</g>
				<g>
					<path class="st1" d="M552.2,209.2c0,0-4.3,3.2-6.9,3.1c-4.2-0.1-7.6-3.5-9.2-7.4c-1.7-3.8-2.1-8.1-3.2-12.1
						c-0.6-2.2-1.6-4.5-3.6-5.4c-1.3-0.6-2.9-0.5-4.3-1c-5.1-1.5-6.5-8.7-11.3-10.9c-1.5-0.7-3.2-0.8-4.9-1
						c-6.5-0.8-13.2-3-17.2-8.1c-1.3-1.6-2.4-3.6-4-4.9c-1.7-1.3-4.2-1.9-5.8-0.5c1.4,2.7,2.7,5.5,4,8.2c1.2,2.5,2.5,5,4.5,6.8
						c2.1,1.8,5.1,2.8,7.6,1.6c0.8-0.4,1.6-1,2.6-0.9c0.7,0.1,1.2,0.5,1.7,1.1c3.5,3.9,2.4,10.4-1.1,14.4c-3.4,4-8.5,6-13.4,8
						c-1.7,0.7-3.6,1.4-5.5,1.1c-3.4-0.6-5.2-4.3-6.2-7.6c-2.2-7.3-3.3-15.3-7.8-21.5c-1.4-1.9-3.3-3.7-4.1-6
						c-0.9-2.5-0.7-5.3-2.2-7.5c-1.5-2.3-4.8-3.6-5-6.3c-0.1-1.9,1.4-3.6,3.2-4.4c1.7-0.8,3.7-1.1,5.5-1.8c0.7-0.3,1.5-0.8,1.5-1.6
						c0-1.1-1.6-1.6-2-2.7c-0.4-1.2,0.8-2.3,1.3-3.5c1.1-2.7-1.7-5.4-4.4-6.5c-2.7-1.1-5.9-1.9-7.2-4.5c-0.6-1.2-0.6-2.6-0.9-3.9
						c-0.6-3.3-3.1-6.5-6.4-7.1c-3.4-0.5-7.1,2.4-6.5,5.8c0.3,1.8,1.7,3.3,2.4,4.9c0.8,1.7,0.5,4.2-1.2,4.8c-2.9,0.9-5.6-4.4-8-2.6
						c1,3.4,1.9,6.7,2.9,10.1c-3.8,1.9-8.3-1.6-9.9-5.5c-1.6-3.9-1.7-8.4-3.6-12.2c-1.9-3.8-7.1-6.6-10.4-3.9
						c-0.2,4.9,6.3,6.8,9.1,10.8c2,2.8,1.7,7.5-1.3,9.3c-3,1.8-7.8-1.3-6.6-4.6c0.4-1.1,1.4-2.1,1.5-3.3c0.1-1.5-1.2-2.8-2.4-3.7
						c-1.8-1.6-3.7-3.1-5.5-4.6c-1.2-1-2.4-2-3.9-2.5c-3.8-1.1-7.5,2-9.5,5.3c-2,3.4-3.1,7.4-5.9,10.2c-4,4.1-11.5,4.3-15.2,0.1
						c-3.7-4.3-1.8-12.3,3.7-13.9c2.1-0.6,4.7-0.5,5.8-2.4c1.9-3.3-3.6-7.4-1.7-10.7c1.4-2.5,5.3-1.4,8.1-2.2c2.8-0.8,4.3-3.6,6-6
						c1.6-2.4,4.2-4.8,7-4.2c-0.2-1.7-0.4-3.5,0.3-5c0.7-1.5,2.8-2.5,4.2-1.5c-1.4,2.3,0.3,5.5,2.7,6.6c2.4,1.1,5.3,0.9,8,0.6
						c2.7-0.3,6-1.3,6.3-4c0.1-0.9-0.2-1.8,0.1-2.6c1.2-3.2,7.1,1.2,9.3-1.4c1.3-1.3-0.1-3.7-2-4.2c-1.8-0.5-3.7,0.2-5.5,0.3
						c-1.9,0.1-4.1-0.9-4.2-2.8c-0.1-1.8,2-3.1,2.2-4.9c0.4-3.1-4.8-3.9-6.7-1.4c-1.8,2.5-1.2,5.9-0.6,8.9c0.6,3,0.8,6.6-1.4,8.7
						c-1,1.4-3.4,0.7-4.3-0.8c-0.8-1.5-0.7-3.4-0.8-5.1c-0.1-1.7-0.9-3.7-2.6-4.2c-1.2-0.3-2.4,0.2-3.6,0.4
						c-4.8,0.6-8.1-5.6-6.6-10.1c1.5-4.6,5.8-7.5,10-9.8c3.1-1.7,6.9-3.3,9.9-1.6c1.4,0.8,2.4,2.2,3.8,3c2.4,1.4,5.4,0.9,8.1,1
						c4.3,0.1,8.6,1.8,11.9,4.6c1.2,1.1,2.4,3,1.4,4.3c-1,1.4-4,1.7-3.5,3.4c3.2,1.1,7.1-1.4,7.4-4.8c1.6,0.7,2.7,2.3,2.9,4
						c3.5-3.5,10.1-3,13,1.1c0.8,1.1,1.3,2.4,2.4,3.1c1.1,0.7,3,0.4,3.1-0.9c0.1-0.4-0.1-0.8-0.2-1.2c-0.7-1.9-1.3-3.7-2-5.5
						c2.5-1.4,5.5,0.8,7.3,3.1c6.4,8.6,11,3.4,20,4.8c6.1,0.9,8.8,4.8,12.2,9.6c10.5,14.5,24.5,26.5,34.1,41.7
						c1,1.6,1.9,3.2,2.8,4.8c0,0,0,0,0,0c0,0,0,0,0,0c0.8,2.2,1.6,4.4,2.3,6.6c0.7,2.2,1.4,4.5,2.1,6.7c1.7,5.9,3.1,10.9,4.1,17
						c0,0,1.2,9.8,1.5,12.9c0.2,2.4,0.4,4.9,0.6,7.3c0.1,2.5,0.2,4.9,0.2,7.4L552.2,209.2z"/>
				</g>
			</g>
		</g>
	</g>
	<g>
		<g>
			<path class="st0" d="M128.6,167.6c0.7-4.8-6.2-8.8-11.3-9.2c-2.4-0.2-5,0.2-7.3-0.6c-5-1.7-7-8.2-11.9-10.3
				c-3.7-1.5-7.9-0.2-11.4,1.6c-3.5,1.8-7.1,4-11,4.3c-3.4,0.2-7.2-1.1-10.2,0.6c-2.2,1.3-3.4,3.8-5.5,5.4c-2,1.5-4.7,1.8-7.2,1.9
				c-2.5,0.1-5.1,0.2-7.4,1.2c-2.3,1-4.2,3.5-3.7,5.9L128.6,167.6z"/>
		</g>
	</g>
	<g>
		<g>
			<path class="st1" d="M230.9,70.7c0.7-4.8-6.2-8.8-11.3-9.2c-2.4-0.2-5,0.2-7.3-0.6c-5-1.7-7-8.2-11.9-10.3
				c-3.7-1.5-7.9-0.2-11.4,1.6s-7.1,4-11,4.3c-3.4,0.2-7.2-1.1-10.2,0.6c-2.2,1.3-3.4,3.8-5.5,5.4c-2,1.5-4.7,1.8-7.2,1.9
				c-2.5,0.1-5.1,0.2-7.4,1.2c-2.3,1-4.2,3.5-3.7,5.9L230.9,70.7z"/>
		</g>
	</g>
	<g>
		<g>
			<path class="st0" d="M713.2,145.4c1.1-7.8-9.9-14.1-18.1-14.8c-3.9-0.3-8,0.3-11.7-1c-8.1-2.8-11.3-13.2-19.1-16.5
				c-5.9-2.5-12.6-0.3-18.3,2.6c-5.7,2.9-11.3,6.5-17.7,6.9c-5.5,0.4-11.6-1.7-16.4,1c-3.6,2-5.5,6.2-8.8,8.6
				c-3.3,2.4-7.5,2.9-11.5,3.1c-4,0.2-8.2,0.3-11.9,1.9c-3.7,1.7-6.7,5.6-6,9.5L713.2,145.4z"/>
		</g>
	</g>
	<g>
		<path class="st1" d="M609.7,70.5c0.1-2.7-0.8-5.4-2.2-7.6c-1.4-2.2-3.4-4.1-5.9-5.1c-2.6-1-5.6-0.9-8.2,0.3
			c-1.5,0.7-2.8,1.8-3.8,3.1c-0.5-1.4-1.4-2.7-2.5-3.7c-2-1.9-4.9-3-7.7-2.8c-2.6,0.1-5.1,1.3-7.2,3c-2.1,1.7-3.8,4-4.5,6.5
			c-0.9,3.2-0.8,7,0.4,10.1c1.3,3.3,3.9,6.2,6.6,8.5c4.6,3.9,10.6,8.7,10.6,8.7s6.3-3.3,11.8-5.5c3.3-1.3,6.6-3.3,8.9-6
			C608.3,77.4,609.6,73.9,609.7,70.5z"/>
	</g>
	<g>
		<path class="st1" d="M157.8,108.6c-1.1-1.8-2.8-3.1-4.7-3.9c-1.9-0.8-4-1.1-5.9-0.7c-2.1,0.5-4,1.9-5,3.7c-0.6,1.1-1,2.4-1.1,3.6
			c-1-0.7-2.1-1.1-3.2-1.3c-2.1-0.3-4.4,0.2-6.1,1.5c-1.6,1.2-2.7,3.1-3.3,5c-0.6,2-0.7,4.1,0,6.1c0.8,2.4,2.5,4.8,4.6,6.2
			c2.3,1.5,5.1,2.3,7.8,2.5c4.6,0.5,10.5,0.9,10.5,0.9s2.6-4.8,5.1-8.6c1.5-2.3,2.8-5,3-7.7C160,113.5,159.2,110.8,157.8,108.6z"/>
	</g>
</g>
<g id="Background_Simple" class="st4">
	<path class="st5" d="M620.4,139.8l-1.9-4.6c-15.8-39.1-51.3-66.9-92.8-71c-5.3-0.5-10.7-0.7-16.1-0.4
		c-38.7,1.9-75.9,24.9-95.3,58.9c-11.4,20-17.6,44.2-35.5,58.6c-23.2,18.8-56.6,14.1-85.7,8.4c-29.1-5.7-62.5-10.4-85.6,8.5
		C193.1,210,186,229,184,247.7c-5.4,49.5,21.6,98.9,61.5,127.8c39.9,28.9,90.8,39.2,139.9,37.4c68.8-2.5,138.3-29.1,185.7-79.8
		C618.5,282.4,640.8,206.3,620.4,139.8z"/>
	<ellipse transform="matrix(0.162 -0.9868 0.9868 0.162 161.1537 379.04)" class="st5" cx="303.8" cy="94.6" rx="37" ry="37"/>
</g>
<g id="Table">
	<g>
		<path class="st3" d="M719.2,474.6c0,0.1-154.1,0.3-344.1,0.3c-190.1,0-344.2-0.1-344.2-0.3s154.1-0.3,344.2-0.3
			C565.1,474.3,719.2,474.5,719.2,474.6z"/>
	</g>
</g>
<g id="Speech_Bubble">
	<g>
		<g>
			<g>
				<path class="st6" d="M397.4,128.3c6.6-1.2,13-4.4,18.1-9.5c13.3-13.4,13.2-35.1-0.2-48.4c-13.4-13.3-35.1-13.2-48.4,0.2
					c-13.3,13.4-13.2,35.1,0.2,48.4c5.6,5.6,12.8,8.8,20.1,9.7l5.9,8.9L397.4,128.3z"/>
			</g>
			<g>
				<g>
					<path class="st3" d="M397.4,128.3c0,0-0.1,0.2-0.3,0.6c-0.2,0.4-0.5,1-0.8,1.8c-0.7,1.6-1.8,3.9-3.1,6.9l-0.1,0.2l-0.2-0.2
						c-1.6-2.4-3.6-5.4-5.9-8.9l0.2,0.1c-5-0.6-10.9-2.4-16.3-6.3c-1.3-1-2.7-2.1-3.9-3.3c-1.2-1.3-2.5-2.5-3.5-4.1
						c-2.2-2.9-4.1-6.3-5.2-10.1c-2.4-7.5-2.2-16.5,1.5-24.7c3.6-8.1,10.8-15.1,19.9-18.3c3.7-1.3,7.6-2,11.4-2
						c3.8,0,7.6,0.7,11.1,1.8c3.5,1.2,6.8,2.9,9.6,5.1c2.8,2.2,5.4,4.6,7.3,7.4l0.8,1c0.2,0.4,0.4,0.7,0.7,1.1
						c0.4,0.7,0.9,1.4,1.3,2.2c0.7,1.5,1.4,3,1.9,4.5c0.6,1.5,0.9,3.1,1.3,4.6c0.1,0.8,0.2,1.5,0.3,2.3l0.2,1.1l0.1,1.1
						c0.3,3-0.1,5.9-0.5,8.7c-0.6,2.7-1.4,5.3-2.5,7.7c-2.1,4.7-5.1,8.4-8.1,11.2c-3,2.8-6.1,4.6-8.7,5.8c-2.6,1.2-4.8,1.8-6.2,2.2
						c-0.7,0.2-1.3,0.3-1.7,0.3C397.7,128.3,397.5,128.3,397.4,128.3c0,0,0.2-0.1,0.6-0.1c0.4-0.1,0.9-0.2,1.7-0.4
						c1.4-0.4,3.6-1,6.1-2.3c2.6-1.2,5.5-3.1,8.5-5.8c2.9-2.8,5.8-6.4,7.9-11.1c1.1-2.3,1.8-4.9,2.4-7.6c0.4-2.7,0.8-5.6,0.5-8.6
						l-0.1-1.1l-0.2-1.1c-0.1-0.7-0.2-1.5-0.4-2.3c-0.4-1.5-0.7-3-1.3-4.5c-0.5-1.5-1.2-2.9-1.9-4.4c-0.4-0.7-0.8-1.4-1.2-2.1
						c-0.2-0.4-0.4-0.7-0.6-1.1l-0.7-1c-1.9-2.7-4.4-5.2-7.2-7.3c-2.8-2.1-6-3.8-9.4-4.9c-3.4-1.1-7.1-1.8-10.9-1.8
						c-3.8,0-7.6,0.7-11.2,2c-8.9,3.1-16,10-19.5,17.9c-3.6,8-3.8,16.8-1.5,24.2c1.1,3.7,3,7.1,5.1,9.9c1,1.5,2.3,2.7,3.4,4
						c1.2,1.2,2.5,2.3,3.8,3.3c5.3,3.9,11.1,5.7,16,6.3l0.1,0l0.1,0.1c2.3,3.5,4.2,6.5,5.8,9l-0.3,0c1.4-3,2.5-5.3,3.3-6.9
						c0.4-0.7,0.7-1.3,0.9-1.8C397.3,128.5,397.4,128.3,397.4,128.3z"/>
				</g>
			</g>
		</g>
		<g>
			<g>
				<g>
					<path class="st7" d="M404.8,91c-0.1-1.7-0.9-3.3-2-4.7c-1.1-1.3-2.5-2.3-4.1-2.8c-1.7-0.5-3.6-0.2-5.1,0.8
						c-0.9,0.6-1.7,1.4-2.2,2.3c-0.5-0.9-1.1-1.6-1.9-2.2c-1.4-1.1-3.3-1.5-5.1-1.2c-1.7,0.3-3.2,1.2-4.3,2.4
						c-1.2,1.2-2.1,2.8-2.3,4.5c-0.3,2.1,0,4.5,1,6.4c1.1,2,2.9,3.6,4.8,4.9c3.2,2.1,7.4,4.7,7.4,4.7s3.7-2.6,7.1-4.4
						c2-1.1,3.9-2.6,5.2-4.5C404.4,95.5,404.9,93.1,404.8,91z"/>
				</g>
			</g>
		</g>
	</g>
</g>
<g id="Characters">
	<g>
		<polygon class="st3" points="229.9,474.5 235.5,433.3 355,427.6 363.5,474.6 		"/>
		<path class="st8" d="M341.9,303.5l35.9,39.8c5.9,6.6,10.2,12.6,18.7,15c6,1.7,18.5,2.4,21.7-1.5c4.3-5.4,7-14.7,1-26.3
			c-4-7.6-38.8-38.7-38.8-38.7L341.9,303.5"/>
		<path class="st7" d="M353.7,310.1c0.2,2,9.6,21.5,9.6,21.5l30.8-20.1c0,0-19.8-47.1-34.3-50.3L353.7,310.1z"/>
		<g>
			<g>
				<g>
					<g>
						<g>
							<g>
								<g>
									<g>
										<g>
											<path class="st8" d="M406.5,255.2l0.4-15l-1-19.1l-3-15.9c0,0-0.8-1.6-2.8-0.4c-2,1.2-0.3,9.8-0.3,9.8l0.3,6.5
												c0,0-1.2,5-1.5,4.6c-0.4-0.4-1.6-9.2-1.6-9.2l-3.6-18.9c0,0-0.9-2-3.2-1.3c-1.3,0.4-2.1,2.3-2,5.1
												c0.2,2.8,1.4,7.5,1.5,9.1c0.1,1.6,1.2,10.8,1.2,10.8l-6.4-21.1c0,0-1.2-6.9-4-5.9c-2.9,1-0.9,5.9-0.8,8
												c0.1,2.1,4.3,16.5,3.9,20.5c-0.3,4-1,2-1,2s-1.7-6.6-3-11.8c-1.3-5.2-3.3-8.2-5.5-8.6c-2.3-0.4,0.8,11.7,0.8,11.7
												l3.8,16.9l-1,5.4l-3.8-4.8c0,0-0.1-6.3-4.1-9c-4-2.7-5,0.3-5,0.3l7.4,24.5c1.7,4,13,11.8,13,11.8l2,24.6l25.1-0.5
												L406.5,255.2z"/>
										</g>
									</g>
								</g>
							</g>
						</g>
					</g>
				</g>
				<g>
					<g>
						<g>
							<g>
								<path class="st9" d="M397.6,246.4c-0.1,0.1-1.3-1.1-3.4-2.8c-2-1.7-5.2-4-9.2-3.8c-1.8,0.1-3.4,0.7-4.5,1.7l-0.4,0.4
									l-0.4-0.5c-1.6-2.1-3.3-4-4.4-5.3c-1.1-1.3-1.6-2.2-1.5-2.3c0.1,0,0.8,0.7,2,1.9c1.2,1.3,2.9,2.8,4.8,5.2l-0.8-0.1
									c1.3-1.2,3.2-1.9,5.2-2c2.2-0.1,4.2,0.5,5.9,1.4c1.6,0.9,2.9,2,3.9,2.9C396.8,244.9,397.7,246.3,397.6,246.4z"/>
							</g>
						</g>
					</g>
				</g>
			</g>
			<polygon class="st8" points="391.1,340.8 385.8,264.3 407.1,257.7 422.5,340.8 			"/>
		</g>
		<g>
			<g>
				<g>
					<g>
						<path class="st3" d="M345.1,166.1c4.2,0.7,8.6-2.1,9.8-6.2c1.1-4.1-1.2-8.8-5.1-10.3c2.8-2.5,3.7-6.8,2.1-10.3
							c-1.5-3.4-5.3-5.6-9.1-5.3c0.1-3.7-1.9-7.3-5.1-9.3c-3.1-1.9-7.3-2.1-10.6-0.4c-3.9-3.7-10.4-4.2-14.8-1.2
							c-3.5-0.9-7.5,0.8-9.4,3.9c-1.9,3.1-1.4,7.4,1,10.1"/>
					</g>
				</g>
			</g>
			<g>
				<g>
					<g>
						<path class="st8" d="M346.2,214c0.7-9.4,0.5-29,0.1-46.7c-0.4-19-15.4-34.5-34.3-35.6l-1.9-0.1c-20.4,0-31.8,17.3-31.3,37.7
							l-3.1,78.6L288,259c11.2,10.1,29,7,36.1-6.3l0,0l1-17.3C325,235.4,344.8,233.6,346.2,214z"/>
					</g>
					<g>
						<g>
							<g>
								<g>
									<g>
										<g>
											<path class="st9" d="M325.2,235.4c0,0-12.5,0-25.2-9c0,0,5.2,14.4,24.8,13.8L325.2,235.4z"/>
										</g>
									</g>
								</g>
							</g>
						</g>
					</g>
					<g>
						<g>
							<g>
								<g>
									<g>
										<g>
											<g>
												<g>
													<g>
														<path class="st3" d="M337.6,183.9c0,1.5-1.3,2.7-2.9,2.7c-1.5,0-2.8-1.2-2.7-2.7c0-1.5,1.3-2.7,2.9-2.7
															C336.4,181.2,337.7,182.4,337.6,183.9z"/>
													</g>
												</g>
											</g>
										</g>
									</g>
								</g>
							</g>
						</g>
					</g>
					<g>
						<g>
							<g>
								<g>
									<g>
										<g>
											<g>
												<g>
													<g>
														<g>
															<path class="st3" d="M341.5,176.7c-0.4,0.3-2.4-1.3-5.4-1.5c-3-0.2-5.3,1.2-5.6,0.8c-0.2-0.2,0.2-0.8,1.2-1.5
																c1-0.6,2.6-1.2,4.5-1.1c1.9,0.1,3.4,0.9,4.3,1.7C341.4,175.9,341.7,176.5,341.5,176.7z"/>
														</g>
													</g>
												</g>
											</g>
										</g>
									</g>
								</g>
							</g>
						</g>
					</g>
					<g>
						<g>
							<g>
								<g>
									<g>
										<g>
											<g>
												<g>
													<g>
														<path class="st3" d="M310,183.9c0,1.5-1.3,2.7-2.9,2.7c-1.5,0-2.8-1.2-2.7-2.7c0-1.5,1.3-2.7,2.9-2.7
															C308.9,181.2,310.1,182.4,310,183.9z"/>
													</g>
												</g>
											</g>
										</g>
									</g>
								</g>
							</g>
						</g>
					</g>
					<g>
						<g>
							<g>
								<g>
									<g>
										<g>
											<g>
												<g>
													<g>
														<g>
															<path class="st3" d="M311.9,175.5c-0.4,0.3-2.4-1.3-5.4-1.5c-3-0.2-5.3,1.2-5.6,0.8c-0.2-0.2,0.2-0.8,1.2-1.5
																c1-0.6,2.6-1.2,4.5-1.1c1.9,0.1,3.4,0.9,4.3,1.7C311.8,174.7,312.1,175.4,311.9,175.5z"/>
														</g>
													</g>
												</g>
											</g>
										</g>
									</g>
								</g>
							</g>
						</g>
					</g>
					<g>
						<g>
							<g>
								<g>
									<g>
										<g>
											<g>
												<g>
													<g>
														<path class="st3" d="M321.5,198.4c0-0.2,1.9-0.4,4.9-0.6c0.8,0,1.5-0.1,1.7-0.7c0.2-0.5-0.1-1.4-0.4-2.3
															c-0.6-1.9-1.3-3.9-1.9-6c-2.7-8.5-4.5-15.5-4.2-15.6c0.3-0.1,2.8,6.7,5.4,15.2c0.6,2.1,1.2,4.1,1.8,6
															c0.2,0.9,0.7,1.9,0.2,3c-0.2,0.6-0.8,0.9-1.3,1c-0.5,0.1-0.9,0.1-1.3,0.1C323.4,198.7,321.5,198.6,321.5,198.4z"/>
													</g>
												</g>
											</g>
										</g>
									</g>
								</g>
							</g>
						</g>
					</g>
					<g>
						<g>
							<g>
								<g>
									<g>
										<g>
											<g>
												<g>
													<g>
														<path class="st3" d="M312.6,200c0.5,0,0.3,3.3,3,5.7c2.6,2.5,6.1,2.3,6.1,2.8c0,0.2-0.8,0.6-2.3,0.5
															c-1.4,0-3.5-0.6-5.1-2.1c-1.6-1.5-2.2-3.5-2.3-4.8C311.9,200.7,312.3,200,312.6,200z"/>
													</g>
												</g>
											</g>
										</g>
									</g>
								</g>
							</g>
						</g>
					</g>
					<g>
						<g>
							<g>
								<g>
									<g>
										<path class="st3" d="M313.4,163.8c-0.3,0.8-3.3,0.2-6.9,0.5c-3.6,0.1-6.5,1-6.9,0.2c-0.2-0.4,0.4-1.1,1.5-1.8
											c1.2-0.7,3-1.4,5.2-1.5c2.1-0.1,4,0.3,5.3,0.9C312.9,162.7,313.6,163.4,313.4,163.8z"/>
									</g>
								</g>
							</g>
						</g>
					</g>
					<g>
						<g>
							<g>
								<g>
									<g>
										<path class="st3" d="M340.9,167.9c-0.6,0.7-2.6-0.2-5.1-0.4c-2.5-0.3-4.6,0.2-5.1-0.6c-0.2-0.4,0.2-1,1.1-1.6
											c0.9-0.6,2.5-1,4.2-0.9c1.7,0.2,3.2,0.9,4,1.6C340.9,166.9,341.2,167.6,340.9,167.9z"/>
									</g>
								</g>
							</g>
						</g>
					</g>
					<g>
						<g>
							<g>
								<g>
									<path class="st3" d="M344.9,158.3c0,0-4.4-12.5-10.2-15.8c-6.9-3.9-10.5,3.8-17.2,1.5c-6.7-2.3-13.3-6-20.6-1.2
										c-8,5.3-4.6,9.6-5.6,18.2c-4,35.1-11,44.6-11.8,27.9c-0.1-1.8-5-3.6-5.3-11.3c-0.4-10-0.1-22.1,2.6-29
										c2.2-5.8,5.9-9.7,12.2-13.9c10-6.6,23.2-6,32.1-4.5C330,131.7,346.6,143,344.9,158.3z"/>
								</g>
							</g>
						</g>
					</g>
					<g>
						<g>
							<g>
								<g>
									<path class="st8" d="M280.8,188.6c0.1-3-2.4-5.6-5.4-5.5c-3.7,0.1-7.8,2-8,9.5c-0.4,13.4,13.2,11,13.2,10.6
										C280.5,203,280.7,194.2,280.8,188.6z"/>
								</g>
							</g>
						</g>
					</g>
					<g>
						<g>
							<g>
								<g>
									<path class="st9" d="M277.7,198.1c-0.1,0-0.2,0.2-0.6,0.3c-0.4,0.2-1.1,0.3-1.7,0c-1.4-0.6-2.5-2.8-2.5-5.3
										c0-1.2,0.3-2.4,0.7-3.3c0.4-1,1.1-1.6,1.8-1.7c0.7-0.1,1.2,0.3,1.4,0.7c0.2,0.4,0.1,0.6,0.1,0.7c0,0,0.3-0.2,0.2-0.8
										c0-0.3-0.2-0.6-0.5-0.9c-0.3-0.3-0.8-0.4-1.3-0.4c-1,0-2,1-2.5,2c-0.6,1-0.9,2.3-0.9,3.7c0,2.7,1.3,5.3,3.2,5.9
										c0.9,0.3,1.7,0,2.1-0.3C277.7,198.4,277.8,198.1,277.7,198.1z"/>
								</g>
							</g>
						</g>
					</g>
				</g>
				<g>
					<g>
						<g>
							<path class="st3" d="M282.6,162.7c1.7,1.3,3.4,2.6,5.5,2.9c2.1,0.3,4.5-0.7,5-2.8c0.2-0.9,0-2,0.7-2.7
								c0.8-0.8,2.1-0.5,3.2-0.3c3.9,0.6,8-1.9,9.2-5.6c0.9,1.5,3.2,1.6,4.8,0.7c1.6-0.9,2.6-2.4,3.9-3.7c1.3-1.3,3-2.4,4.7-2
								c1,0.2,1.9,0.8,2.9,0.8c1.8-0.1,2.7-2.1,3.1-3.8c0.4-1.7,0.7-3.7,2.2-4.6c1.4-0.8,3.2-0.2,4.8,0.1c1.6,0.3,3.7,0.1,4.2-1.5
								c0.3-0.8,0-1.7-0.5-2.5c-1.9-3.4-6.3-5.1-10-3.9c-1-4.5-5-8.2-9.5-8.9c-4.6-0.8-9.5,1.5-11.9,5.4c-2.7-2.7-6.7-4-10.5-3.4
								c-3.8,0.6-7.2,3.2-8.8,6.6c-3.2-1-7,0-9.2,2.5c-2.2,2.5-2.7,6.4-1.3,9.5c-2.5,1.2-4.7,3.5-4.9,6.3c-0.2,2.8,2.3,5.7,5,5.1
								c-1.2,2.1-0.5,5.1,1.5,6.4c2,1.3,5,0.8,6.5-1.1"/>
						</g>
					</g>
				</g>
				<g>
					<g>
						<g>
							<g>
								<path class="st10" d="M327.1,138c0,0,0,0.1,0,0.2c0,0.2-0.1,0.4-0.1,0.7c-0.2,0.6-0.5,1.5-1.1,2.5c-0.7,1-1.7,2.1-3.2,3
									c-1.5,0.9-3.4,1.5-5.6,1.2l0.2-0.3c0.3,1.2,0.2,2.5-0.5,3.7c-0.6,1.2-1.5,2.2-2.5,3.2c-0.5,0.5-0.9,1-1.6,1.4
									c-0.6,0.4-1.4,0.6-2.2,0.7c-1.5,0.1-3.2-0.5-4.2-1.8l0.5-0.1c-0.5,2.6-2.2,5.2-4.7,6.7c-1.3,0.8-2.9,1.3-4.5,1.2
									c-1.5-0.1-3-0.6-4.3-1.2l0.4-0.1c-0.8,1.6-2,3-3.4,3.9c-1.4,1-3.2,1.5-4.7,1c-3.1-0.9-5.1-3.6-5.3-6.1l0.3,0.2
									c-1.6,0.8-3.3,0.7-4.6,0.4c-1.4-0.3-2.4-1-3.1-1.6c-0.7-0.6-1.1-1.3-1.4-1.7c-0.2-0.5-0.3-0.7-0.3-0.7
									c0.1-0.1,0.4,1,1.8,2.3c0.7,0.6,1.7,1.2,3,1.5c1.3,0.3,2.9,0.3,4.4-0.5l0.3-0.1l0,0.3c0.3,2.3,2.2,4.9,5,5.7
									c1.4,0.4,3,0,4.3-1c1.3-0.9,2.4-2.2,3.2-3.7l0.1-0.2l0.2,0.1c1.3,0.5,2.7,1.1,4.1,1.1c1.4,0.1,2.9-0.3,4.1-1.1
									c2.4-1.4,3.9-3.8,4.4-6.3l0.1-0.6l0.4,0.5c0.9,1.1,2.4,1.7,3.7,1.6c0.7,0,1.4-0.2,1.9-0.6c0.5-0.3,1-0.9,1.5-1.4
									c1-1,1.8-1.9,2.4-3c0.6-1.1,0.8-2.3,0.5-3.3l-0.1-0.3l0.3,0c2,0.3,3.9-0.3,5.3-1.1c1.4-0.8,2.4-1.9,3.1-2.8
									C327,139.4,327,138,327.1,138z"/>
							</g>
						</g>
					</g>
				</g>
			</g>
		</g>
		<g>
			<g>
				<path class="st7" d="M356,329.6l1.4-14.2l4.9-52.2c-2.5-2.7-12.7-6.8-12.7-6.8l-25.2-9.1c0,0-2.4,6.9-21.4,7.2
					c-19.4,0.3-27.4-11.8-27.4-11.8c-9.7,3.1-30.8,11.1-30.8,11.1l-7.2,67.9l-0.4,22.4l-4.5,114.2c0,0,127-5.4,128.9-5.7l-5.1-41.1
					L356,329.6z"/>
				<polygon class="st11" points="319.5,296.1 319.5,322.8 334.1,334.7 349.2,322.9 350.1,296.9 				"/>
			</g>
		</g>
		<path class="st11" d="M235.4,389.9l-0.4,9.5c0,0,80.2-14.5,94.2-20.2c17.3-7,26.6-12.9,26.6-12.9l0.3-7.2L235.4,389.9z"/>
		<path class="st8" d="M241,259.5c0,0-18.1,2.9-21.8,26c-2.4,14.9-9.7,80.4,0.3,98c11.5,20.4,115.4-13.8,115.4-13.8l3.5-26.4
			l-80,5.3l-10-55.5L241,259.5z"/>
		<path class="st7" d="M212,337h50.7l-13.9-84.6c0,0-29.1,5.9-32.9,36.3C212.1,319.3,212,337,212,337z"/>
		<g>
			<path class="st3" d="M218.4,337c0,0,0.1,0,0.2,0c0.2,0,0.4,0,0.7,0c0.6,0,1.5,0,2.6,0c2.3,0,5.5,0,9.5-0.1c8,0,19.1,0,31.4-0.1
				l-0.3,0.3c-0.1-0.7-0.1-1.4-0.2-2.1c-1.1-12.8-2-24.3-2.7-32.7c-0.3-4.2-0.6-7.5-0.8-9.9c-0.1-1.1-0.1-2-0.2-2.7
				c0-0.3,0-0.5,0-0.7c0-0.2,0-0.2,0-0.2c0,0,0,0.1,0,0.2c0,0.2,0.1,0.4,0.1,0.7c0.1,0.7,0.2,1.6,0.3,2.7c0.2,2.4,0.5,5.8,0.9,9.9
				c0.7,8.4,1.8,20,2.9,32.7c0.1,0.7,0.1,1.4,0.2,2.1l0,0.3l-0.3,0c-12.3,0-23.4-0.1-31.4-0.1c-4,0-7.2-0.1-9.5-0.1
				c-1.1,0-1.9,0-2.6,0c-0.3,0-0.5,0-0.7,0C218.5,337,218.4,337,218.4,337z"/>
		</g>
		<g>
			<path class="st3" d="M359.8,285.6c0,0,0,0.6,0,1.7c0,1.1-0.1,2.7-0.2,4.7c-0.2,4-0.6,9.4-1.2,15.5c-0.6,6-1.2,11.5-1.7,15.4
				c-0.2,2-0.4,3.6-0.6,4.7c-0.2,1.1-0.3,1.7-0.3,1.7c0,0,0-0.6,0.1-1.7c0.1-1.2,0.3-2.8,0.4-4.7c0.4-4,0.9-9.5,1.5-15.4
				c0.6-6,1-11.5,1.3-15.5c0.1-1.9,0.3-3.5,0.3-4.7C359.7,286.2,359.8,285.6,359.8,285.6z"/>
		</g>
		<g>
			<path class="st3" d="M263.5,276.4c0,0-0.2-0.3-0.6-0.9c-0.4-0.7-0.9-1.6-1.4-2.6c-1.2-2.2-2.9-5.3-5.4-8.1
				c-2.6-2.8-5.6-4.6-8-5.4c-2.4-0.8-4-0.6-4-0.7c0,0,0.4-0.1,1.1-0.1c0.7,0,1.7,0.1,3,0.5c2.5,0.7,5.7,2.5,8.3,5.4
				c2.6,2.9,4.3,6.1,5.4,8.3c0.6,1.1,1,2.1,1.3,2.7C263.4,276,263.5,276.4,263.5,276.4z"/>
		</g>
		<path class="st11" d="M256.9,340.8c-0.1-0.5,8.8-2.7,8.8-2.7l-6.5-42l3.5,40.9h-6.5L256.9,340.8z"/>
	</g>
	<g>
		<path class="st12" d="M389.8,344.6l-1.6,21.6l-7.2,9l-17.6,23.3l21.3,1.4c0,0,24.9-6.2,28.6-13.9s3.9-41.4,3.9-41.4H389.8z"/>
		<g>
			<g>
				<g>
					<g>
						<path class="st12" d="M494.8,272.7l1.2-84c0.8-20-9.2-37.3-29.2-37.5l-1.8,0.1c-18.6,0.9-33.4,15.9-34,34.5
							c-0.6,17.3-1,36.5-0.4,45.7c1.1,19.2,20.5,21.2,20.5,21.2c0,0.6,0,5.4-0.1,11.1l0,9.5L494.8,272.7z"/>
					</g>
				</g>
			</g>
			<g>
				<g>
					<g>
						<path class="st13" d="M450.9,252.8c0,0,12.1,0.1,24.6-8.6c0,0-5.4,14.3-24.6,13.5L450.9,252.8z"/>
					</g>
				</g>
			</g>
			<g>
				<g>
					<g>
						<path class="st3" d="M462.3,195.6c0.4,0.1,2.4-1.3,5.5-2c3.1-0.7,5.7-0.4,5.9-0.7c0.1-0.1-0.3-0.4-1.4-0.6
							c-1.1-0.2-2.9-0.2-4.8,0.3c-1.9,0.5-3.5,1.2-4.3,1.9C462.3,195.1,462.1,195.5,462.3,195.6z"/>
					</g>
				</g>
			</g>
			<g>
				<g>
					<g>
						<path class="st3" d="M465.3,201.5c0,1.4,1.2,2.5,2.6,2.5c1.4,0,2.6-1.1,2.6-2.5c0-1.4-1.2-2.5-2.6-2.5
							C466.5,199.1,465.3,200.2,465.3,201.5z"/>
					</g>
				</g>
			</g>
			<g>
				<g>
					<g>
						<path class="st3" d="M454.3,216.5c0-0.2-1.8-0.4-4.8-0.6c-0.8,0-1.5-0.2-1.6-0.7c-0.2-0.5,0.1-1.4,0.4-2.3
							c0.6-1.9,1.3-3.8,2-5.8c2.7-8.3,4.6-15.1,4.3-15.2c-0.3-0.1-2.8,6.5-5.5,14.8c-0.6,2-1.3,4-1.9,5.9c-0.2,0.9-0.7,1.9-0.2,3
							c0.2,0.6,0.8,0.9,1.3,1c0.5,0.1,0.9,0.1,1.3,0.1C452.5,216.8,454.3,216.7,454.3,216.5z"/>
					</g>
				</g>
			</g>
			<g>
				<g>
					<g>
						<path class="st3" d="M464.6,182.4c0.3,0.7,2.9,0.2,5.9,0.5c3.1,0.2,5.6,1,5.9,0.3c0.2-0.3-0.3-1-1.3-1.6
							c-1-0.7-2.6-1.3-4.5-1.4c-1.8-0.1-3.5,0.3-4.6,0.8C465,181.5,464.5,182.1,464.6,182.4z"/>
					</g>
				</g>
			</g>
			<g>
				<g>
					<g>
						<path class="st3" d="M434,187.6c0.3,0.6,2.8,0,5.9,0c3-0.1,5.5,0.4,5.9-0.2c0.1-0.3-0.3-0.8-1.4-1.3c-1-0.5-2.6-0.9-4.5-0.9
							c-1.8,0-3.4,0.5-4.5,1C434.4,186.8,433.9,187.3,434,187.6z"/>
					</g>
				</g>
			</g>
			<g>
				<g>
					<g>
						<path class="st12" d="M495.1,203.2c0.3-0.2,13.7-4.4,13.6,9.4c-0.1,13.8-13.9,10.8-14,10.4
							C494.7,222.6,495.1,203.2,495.1,203.2z"/>
					</g>
				</g>
			</g>
			<g>
				<g>
					<g>
						<path class="st13" d="M499,217.8c0.1,0,0.2,0.2,0.6,0.4c0.4,0.2,1.1,0.3,1.8,0.1c1.5-0.5,2.7-2.8,2.8-5.3
							c0-1.3-0.2-2.5-0.6-3.4c-0.4-1-1.1-1.7-1.8-1.9c-0.7-0.2-1.3,0.3-1.4,0.6c-0.2,0.4-0.1,0.7-0.2,0.7c0,0-0.3-0.2-0.2-0.8
							c0.1-0.3,0.2-0.6,0.6-0.9c0.3-0.3,0.8-0.4,1.3-0.3c1.1,0.1,2,1.1,2.5,2.2c0.5,1.1,0.8,2.4,0.8,3.8c-0.1,2.8-1.6,5.4-3.6,5.9
							c-1,0.2-1.8-0.1-2.2-0.4C499,218.2,499,217.9,499,217.8z"/>
					</g>
				</g>
			</g>
			<g>
				<g>
					<g>
						<path class="st3" d="M434.3,194.2c0.3,0.3,2.7,0.2,5.7,1.2c3,1,5.1,2.5,5.4,2.5c0.2,0-0.1-0.5-1-1.2c-0.9-0.7-2.4-1.6-4.3-2.2
							c-1.9-0.6-3.6-0.8-4.6-0.7C434.6,193.8,434.1,194,434.3,194.2z"/>
					</g>
				</g>
			</g>
			<g>
				<g>
					<g>
						<path class="st3" d="M438,201.2c0,1.4,1.2,2.5,2.6,2.5c1.4,0,2.6-1.1,2.6-2.5c0-1.4-1.2-2.5-2.6-2.5
							C439.1,198.7,437.9,199.8,438,201.2z"/>
					</g>
				</g>
			</g>
			<g>
				<g>
					<g>
						<path class="st3" d="M405.5,168c0.2-0.8,0.8-1.4,1.5-1.8c1.5-0.8,3.2-0.7,4.9-0.7c4.1,0,8.3-0.9,12-2.7
							c-1.3-0.7-2.5-1.5-3.5-2.6c-2.1-2.2-3.2-5.4-2.2-8.2c0.2-0.5,0.5-1.1,1.1-1.2c0.9-0.2,1.6,0.6,2.2,1.3c1.9,2.2,3.7,3.2,6.6,3
							c1.8-0.1,3.6-0.5,5-1.3c0.1-0.1,0.1-0.1,0.2-0.2c0.7-0.7,1.4-1.3,2-2c0,0,0,0,0,0l0,0c5-4.8,9.4-8,13.7-9.7
							c6.4-2.4,17.1-3.2,23.7-1.3c6.6,1.9,12.4,7.5,13.2,14.3c3.8-3.1,9.4-2.9,13.9-0.9l0.1,0c5,1.9,7.8,7.4,9.1,12.5
							c0.1,0.3,0.1,0.6,0.2,0.9c1.6,2.8,3.9,5.1,6.6,6.8c0.5,0.3,1,0.7,1.1,1.2c0,0.6-0.4,1-0.9,1.3c-1.2,0.8-2.7,1.4-4.1,1.6
							c0.4,1.2,0.9,2.4,1.6,3.6c0.5,1,1.2,2.2,0.7,3.2c-0.4,0.8-1.4,1.1-2.3,0.9c-0.9-0.1-1.6-0.6-2.3-1.1c0.5,1.4,1.1,2.7,1.6,4.1
							c-1.8,0.3-3.7,0.1-5.5-0.5c-1.2,4.8-2.6,10.9-3.9,14.2c-2.1-0.1-4.1-0.6-5.4,0.5c-1.8,1.5-2.7,4.5-5.6,3.3
							c-1.5-0.6-2.8-3.8-3.2-5.3c-3.1-10.2-3.9-21.1-2.4-31.7c-2-2.3-4.5-4.2-7.3-5.5l0.2,0.2c-5.3-2-11.3-4-16.4-1.6
							c-4,1.8-6.4,5.9-9.4,9c-5.7,6-12.6,9.2-20.9,9.3c-0.9,5.7-0.5,13.1-0.9,18.5l-4.8-8.8l0,0c-0.4-0.6-0.6-1.3-0.9-1.9l-0.1-0.2
							l0,0c-0.4-1-0.9-2.1-1.4-3.1c0,0,0,0-0.1,0c-3,2.5-7.2-1.5-4.8-4.6c0.5-0.6,1-1.2,1.7-1.6c-1.4,1.2-3.4,1.8-5.1,1.2
							c-1.7-0.6-3-2.4-2.8-4.2c0.1-1.2,1.1-2.3,2.2-2.8c-2.4,0.1-4.8-0.5-6.8-1.7C406.3,171,405,169.7,405.5,168z"/>
					</g>
				</g>
			</g>
			<g>
				<g>
					<g>
						<path class="st10" d="M480,157c0,0,0.8,0.5,1.9,1.8c1.1,1.3,2.3,3.5,2.8,6.4c0.3,1.5,0.4,3.1,0.4,4.9c0,1.8-0.2,3.6-0.4,5.6
							c-0.2,2-0.4,4.1-0.3,6.3c0,1.1,0.1,2.2,0.3,3.3c0.2,1.1,0.5,2.3,1.3,3.2c0.6,0.8,1.7,1.1,2.7,1c1-0.1,1.8-0.6,2.5-1.3
							c1.3-1.4,1.6-3.2,2-4.8l-0.4,0c0.6,1.5,1.3,2.9,2.2,4.1c1,1.2,2.3,2,3.7,2.1c0.7,0.1,1.4,0,2-0.3c0.6-0.3,1.1-0.8,1.4-1.3
							c0.3-0.5,0.5-1.1,0.4-1.7c0-0.6-0.2-1.1-0.6-1.5l-0.2,0.2c1.4,1.7,3,2.7,4,3.2c0.5,0.3,1,0.4,1.3,0.5c0.3,0.1,0.4,0.1,0.5,0.1
							c0,0-0.1-0.1-0.4-0.2c-0.3-0.1-0.7-0.3-1.2-0.6c-1-0.6-2.5-1.5-3.9-3.2l-0.2,0.2c0.6,0.7,0.6,1.9,0.1,2.8
							c-0.3,0.5-0.7,0.9-1.2,1.1c-0.5,0.2-1.2,0.3-1.8,0.2c-1.3-0.2-2.5-0.9-3.4-2c-0.9-1.1-1.5-2.5-2.1-4l-0.3-0.6l-0.1,0.7
							c-0.3,1.6-0.7,3.3-1.9,4.6c-0.6,0.6-1.4,1-2.2,1.2c-0.8,0.1-1.7-0.2-2.3-0.8c-0.7-0.8-1-2-1.2-3c-0.2-1.1-0.3-2.2-0.3-3.3
							c-0.1-2.2,0.1-4.2,0.3-6.2c0.2-2,0.4-3.9,0.4-5.7c0-1.8-0.1-3.4-0.4-4.9c-0.6-3-1.8-5.2-3-6.5C480.8,157.5,480,157,480,157z"
							/>
					</g>
				</g>
			</g>
			<g>
				<g>
					<g>
						<path class="st10" d="M420.3,174.1c0,0,0,0.1,0.2,0.1c0.1,0.1,0.3,0.2,0.5,0.4c0.2,0.2,0.5,0.4,0.8,0.5
							c0.3,0.2,0.7,0.4,1.1,0.6c1.8,0.9,4.6,1.8,8.1,1.7c3.5-0.1,7.8-1.3,11.6-4c3.9-2.6,7.3-6.6,10.2-11.2c1.4-2.3,2.6-4.6,3.9-6.8
							c1.3-2.2,2.7-4.2,4.4-5.7c1.7-1.6,3.6-2.7,5.6-3.2c1-0.3,2-0.3,2.9-0.3c0.9,0.1,1.8,0.3,2.6,0.6c1.6,0.6,2.9,1.5,3.9,2.5
							c1,1,1.6,2,2.1,2.9c0.8,1.8,0.8,2.9,0.9,2.9c0,0,0-0.1,0-0.2c0-0.2,0-0.4-0.1-0.6c-0.1-0.5-0.3-1.3-0.7-2.2
							c-0.4-0.9-1.1-1.9-2.1-3c-1-1-2.3-2-4-2.6c-0.8-0.3-1.8-0.5-2.7-0.6c-1-0.1-2,0-3,0.2c-2.1,0.5-4.1,1.7-5.8,3.3
							c-1.8,1.6-3.2,3.6-4.5,5.8c-1.3,2.2-2.5,4.5-4,6.8c-2.8,4.5-6.2,8.4-10.1,11.1c-3.8,2.7-7.9,3.8-11.4,4
							c-3.5,0.2-6.3-0.7-8.1-1.5C421.2,174.8,420.4,174.1,420.3,174.1z"/>
					</g>
				</g>
			</g>
			<g>
				<g>
					<g>
						<path class="st10" d="M418.8,165.7c0,0,0.2,0.2,0.7,0.5c0.4,0.3,1.1,0.7,2,1.1c0.9,0.4,2,0.8,3.2,1.1c1.2,0.3,2.6,0.6,4.1,0.7
							c1.5,0.1,2.9,0,4.1-0.2c1.3-0.2,2.4-0.5,3.3-0.8c0.9-0.3,1.6-0.6,2.1-0.8c0.5-0.2,0.7-0.4,0.7-0.4c0-0.1-1.1,0.4-2.9,1
							c-0.9,0.3-2,0.5-3.3,0.7c-1.2,0.1-2.6,0.2-4.1,0.1c-1.4-0.1-2.8-0.3-4-0.6c-1.2-0.3-2.3-0.7-3.2-1
							C419.8,166.3,418.8,165.6,418.8,165.7z"/>
					</g>
				</g>
			</g>
			<g>
				<g>
					<g>
						<path class="st13" d="M464,221.5c0,0-7,2-9.6,3l1.1,3c0.9,2.6,4,4,6.6,2.8c0.6-0.3,1.1-0.7,1.6-1.2c0.8-0.9,1.2-2.2,1.1-3.4
							C464.6,224.3,464.2,222.8,464,221.5z"/>
					</g>
				</g>
			</g>
			<g>
				<g>
					<g>
						<g>
							<path class="st3" d="M454.4,224.5c-0.1-0.2,4.1-1.8,9.5-3.5l0.5-0.2l0.1,0.5c0,0.1,0,0.1,0,0.2c0.3,1.4,0.6,2.7,0.6,4
								c0.1,1.3-0.4,2.6-1,3.3c-1.3,1.6-2.7,1.7-2.7,1.6c-0.1-0.2,1.1-0.5,2.1-2c1.2-1.4,0.6-4,0-6.7c0-0.1,0-0.2,0-0.2l0.6,0.4
								C458.8,223.6,454.4,224.7,454.4,224.5z"/>
						</g>
					</g>
				</g>
			</g>
		</g>
		<g>
			<g>
				<g>
					<path class="st10" d="M406.8,475.2l135.7-0.6l-7.5-115.5l-0.6-34.4l-8-62.4l-30.3-6.5c0,0-7.6,13.9-27,13.7
						c-18.9-0.3-18.3-8.3-18.3-8.3l-32.2,12.1c0,0-17.7,8.6-20.9,16.9c-3.2,8.1-9.3,54.8-9.3,54.8l27.8-0.3l-2.5,88.3L406.8,475.2z"
						/>
				</g>
			</g>
		</g>
		<g>
			<path class="st3" d="M417.2,303.7c0,0,0,0.2,0.1,0.6c0,0.5,0.1,1,0.1,1.7c0.1,1.5,0.1,3.7,0.1,6.4c0,5.4-0.1,12.9-0.3,21.2
				c-0.3,8.3-0.6,15.8-0.9,21.2c-0.2,2.7-0.3,4.8-0.4,6.4c-0.1,0.7-0.1,1.3-0.1,1.7c0,0.4-0.1,0.6-0.1,0.6c0,0,0-0.2,0-0.6
				c0-0.5,0-1,0-1.7c0-1.6,0.1-3.8,0.2-6.4c0.2-5.5,0.4-12.9,0.7-21.2c0.3-8.3,0.4-15.8,0.5-21.2c0-2.7,0-4.9,0-6.4
				c0-0.7,0-1.3,0-1.7C417.2,303.9,417.2,303.7,417.2,303.7z"/>
		</g>
		<path class="st10" d="M525.6,263.2c0,0,13.7,1.4,21,11c6.7,8.8,19.7,36.5,19.3,37.2c-0.3,0.7-30.5,20.5-30.5,20.5l-7.5-13.8
			L525.6,263.2z"/>
		<g>
			<path class="st3" d="M532.3,276.8c0,0,0,0.2,0.1,0.5c0,0.4,0.1,0.9,0.1,1.5c0.1,1.3,0.2,3.2,0.3,5.6c0.2,4.7,0.4,11.2,0.5,18.4
				c0.1,7.2,0.2,13.7,0.4,18.4c0.1,2.3,0.1,4.2,0.2,5.6c0,0.6,0,1.1,0,1.5c0,0.3,0,0.5,0,0.5c0,0,0-0.2-0.1-0.5
				c0-0.4-0.1-0.9-0.1-1.5c-0.1-1.3-0.2-3.2-0.3-5.6c-0.2-4.7-0.4-11.2-0.5-18.4c-0.1-7.2-0.2-13.7-0.4-18.4
				c-0.1-2.3-0.1-4.2-0.2-5.6c0-0.6,0-1.1,0-1.5C532.2,277,532.3,276.8,532.3,276.8z"/>
		</g>
	</g>
	<g>
		<g>
			<path class="st14" d="M343.3,397c0,0,4.5,3,7.3,2.6c2.8-0.4,12.1-2.6,12.1-2.6s0.2,0.8,2.6,2.7c2.5,1.9,17.3,4.3,23.6,3.5
				c6.2-0.8,16.8-4.7,16.8-4.7l-3.2-17.8l-28,4.4l-31.2,7.2v2.6V397z"/>
			<path class="st12" d="M352.7,382.5c0,0-2.5,10.7-1.1,12.3s3,1.9,3.9-0.2c0.9-2.1,2.7-9.4,2.7-9.4l1.1-2.6c0,0-1.5,17.7,1.5,18.7
				s4.7,0,4.7,0s6,4.5,6.4-2.6c0.4-7.2,2.6-16,2.6-16l1.4-2.3v4c0,0-3.2,9.4-1.4,10.7c1.8,1.3,3.7,2.3,4.8,0.8
				c1.1-1.5,6.4-12.6,7.6-16.4c0,0,3.5,5.1,8.5,5.2c3.9,0.1,6.1-1.6,4.5-4s-5.5-4.4-5.5-4.4l-5.1-11.9l-12.4-2.9h-14.1L352.7,382.5z
				"/>
			<path class="st15" d="M332.5,374.8c0,0,11.9,7.1,17.4,8.4c5.5,1.3,34.8-3.9,34.5-5.7c-0.3-1.8-4.1-3.5-6.8-3.9
				c-2.6-0.4-10.4-1.7-10.4-1.7h20.7l10,6.3c0,0,3.5-1.4,2.4-4.3c-0.6-1.5-8.4-7.6-8.4-7.6l-19-3.8l-33.7-1.3L332.5,374.8z"/>
		</g>
		<g>
			<path class="st8" d="M343.6,343.1c0,0,33.7,5.7,34.5,6.6c0.8,0.9,9.4,10.7,9.4,10.7s13,4.5,11.3,7.4c-1.7,2.9-5.5,1.1-5.5,1.1
				s5.3,8.3,2.8,10c-2.5,1.7-5.1,0.6-7-1.9c-1.9-2.5-7.4-11.5-7.4-11.5s4.5,18.5,2.3,19c-2.3,0.6-5.8,0.8-7.4-4
				c-1.5-4.7-1.9-7.4-1.9-7.4l-7.2-11.9c0,0,2.8,21.7,1.1,23.5c0,0-4.3,1.4-5.8-2.4c-1.5-3.8-3.6-12.4-3.6-12.4l-3.6-9.5l-0.4,6
				c0,0,3,11.1,1.1,11.9c-1.9,0.8-4.3,0-5.7-2.5c-1.3-2.5-2.8-5.5-3.4-8c-0.4-1.5-2.4-6.5-2.4-6.5l-7.2-0.9L343.6,343.1z"/>
			<g>
				<path class="st9" d="M385.2,357.5c0.1-0.1,2.1,2.6,4.5,5.9c2.4,3.3,4.2,6.1,4.1,6.2c-0.1,0.1-2.1-2.6-4.5-5.9
					C386.9,360.4,385.1,357.6,385.2,357.5z"/>
			</g>
			<g>
				<path class="st9" d="M373.9,351.3c0.1,0,0.7,0.7,1.6,1.9c0.9,1.2,2,3,3.2,5c1.1,2,2,3.9,2.6,5.3c0.6,1.4,0.9,2.3,0.8,2.3
					c-0.1,0-0.5-0.8-1.2-2.2c-0.7-1.4-1.6-3.2-2.7-5.2c-1.1-2-2.2-3.8-3-5.1C374.4,352.1,373.9,351.3,373.9,351.3z"/>
			</g>
			<g>
				<path class="st9" d="M364,352.3c0-0.1,0.6,0.2,1.2,0.9c0.6,0.7,1.3,1.8,1.8,3.2c0.5,1.4,0.6,2.6,0.7,3.6c0.1,0.9,0.1,1.5,0,1.5
					c-0.1,0-0.2-0.5-0.4-1.5c-0.2-0.9-0.4-2.1-0.9-3.5c-0.4-1.3-1-2.4-1.6-3.1C364.4,352.7,363.9,352.4,364,352.3z"/>
			</g>
			<g>
				<path class="st9" d="M352,353.3c0-0.1,0.5,0.1,1.2,0.6c0.7,0.5,1.5,1.3,2.1,2.5c0.6,1.2,0.7,2.4,0.7,3.2c0,0.8-0.2,1.3-0.3,1.3
					c-0.2,0,0.2-2.1-0.9-4.3C353.8,354.4,351.9,353.4,352,353.3z"/>
			</g>
		</g>
	</g>
	<g>
		<path class="st11" d="M414.6,402.5c2.4,0,94.1-6.7,94.1-6.7l32.3-6.7l-8-35.8l-118.2,38L414.6,402.5z"/>
		<path class="st14" d="M402.5,380.7l84.9-19.5c0,0,77.3-45,78.4-45.8c1.3-0.8-6,45.8-6,45.8s-49.2,25.9-63.4,29.3
			c-7.7,1.8-93.3,8.9-93.3,8.9L402.5,380.7z"/>
		<g>
			<g>
				<g>
					<g>
						<path class="st3" d="M611.4,195.5c5.2-5.6,18-4.7,21-0.9c4.5-2.3,10.6-0.2,12.7,4.4c4.5,1,9,2.1,13.6,3.1
							c2.3,0.5,4.7,1.1,6.5,2.7c1.8,1.6,2.6,4.5,1.1,6.4c4.8,1.3,6.6,8.4,3,11.8c1.9,2.1,1.5,5.9-0.8,7.4c3.7,4.5,6.6,9.7,8.6,15.2
							c0.8,2.3,1.5,4.9,0.6,7.2c-0.9,2.3-3.9,3.8-5.9,2.4c1.3,1.9,1.4,4.6,0.2,6.5c2.3,0.1,2.9,3.6,1.4,5.3
							c-1.6,1.7-4.2,1.8-6.5,1.7c-2.3-0.1-4.8-0.2-6.7,1.1c0.1,0.7,0.3,1.1,0.7,1.5c3.9,3.2,5,8.8,2,12.9c-0.3,0.4-0.5,0.7-0.8,1
							c-1.4,1.9-4.7,3.6-6.7,4.6c-5.2,2.7-8.3,2.1-14.1,2.9c1.5,3.8-8,12-18.7,3.7c-21.6,5.6-37.1,7.6-59.4,7.5
							c-3.2,0-7-0.5-8.4-3.4c-2.6,0.7-5.4-0.6-7.2-2.5c-1.9-1.9-3.1-4.3-4.2-6.8c-5.5-1.5-9.7-6.9-9.8-12.6
							c-3.7-2.9-6.1-7.5-6.3-12.2c-5.3-1.7-8.2-8.7-5.6-13.6c1.2-6.5,3.5-12.9,6.8-18.7c-3.6-0.8-5-5.8-3.4-9.2
							c1.5-3.4,4.9-5.6,8-7.5c-2.7,0.7-5.1-2.7-4.4-5.5c0.7-2.7,3.2-4.6,5.6-6c3.6-2.1,7.4-3.8,11.3-4.9c1.3-4.8,7.5-10.2,12-12.3
							C575.8,180.4,588.5,178.3,611.4,195.5"/>
					</g>
				</g>
				<g>
					<g>
						<path class="st14" d="M560.6,229.5c1.6-12.5,10.8-27.3,23.2-25.2l38.3,12.3c3.8,0.6,6.4,4,6.1,7.8l-6.5,83.3
							c-0.8,10.9-9.2,19.6-20,21h0c-13.8,1.7-26-9.2-25.7-23.2c0.1-5.7,0.2-10,0.2-10c0,0-15.8-3.6-17.8-24.7
							C557.3,260.3,558.9,243.4,560.6,229.5z"/>
					</g>
				</g>
				<g>
					<g>
						<g>
							<g>
								<g>
									<g>
										<g>
											<g>
												<g>
													<g>
														<g>
															<g>
																<g>
																	<g>
																		<g>
																			<g>
																				<g>
																					<g>
																						<g>
																							<path class="st3" d="M567.6,246.5c-0.1,1.4,0.9,2.7,2.4,2.9c1.5,0.2,2.8-0.8,2.9-2.2
																								c0.1-1.4-0.9-2.7-2.4-2.9C569,244,567.7,245,567.6,246.5z"/>
																						</g>
																					</g>
																				</g>
																			</g>
																		</g>
																	</g>
																</g>
															</g>
														</g>
													</g>
												</g>
											</g>
										</g>
									</g>
									<g>
										<g>
											<g>
												<g>
													<g>
														<g>
															<g>
																<g>
																	<g>
																		<g>
																			<g>
																				<g>
																					<g>
																						<g>
																							<g>
																								<path class="st3" d="M563.8,238.6c0.3,0.4,2.4-1,5.3-0.8c2.9,0.1,4.9,1.8,5.2,1.4c0.2-0.1-0.1-0.8-1-1.5
																									c-0.9-0.7-2.4-1.5-4.2-1.6c-1.8-0.1-3.3,0.5-4.3,1.1C563.9,237.8,563.6,238.4,563.8,238.6z"/>
																							</g>
																						</g>
																					</g>
																				</g>
																			</g>
																		</g>
																	</g>
																</g>
															</g>
														</g>
													</g>
												</g>
											</g>
										</g>
									</g>
								</g>
								<g>
									<g>
										<g>
											<g>
												<g>
													<g>
														<g>
															<g>
																<g>
																	<g>
																		<g>
																			<g>
																				<g>
																					<g>
																						<g>
																							<path class="st3" d="M594,247.6c-0.1,1.4,0.9,2.7,2.4,2.9c1.5,0.2,2.8-0.8,2.9-2.2c0.1-1.4-0.9-2.7-2.4-2.9
																								C595.4,245.1,594.1,246.2,594,247.6z"/>
																						</g>
																					</g>
																				</g>
																			</g>
																		</g>
																	</g>
																</g>
															</g>
														</g>
													</g>
												</g>
											</g>
										</g>
									</g>
									<g>
										<g>
											<g>
												<g>
													<g>
														<g>
															<g>
																<g>
																	<g>
																		<g>
																			<g>
																				<g>
																					<g>
																						<g>
																							<g>
																								<path class="st3" d="M592,240.9c0.3,0.4,2.4-1,5.3-0.8c2.9,0.1,4.9,1.8,5.2,1.4c0.2-0.1-0.1-0.8-1-1.5
																									c-0.9-0.7-2.4-1.5-4.2-1.6c-1.8-0.1-3.3,0.5-4.3,1.1C592.2,240.1,591.9,240.7,592,240.9z"/>
																							</g>
																						</g>
																					</g>
																				</g>
																			</g>
																		</g>
																	</g>
																</g>
															</g>
														</g>
													</g>
												</g>
											</g>
										</g>
									</g>
								</g>
								<g>
									<g>
										<g>
											<g>
												<g>
													<g>
														<g>
															<g>
																<g>
																	<g>
																		<g>
																			<g>
																				<g>
																					<g>
																						<g>
																							<path class="st3" d="M580.2,261.6c0-0.2-1.7-0.6-4.6-1.1c-0.7-0.1-1.4-0.3-1.5-0.8c-0.1-0.5,0.2-1.3,0.6-2.1
																								c0.8-1.7,1.6-3.6,2.5-5.5c3.5-7.8,6.1-14.2,5.8-14.3c-0.3-0.1-3.4,6.1-6.9,13.8c-0.8,1.9-1.7,3.7-2.4,5.5
																								c-0.3,0.8-0.9,1.7-0.6,2.9c0.2,0.6,0.7,1,1.1,1.1c0.5,0.2,0.9,0.2,1.2,0.3
																								C578.4,261.6,580.2,261.7,580.2,261.6z"/>
																						</g>
																					</g>
																				</g>
																			</g>
																		</g>
																	</g>
																</g>
															</g>
														</g>
													</g>
												</g>
											</g>
										</g>
									</g>
								</g>
								<g>
									<g>
										<g>
											<g>
												<g>
													<g>
														<g>
															<g>
																<g>
																	<g>
																		<g>
																			<g>
																				<g>
																					<g>
																						<path class="st16" d="M576.1,295.5c0,0,14,1.8,28.4-5.7c0,0-7.7,13.9-28.4,10.7L576.1,295.5z"/>
																					</g>
																				</g>
																			</g>
																		</g>
																	</g>
																</g>
															</g>
														</g>
													</g>
												</g>
											</g>
										</g>
									</g>
								</g>
							</g>
						</g>
					</g>
					<g>
						<g>
							<g>
								<g>
									<g>
										<g>
											<g>
												<g>
													<g>
														<g>
															<g>
																<g>
																	<g>
																		<g>
																			<path class="st3" d="M591.5,229c0.2,0.8,3.1,0.6,6.5,1.2c3.4,0.5,6,1.7,6.5,1c0.2-0.3-0.2-1.1-1.3-1.9
																				c-1-0.8-2.7-1.7-4.8-2c-2-0.3-3.9-0.1-5.1,0.3C592,228,591.4,228.6,591.5,229z"/>
																		</g>
																	</g>
																</g>
															</g>
														</g>
													</g>
												</g>
											</g>
										</g>
									</g>
								</g>
							</g>
						</g>
					</g>
					<g>
						<g>
							<g>
								<g>
									<g>
										<g>
											<g>
												<g>
													<g>
														<g>
															<g>
																<g>
																	<g>
																		<g>
																			<path class="st3" d="M565.4,228.8c0.5,0.7,2.5,0.1,4.9,0.2c2.4,0,4.4,0.7,4.9,0.1c0.2-0.3-0.1-1-0.9-1.7
																				c-0.8-0.7-2.3-1.3-3.9-1.3c-1.6,0-3.1,0.5-4,1.1C565.5,227.8,565.2,228.4,565.4,228.8z"/>
																		</g>
																	</g>
																</g>
															</g>
														</g>
													</g>
												</g>
											</g>
										</g>
									</g>
								</g>
							</g>
						</g>
					</g>
				</g>
				<g>
					<g>
						<path class="st3" d="M551.1,239.4c0.3-3.3,1.3-6.6,3.6-8.9c1.2-1.3,2.8-2.3,3.9-3.7c2.4-3,2.1-7.3,3.2-11.1
							c1.4-4.8,5.2-8.8,9.9-10.4c3.9-1.3,8.4-1.1,12.1-2.9c2.7-1.4,4.9-3.9,7.7-5.1c5.5-2.4,11.8,0.5,16.8,3.7
							c0.9,4.1-1.7,7.6-4.2,10.9c-2.5,3.4-6.6,5.5-10.8,5.7c-3.3,0.1-7.1-0.7-9.4,1.6c-2.5,2.4-1.6,6.7-3.6,9.5
							c-2.9,4-9.3,2.3-13.6,4.7c-3.3,1.9-4.8,5.7-6.5,9.1c-1.7,3.4-4.6,6.9-8.4,6.7C551.3,245.9,550.8,242.7,551.1,239.4z"/>
					</g>
				</g>
				<g>
					<g>
						<path class="st3" d="M600.1,208.2c9.5,0,19.1,1.9,27.9,5.5c2.6,1.1,5.3,2.4,6.8,4.9c1.3,2.1,1.4,4.8,1.3,7.3
							c-0.2,7.8-3.5,17.3-6.7,24.5l-9.9,5.7c-7.5-1.9-3.8-14.8-3.3-21.3c-5.2-2.4-8.8-8-8.7-13.7
							C603.3,218.2,600.4,213.3,600.1,208.2z"/>
					</g>
				</g>
				<g>
					<g>
						<g>
							<g>
								<g>
									<g>
										<g>
											<path class="st14" d="M619.8,253.3c0.4-4.5,5.9-5.2,9.7-2.9c2.1,1.3,3.6,3.8,3.3,8.6c-0.9,12.6-13.4,9.1-13.4,8.7
												C619.3,267.5,619.3,258.5,619.8,253.3z"/>
										</g>
									</g>
								</g>
							</g>
						</g>
					</g>
				</g>
				<g>
					<g>
						<g>
							<g>
								<g>
									<g>
										<g>
											<g>
												<path class="st16" d="M623.5,263.2c0.1,0,0.2,0.2,0.6,0.4c0.4,0.2,1,0.4,1.6,0.2c1.4-0.4,2.7-2.4,2.9-4.7
													c0.1-1.1,0-2.3-0.4-3.2c-0.3-1-0.9-1.6-1.5-1.8c-0.7-0.2-1.2,0.2-1.3,0.5c-0.2,0.3-0.1,0.6-0.2,0.6c0,0-0.3-0.2-0.1-0.7
													c0.1-0.2,0.2-0.5,0.6-0.8c0.3-0.2,0.8-0.3,1.2-0.2c1,0.1,1.8,1.1,2.2,2.1c0.4,1,0.6,2.3,0.5,3.6
													c-0.3,2.5-1.8,4.8-3.6,5.2c-0.9,0.2-1.6-0.2-2-0.5C623.5,263.5,623.5,263.2,623.5,263.2z"/>
											</g>
										</g>
									</g>
								</g>
							</g>
						</g>
					</g>
				</g>
				<g>
					<g>
						<path class="st10" d="M629.6,271.2c0.6,0,1.3,0,2-0.1c0.7-0.1,1.5-0.3,2.2-0.6l-0.2-0.1c0.2,1.7,1.3,3.6,3.3,4.7
							c1.9,1,4.6,1,6.7-0.5l-0.2,0c0.4,0.6,1,1,1.6,1.1c0.7,0.2,1.4,0.1,2.1-0.1c0.7-0.2,1.3-0.7,1.7-1.3c0.4-0.6,0.6-1.3,0.7-2.1
							c0.1-1.5-0.4-3-1.3-4.2c-0.9-1.3-2.1-2.3-3.3-3.3l0,0.3c1.1-0.6,1.8-1.7,2.1-3c0.3-1.2,0.2-2.5-0.3-3.7
							c-0.5-1.2-1.3-2.3-2.2-3.2c-0.9-0.9-1.9-1.8-3-2.6l0,0.3c1-0.9,1.4-2.3,1.3-3.7c-0.1-1.3-0.5-2.7-1.4-3.8
							c-1.6-2.1-3.9-3.3-6.1-4.4l0.1,0.2c0.7-2.8,0-5.8-1.9-7.8c-1.8-2-4.6-3-7.1-2.8l0.2,0.2c0.5-2.3-0.3-4.6-1.6-6.2
							c-1.3-1.6-3.3-2.7-5.3-2.7l0.2,0.2c0-2.3-1.2-4.3-2.8-5.6c-1.6-1.3-3.5-1.8-5.3-1.6l0.1,0.1c0-1.2-0.5-2.3-1-3.3
							c-0.5-0.9-1.2-1.7-1.9-2.4c-1.4-1.3-3-1.8-4.3-1.9c-0.2,0-0.3,0-0.5,0c-0.2,0-0.3,0-0.4,0c-0.3,0-0.6,0-0.8,0.1
							c-0.5,0.1-0.9,0.2-1.2,0.3c-0.3,0.1-0.5,0.2-0.7,0.3c-0.2,0.1-0.2,0.1-0.2,0.1c0,0,0.1,0,0.2-0.1c0.2-0.1,0.4-0.1,0.7-0.3
							c0.3-0.1,0.7-0.2,1.2-0.3c0.2-0.1,0.5,0,0.8-0.1c0.1,0,0.3,0,0.4,0c0.2,0,0.3,0,0.5,0c1.3,0.1,2.8,0.7,4.2,2
							c0.7,0.6,1.3,1.4,1.8,2.3c0.5,0.9,0.9,2,0.9,3.2l0,0.1l0.1,0c1.7-0.2,3.5,0.3,5.1,1.5c1.5,1.2,2.7,3.1,2.6,5.3l0,0.2l0.2,0
							c1.9,0,3.8,1,5,2.6c1.3,1.6,2,3.8,1.5,5.9l-0.1,0.2l0.3,0c2.4-0.2,5,0.7,6.8,2.7c1.7,1.9,2.5,4.8,1.8,7.4l0,0.1l0.1,0.1
							c2.2,1.1,4.4,2.3,6,4.3c0.8,1,1.2,2.3,1.3,3.6c0.1,1.3-0.3,2.5-1.2,3.4l-0.2,0.2l0.2,0.1c2,1.6,4.1,3.3,5,5.6
							c0.4,1.1,0.5,2.4,0.3,3.5c-0.2,1.1-0.9,2.2-1.9,2.7l-0.2,0.1l0.2,0.2c1.2,1,2.4,2,3.2,3.2c0.9,1.2,1.4,2.6,1.3,4
							c-0.1,1.4-0.9,2.7-2.1,3.1c-1.2,0.5-2.7,0.2-3.3-0.9l-0.1-0.1l-0.1,0.1c-2,1.4-4.6,1.5-6.4,0.5c-1.9-1-2.9-2.8-3.2-4.5l0-0.1
							l-0.1,0.1c-0.7,0.4-1.5,0.5-2.2,0.6c-0.7,0.1-1.4,0.1-2,0.1c-1.2,0-2.3-0.3-3.1-0.6c-0.8-0.4-1.3-0.9-1.4-1.3
							c-0.2-0.4-0.2-0.6-0.2-0.6c0,0,0,0.1,0,0.2c0,0.1,0,0.3,0.2,0.5c0.2,0.4,0.7,0.9,1.4,1.3"/>
					</g>
				</g>
				<g>
					<g>
						<path class="st10" d="M673.3,255.8c0,0,0.2-0.2,0.5-0.8c0.3-0.5,0.6-1.4,0.7-2.5c0.1-1.1-0.1-2.6-1-4c-0.9-1.4-2.5-2.7-4.5-3
							l0.1,0.2c0.4-1.9,0.2-4.2-1-6.3c-0.6-1-1.4-1.9-2.4-2.7c-1-0.7-2.3-1.1-3.4-1.7c-0.6-0.3-1.2-0.6-1.6-1
							c-0.5-0.4-0.9-1-1.1-1.6c-0.5-1.2-0.7-2.7-1.4-4c-1.4-2.6-4.5-4.4-7.6-4l0.2,0.2c0.5-2.9-0.4-6.1-2.5-8.4
							c-2.2-2.4-5.5-3.6-8.5-3.3l0.2,0.2c0.4-3.7-1.6-7.3-4.6-8.9c-3-1.6-6.6-1.3-9.1,0.4l0.2,0c-1.3-1.3-2.8-2.2-4.4-2.8
							c-1.5-0.6-3.1-1-4.5-1.1c-2.9-0.4-5.5-0.1-7.5,0.4c-2,0.5-3.5,1.2-4.5,1.8c-0.5,0.3-0.8,0.6-1,0.7c-0.2,0.2-0.3,0.3-0.3,0.3
							c0,0,0.5-0.4,1.4-0.9c0.9-0.6,2.5-1.2,4.5-1.7c2-0.4,4.6-0.7,7.4-0.3c1.4,0.2,2.9,0.6,4.5,1.1c1.5,0.6,3,1.4,4.3,2.7l0.1,0.1
							l0.1-0.1c2.4-1.6,5.9-1.9,8.8-0.3c2.9,1.5,4.8,5,4.4,8.6l0,0.2l0.2,0c2.9-0.3,6.1,0.8,8.2,3.2c2,2.2,2.9,5.3,2.4,8.1l0,0.3
							l0.3,0c3-0.4,6,1.3,7.3,3.7c0.7,1.2,0.8,2.7,1.4,4c0.3,0.6,0.7,1.2,1.2,1.7c0.5,0.5,1.1,0.8,1.7,1.1c1.2,0.6,2.4,0.9,3.4,1.6
							c1,0.7,1.8,1.6,2.4,2.6c1.2,2,1.5,4.2,1,6.1l0,0.1l0.1,0c2,0.3,3.5,1.5,4.4,2.9c0.9,1.3,1.1,2.8,1,3.9
							c-0.1,1.1-0.4,1.9-0.6,2.5C673.5,255.5,673.3,255.8,673.3,255.8z"/>
					</g>
				</g>
				<g>
					<g>
						<path class="st10" d="M552.1,257.2c0,0,0.3-0.3,0.1-1c-0.1-0.3-0.3-0.7-0.7-1.1c-0.4-0.4-0.9-0.6-1.6-0.8
							c-0.6-0.2-1.3-0.4-2-0.9c-0.6-0.5-1.1-1.2-1.4-2.1c-0.3-0.9-0.3-1.9-0.3-2.9c0.1-1,0.2-2.1,0.3-3.3c0.1-2.4-0.9-4.9-1.5-7.5
							c-0.3-1.3-0.4-2.8-0.1-4.2c0.3-1.4,1-2.8,2.4-3.5c1.3-0.8,2.9-1,4.5-1.4c0.8-0.2,1.6-0.5,2.3-1c0.7-0.5,1.3-1.2,1.6-2
							c0.8-1.6,1-3.3,1.4-5c0.2-0.8,0.5-1.7,0.9-2.4c0.4-0.7,1.1-1.3,1.9-1.6c1.1-0.4,2.3-0.3,3.5-0.4c0.6-0.1,1.2-0.2,1.8-0.4
							c0.6-0.3,1.1-0.7,1.4-1.2c0.7-1,1-2.2,1.4-3.2c0.4-1.1,0.9-2,1.6-2.8c1.5-1.6,3.5-2.5,5.6-2.5c2,0,4,0.8,5.3,2l0.2,0.2
							l0.1-0.2c1.6-3.4,4.7-5.6,7.6-6.4c1.5-0.4,2.9-0.5,4.2-0.3c1.3,0.2,2.5,0.5,3.5,1c2,1,3.1,2.5,3.6,3.5
							c0.3,0.5,0.5,0.9,0.6,1.2c0.1,0.1,0.1,0.2,0.1,0.3c0,0.1,0.1,0.1,0.1,0.1c0,0,0,0,0-0.1c0-0.1-0.1-0.2-0.1-0.3
							c-0.1-0.3-0.3-0.7-0.6-1.2c-0.6-1-1.6-2.5-3.6-3.6c-1-0.5-2.2-0.9-3.5-1.1c-1.3-0.2-2.8-0.1-4.3,0.3c-3,0.8-6.2,3-7.9,6.5
							l0.3-0.1c-1.4-1.3-3.4-2.2-5.6-2.1c-2.1,0-4.3,1-5.8,2.6c-0.8,0.8-1.4,1.9-1.7,3c-0.4,1.1-0.7,2.2-1.3,3.1
							c-0.6,0.9-1.8,1.3-2.9,1.4c-1.2,0.1-2.4,0-3.6,0.4c-0.9,0.3-1.6,1-2.1,1.8c-0.5,0.8-0.8,1.6-1,2.5c-0.4,1.7-0.6,3.4-1.4,4.9
							c-0.4,0.7-0.9,1.4-1.5,1.8c-0.7,0.5-1.4,0.7-2.2,1c-1.5,0.4-3.2,0.7-4.5,1.5c-0.7,0.4-1.3,1-1.7,1.6c-0.4,0.7-0.7,1.4-0.8,2.1
							c-0.3,1.5-0.2,2.9,0.1,4.3c0.6,2.7,1.6,5.1,1.5,7.4c0,1.2-0.2,2.3-0.2,3.3c-0.1,1.1,0,2.1,0.3,3c0.3,0.9,0.8,1.7,1.5,2.1
							c0.7,0.5,1.4,0.6,2,0.9c0.6,0.2,1.2,0.4,1.5,0.8c0.4,0.3,0.6,0.7,0.7,1C552.4,256.8,552.1,257.2,552.1,257.2z"/>
					</g>
				</g>
				<g>
					<g>
						<path class="st10" d="M527.9,237.2c0,0,0.1-0.1,0.1-0.2c0.1-0.2,0.2-0.4,0.4-0.7c0.3-0.6,0.8-1.6,1.4-2.7
							c0.6-1.2,1.3-2.7,2.2-4.3c0.9-1.6,2.2-3.4,4.3-4.5c1-0.5,2.2-0.9,3.4-1.4c0.6-0.3,1.2-0.6,1.7-1c0.6-0.4,1-1,1.3-1.6
							c0.6-1.3,0.7-2.8,1.2-4.1c0.3-0.7,0.6-1.3,1.2-1.7c0.6-0.4,1.3-0.7,2.1-0.9c0.7-0.2,1.5-0.4,2.3-0.8c0.7-0.4,1.4-1,1.8-1.8
							c0.8-1.5,0.8-3.3,1.2-4.9c0.2-0.8,0.4-1.6,0.9-2.3c0.5-0.7,1.2-1.1,2-1.3c1.7-0.3,3.5,0.3,5.3,0c0.9-0.1,1.8-0.6,2.5-1.2
							c0.7-0.6,1.1-1.4,1.6-2.2c0.5-0.7,0.9-1.5,1.4-2.2c0.5-0.7,1.1-1.2,1.9-1.6c1.5-0.7,3.2-0.3,4.8,0.1c1.6,0.4,3.2,0.8,4.8,0.5
							c1.6-0.3,3-1.1,4.2-1.8c1.3-0.8,2.5-1.6,3.8-2c2.6-0.9,5.3-0.7,7.5-0.1c2.3,0.6,4.1,1.7,5.5,3c1.4,1.2,2.3,2.6,3,3.7
							c0.6,1.2,1.1,2.1,1.3,2.7c0.1,0.3,0.2,0.6,0.3,0.7c0.1,0.2,0.1,0.2,0.1,0.2c0,0,0-0.1-0.1-0.3c-0.1-0.2-0.1-0.4-0.2-0.8
							c-0.2-0.7-0.6-1.6-1.2-2.8c-0.7-1.1-1.6-2.5-3-3.8c-1.4-1.2-3.3-2.4-5.6-3.1c-2.3-0.6-5-0.8-7.7,0.1c-1.3,0.5-2.6,1.3-3.8,2
							c-1.3,0.7-2.6,1.5-4.1,1.8c-1.5,0.3-3.1-0.1-4.6-0.5c-0.8-0.2-1.6-0.4-2.5-0.5c-0.8-0.1-1.7,0-2.6,0.4c-0.8,0.4-1.5,1-2,1.7
							c-0.5,0.7-1,1.5-1.5,2.2c-0.5,0.7-0.9,1.5-1.6,2.1c-0.6,0.6-1.4,1-2.2,1.1c-1.7,0.3-3.5-0.4-5.3,0c-0.9,0.2-1.8,0.7-2.3,1.4
							c-0.5,0.7-0.8,1.6-0.9,2.5c-0.3,1.7-0.4,3.4-1.1,4.8c-0.4,0.7-0.9,1.3-1.6,1.6c-0.7,0.4-1.4,0.6-2.2,0.8
							c-0.7,0.2-1.5,0.5-2.1,1c-0.7,0.5-1.1,1.2-1.4,1.9c-0.5,1.4-0.6,2.9-1.1,4.1c-0.6,1.2-1.7,2-2.9,2.5c-1.2,0.5-2.4,0.9-3.4,1.4
							c-2.1,1.1-3.4,3-4.4,4.6c-0.9,1.6-1.6,3.1-2.2,4.3c-0.6,1.2-1,2.1-1.3,2.8c-0.1,0.3-0.2,0.5-0.3,0.7
							C527.9,237.1,527.9,237.2,527.9,237.2z"/>
					</g>
				</g>
				<g>
					<g>
						<path class="st10" d="M541.6,224.1c0,0-0.1,0-0.2,0c-0.2,0-0.4,0-0.7,0.1c-0.6,0.3-1.2,1.1-1.3,2.2c0,0.6,0.1,1.2,0.2,1.9
							c0.1,0.7,0.3,1.4,0.3,2.2c-0.1,0.8-0.4,1.6-0.9,2.3c-0.5,0.8-1.1,1.5-1.7,2.4c-0.5,0.9-0.8,2.1-0.4,3.2c0.4,1.1,1.2,2,1.5,3.1
							c0.4,1.1,0.1,2.3-0.4,3.5c-0.5,1.1-1.2,2.3-1.7,3.5c-0.3,0.6-0.4,1.3-0.4,2c0,0.7,0.2,1.4,0.4,2.1c0.6,1.3,1.5,2.4,2.3,3.7
							c0.8,1.2,1.5,2.6,1.3,4c-0.2,1.5-1,2.8-1.6,4.2c-0.3,0.7-0.5,1.5-0.5,2.3c0,0.8,0.2,1.6,0.6,2.3c0.7,1.4,1.7,2.5,2.7,3.6
							c0.9,1.1,1.8,2.3,2.2,3.6c0.4,1.3,0.6,2.7,1.2,4c0.3,0.6,0.7,1.2,1.3,1.6c0.5,0.4,1.2,0.7,1.8,0.9c0.6,0.2,1.2,0.4,1.7,0.7
							c0.5,0.3,1,0.6,1.4,1c0.8,0.8,1.5,1.8,2,2.7c0.6,1,1.1,1.9,1.7,2.7c1.2,1.7,2.8,2.8,4.4,3.3c1.6,0.5,3,0.6,4.1,0.5
							c1.1-0.1,2-0.4,2.5-0.7c0.5-0.3,0.8-0.4,0.8-0.4c0-0.1-1.1,0.7-3.4,1c-1.1,0.1-2.5,0-4-0.5c-1.5-0.5-3.1-1.6-4.2-3.3
							c-0.6-0.8-1.1-1.8-1.6-2.7c-0.6-1-1.2-2-2.1-2.8c-0.4-0.4-1-0.8-1.5-1.1c-0.6-0.3-1.2-0.5-1.8-0.7c-0.6-0.2-1.2-0.5-1.7-0.8
							c-0.5-0.4-0.9-0.9-1.2-1.5c-0.6-1.2-0.8-2.6-1.2-3.9c-0.4-1.4-1.3-2.6-2.2-3.7c-0.9-1.1-2-2.2-2.6-3.6
							c-0.3-0.7-0.5-1.4-0.5-2.1c0-0.7,0.2-1.5,0.5-2.2c0.5-1.4,1.4-2.8,1.6-4.3c0.1-0.8,0-1.6-0.3-2.3c-0.3-0.7-0.7-1.4-1.1-2
							c-0.8-1.2-1.8-2.3-2.3-3.6c-0.3-0.6-0.4-1.3-0.4-2c0-0.7,0.2-1.3,0.4-1.9c0.5-1.2,1.2-2.3,1.7-3.5c0.5-1.2,0.8-2.5,0.4-3.7
							c-0.4-1.2-1.2-2.1-1.5-3.1c-0.4-1-0.2-2.1,0.3-2.9c0.5-0.9,1.1-1.6,1.6-2.4c0.5-0.8,0.9-1.6,0.9-2.4c0-0.8-0.2-1.6-0.3-2.3
							c-0.2-0.7-0.3-1.3-0.3-1.8c0.1-1.1,0.7-1.9,1.2-2.2C541.3,224,541.6,224.2,541.6,224.1z"/>
					</g>
				</g>
				<g>
					<g>
						<path class="st3" d="M673,255.4c0,0,0.3,0,1-0.1c0.6-0.1,1.6-0.4,2.7-1.1c1-0.7,2.2-1.9,2.7-3.7c0.5-1.7,0.4-4-0.9-6
							c-0.7-1-1.6-1.8-2.5-2.6c-0.9-0.9-1.9-1.8-2.3-3.1c-0.5-1.2-0.3-2.7,0.3-4c0.5-1.3,1.3-2.7,1.8-4.2c1-3,0.8-6.5-0.8-9.6
							c-1.6-3.1-4.6-5.5-8.3-6.4l0.1,0.3c0.6-0.8,1-1.8,1.1-2.7c0.1-1,0.1-2-0.1-3c-0.2-1-0.6-2-1.2-2.8c-0.6-0.9-1.3-1.6-2.1-2.3
							c-2.4-1.9-5.4-2.9-8.3-3.5c-2.9-0.6-5.8-0.8-8.5-0.5l0.2,0.2c0-3.4-2.1-6.5-4.9-7.9c-1.4-0.7-2.9-1-4.4-0.9
							c-1.5,0-2.9,0.6-4.2,1c-0.7,0.2-1.3,0.4-2,0.4c-0.7,0.1-1.3,0-1.9-0.2c-1.2-0.4-2.3-1.1-3.3-1.7c-1-0.6-2.1-1.2-3.2-1.5
							c-1.1-0.3-2.2-0.5-3.2-0.5c-2.1,0-3.9,0.5-5.3,1.3c-1.4,0.8-2.4,1.8-3.1,2.6c-0.7,0.9-1.1,1.6-1.4,2.2
							c-0.2,0.5-0.3,0.8-0.3,0.8c0,0,0.1-0.3,0.4-0.8c0.3-0.5,0.7-1.3,1.4-2.1c0.7-0.8,1.7-1.8,3.1-2.5c1.4-0.8,3.2-1.3,5.2-1.3
							c1,0,2.1,0.2,3.1,0.5c1.1,0.3,2.1,0.9,3.1,1.5c1,0.6,2.1,1.3,3.4,1.7c0.6,0.2,1.3,0.3,2,0.3c0.7,0,1.4-0.2,2-0.4
							c1.3-0.4,2.6-1,4.1-1c1.4-0.1,2.9,0.2,4.3,0.9c2.7,1.3,4.7,4.3,4.7,7.6l0,0.2l0.2,0c2.7-0.2,5.6-0.1,8.4,0.5
							c2.8,0.6,5.7,1.6,8.1,3.4c0.8,0.6,1.5,1.4,2,2.2c0.6,0.8,0.9,1.7,1.2,2.7c0.2,0.9,0.3,1.9,0.1,2.9c-0.2,0.9-0.5,1.8-1.1,2.6
							l-0.2,0.2l0.3,0.1c3.5,0.8,6.5,3.2,8,6.2c1.6,3,1.7,6.4,0.8,9.3c-0.5,1.5-1.2,2.8-1.7,4.1c-0.5,1.4-0.8,2.9-0.3,4.2
							c0.5,1.3,1.5,2.3,2.4,3.1c0.9,0.9,1.8,1.7,2.5,2.6c1.3,1.9,1.4,4.1,0.9,5.8c-0.5,1.7-1.6,2.9-2.6,3.6c-1,0.7-2,1-2.6,1.1
							C673.3,255.4,673,255.4,673,255.4z"/>
					</g>
				</g>
				<g>
					<g>
						<path class="st3" d="M537.3,215.4c0,0,0-0.1,0-0.2c0-0.2,0-0.4,0.1-0.7c0.1-0.6,0.2-1.6,0.3-2.7c0.1-1.2,0.3-2.6,0.7-4.3
							c0.4-1.6,0.9-3.5,1.8-5.4c0.9-1.9,2.2-3.9,4.1-5.5c1-0.8,2.1-1.5,3.3-1.9c1.2-0.5,2.6-0.7,4-1.1c1.4-0.3,2.8-0.8,4-1.7
							c1.2-0.9,2.3-2,3.3-3.2c1-1.2,2-2.4,3.1-3.5c1.1-1.1,2.4-2.1,3.9-2.7c2.9-1.4,6.1-1.7,9.2-1.8c3.1,0,6,0.1,8.8,0.5
							c5.6,0.7,10.4,2.3,14.2,4.3c3.8,1.9,6.5,4.2,8.2,5.8c0.4,0.4,0.8,0.8,1.1,1.1c0.3,0.3,0.5,0.6,0.7,0.9
							c0.2,0.2,0.3,0.4,0.5,0.5c0.1,0.1,0.2,0.2,0.2,0.2c0,0,0-0.1-0.1-0.2c-0.1-0.1-0.3-0.3-0.4-0.6c-0.2-0.3-0.4-0.6-0.7-0.9
							c-0.3-0.3-0.7-0.7-1.1-1.2c-1.7-1.7-4.3-4-8.1-6c-3.8-2-8.7-3.6-14.3-4.4c-2.8-0.4-5.8-0.6-8.9-0.5c-3.1,0.1-6.3,0.4-9.3,1.8
							c-1.5,0.7-2.8,1.7-4,2.8c-1.1,1.1-2.1,2.4-3.1,3.5c-1,1.2-2,2.3-3.2,3.1c-1.2,0.8-2.5,1.3-3.9,1.7c-1.4,0.3-2.7,0.6-4,1.1
							c-1.3,0.5-2.4,1.2-3.4,2c-1.9,1.7-3.3,3.7-4.2,5.6c-0.9,2-1.4,3.8-1.7,5.5c-0.3,1.7-0.5,3.1-0.6,4.3c-0.1,1.2-0.2,2.1-0.2,2.7
							c0,0.3,0,0.5,0,0.7C537.3,215.3,537.3,215.4,537.3,215.4z"/>
					</g>
				</g>
				<g>
					<g>
						<path class="st16" d="M592.6,268.2c-0.1-1.7-1.2-3.3-2.7-4c-1.6-0.7-3.6-0.3-4.7,1c-1.1,1.2-1.2,3.2-0.2,4.5
							c0.4,0.7,1.1,1.3,1.8,1.6c1,0.4,2,0.5,3.1,0.3c0.8-0.2,1.7-0.5,2.2-1.2C592.5,269.8,592.7,269,592.6,268.2z"/>
					</g>
				</g>
				<g>
					<g>
						<g>
							<g>
								<g>
									<g>
										<g>
											<g>
												<g>
													<g>
														<g>
															<path class="st3" d="M591,262.1c-0.5,0-0.2,3.2-2.7,5.7c-2.5,2.5-5.9,2.4-5.9,2.8c0,0.2,0.8,0.6,2.2,0.5
																c1.4-0.1,3.4-0.7,5-2.2c1.5-1.5,2.1-3.4,2.1-4.7C591.6,262.8,591.2,262,591,262.1z"/>
														</g>
													</g>
												</g>
											</g>
										</g>
									</g>
								</g>
							</g>
						</g>
					</g>
				</g>
			</g>
		</g>
		<path class="st7" d="M646.3,314.6l-24.6-9.3c0,0-18.9,11.3-33.5,8.9c-11.3-1.8-12.2-7.6-12.2-7.6l-13.6,2.2
			c0,0-20.6,17.1-24.9,34.6c-2.5,10.3-3.2,23.8-3.2,35.6c0,4.7,6,23.4,6,23.4l2.3,27.1l-11.4,45.1h118.9V349.8L646.3,314.6z"/>
		<polygon class="st7" points="513.3,389.1 496,345.9 545.6,311.4 562.3,308.8 558,370 		"/>
		<g>
			<path class="st3" d="M539.2,397.3c0,0-0.1-0.2-0.3-0.6c-0.2-0.4-0.5-1-0.8-1.8c-0.7-1.6-1.5-3.9-2.2-6.8
				c-1.5-5.8-2.4-14.2-1.5-23.4c0.8-9.2,2.8-17.3,4.3-23.1c0.8-2.9,1.4-5.3,1.9-6.9c0.2-0.8,0.4-1.4,0.5-1.9
				c0.1-0.4,0.2-0.6,0.2-0.6c0,0,0,0.2-0.1,0.7c-0.1,0.5-0.3,1.1-0.4,1.9c-0.4,1.7-1,4-1.7,6.9c-1.4,5.8-3.3,13.9-4.1,23
				c-0.8,9.1-0.1,17.4,1.4,23.2c0.7,2.9,1.4,5.2,2,6.8c0.3,0.8,0.5,1.4,0.7,1.8C539.1,397.1,539.2,397.3,539.2,397.3z"/>
		</g>
		<g class="st11">
			<path d="M533.5,373.4l1.1-0.8c-0.1-13.1,2.1-27,6.4-39.4C533,345.1,529.6,360.1,533.5,373.4z"/>
		</g>
		<path class="st11" d="M567.6,367.5c0,0,17.1,63.1,26.6,74.7c9.5,11.6,14.7,15,29.3,16.2c14.7,1.2,20.1-15.8,23.3-22.4
			c3.3-6.6,2.7-16.5,2.7-16.5l-20-11.2l-15.8,26l-40.7-68L567.6,367.5z"/>
		<g>
			<g>
				<path class="st14" d="M570.3,375.7c0,0,17.4,40.4,29.8,63.6c10.5,19.6,32,17.4,38.9,6.5c6.8-10.9,18.2-43.6,18.2-43.6l-36.3-6.4
					l-4,11.5l-27.5-35.1L570.3,375.7z"/>
				<path class="st14" d="M599.9,369.9l-2.7-12.1c0,0-1.2-3.3-3.2-0.4c-2,2.9-1.1,8.5-1.1,8.5s-3.8-28.7-7.1-31.9
					c-1.2-1.1-2.9,0.4-2.9,0.4s-0.4-5.6-2.1-5.6c-1.8,0-3.4,4.2-3.4,4.2s-2.2-1.2-3.9,0.9c-1.5,1.9-1.6,17.5-1.6,17.5
					s-1.5-12.9-3.8-13.7c-3.7-1.3-3.7,3.6-3.7,3.6l1.1,16.8c0,0,2,11.4,4.6,18.6c2.5,7.2,4,7.3,4,7.3l16.6-0.4c0,0,3.7-3.4,6.7-6.1
					C599.6,375.6,600.6,372.7,599.9,369.9z"/>
				<g>
					<path class="st16" d="M628,423.6c0,0-0.1-0.2-0.3-0.5c-0.2-0.4-0.4-0.9-0.7-1.5c-0.4-0.6-0.8-1.4-1.3-2.2
						c-0.5-0.9-1.2-1.8-1.9-2.9c-2.9-4.2-7.2-9.7-12.1-15.7c-4.9-6-9.5-11.4-12.7-15.3c-1.6-2-2.9-3.6-3.7-4.8
						c-0.4-0.5-0.7-1-0.9-1.3c-0.2-0.3-0.3-0.5-0.3-0.5c0,0,0.1,0.1,0.4,0.4c0.3,0.3,0.6,0.8,1,1.3c0.9,1.1,2.2,2.7,3.8,4.6
						c3.3,3.9,7.9,9.2,12.8,15.2c4.9,6,9.2,11.6,12,15.8c0.7,1.1,1.3,2.1,1.8,2.9c0.5,0.9,0.9,1.7,1.2,2.3c0.3,0.6,0.5,1.1,0.6,1.5
						C628,423.4,628,423.6,628,423.6z"/>
				</g>
				<g>
					<path class="st7" d="M642.3,313.6c0,0,19.8,4,24.8,26.5c4.6,20.6,3.2,64.4,3.2,64.4l-53.9-9.5l13.1-74.8L642.3,313.6z"/>
					<g>
						<path class="st3" d="M623.9,349.3c0,0,0,0.1,0,0.2c0,0.2-0.1,0.4-0.1,0.7c-0.1,0.6-0.2,1.5-0.4,2.7c-0.4,2.3-0.9,5.7-1.6,9.8
							c-1.4,8.3-3.3,19.7-5.3,32.4l-0.2-0.3c0.6,0.1,1.2,0.2,1.8,0.3c13.1,2.4,24.9,4.5,33.5,6c4.2,0.8,7.7,1.4,10.1,1.9
							c1.2,0.2,2.1,0.4,2.7,0.5c0.3,0.1,0.5,0.1,0.7,0.2c0.2,0,0.2,0.1,0.2,0.1c0,0-0.1,0-0.2,0c-0.2,0-0.4-0.1-0.7-0.1
							c-0.7-0.1-1.6-0.3-2.8-0.4c-2.4-0.4-5.9-1-10.2-1.7c-8.6-1.5-20.4-3.6-33.5-5.9c-0.6-0.1-1.2-0.2-1.8-0.3l-0.3,0l0-0.3
							c2.2-12.7,4.1-24.1,5.5-32.3c0.7-4.1,1.3-7.4,1.7-9.7c0.2-1.1,0.4-2,0.5-2.6c0.1-0.3,0.1-0.5,0.1-0.7
							C623.9,349.4,623.9,349.3,623.9,349.3z"/>
					</g>
					<g>
						<path class="st3" d="M627,342.1c0,0,0.1-0.5,0.4-1.3c0.3-0.8,0.7-2,1.4-3.4c1.2-2.8,3.1-6.8,6.5-10.2c1.7-1.7,3.6-3,5.5-3.8
							c1.9-0.9,3.7-1.4,5.2-1.7c1.5-0.3,2.8-0.4,3.7-0.4c0.9,0,1.4,0,1.3,0.1c0,0.1-1.9,0-4.9,0.7c-3,0.6-7.1,2.2-10.4,5.5
							c-3.3,3.3-5.2,7.3-6.5,10c-0.6,1.3-1.1,2.5-1.5,3.3C627.2,341.7,627,342.2,627,342.1z"/>
					</g>
				</g>
			</g>
			<g>
				<path class="st16" d="M577.2,354c-0.1,0-0.2-1.2-0.3-3.1c-0.1-1.9-0.2-4.5-0.2-7.4c0-2.9,0.1-5.5,0.3-7.4c0.2-1.9,0.4-3,0.5-3
					c0.1,0,0,1.2-0.1,3.1c-0.1,1.9-0.2,4.5-0.1,7.4c0,2.8,0,5.3,0.1,7.4C577.3,352.8,577.3,354,577.2,354z"/>
			</g>
			<g>
				<path class="st16" d="M582.7,334.7c0.1,0,0.1,1,0.2,2.5c0,1.5,0.1,3.7,0.2,6c0.1,2.3,0.3,4.5,0.4,6c0.1,1.5,0.2,2.5,0.1,2.5
					c-0.1,0-0.3-0.9-0.5-2.5c-0.2-1.5-0.4-3.7-0.5-6c-0.1-2.4-0.1-4.5-0.1-6C582.5,335.6,582.6,334.7,582.7,334.7z"/>
			</g>
		</g>
	</g>
	<g>
		<g>
			<path class="st7" d="M210.5,218.8c-1.3-8.9-3.5-18.6-9.4-25.4c-4.2-4.9-8.4-8.7-14-12.1c-5.9-3.6-11.2-4.8-17.5-5.4l-4.2,3.7
				c13.4,3.2,25,12.5,31.8,24.5c6.8,11.9,9,26.3,6.8,39.9c-1.5,8.9-4.7,17.4-7.1,26c-2.5,8.7-4.1,17.8-2.4,26.7
				c7.3-2.9,5.3,2,8.4-5.3c3.1-7.2,4.7-23.2,6.5-30.9C212.3,247.8,212.3,231,210.5,218.8z"/>
			<g>
				<g>
					<path class="st3" d="M203.3,199c-11.3-17.5-37.6-22.9-37.6-22.9c-38.5-2.8-45.4,26.8-49.3,53.8c-2.4,16.8,6.5,69.1,6.5,69.1
						l9.4,3.4l62,0c0-1.1,4.4-10.6,5.5-13.7C205.5,260.6,209.9,209.3,203.3,199z"/>
					<polygon class="st3" points="205,291.4 205,291.3 205,291.4 					"/>
				</g>
				<path class="st15" d="M171.2,186.1l-2.4-2.3l-26,10.5c-3.8,0.2-6.7,3.3-6.9,7l0.2,84.8c0,5.8,1.1,10.7,4.6,15.3l3.7,4.8
					c8.3,11,25.5,10.1,32.1-2c0.5-0.8,0.8-1.6,0.9-2.2c0.1-0.8,0.3-1.3,0.4-1.9c0.8-6.8,0.8-12.7,0.8-12.7
					c0.5-7.5,0.6-10.6,0.6-10.5c0,0,15.9-1.8,20.3-22.3c2.1-10.2,1.7-24.2,1.1-38C199.8,197.6,186.6,186.1,171.2,186.1z"/>
				<g>
					<g>
						<g>
							<g>
								<g>
									<g>
										<g>
											<g>
												<g>
													<g>
														<g>
															<g>
																<g>
																	<g>
																		<g>
																			<path class="st3" d="M166.5,229.4c0,1.4-1.2,2.5-2.7,2.5c-1.5,0-2.6-1.1-2.6-2.5c0-1.4,1.2-2.5,2.7-2.5
																				C165.4,226.9,166.5,228,166.5,229.4z"/>
																		</g>
																	</g>
																</g>
															</g>
														</g>
													</g>
												</g>
											</g>
										</g>
									</g>
								</g>
							</g>
						</g>
					</g>
					<g>
						<g>
							<g>
								<g>
									<g>
										<g>
											<g>
												<g>
													<g>
														<g>
															<g>
																<g>
																	<g>
																		<g>
																			<path class="st3" d="M192.7,230.3c0,1.4-1.2,2.5-2.7,2.5c-1.5,0-2.6-1.1-2.6-2.5c0-1.4,1.2-2.5,2.7-2.5
																				C191.6,227.8,192.8,228.9,192.7,230.3z"/>
																		</g>
																	</g>
																</g>
															</g>
														</g>
													</g>
												</g>
											</g>
										</g>
									</g>
								</g>
							</g>
						</g>
					</g>
					<g>
						<g>
							<g>
								<g>
									<g>
										<g>
											<g>
												<g>
													<g>
														<g>
															<g>
																<g>
																	<g>
																		<g>
																			<g>
																				<path class="st3" d="M197.9,222.1c-0.3,0.3-2.3-1.3-5.1-1.4c-2.8-0.2-5,1.2-5.3,0.8c-0.1-0.2,0.2-0.8,1.2-1.4
																					c0.9-0.6,2.5-1.2,4.3-1.1c1.8,0.1,3.2,0.8,4.1,1.5C197.8,221.4,198.1,222,197.9,222.1z"/>
																			</g>
																		</g>
																	</g>
																</g>
															</g>
														</g>
													</g>
												</g>
											</g>
										</g>
									</g>
								</g>
							</g>
						</g>
					</g>
				</g>
				<g>
					<g>
						<g>
							<g>
								<g>
									<g>
										<g>
											<g>
												<g>
													<g>
														<g>
															<g>
																<g>
																	<g>
																		<g>
																			<g>
																				<path class="st3" d="M169,222.4c-0.4,0.3-2.1-1.5-5-1.9c-2.8-0.5-5.1,0.7-5.4,0.3c-0.1-0.2,0.3-0.7,1.3-1.3
																					c1-0.5,2.6-0.9,4.3-0.6c1.8,0.3,3.1,1.2,3.9,1.9C169,221.6,169.2,222.3,169,222.4z"/>
																			</g>
																		</g>
																	</g>
																</g>
															</g>
														</g>
													</g>
												</g>
											</g>
										</g>
									</g>
								</g>
							</g>
						</g>
					</g>
				</g>
				<g>
					<g>
						<g>
							<g>
								<g>
									<g>
										<g>
											<g>
												<g>
													<g>
														<g>
															<g>
																<g>
																	<g>
																		<g>
																			<path class="st3" d="M179,243.2c0-0.2,1.8-0.4,4.7-0.6c0.7,0,1.4-0.1,1.6-0.6c0.2-0.5-0.1-1.3-0.4-2.2
																				c-0.6-1.8-1.2-3.7-1.9-5.6c-2.6-8-4.4-14.6-4.1-14.7c0.3-0.1,2.7,6.3,5.3,14.4c0.6,2,1.2,3.9,1.8,5.7
																				c0.2,0.8,0.7,1.8,0.2,2.9c-0.2,0.5-0.8,0.9-1.2,1c-0.5,0.1-0.9,0.1-1.2,0.1C180.7,243.4,179,243.3,179,243.2z"/>
																		</g>
																	</g>
																</g>
															</g>
														</g>
													</g>
												</g>
											</g>
										</g>
									</g>
								</g>
							</g>
						</g>
					</g>
				</g>
				<g>
					<g>
						<g>
							<g>
								<g>
									<g>
										<g>
											<g>
												<g>
													<g>
														<g>
															<g>
																<g>
																	<g>
																		<path class="st17" d="M179.2,276.9c0,0-13.9,0.2-27.3-8.8c0,0,6.2,14.6,27,13.7L179.2,276.9z"/>
																	</g>
																</g>
															</g>
														</g>
													</g>
												</g>
											</g>
										</g>
									</g>
								</g>
							</g>
						</g>
					</g>
				</g>
				<g>
					<g>
						<g>
							<g>
								<g>
									<g>
										<g>
											<g>
												<g>
													<g>
														<g>
															<g>
																<g>
																	<g>
																		<path class="st17" d="M177.4,250c-1-1.4-2.7-2.2-4.5-2.1c-1.2,0.1-2.5,0.6-3.3,1.6c-0.8,1-1,2.4-0.4,3.4
																			c0.7,1.1,2.3,1.4,3.7,1.1c1.4-0.3,2.6-1.2,3.7-2c0.3-0.2,0.6-0.5,0.9-0.8c0.2-0.3,0.3-0.8,0-1.1"/>
																	</g>
																</g>
															</g>
														</g>
													</g>
												</g>
											</g>
										</g>
									</g>
								</g>
							</g>
						</g>
					</g>
				</g>
				<g>
					<g>
						<g>
							<g>
								<g>
									<g>
										<g>
											<g>
												<g>
													<g>
														<g>
															<g>
																<g>
																	<g>
																		<g>
																			<path class="st3" d="M170.5,244.7c0.5,0,0.3,3.1,2.9,5.4c2.5,2.3,5.8,2.2,5.8,2.6c0,0.2-0.8,0.6-2.2,0.5
																				c-1.4,0-3.3-0.6-4.9-2c-1.5-1.4-2.2-3.3-2.2-4.5C169.9,245.4,170.3,244.7,170.5,244.7z"/>
																		</g>
																	</g>
																</g>
															</g>
														</g>
													</g>
												</g>
											</g>
										</g>
									</g>
								</g>
							</g>
						</g>
					</g>
				</g>
				<g>
					<g>
						<g>
							<g>
								<g>
									<g>
										<g>
											<g>
												<g>
													<g>
														<g>
															<path class="st3" d="M171.7,211.3c-0.4,0.7-3.2-0.1-6.5-0.2c-3.4-0.2-6.2,0.4-6.5-0.4c-0.1-0.4,0.4-1,1.6-1.6
																c1.2-0.6,3-1,5-0.9c2,0.1,3.8,0.7,4.9,1.4C171.4,210.3,171.9,211,171.7,211.3z"/>
														</g>
													</g>
												</g>
											</g>
										</g>
									</g>
								</g>
							</g>
						</g>
					</g>
				</g>
				<g>
					<g>
						<g>
							<g>
								<g>
									<g>
										<g>
											<g>
												<g>
													<g>
														<g>
															<path class="st3" d="M197.5,209.9c-0.5,0.6-2.5-0.1-4.8-0.3c-2.4-0.2-4.4,0.2-4.8-0.5c-0.2-0.3,0.2-1,1.1-1.5
																c0.9-0.6,2.4-1,4-0.9c1.6,0.1,3,0.8,3.8,1.5C197.5,208.9,197.7,209.6,197.5,209.9z"/>
														</g>
													</g>
												</g>
											</g>
										</g>
									</g>
								</g>
							</g>
						</g>
					</g>
				</g>
				<path class="st3" d="M136.4,237.5c0,0,14.6,4.5,22.8-31.4c2.8-12.3,14.2-22.3,14.2-22.3l-4.6-1.4c0,0-28.8,8.1-29.2,8.5
					c-0.5,0.4-7.3,14.9-7.3,14.9L136.4,237.5z"/>
				<g>
					<g>
						<g>
							<path class="st15" d="M140,236.2c0.1-1.5-1.5-5.2-3-5.6c-4-0.8-11.3-0.9-11.9,9.4c-0.8,14.1,13.5,12,13.5,11.6
								C138.7,251.3,139.8,241.5,140,236.2z"/>
						</g>
					</g>
				</g>
				<g>
					<g>
						<g>
							<g>
								<path class="st17" d="M134.6,246c-0.1,0-0.3,0.2-0.7,0.3c-0.4,0.2-1.1,0.3-1.8-0.1c-1.5-0.6-2.6-3.1-2.5-5.6
									c0-1.3,0.4-2.5,0.9-3.5c0.5-1,1.2-1.7,1.9-1.8c0.8-0.1,1.3,0.3,1.4,0.8c0.2,0.4,0.1,0.7,0.1,0.7c0,0,0.3-0.2,0.2-0.8
									c0-0.3-0.2-0.6-0.5-0.9c-0.3-0.3-0.8-0.5-1.3-0.4c-1.1,0-2.1,1-2.7,2c-0.6,1.1-1,2.4-1.1,3.9c-0.1,2.8,1.2,5.6,3.2,6.3
									c1,0.3,1.8,0.1,2.3-0.2C134.6,246.4,134.7,246.1,134.6,246z"/>
							</g>
						</g>
					</g>
				</g>
				<path class="st3" d="M146.3,230.7c0,0,0.8,0,2.1-0.4c1.3-0.4,3.2-1.2,5-2.9c0.9-0.8,1.8-1.9,2.6-3.1c0.8-1.2,1.5-2.6,2.1-4.1
					c1.2-3,2-6.6,3-10.2c1-3.7,2.1-7.1,3.2-10.2c1.2-3.1,2.4-5.8,3.7-7.9c1.2-2.2,2.4-3.8,3.2-4.9c0.4-0.6,0.8-1,1-1.2
					c0.2-0.3,0.4-0.4,0.4-0.4c0,0-0.1,0.2-0.3,0.5c-0.2,0.3-0.6,0.7-0.9,1.3c-0.8,1.1-1.9,2.8-3.1,5c-1.2,2.2-2.4,4.9-3.6,7.9
					c-1.2,3.1-2.2,6.5-3.2,10.2c-1,3.7-1.8,7.2-3.1,10.3c-0.6,1.5-1.4,2.9-2.2,4.2c-0.8,1.2-1.8,2.2-2.7,3.1
					c-1.9,1.7-3.8,2.5-5.1,2.8C147.1,230.7,146.3,230.7,146.3,230.7z"/>
				<path class="st10" d="M124.6,289.3c0,0,0.3-1.7,0.3-4.9c0-3.2-0.4-7.8-1.4-13.4c-0.5-2.8-1.1-5.8-1.6-9.1
					c-0.6-3.3-1.1-6.8-1.3-10.5c-0.2-3.7-0.1-7.7,0.9-11.6c0.5-2,1.1-3.9,2-5.8c0.9-1.9,2-3.7,3.3-5.4c2.6-3.4,5.8-6.2,8.9-8.9
					c3.1-2.7,6-5.3,8.7-8c5.3-5.3,9.5-10.7,12.6-15.4c3.2-4.7,5.4-8.7,6.9-11.5c0.7-1.4,1.3-2.5,1.6-3.3c0.2-0.4,0.3-0.7,0.4-0.9
					c0.1-0.2,0.1-0.3,0.1-0.3c0,0-0.1,0.1-0.2,0.3c-0.1,0.2-0.2,0.5-0.4,0.8c-0.4,0.8-0.9,1.8-1.7,3.2c-1.5,2.8-3.7,6.8-6.9,11.5
					c-3.2,4.7-7.4,10-12.7,15.3c-2.6,2.7-5.6,5.3-8.7,7.9c-3.1,2.7-6.2,5.5-8.9,9c-1.3,1.7-2.5,3.5-3.4,5.5c-0.9,1.9-1.5,3.9-2,5.9
					c-0.9,4-1,8-0.8,11.7c0.2,3.8,0.7,7.3,1.3,10.6c0.6,3.3,1.2,6.3,1.7,9.1c1,5.6,1.5,10.1,1.5,13.3c0,1.6,0,2.8-0.1,3.6
					c0,0.4,0,0.7-0.1,0.9C124.6,289.2,124.6,289.3,124.6,289.3z"/>
				<path class="st10" d="M120,290.6c0,0,0.3-1.7,0.3-4.9c0-3.2-0.4-7.8-1.4-13.4c-0.5-2.8-1.1-5.8-1.6-9.1
					c-0.6-3.3-1.1-6.8-1.3-10.5c-0.2-3.7-0.1-7.7,0.9-11.6c0.5-2,1.1-3.9,2-5.8c0.9-1.9,2-3.7,3.3-5.4c2.6-3.4,5.8-6.2,8.9-8.9
					c3.1-2.7,6-5.3,8.7-8c5.3-5.3,9.5-10.7,12.6-15.4c3.2-4.7,5.4-8.7,6.9-11.5c0.7-1.4,1.3-2.5,1.6-3.3c0.2-0.4,0.3-0.7,0.4-0.9
					c0.1-0.2,0.1-0.3,0.1-0.3c0,0-0.1,0.1-0.2,0.3c-0.1,0.2-0.2,0.5-0.4,0.8c-0.4,0.8-0.9,1.8-1.7,3.2c-1.5,2.8-3.7,6.8-6.9,11.5
					c-3.2,4.7-7.4,10-12.7,15.3c-2.6,2.7-5.6,5.3-8.7,7.9c-3.1,2.7-6.2,5.5-8.9,9c-1.3,1.7-2.5,3.5-3.4,5.5c-0.9,1.9-1.5,3.9-2,5.9
					c-0.9,4-1,8-0.8,11.7c0.2,3.8,0.7,7.3,1.3,10.6c0.6,3.3,1.2,6.3,1.7,9.1c1,5.6,1.5,10.1,1.5,13.3c0,1.6,0,2.8-0.1,3.6
					c0,0.4,0,0.7-0.1,0.9C120,290.5,120,290.6,120,290.6z"/>
			</g>
			<path class="st3" d="M99.7,474.5c0,0-1.3-11.7,6.2-31.3c6.1-16,13.3-24.9,13.3-24.9l97-6.4l7.5,62.5H99.7z"/>
			<g>
				<path class="st1" d="M215.1,375.6c1.4-21.6,0-54.3,0-54.3l-16-26.9l-21.1-3.3c0,0-0.1,14.8-11.1,17.2
					c-18.9,4.2-31.2-18.5-31.2-18.5c-1.8,0-28.6,5.6-37.1,13.7c-8.7,8.3-23.2,30.4-27.3,36.7l0,0c0,0-28.3,41.3-32.4,52.6
					c-3.1,8.6-0.2,15.1,1.4,17.8c0.9,2.6,27,40.1,47.3,55.1l1.6-3l10.5-18L72.4,400l31.6-33.3l6.2-5.8l1.8,7.9l7.7,36.9
					c0,0-15.3,30.5-17.4,46.4c0,0,75,25.9,121.3,13.1C223.6,465.1,213.7,397.2,215.1,375.6z"/>
				<g>
					<g>
						<g>
							<g>
								<path class="st15" d="M136.2,436.6c0,0-12.7-3.4-14-2.7c-1.3,0.7-10.8,5.7-10.8,5.7s-2.9,3.6-4.5,4.8c0,0-3.3,3.1-5.5,3.2
									c-2.2,0.1-3.6-0.4-3.6-0.4l-8.8,15.5c0,0,5.2,5,8,4.9c2.8,0,18.1-6.5,18.1-6.5l3.7-0.8c0,0,13.9,2,15-2.2l0.1-1.2l-13.6-2.7
									l-5.2,0.3l9.2-2.4c0,0,13,0.6,14.2,0.4c1.2-0.2,2.8-1.9,2.4-3l-2.7-0.6c0,0,3.2-1.7,3.2-3.6l-12-3.3
									C129.5,442.2,137.3,439.3,136.2,436.6z"/>
							</g>
						</g>
					</g>
					<g>
						<g>
							<g>
								<g>
									<path class="st17" d="M139.7,449c0,0-0.4-0.1-1.1-0.3c-0.7-0.2-1.7-0.5-3-0.8c-2.5-0.7-6-1.5-9.9-2.3
										c-0.5-0.1-1-0.2-1.4-0.3c-0.5,0-0.9,0-1.3,0.1c-0.9,0.2-1.7,0.5-2.6,0.8c-1.6,0.6-3.1,1.1-4.3,1.6c-1.2,0.5-2.1,1-2.8,1.3
										c-0.6,0.3-1,0.6-1,0.5c0,0,0.3-0.3,0.9-0.7c0.6-0.4,1.5-1,2.7-1.5c1.2-0.6,2.6-1.2,4.3-1.8c0.8-0.3,1.7-0.6,2.6-0.9
										c0.5-0.1,1-0.2,1.5-0.1c0.5,0,1,0.2,1.5,0.3c3.9,0.9,7.4,1.8,9.9,2.5c1.3,0.4,2.3,0.7,2.9,1
										C139.3,448.8,139.7,449,139.7,449z"/>
								</g>
							</g>
						</g>
					</g>
					<g>
						<g>
							<g>
								<g>
									<path class="st17" d="M129.8,442.8c0,0.1-1-0.4-2.6-0.9c-1.6-0.5-3.9-0.9-6.4-0.5c-2.5,0.4-4.6,1.4-6,2.3
										c-1.4,0.9-2.1,1.7-2.2,1.6c0,0,0.6-0.9,1.9-2c1.4-1,3.5-2.2,6.2-2.6c2.6-0.4,5,0.1,6.6,0.7
										C129,442.1,129.8,442.7,129.8,442.8z"/>
								</g>
							</g>
						</g>
					</g>
				</g>
				<polygon class="st1" points="280.3,346.2 230.8,309.4 212.3,297.2 198.6,294.4 204.4,352.1 217.2,352.1 272.4,376.1 340,381.9 
					341,360.9 				"/>
				<g>
					<path class="st3" d="M216,400.9c0,0,0-0.3-0.1-0.9c0-0.6-0.1-1.4-0.1-2.5c-0.1-2.1-0.2-5.2-0.2-9c-0.1-3.8-0.1-8.4-0.1-13.4
						c0-5,0-10.6,0-16.4c0-11.7-2.2-22-3.9-29.4c-0.9-3.7-1.6-6.7-2.1-8.8c-0.2-1-0.4-1.8-0.6-2.4c-0.1-0.5-0.2-0.8-0.2-0.8
						c0,0,0.1,0.3,0.3,0.8c0.2,0.6,0.4,1.4,0.7,2.4c0.6,2.1,1.4,5,2.3,8.7c1.8,7.4,4.1,17.8,4.1,29.5c0.1,5.8,0,11.4,0,16.4
						c0,5,0,9.6,0,13.4c0,3.8,0.1,6.9,0.1,9c0,1,0,1.9,0,2.5C216,400.6,216,400.9,216,400.9z"/>
				</g>
				<g class="st11">
					<path d="M215.7,353.2c4.1-14.9,0-31.8-10.6-43.1c5.6,13.5,9.2,27.7,10.8,42.2"/>
				</g>
			</g>
			<path class="st7" d="M174.9,176.5c-31,2.8-32.2,40.7-36.3,70.6c-5.9,42.7,25.4,51.9,25.4,51.9l-38.8-7.3c0,0-21.2-8.6-21.1-32.2
				c0.2-23.6,3.9-52.4,28.6-74.3C153.9,166.2,172.9,175.2,174.9,176.5z"/>
			<path class="st7" d="M205,289.8c-2.3-2.1-1.4-2.9-8.1-3.5c-7.6-0.7-16,4.1-23.5,5.1c-7.5,1-15.6,0-21.9-4.2
				c-7.4-4.9-11.5-13.5-15.2-21.6l-18.2,15c-3.5,2.9-5.6,7.3-5.5,11.8c0,1,0.2,1.8,0.4,2.2c1.1,1.6,8.9-2.2,10.4-1.1
				c8.3,5.8,11.9,15.1,19.5,21.8c8.9,7.9,17.2,14.1,23.5,13.9c6.2-0.2,17.9-6.9,22.1-14.6c3.8-7.1,7.2-12.3,10.2-17.8
				c1.6-2.9,7.1,1.2,7.8-2.2C207,292.9,206.4,291,205,289.8z"/>
			<g>
				<path class="st3" d="M104,334.3c0,0,0.1,0.2,0.2,0.7c0.1,0.5,0.3,1.2,0.5,2.1c0.5,1.9,1.1,4.4,1.9,7.6
					c1.6,6.4,3.6,15.3,5.9,25.2c2.2,9.8,4.1,18.8,5.4,25.3c0.6,3.2,1.1,5.9,1.4,7.7c0.1,0.9,0.2,1.6,0.3,2.1
					c0.1,0.5,0.1,0.7,0.1,0.7c0,0-0.1-0.2-0.2-0.7c-0.1-0.5-0.2-1.2-0.4-2.1c-0.4-1.9-0.9-4.5-1.6-7.7c-1.4-6.5-3.3-15.4-5.5-25.2
					c-2.2-9.8-4.2-18.7-5.7-25.2c-0.7-3.2-1.3-5.8-1.7-7.6c-0.2-0.9-0.3-1.6-0.4-2.1C104,334.6,104,334.3,104,334.3z"/>
			</g>
			<g>
				<path class="st3" d="M205,293.7c0,0-0.1,0.1-0.2,0.1c-0.2,0.1-0.4,0.2-0.6,0.4c-0.6,0.3-1.3,0.8-2.5,1.3
					c-2.2,1.1-5.4,2.3-9.6,3.2c-4.2,1-9.3,1.6-15,1.7c-5.7,0.2-11.9-0.1-18.5-0.5c-3.3-0.2-6.5-0.5-9.5-1c-3.1-0.5-6-1.1-8.7-1.8
					c-5.5-1.5-10.3-3.3-14.2-5.2c-3.9-1.9-6.8-3.7-8.8-5.1c-1-0.7-1.7-1.3-2.2-1.6c-0.2-0.2-0.4-0.3-0.6-0.4
					c-0.1-0.1-0.2-0.2-0.2-0.2c0,0,0.1,0,0.2,0.1c0.2,0.1,0.4,0.2,0.6,0.4c0.5,0.3,1.3,0.9,2.3,1.6c2,1.3,5,3.1,8.8,5
					c3.9,1.9,8.7,3.6,14.1,5.1c2.7,0.7,5.7,1.3,8.7,1.8c3,0.5,6.2,0.8,9.5,1c6.5,0.4,12.8,0.7,18.4,0.6c5.7-0.1,10.7-0.7,14.9-1.6
					c4.2-0.9,7.5-2,9.6-3.1c1.1-0.4,1.9-0.9,2.5-1.2c0.3-0.1,0.5-0.2,0.6-0.3C205,293.7,205,293.7,205,293.7z"/>
			</g>
			<g>
				<path class="st3" d="M145.6,297.8c0,0-0.1,0-0.2-0.1c-0.1-0.1-0.3-0.2-0.6-0.4c-0.5-0.4-1.2-0.9-2.1-1.6c-0.9-0.7-2-1.6-3.2-2.6
					c-0.6-0.5-1.3-1.1-1.9-1.7c-0.7-0.6-1.4-1.3-2.1-2c-2.9-2.8-6.2-6.4-9-11c-2.8-4.6-4.9-10.3-5.1-16.6c-0.2-6.2,1-12.1,2.4-17.3
					c1.4-5.2,2.9-9.8,4.1-13.6c1.2-3.8,2.2-6.9,2.8-9.1c0.3-1,0.6-1.9,0.8-2.5c0.1-0.3,0.2-0.5,0.2-0.6c0-0.1,0.1-0.2,0.1-0.2
					c0,0,0,0.1,0,0.2c0,0.2-0.1,0.4-0.2,0.7c-0.2,0.6-0.4,1.5-0.7,2.5c-0.6,2.2-1.5,5.3-2.7,9.2c-1.2,3.9-2.6,8.5-4,13.6
					c-1.3,5.2-2.5,11-2.3,17.1c0.2,6.1,2.2,11.8,4.9,16.4c2.8,4.6,6,8.1,8.9,11c0.7,0.7,1.4,1.4,2.1,2c0.7,0.6,1.3,1.2,1.9,1.7
					c1.2,1,2.3,2,3.1,2.7c0.9,0.7,1.5,1.2,2,1.6c0.2,0.2,0.4,0.3,0.5,0.4C145.5,297.7,145.6,297.8,145.6,297.8z"/>
			</g>
			<g>
				<path class="st3" d="M174.9,176.5c0,0.1-1.6,0.2-4.1,0.9c-1.3,0.3-2.7,0.9-4.2,1.6c-1.5,0.8-3.2,1.7-4.8,2.8
					c-3.2,2.3-5.9,4.7-7.7,6.6c-1.8,1.9-2.9,3.1-3,3c0,0,0.2-0.4,0.7-0.9c0.5-0.6,1.1-1.4,2-2.3c1.8-1.9,4.4-4.5,7.7-6.8
					c1.7-1.1,3.3-2.1,4.9-2.8c1.6-0.7,3.1-1.3,4.3-1.6c0.6-0.2,1.2-0.3,1.7-0.4c0.5-0.1,1-0.2,1.3-0.2
					C174.4,176.5,174.9,176.5,174.9,176.5z"/>
			</g>
			<g class="st11">
				<path d="M135.2,208.9c0.2-0.9,0.5-1.9,0.6-2.9c0.2-1.8-2.4-2.4-3-0.7c-2,5.4-4.1,10.9-6.1,16.3c-4,10.7-8.1,21.7-8.4,33.2
					c-0.2,11.5,3.4,24.2,13.1,30.3l-2.8-5c-7.3-10-7.5-23.7-4.7-35.8C126.7,232.3,132.1,220.9,135.2,208.9z"/>
			</g>
			<g>
				<path class="st3" d="M205.6,296.5c0,0,0.2-0.5,0.5-1.3c0.2-0.9,0.3-2.2-0.3-3.7c-0.6-1.5-1.9-3-3.8-3.9c-1.9-0.9-4.3-1.2-6.7-1
					c-2.5,0.2-4.8,0.7-6.9,1.2c-2.1,0.5-4,1-5.5,1.5c-1.6,0.5-2.8,0.9-3.7,1.2c-0.9,0.3-1.3,0.5-1.4,0.4c0,0,0.4-0.3,1.3-0.6
					c0.8-0.4,2.1-0.8,3.6-1.3c1.6-0.5,3.4-1.1,5.5-1.6c2.1-0.5,4.4-1,6.9-1.2c2.5-0.2,5,0.1,7,1.1c2,1,3.4,2.6,4,4.2
					c0.6,1.6,0.5,3,0.2,3.9c-0.1,0.4-0.3,0.8-0.4,1C205.7,296.4,205.6,296.5,205.6,296.5z"/>
			</g>
		</g>
		<g class="st11">
			<path d="M195.3,298.3c-11.8,5.3-25.2,7.2-38,5.6c-12.9-1.7-23.6-5.4-33.7-13.5c0,0,16.1,9.3,41.1,9.5
				C185.5,300,195.3,298.3,195.3,298.3z"/>
		</g>
	</g>
</g>
</svg>
